%TF.GenerationSoftware,KiCad,Pcbnew,10.0.4*%
%TF.CreationDate,2026-09-03T17:10:17-04:00*%
%TF.ProjectId,ESP32S3_RF_DevBoard,45535033-3253-4335-9f52-465f44657642,rev?*%
%TF.SameCoordinates,Original*%
%TF.FileFunction,Drillmap*%
%TF.FilePolarity,Positive*%
%FSLAX45Y45*%
G04 Gerber Fmt 4.5, Leading zero omitted, Abs format (unit mm)*
G04 Created by KiCad (PCBNEW 10.0.4) date 2026-09-03 17:10:17*
%MOMM*%
%LPD*%
G01*
G04 APERTURE LIST*
%ADD10C,0.050000*%
%ADD11C,0.200000*%
%ADD12C,0.100000*%
G04 APERTURE END LIST*
D10*
X14010000Y-6760000D02*
X16550000Y-6760000D01*
X16550000Y-12760000D01*
X14010000Y-12760000D01*
X14010000Y-6760000D01*
D11*
D12*
X14980000Y-7601000D02*
X15000000Y-7621000D01*
X15000000Y-7601000D02*
X14980000Y-7621000D01*
X14980000Y-7741000D02*
X15000000Y-7761000D01*
X15000000Y-7741000D02*
X14980000Y-7761000D01*
X15050000Y-7531000D02*
X15070000Y-7551000D01*
X15070000Y-7531000D02*
X15050000Y-7551000D01*
X15050000Y-7671000D02*
X15070000Y-7691000D01*
X15070000Y-7671000D02*
X15050000Y-7691000D01*
X15050000Y-7811000D02*
X15070000Y-7831000D01*
X15070000Y-7811000D02*
X15050000Y-7831000D01*
X15120000Y-7601000D02*
X15140000Y-7621000D01*
X15140000Y-7601000D02*
X15120000Y-7621000D01*
X15120000Y-7741000D02*
X15140000Y-7761000D01*
X15140000Y-7741000D02*
X15120000Y-7761000D01*
X15190000Y-7531000D02*
X15210000Y-7551000D01*
X15210000Y-7531000D02*
X15190000Y-7551000D01*
X15190000Y-7671000D02*
X15210000Y-7691000D01*
X15210000Y-7671000D02*
X15190000Y-7691000D01*
X15190000Y-7811000D02*
X15210000Y-7831000D01*
X15210000Y-7811000D02*
X15190000Y-7831000D01*
X15260000Y-7601000D02*
X15280000Y-7621000D01*
X15280000Y-7601000D02*
X15260000Y-7621000D01*
X15260000Y-7741000D02*
X15280000Y-7761000D01*
X15280000Y-7741000D02*
X15260000Y-7761000D01*
X14465000Y-11030131D02*
G75*
G02*
X14435000Y-11030131I-15000J0D01*
G01*
X14435000Y-11030131D02*
G75*
G02*
X14465000Y-11030131I15000J0D01*
G01*
X14465000Y-12050000D02*
G75*
G02*
X14435000Y-12050000I-15000J0D01*
G01*
X14435000Y-12050000D02*
G75*
G02*
X14465000Y-12050000I15000J0D01*
G01*
X14515000Y-7675000D02*
G75*
G02*
X14485000Y-7675000I-15000J0D01*
G01*
X14485000Y-7675000D02*
G75*
G02*
X14515000Y-7675000I15000J0D01*
G01*
X14515000Y-7798000D02*
G75*
G02*
X14485000Y-7798000I-15000J0D01*
G01*
X14485000Y-7798000D02*
G75*
G02*
X14515000Y-7798000I15000J0D01*
G01*
X14515000Y-7925000D02*
G75*
G02*
X14485000Y-7925000I-15000J0D01*
G01*
X14485000Y-7925000D02*
G75*
G02*
X14515000Y-7925000I15000J0D01*
G01*
X14538000Y-8052000D02*
G75*
G02*
X14508000Y-8052000I-15000J0D01*
G01*
X14508000Y-8052000D02*
G75*
G02*
X14538000Y-8052000I15000J0D01*
G01*
X14540000Y-8175000D02*
G75*
G02*
X14510000Y-8175000I-15000J0D01*
G01*
X14510000Y-8175000D02*
G75*
G02*
X14540000Y-8175000I15000J0D01*
G01*
X14540000Y-8300000D02*
G75*
G02*
X14510000Y-8300000I-15000J0D01*
G01*
X14510000Y-8300000D02*
G75*
G02*
X14540000Y-8300000I15000J0D01*
G01*
X14540000Y-11350000D02*
G75*
G02*
X14510000Y-11350000I-15000J0D01*
G01*
X14510000Y-11350000D02*
G75*
G02*
X14540000Y-11350000I15000J0D01*
G01*
X14540000Y-11700000D02*
G75*
G02*
X14510000Y-11700000I-15000J0D01*
G01*
X14510000Y-11700000D02*
G75*
G02*
X14540000Y-11700000I15000J0D01*
G01*
X14547500Y-7267500D02*
G75*
G02*
X14517500Y-7267500I-15000J0D01*
G01*
X14517500Y-7267500D02*
G75*
G02*
X14547500Y-7267500I15000J0D01*
G01*
X14565000Y-6850000D02*
G75*
G02*
X14535000Y-6850000I-15000J0D01*
G01*
X14535000Y-6850000D02*
G75*
G02*
X14565000Y-6850000I15000J0D01*
G01*
X14595000Y-8550000D02*
G75*
G02*
X14565000Y-8550000I-15000J0D01*
G01*
X14565000Y-8550000D02*
G75*
G02*
X14595000Y-8550000I15000J0D01*
G01*
X14615000Y-12655000D02*
G75*
G02*
X14585000Y-12655000I-15000J0D01*
G01*
X14585000Y-12655000D02*
G75*
G02*
X14615000Y-12655000I15000J0D01*
G01*
X14640000Y-7125000D02*
G75*
G02*
X14610000Y-7125000I-15000J0D01*
G01*
X14610000Y-7125000D02*
G75*
G02*
X14640000Y-7125000I15000J0D01*
G01*
X14644189Y-7867028D02*
G75*
G02*
X14614189Y-7867028I-15000J0D01*
G01*
X14614189Y-7867028D02*
G75*
G02*
X14644189Y-7867028I15000J0D01*
G01*
X14645000Y-11525000D02*
G75*
G02*
X14615000Y-11525000I-15000J0D01*
G01*
X14615000Y-11525000D02*
G75*
G02*
X14645000Y-11525000I15000J0D01*
G01*
X14740000Y-8555000D02*
G75*
G02*
X14710000Y-8555000I-15000J0D01*
G01*
X14710000Y-8555000D02*
G75*
G02*
X14740000Y-8555000I15000J0D01*
G01*
X14840000Y-8800000D02*
G75*
G02*
X14810000Y-8800000I-15000J0D01*
G01*
X14810000Y-8800000D02*
G75*
G02*
X14840000Y-8800000I15000J0D01*
G01*
X14840000Y-9100000D02*
G75*
G02*
X14810000Y-9100000I-15000J0D01*
G01*
X14810000Y-9100000D02*
G75*
G02*
X14840000Y-9100000I15000J0D01*
G01*
X14860000Y-9480000D02*
G75*
G02*
X14830000Y-9480000I-15000J0D01*
G01*
X14830000Y-9480000D02*
G75*
G02*
X14860000Y-9480000I15000J0D01*
G01*
X14865000Y-12475000D02*
G75*
G02*
X14835000Y-12475000I-15000J0D01*
G01*
X14835000Y-12475000D02*
G75*
G02*
X14865000Y-12475000I15000J0D01*
G01*
X14895674Y-8534879D02*
G75*
G02*
X14865674Y-8534879I-15000J0D01*
G01*
X14865674Y-8534879D02*
G75*
G02*
X14895674Y-8534879I15000J0D01*
G01*
X14937500Y-6950000D02*
G75*
G02*
X14907500Y-6950000I-15000J0D01*
G01*
X14907500Y-6950000D02*
G75*
G02*
X14937500Y-6950000I15000J0D01*
G01*
X14981810Y-9390000D02*
G75*
G02*
X14951810Y-9390000I-15000J0D01*
G01*
X14951810Y-9390000D02*
G75*
G02*
X14981810Y-9390000I15000J0D01*
G01*
X15056810Y-11458190D02*
G75*
G02*
X15026810Y-11458190I-15000J0D01*
G01*
X15026810Y-11458190D02*
G75*
G02*
X15056810Y-11458190I15000J0D01*
G01*
X15065000Y-8825000D02*
G75*
G02*
X15035000Y-8825000I-15000J0D01*
G01*
X15035000Y-8825000D02*
G75*
G02*
X15065000Y-8825000I15000J0D01*
G01*
X15165000Y-9050000D02*
G75*
G02*
X15135000Y-9050000I-15000J0D01*
G01*
X15135000Y-9050000D02*
G75*
G02*
X15165000Y-9050000I15000J0D01*
G01*
X15165000Y-11150000D02*
G75*
G02*
X15135000Y-11150000I-15000J0D01*
G01*
X15135000Y-11150000D02*
G75*
G02*
X15165000Y-11150000I15000J0D01*
G01*
X15190000Y-7075000D02*
G75*
G02*
X15160000Y-7075000I-15000J0D01*
G01*
X15160000Y-7075000D02*
G75*
G02*
X15190000Y-7075000I15000J0D01*
G01*
X15190000Y-9425000D02*
G75*
G02*
X15160000Y-9425000I-15000J0D01*
G01*
X15160000Y-9425000D02*
G75*
G02*
X15190000Y-9425000I15000J0D01*
G01*
X15215000Y-8825000D02*
G75*
G02*
X15185000Y-8825000I-15000J0D01*
G01*
X15185000Y-8825000D02*
G75*
G02*
X15215000Y-8825000I15000J0D01*
G01*
X15235000Y-11865000D02*
G75*
G02*
X15205000Y-11865000I-15000J0D01*
G01*
X15205000Y-11865000D02*
G75*
G02*
X15235000Y-11865000I15000J0D01*
G01*
X15286400Y-10825000D02*
G75*
G02*
X15256400Y-10825000I-15000J0D01*
G01*
X15256400Y-10825000D02*
G75*
G02*
X15286400Y-10825000I15000J0D01*
G01*
X15340000Y-8825000D02*
G75*
G02*
X15310000Y-8825000I-15000J0D01*
G01*
X15310000Y-8825000D02*
G75*
G02*
X15340000Y-8825000I15000J0D01*
G01*
X15375000Y-12140000D02*
G75*
G02*
X15345000Y-12140000I-15000J0D01*
G01*
X15345000Y-12140000D02*
G75*
G02*
X15375000Y-12140000I15000J0D01*
G01*
X15420947Y-12207033D02*
G75*
G02*
X15390947Y-12207033I-15000J0D01*
G01*
X15390947Y-12207033D02*
G75*
G02*
X15420947Y-12207033I15000J0D01*
G01*
X15465000Y-12140000D02*
G75*
G02*
X15435000Y-12140000I-15000J0D01*
G01*
X15435000Y-12140000D02*
G75*
G02*
X15465000Y-12140000I15000J0D01*
G01*
X15484113Y-8805887D02*
G75*
G02*
X15454113Y-8805887I-15000J0D01*
G01*
X15454113Y-8805887D02*
G75*
G02*
X15484113Y-8805887I15000J0D01*
G01*
X15485000Y-11735000D02*
G75*
G02*
X15455000Y-11735000I-15000J0D01*
G01*
X15455000Y-11735000D02*
G75*
G02*
X15485000Y-11735000I15000J0D01*
G01*
X15652500Y-8837500D02*
G75*
G02*
X15622500Y-8837500I-15000J0D01*
G01*
X15622500Y-8837500D02*
G75*
G02*
X15652500Y-8837500I15000J0D01*
G01*
X15660000Y-11870000D02*
G75*
G02*
X15630000Y-11870000I-15000J0D01*
G01*
X15630000Y-11870000D02*
G75*
G02*
X15660000Y-11870000I15000J0D01*
G01*
X15690000Y-10975000D02*
G75*
G02*
X15660000Y-10975000I-15000J0D01*
G01*
X15660000Y-10975000D02*
G75*
G02*
X15690000Y-10975000I15000J0D01*
G01*
X15746500Y-11450000D02*
G75*
G02*
X15716500Y-11450000I-15000J0D01*
G01*
X15716500Y-11450000D02*
G75*
G02*
X15746500Y-11450000I15000J0D01*
G01*
X15765000Y-9300000D02*
G75*
G02*
X15735000Y-9300000I-15000J0D01*
G01*
X15735000Y-9300000D02*
G75*
G02*
X15765000Y-9300000I15000J0D01*
G01*
X15765000Y-10865000D02*
G75*
G02*
X15735000Y-10865000I-15000J0D01*
G01*
X15735000Y-10865000D02*
G75*
G02*
X15765000Y-10865000I15000J0D01*
G01*
X15790000Y-8825000D02*
G75*
G02*
X15760000Y-8825000I-15000J0D01*
G01*
X15760000Y-8825000D02*
G75*
G02*
X15790000Y-8825000I15000J0D01*
G01*
X15902500Y-9462500D02*
G75*
G02*
X15872500Y-9462500I-15000J0D01*
G01*
X15872500Y-9462500D02*
G75*
G02*
X15902500Y-9462500I15000J0D01*
G01*
X15915000Y-8825000D02*
G75*
G02*
X15885000Y-8825000I-15000J0D01*
G01*
X15885000Y-8825000D02*
G75*
G02*
X15915000Y-8825000I15000J0D01*
G01*
X15965000Y-10050000D02*
G75*
G02*
X15935000Y-10050000I-15000J0D01*
G01*
X15935000Y-10050000D02*
G75*
G02*
X15965000Y-10050000I15000J0D01*
G01*
X16026682Y-10783378D02*
G75*
G02*
X15996682Y-10783378I-15000J0D01*
G01*
X15996682Y-10783378D02*
G75*
G02*
X16026682Y-10783378I15000J0D01*
G01*
X16040000Y-6900000D02*
G75*
G02*
X16010000Y-6900000I-15000J0D01*
G01*
X16010000Y-6900000D02*
G75*
G02*
X16040000Y-6900000I15000J0D01*
G01*
X16040000Y-7544000D02*
G75*
G02*
X16010000Y-7544000I-15000J0D01*
G01*
X16010000Y-7544000D02*
G75*
G02*
X16040000Y-7544000I15000J0D01*
G01*
X16040000Y-10175000D02*
G75*
G02*
X16010000Y-10175000I-15000J0D01*
G01*
X16010000Y-10175000D02*
G75*
G02*
X16040000Y-10175000I15000J0D01*
G01*
X16045000Y-8175000D02*
G75*
G02*
X16015000Y-8175000I-15000J0D01*
G01*
X16015000Y-8175000D02*
G75*
G02*
X16045000Y-8175000I15000J0D01*
G01*
X16060000Y-12545000D02*
G75*
G02*
X16030000Y-12545000I-15000J0D01*
G01*
X16030000Y-12545000D02*
G75*
G02*
X16060000Y-12545000I15000J0D01*
G01*
X16065000Y-7925000D02*
G75*
G02*
X16035000Y-7925000I-15000J0D01*
G01*
X16035000Y-7925000D02*
G75*
G02*
X16065000Y-7925000I15000J0D01*
G01*
X16065000Y-8425000D02*
G75*
G02*
X16035000Y-8425000I-15000J0D01*
G01*
X16035000Y-8425000D02*
G75*
G02*
X16065000Y-8425000I15000J0D01*
G01*
X16065000Y-8550000D02*
G75*
G02*
X16035000Y-8550000I-15000J0D01*
G01*
X16035000Y-8550000D02*
G75*
G02*
X16065000Y-8550000I15000J0D01*
G01*
X16065000Y-10875000D02*
G75*
G02*
X16035000Y-10875000I-15000J0D01*
G01*
X16035000Y-10875000D02*
G75*
G02*
X16065000Y-10875000I15000J0D01*
G01*
X16069000Y-7671000D02*
G75*
G02*
X16039000Y-7671000I-15000J0D01*
G01*
X16039000Y-7671000D02*
G75*
G02*
X16069000Y-7671000I15000J0D01*
G01*
X16071000Y-8306000D02*
G75*
G02*
X16041000Y-8306000I-15000J0D01*
G01*
X16041000Y-8306000D02*
G75*
G02*
X16071000Y-8306000I15000J0D01*
G01*
X16095000Y-8825000D02*
G75*
G02*
X16065000Y-8825000I-15000J0D01*
G01*
X16065000Y-8825000D02*
G75*
G02*
X16095000Y-8825000I15000J0D01*
G01*
X16110426Y-10312011D02*
G75*
G02*
X16080426Y-10312011I-15000J0D01*
G01*
X16080426Y-10312011D02*
G75*
G02*
X16110426Y-10312011I15000J0D01*
G01*
X16162737Y-11800000D02*
G75*
G02*
X16132737Y-11800000I-15000J0D01*
G01*
X16132737Y-11800000D02*
G75*
G02*
X16162737Y-11800000I15000J0D01*
G01*
X16199290Y-11279609D02*
G75*
G02*
X16169290Y-11279609I-15000J0D01*
G01*
X16169290Y-11279609D02*
G75*
G02*
X16199290Y-11279609I15000J0D01*
G01*
X14993000Y-12018250D02*
X14993000Y-12078250D01*
X14963000Y-12048250D02*
X15023000Y-12048250D01*
X14963000Y-11993250D02*
X14963000Y-12103250D01*
X15023000Y-12103250D02*
G75*
G02*
X14963000Y-12103250I-30000J0D01*
G01*
X15023000Y-12103250D02*
X15023000Y-11993250D01*
X15023000Y-11993250D02*
G75*
G03*
X14963000Y-11993250I-30000J0D01*
G01*
X14993000Y-12436250D02*
X14993000Y-12496250D01*
X14963000Y-12466250D02*
X15023000Y-12466250D01*
X14963000Y-12426250D02*
X14963000Y-12506250D01*
X15023000Y-12506250D02*
G75*
G02*
X14963000Y-12506250I-30000J0D01*
G01*
X15023000Y-12506250D02*
X15023000Y-12426250D01*
X15023000Y-12426250D02*
G75*
G03*
X14963000Y-12426250I-30000J0D01*
G01*
X15857000Y-12018250D02*
X15857000Y-12078250D01*
X15827000Y-12048250D02*
X15887000Y-12048250D01*
X15827000Y-11993250D02*
X15827000Y-12103250D01*
X15887000Y-12103250D02*
G75*
G02*
X15827000Y-12103250I-30000J0D01*
G01*
X15887000Y-12103250D02*
X15887000Y-11993250D01*
X15887000Y-11993250D02*
G75*
G03*
X15827000Y-11993250I-30000J0D01*
G01*
X15857000Y-12436250D02*
X15857000Y-12496250D01*
X15827000Y-12466250D02*
X15887000Y-12466250D01*
X15827000Y-12426250D02*
X15827000Y-12506250D01*
X15887000Y-12506250D02*
G75*
G02*
X15827000Y-12506250I-30000J0D01*
G01*
X15887000Y-12506250D02*
X15887000Y-12426250D01*
X15887000Y-12426250D02*
G75*
G03*
X15827000Y-12426250I-30000J0D01*
G01*
X14172356Y-7128356D02*
X14172356Y-7057644D01*
X14101644Y-7057644D01*
X14101644Y-7128356D01*
X14172356Y-7128356D01*
X14172356Y-7382356D02*
X14172356Y-7311644D01*
X14101644Y-7311644D01*
X14101644Y-7382356D01*
X14172356Y-7382356D01*
X14172356Y-7636356D02*
X14172356Y-7565644D01*
X14101644Y-7565644D01*
X14101644Y-7636356D01*
X14172356Y-7636356D01*
X14172356Y-7890356D02*
X14172356Y-7819644D01*
X14101644Y-7819644D01*
X14101644Y-7890356D01*
X14172356Y-7890356D01*
X14172356Y-8144356D02*
X14172356Y-8073644D01*
X14101644Y-8073644D01*
X14101644Y-8144356D01*
X14172356Y-8144356D01*
X14172356Y-8398356D02*
X14172356Y-8327644D01*
X14101644Y-8327644D01*
X14101644Y-8398356D01*
X14172356Y-8398356D01*
X14172356Y-8652356D02*
X14172356Y-8581644D01*
X14101644Y-8581644D01*
X14101644Y-8652356D01*
X14172356Y-8652356D01*
X14172356Y-8906356D02*
X14172356Y-8835644D01*
X14101644Y-8835644D01*
X14101644Y-8906356D01*
X14172356Y-8906356D01*
X14172356Y-9160356D02*
X14172356Y-9089644D01*
X14101644Y-9089644D01*
X14101644Y-9160356D01*
X14172356Y-9160356D01*
X14172356Y-9414356D02*
X14172356Y-9343644D01*
X14101644Y-9343644D01*
X14101644Y-9414356D01*
X14172356Y-9414356D01*
X14172356Y-9668356D02*
X14172356Y-9597644D01*
X14101644Y-9597644D01*
X14101644Y-9668356D01*
X14172356Y-9668356D01*
X14172356Y-9922356D02*
X14172356Y-9851644D01*
X14101644Y-9851644D01*
X14101644Y-9922356D01*
X14172356Y-9922356D01*
X14172356Y-10176356D02*
X14172356Y-10105644D01*
X14101644Y-10105644D01*
X14101644Y-10176356D01*
X14172356Y-10176356D01*
X14172356Y-10430356D02*
X14172356Y-10359644D01*
X14101644Y-10359644D01*
X14101644Y-10430356D01*
X14172356Y-10430356D01*
X14172356Y-10684356D02*
X14172356Y-10613644D01*
X14101644Y-10613644D01*
X14101644Y-10684356D01*
X14172356Y-10684356D01*
X14172356Y-10938356D02*
X14172356Y-10867644D01*
X14101644Y-10867644D01*
X14101644Y-10938356D01*
X14172356Y-10938356D01*
X14172356Y-11192356D02*
X14172356Y-11121644D01*
X14101644Y-11121644D01*
X14101644Y-11192356D01*
X14172356Y-11192356D01*
X14172356Y-11446356D02*
X14172356Y-11375644D01*
X14101644Y-11375644D01*
X14101644Y-11446356D01*
X14172356Y-11446356D01*
X14172356Y-11700356D02*
X14172356Y-11629644D01*
X14101644Y-11629644D01*
X14101644Y-11700356D01*
X14172356Y-11700356D01*
X14172356Y-11954356D02*
X14172356Y-11883644D01*
X14101644Y-11883644D01*
X14101644Y-11954356D01*
X14172356Y-11954356D01*
X14172356Y-12208356D02*
X14172356Y-12137644D01*
X14101644Y-12137644D01*
X14101644Y-12208356D01*
X14172356Y-12208356D01*
X14172356Y-12462356D02*
X14172356Y-12391644D01*
X14101644Y-12391644D01*
X14101644Y-12462356D01*
X14172356Y-12462356D01*
X16458356Y-7128356D02*
X16458356Y-7057644D01*
X16387644Y-7057644D01*
X16387644Y-7128356D01*
X16458356Y-7128356D01*
X16458356Y-7382356D02*
X16458356Y-7311644D01*
X16387644Y-7311644D01*
X16387644Y-7382356D01*
X16458356Y-7382356D01*
X16458356Y-7636356D02*
X16458356Y-7565644D01*
X16387644Y-7565644D01*
X16387644Y-7636356D01*
X16458356Y-7636356D01*
X16458356Y-7890356D02*
X16458356Y-7819644D01*
X16387644Y-7819644D01*
X16387644Y-7890356D01*
X16458356Y-7890356D01*
X16458356Y-8144356D02*
X16458356Y-8073644D01*
X16387644Y-8073644D01*
X16387644Y-8144356D01*
X16458356Y-8144356D01*
X16458356Y-8398356D02*
X16458356Y-8327644D01*
X16387644Y-8327644D01*
X16387644Y-8398356D01*
X16458356Y-8398356D01*
X16458356Y-8652356D02*
X16458356Y-8581644D01*
X16387644Y-8581644D01*
X16387644Y-8652356D01*
X16458356Y-8652356D01*
X16458356Y-8906356D02*
X16458356Y-8835644D01*
X16387644Y-8835644D01*
X16387644Y-8906356D01*
X16458356Y-8906356D01*
X16458356Y-9160356D02*
X16458356Y-9089644D01*
X16387644Y-9089644D01*
X16387644Y-9160356D01*
X16458356Y-9160356D01*
X16458356Y-9414356D02*
X16458356Y-9343644D01*
X16387644Y-9343644D01*
X16387644Y-9414356D01*
X16458356Y-9414356D01*
X16458356Y-9668356D02*
X16458356Y-9597644D01*
X16387644Y-9597644D01*
X16387644Y-9668356D01*
X16458356Y-9668356D01*
X16458356Y-9922356D02*
X16458356Y-9851644D01*
X16387644Y-9851644D01*
X16387644Y-9922356D01*
X16458356Y-9922356D01*
X16458356Y-10176356D02*
X16458356Y-10105644D01*
X16387644Y-10105644D01*
X16387644Y-10176356D01*
X16458356Y-10176356D01*
X16458356Y-10430356D02*
X16458356Y-10359644D01*
X16387644Y-10359644D01*
X16387644Y-10430356D01*
X16458356Y-10430356D01*
X16458356Y-10684356D02*
X16458356Y-10613644D01*
X16387644Y-10613644D01*
X16387644Y-10684356D01*
X16458356Y-10684356D01*
X16458356Y-10938356D02*
X16458356Y-10867644D01*
X16387644Y-10867644D01*
X16387644Y-10938356D01*
X16458356Y-10938356D01*
X16458356Y-11192356D02*
X16458356Y-11121644D01*
X16387644Y-11121644D01*
X16387644Y-11192356D01*
X16458356Y-11192356D01*
X16458356Y-11446356D02*
X16458356Y-11375644D01*
X16387644Y-11375644D01*
X16387644Y-11446356D01*
X16458356Y-11446356D01*
X16458356Y-11700356D02*
X16458356Y-11629644D01*
X16387644Y-11629644D01*
X16387644Y-11700356D01*
X16458356Y-11700356D01*
X16458356Y-11954356D02*
X16458356Y-11883644D01*
X16387644Y-11883644D01*
X16387644Y-11954356D01*
X16458356Y-11954356D01*
X16458356Y-12208356D02*
X16458356Y-12137644D01*
X16387644Y-12137644D01*
X16387644Y-12208356D01*
X16458356Y-12208356D01*
X16458356Y-12462356D02*
X16458356Y-12391644D01*
X16387644Y-12391644D01*
X16387644Y-12462356D01*
X16458356Y-12462356D01*
D11*
X14268277Y-13073984D02*
X14268277Y-12873984D01*
X14268277Y-12873984D02*
X14315896Y-12873984D01*
X14315896Y-12873984D02*
X14344467Y-12883508D01*
X14344467Y-12883508D02*
X14363515Y-12902555D01*
X14363515Y-12902555D02*
X14373039Y-12921603D01*
X14373039Y-12921603D02*
X14382562Y-12959698D01*
X14382562Y-12959698D02*
X14382562Y-12988269D01*
X14382562Y-12988269D02*
X14373039Y-13026365D01*
X14373039Y-13026365D02*
X14363515Y-13045412D01*
X14363515Y-13045412D02*
X14344467Y-13064460D01*
X14344467Y-13064460D02*
X14315896Y-13073984D01*
X14315896Y-13073984D02*
X14268277Y-13073984D01*
X14468277Y-13073984D02*
X14468277Y-12940650D01*
X14468277Y-12978746D02*
X14477801Y-12959698D01*
X14477801Y-12959698D02*
X14487324Y-12950174D01*
X14487324Y-12950174D02*
X14506372Y-12940650D01*
X14506372Y-12940650D02*
X14525420Y-12940650D01*
X14592086Y-13073984D02*
X14592086Y-12940650D01*
X14592086Y-12873984D02*
X14582562Y-12883508D01*
X14582562Y-12883508D02*
X14592086Y-12893031D01*
X14592086Y-12893031D02*
X14601610Y-12883508D01*
X14601610Y-12883508D02*
X14592086Y-12873984D01*
X14592086Y-12873984D02*
X14592086Y-12893031D01*
X14715896Y-13073984D02*
X14696848Y-13064460D01*
X14696848Y-13064460D02*
X14687324Y-13045412D01*
X14687324Y-13045412D02*
X14687324Y-12873984D01*
X14820658Y-13073984D02*
X14801610Y-13064460D01*
X14801610Y-13064460D02*
X14792086Y-13045412D01*
X14792086Y-13045412D02*
X14792086Y-12873984D01*
X15049229Y-13073984D02*
X15049229Y-12873984D01*
X15049229Y-12873984D02*
X15115896Y-13016841D01*
X15115896Y-13016841D02*
X15182562Y-12873984D01*
X15182562Y-12873984D02*
X15182562Y-13073984D01*
X15363515Y-13073984D02*
X15363515Y-12969222D01*
X15363515Y-12969222D02*
X15353991Y-12950174D01*
X15353991Y-12950174D02*
X15334943Y-12940650D01*
X15334943Y-12940650D02*
X15296848Y-12940650D01*
X15296848Y-12940650D02*
X15277801Y-12950174D01*
X15363515Y-13064460D02*
X15344467Y-13073984D01*
X15344467Y-13073984D02*
X15296848Y-13073984D01*
X15296848Y-13073984D02*
X15277801Y-13064460D01*
X15277801Y-13064460D02*
X15268277Y-13045412D01*
X15268277Y-13045412D02*
X15268277Y-13026365D01*
X15268277Y-13026365D02*
X15277801Y-13007317D01*
X15277801Y-13007317D02*
X15296848Y-12997793D01*
X15296848Y-12997793D02*
X15344467Y-12997793D01*
X15344467Y-12997793D02*
X15363515Y-12988269D01*
X15458753Y-12940650D02*
X15458753Y-13140650D01*
X15458753Y-12950174D02*
X15477801Y-12940650D01*
X15477801Y-12940650D02*
X15515896Y-12940650D01*
X15515896Y-12940650D02*
X15534943Y-12950174D01*
X15534943Y-12950174D02*
X15544467Y-12959698D01*
X15544467Y-12959698D02*
X15553991Y-12978746D01*
X15553991Y-12978746D02*
X15553991Y-13035888D01*
X15553991Y-13035888D02*
X15544467Y-13054936D01*
X15544467Y-13054936D02*
X15534943Y-13064460D01*
X15534943Y-13064460D02*
X15515896Y-13073984D01*
X15515896Y-13073984D02*
X15477801Y-13073984D01*
X15477801Y-13073984D02*
X15458753Y-13064460D01*
X15639705Y-13054936D02*
X15649229Y-13064460D01*
X15649229Y-13064460D02*
X15639705Y-13073984D01*
X15639705Y-13073984D02*
X15630182Y-13064460D01*
X15630182Y-13064460D02*
X15639705Y-13054936D01*
X15639705Y-13054936D02*
X15639705Y-13073984D01*
X15639705Y-12950174D02*
X15649229Y-12959698D01*
X15649229Y-12959698D02*
X15639705Y-12969222D01*
X15639705Y-12969222D02*
X15630182Y-12959698D01*
X15630182Y-12959698D02*
X15639705Y-12950174D01*
X15639705Y-12950174D02*
X15639705Y-12969222D01*
D12*
X13987500Y-13392500D02*
X14007500Y-13412500D01*
X14007500Y-13392500D02*
X13987500Y-13412500D01*
D11*
X14306372Y-13293984D02*
X14325420Y-13293984D01*
X14325420Y-13293984D02*
X14344467Y-13303508D01*
X14344467Y-13303508D02*
X14353991Y-13313031D01*
X14353991Y-13313031D02*
X14363515Y-13332079D01*
X14363515Y-13332079D02*
X14373039Y-13370174D01*
X14373039Y-13370174D02*
X14373039Y-13417793D01*
X14373039Y-13417793D02*
X14363515Y-13455888D01*
X14363515Y-13455888D02*
X14353991Y-13474936D01*
X14353991Y-13474936D02*
X14344467Y-13484460D01*
X14344467Y-13484460D02*
X14325420Y-13493984D01*
X14325420Y-13493984D02*
X14306372Y-13493984D01*
X14306372Y-13493984D02*
X14287324Y-13484460D01*
X14287324Y-13484460D02*
X14277801Y-13474936D01*
X14277801Y-13474936D02*
X14268277Y-13455888D01*
X14268277Y-13455888D02*
X14258753Y-13417793D01*
X14258753Y-13417793D02*
X14258753Y-13370174D01*
X14258753Y-13370174D02*
X14268277Y-13332079D01*
X14268277Y-13332079D02*
X14277801Y-13313031D01*
X14277801Y-13313031D02*
X14287324Y-13303508D01*
X14287324Y-13303508D02*
X14306372Y-13293984D01*
X14458753Y-13474936D02*
X14468277Y-13484460D01*
X14468277Y-13484460D02*
X14458753Y-13493984D01*
X14458753Y-13493984D02*
X14449229Y-13484460D01*
X14449229Y-13484460D02*
X14458753Y-13474936D01*
X14458753Y-13474936D02*
X14458753Y-13493984D01*
X14544467Y-13313031D02*
X14553991Y-13303508D01*
X14553991Y-13303508D02*
X14573039Y-13293984D01*
X14573039Y-13293984D02*
X14620658Y-13293984D01*
X14620658Y-13293984D02*
X14639705Y-13303508D01*
X14639705Y-13303508D02*
X14649229Y-13313031D01*
X14649229Y-13313031D02*
X14658753Y-13332079D01*
X14658753Y-13332079D02*
X14658753Y-13351127D01*
X14658753Y-13351127D02*
X14649229Y-13379698D01*
X14649229Y-13379698D02*
X14534943Y-13493984D01*
X14534943Y-13493984D02*
X14658753Y-13493984D01*
X14782562Y-13293984D02*
X14801610Y-13293984D01*
X14801610Y-13293984D02*
X14820658Y-13303508D01*
X14820658Y-13303508D02*
X14830182Y-13313031D01*
X14830182Y-13313031D02*
X14839705Y-13332079D01*
X14839705Y-13332079D02*
X14849229Y-13370174D01*
X14849229Y-13370174D02*
X14849229Y-13417793D01*
X14849229Y-13417793D02*
X14839705Y-13455888D01*
X14839705Y-13455888D02*
X14830182Y-13474936D01*
X14830182Y-13474936D02*
X14820658Y-13484460D01*
X14820658Y-13484460D02*
X14801610Y-13493984D01*
X14801610Y-13493984D02*
X14782562Y-13493984D01*
X14782562Y-13493984D02*
X14763515Y-13484460D01*
X14763515Y-13484460D02*
X14753991Y-13474936D01*
X14753991Y-13474936D02*
X14744467Y-13455888D01*
X14744467Y-13455888D02*
X14734943Y-13417793D01*
X14734943Y-13417793D02*
X14734943Y-13370174D01*
X14734943Y-13370174D02*
X14744467Y-13332079D01*
X14744467Y-13332079D02*
X14753991Y-13313031D01*
X14753991Y-13313031D02*
X14763515Y-13303508D01*
X14763515Y-13303508D02*
X14782562Y-13293984D01*
X14973039Y-13293984D02*
X14992086Y-13293984D01*
X14992086Y-13293984D02*
X15011134Y-13303508D01*
X15011134Y-13303508D02*
X15020658Y-13313031D01*
X15020658Y-13313031D02*
X15030182Y-13332079D01*
X15030182Y-13332079D02*
X15039705Y-13370174D01*
X15039705Y-13370174D02*
X15039705Y-13417793D01*
X15039705Y-13417793D02*
X15030182Y-13455888D01*
X15030182Y-13455888D02*
X15020658Y-13474936D01*
X15020658Y-13474936D02*
X15011134Y-13484460D01*
X15011134Y-13484460D02*
X14992086Y-13493984D01*
X14992086Y-13493984D02*
X14973039Y-13493984D01*
X14973039Y-13493984D02*
X14953991Y-13484460D01*
X14953991Y-13484460D02*
X14944467Y-13474936D01*
X14944467Y-13474936D02*
X14934943Y-13455888D01*
X14934943Y-13455888D02*
X14925420Y-13417793D01*
X14925420Y-13417793D02*
X14925420Y-13370174D01*
X14925420Y-13370174D02*
X14934943Y-13332079D01*
X14934943Y-13332079D02*
X14944467Y-13313031D01*
X14944467Y-13313031D02*
X14953991Y-13303508D01*
X14953991Y-13303508D02*
X14973039Y-13293984D01*
X15125420Y-13493984D02*
X15125420Y-13360650D01*
X15125420Y-13379698D02*
X15134943Y-13370174D01*
X15134943Y-13370174D02*
X15153991Y-13360650D01*
X15153991Y-13360650D02*
X15182563Y-13360650D01*
X15182563Y-13360650D02*
X15201610Y-13370174D01*
X15201610Y-13370174D02*
X15211134Y-13389222D01*
X15211134Y-13389222D02*
X15211134Y-13493984D01*
X15211134Y-13389222D02*
X15220658Y-13370174D01*
X15220658Y-13370174D02*
X15239705Y-13360650D01*
X15239705Y-13360650D02*
X15268277Y-13360650D01*
X15268277Y-13360650D02*
X15287324Y-13370174D01*
X15287324Y-13370174D02*
X15296848Y-13389222D01*
X15296848Y-13389222D02*
X15296848Y-13493984D01*
X15392086Y-13493984D02*
X15392086Y-13360650D01*
X15392086Y-13379698D02*
X15401610Y-13370174D01*
X15401610Y-13370174D02*
X15420658Y-13360650D01*
X15420658Y-13360650D02*
X15449229Y-13360650D01*
X15449229Y-13360650D02*
X15468277Y-13370174D01*
X15468277Y-13370174D02*
X15477801Y-13389222D01*
X15477801Y-13389222D02*
X15477801Y-13493984D01*
X15477801Y-13389222D02*
X15487324Y-13370174D01*
X15487324Y-13370174D02*
X15506372Y-13360650D01*
X15506372Y-13360650D02*
X15534943Y-13360650D01*
X15534943Y-13360650D02*
X15553991Y-13370174D01*
X15553991Y-13370174D02*
X15563515Y-13389222D01*
X15563515Y-13389222D02*
X15563515Y-13493984D01*
X15953991Y-13284460D02*
X15782563Y-13541603D01*
X16211134Y-13293984D02*
X16230182Y-13293984D01*
X16230182Y-13293984D02*
X16249229Y-13303508D01*
X16249229Y-13303508D02*
X16258753Y-13313031D01*
X16258753Y-13313031D02*
X16268277Y-13332079D01*
X16268277Y-13332079D02*
X16277801Y-13370174D01*
X16277801Y-13370174D02*
X16277801Y-13417793D01*
X16277801Y-13417793D02*
X16268277Y-13455888D01*
X16268277Y-13455888D02*
X16258753Y-13474936D01*
X16258753Y-13474936D02*
X16249229Y-13484460D01*
X16249229Y-13484460D02*
X16230182Y-13493984D01*
X16230182Y-13493984D02*
X16211134Y-13493984D01*
X16211134Y-13493984D02*
X16192086Y-13484460D01*
X16192086Y-13484460D02*
X16182563Y-13474936D01*
X16182563Y-13474936D02*
X16173039Y-13455888D01*
X16173039Y-13455888D02*
X16163515Y-13417793D01*
X16163515Y-13417793D02*
X16163515Y-13370174D01*
X16163515Y-13370174D02*
X16173039Y-13332079D01*
X16173039Y-13332079D02*
X16182563Y-13313031D01*
X16182563Y-13313031D02*
X16192086Y-13303508D01*
X16192086Y-13303508D02*
X16211134Y-13293984D01*
X16363515Y-13474936D02*
X16373039Y-13484460D01*
X16373039Y-13484460D02*
X16363515Y-13493984D01*
X16363515Y-13493984D02*
X16353991Y-13484460D01*
X16353991Y-13484460D02*
X16363515Y-13474936D01*
X16363515Y-13474936D02*
X16363515Y-13493984D01*
X16496848Y-13293984D02*
X16515896Y-13293984D01*
X16515896Y-13293984D02*
X16534944Y-13303508D01*
X16534944Y-13303508D02*
X16544467Y-13313031D01*
X16544467Y-13313031D02*
X16553991Y-13332079D01*
X16553991Y-13332079D02*
X16563515Y-13370174D01*
X16563515Y-13370174D02*
X16563515Y-13417793D01*
X16563515Y-13417793D02*
X16553991Y-13455888D01*
X16553991Y-13455888D02*
X16544467Y-13474936D01*
X16544467Y-13474936D02*
X16534944Y-13484460D01*
X16534944Y-13484460D02*
X16515896Y-13493984D01*
X16515896Y-13493984D02*
X16496848Y-13493984D01*
X16496848Y-13493984D02*
X16477801Y-13484460D01*
X16477801Y-13484460D02*
X16468277Y-13474936D01*
X16468277Y-13474936D02*
X16458753Y-13455888D01*
X16458753Y-13455888D02*
X16449229Y-13417793D01*
X16449229Y-13417793D02*
X16449229Y-13370174D01*
X16449229Y-13370174D02*
X16458753Y-13332079D01*
X16458753Y-13332079D02*
X16468277Y-13313031D01*
X16468277Y-13313031D02*
X16477801Y-13303508D01*
X16477801Y-13303508D02*
X16496848Y-13293984D01*
X16687325Y-13293984D02*
X16706372Y-13293984D01*
X16706372Y-13293984D02*
X16725420Y-13303508D01*
X16725420Y-13303508D02*
X16734944Y-13313031D01*
X16734944Y-13313031D02*
X16744467Y-13332079D01*
X16744467Y-13332079D02*
X16753991Y-13370174D01*
X16753991Y-13370174D02*
X16753991Y-13417793D01*
X16753991Y-13417793D02*
X16744467Y-13455888D01*
X16744467Y-13455888D02*
X16734944Y-13474936D01*
X16734944Y-13474936D02*
X16725420Y-13484460D01*
X16725420Y-13484460D02*
X16706372Y-13493984D01*
X16706372Y-13493984D02*
X16687325Y-13493984D01*
X16687325Y-13493984D02*
X16668277Y-13484460D01*
X16668277Y-13484460D02*
X16658753Y-13474936D01*
X16658753Y-13474936D02*
X16649229Y-13455888D01*
X16649229Y-13455888D02*
X16639706Y-13417793D01*
X16639706Y-13417793D02*
X16639706Y-13370174D01*
X16639706Y-13370174D02*
X16649229Y-13332079D01*
X16649229Y-13332079D02*
X16658753Y-13313031D01*
X16658753Y-13313031D02*
X16668277Y-13303508D01*
X16668277Y-13303508D02*
X16687325Y-13293984D01*
X16820658Y-13293984D02*
X16953991Y-13293984D01*
X16953991Y-13293984D02*
X16868277Y-13493984D01*
X17039706Y-13493984D02*
X17077801Y-13493984D01*
X17077801Y-13493984D02*
X17096849Y-13484460D01*
X17096849Y-13484460D02*
X17106372Y-13474936D01*
X17106372Y-13474936D02*
X17125420Y-13446365D01*
X17125420Y-13446365D02*
X17134944Y-13408269D01*
X17134944Y-13408269D02*
X17134944Y-13332079D01*
X17134944Y-13332079D02*
X17125420Y-13313031D01*
X17125420Y-13313031D02*
X17115896Y-13303508D01*
X17115896Y-13303508D02*
X17096849Y-13293984D01*
X17096849Y-13293984D02*
X17058753Y-13293984D01*
X17058753Y-13293984D02*
X17039706Y-13303508D01*
X17039706Y-13303508D02*
X17030182Y-13313031D01*
X17030182Y-13313031D02*
X17020658Y-13332079D01*
X17020658Y-13332079D02*
X17020658Y-13379698D01*
X17020658Y-13379698D02*
X17030182Y-13398746D01*
X17030182Y-13398746D02*
X17039706Y-13408269D01*
X17039706Y-13408269D02*
X17058753Y-13417793D01*
X17058753Y-13417793D02*
X17096849Y-13417793D01*
X17096849Y-13417793D02*
X17115896Y-13408269D01*
X17115896Y-13408269D02*
X17125420Y-13398746D01*
X17125420Y-13398746D02*
X17134944Y-13379698D01*
X17211134Y-13293984D02*
X17211134Y-13332079D01*
X17287325Y-13293984D02*
X17287325Y-13332079D01*
X17582563Y-13570174D02*
X17573039Y-13560650D01*
X17573039Y-13560650D02*
X17553991Y-13532079D01*
X17553991Y-13532079D02*
X17544468Y-13513031D01*
X17544468Y-13513031D02*
X17534944Y-13484460D01*
X17534944Y-13484460D02*
X17525420Y-13436841D01*
X17525420Y-13436841D02*
X17525420Y-13398746D01*
X17525420Y-13398746D02*
X17534944Y-13351127D01*
X17534944Y-13351127D02*
X17544468Y-13322555D01*
X17544468Y-13322555D02*
X17553991Y-13303508D01*
X17553991Y-13303508D02*
X17573039Y-13274936D01*
X17573039Y-13274936D02*
X17582563Y-13265412D01*
X17763515Y-13493984D02*
X17649230Y-13493984D01*
X17706372Y-13493984D02*
X17706372Y-13293984D01*
X17706372Y-13293984D02*
X17687325Y-13322555D01*
X17687325Y-13322555D02*
X17668277Y-13341603D01*
X17668277Y-13341603D02*
X17649230Y-13351127D01*
X17839706Y-13313031D02*
X17849230Y-13303508D01*
X17849230Y-13303508D02*
X17868277Y-13293984D01*
X17868277Y-13293984D02*
X17915896Y-13293984D01*
X17915896Y-13293984D02*
X17934944Y-13303508D01*
X17934944Y-13303508D02*
X17944468Y-13313031D01*
X17944468Y-13313031D02*
X17953991Y-13332079D01*
X17953991Y-13332079D02*
X17953991Y-13351127D01*
X17953991Y-13351127D02*
X17944468Y-13379698D01*
X17944468Y-13379698D02*
X17830182Y-13493984D01*
X17830182Y-13493984D02*
X17953991Y-13493984D01*
X18192087Y-13493984D02*
X18192087Y-13293984D01*
X18277801Y-13493984D02*
X18277801Y-13389222D01*
X18277801Y-13389222D02*
X18268277Y-13370174D01*
X18268277Y-13370174D02*
X18249230Y-13360650D01*
X18249230Y-13360650D02*
X18220658Y-13360650D01*
X18220658Y-13360650D02*
X18201611Y-13370174D01*
X18201611Y-13370174D02*
X18192087Y-13379698D01*
X18401611Y-13493984D02*
X18382563Y-13484460D01*
X18382563Y-13484460D02*
X18373039Y-13474936D01*
X18373039Y-13474936D02*
X18363515Y-13455888D01*
X18363515Y-13455888D02*
X18363515Y-13398746D01*
X18363515Y-13398746D02*
X18373039Y-13379698D01*
X18373039Y-13379698D02*
X18382563Y-13370174D01*
X18382563Y-13370174D02*
X18401611Y-13360650D01*
X18401611Y-13360650D02*
X18430182Y-13360650D01*
X18430182Y-13360650D02*
X18449230Y-13370174D01*
X18449230Y-13370174D02*
X18458753Y-13379698D01*
X18458753Y-13379698D02*
X18468277Y-13398746D01*
X18468277Y-13398746D02*
X18468277Y-13455888D01*
X18468277Y-13455888D02*
X18458753Y-13474936D01*
X18458753Y-13474936D02*
X18449230Y-13484460D01*
X18449230Y-13484460D02*
X18430182Y-13493984D01*
X18430182Y-13493984D02*
X18401611Y-13493984D01*
X18582563Y-13493984D02*
X18563515Y-13484460D01*
X18563515Y-13484460D02*
X18553992Y-13465412D01*
X18553992Y-13465412D02*
X18553992Y-13293984D01*
X18734944Y-13484460D02*
X18715896Y-13493984D01*
X18715896Y-13493984D02*
X18677801Y-13493984D01*
X18677801Y-13493984D02*
X18658753Y-13484460D01*
X18658753Y-13484460D02*
X18649230Y-13465412D01*
X18649230Y-13465412D02*
X18649230Y-13389222D01*
X18649230Y-13389222D02*
X18658753Y-13370174D01*
X18658753Y-13370174D02*
X18677801Y-13360650D01*
X18677801Y-13360650D02*
X18715896Y-13360650D01*
X18715896Y-13360650D02*
X18734944Y-13370174D01*
X18734944Y-13370174D02*
X18744468Y-13389222D01*
X18744468Y-13389222D02*
X18744468Y-13408269D01*
X18744468Y-13408269D02*
X18649230Y-13427317D01*
X18820658Y-13484460D02*
X18839706Y-13493984D01*
X18839706Y-13493984D02*
X18877801Y-13493984D01*
X18877801Y-13493984D02*
X18896849Y-13484460D01*
X18896849Y-13484460D02*
X18906373Y-13465412D01*
X18906373Y-13465412D02*
X18906373Y-13455888D01*
X18906373Y-13455888D02*
X18896849Y-13436841D01*
X18896849Y-13436841D02*
X18877801Y-13427317D01*
X18877801Y-13427317D02*
X18849230Y-13427317D01*
X18849230Y-13427317D02*
X18830182Y-13417793D01*
X18830182Y-13417793D02*
X18820658Y-13398746D01*
X18820658Y-13398746D02*
X18820658Y-13389222D01*
X18820658Y-13389222D02*
X18830182Y-13370174D01*
X18830182Y-13370174D02*
X18849230Y-13360650D01*
X18849230Y-13360650D02*
X18877801Y-13360650D01*
X18877801Y-13360650D02*
X18896849Y-13370174D01*
X18973039Y-13570174D02*
X18982563Y-13560650D01*
X18982563Y-13560650D02*
X19001611Y-13532079D01*
X19001611Y-13532079D02*
X19011134Y-13513031D01*
X19011134Y-13513031D02*
X19020658Y-13484460D01*
X19020658Y-13484460D02*
X19030182Y-13436841D01*
X19030182Y-13436841D02*
X19030182Y-13398746D01*
X19030182Y-13398746D02*
X19020658Y-13351127D01*
X19020658Y-13351127D02*
X19011134Y-13322555D01*
X19011134Y-13322555D02*
X19001611Y-13303508D01*
X19001611Y-13303508D02*
X18982563Y-13274936D01*
X18982563Y-13274936D02*
X18973039Y-13265412D01*
D12*
X14007500Y-13666500D02*
G75*
G02*
X13977500Y-13666500I-15000J0D01*
G01*
X13977500Y-13666500D02*
G75*
G02*
X14007500Y-13666500I15000J0D01*
G01*
D11*
X14306372Y-13557984D02*
X14325420Y-13557984D01*
X14325420Y-13557984D02*
X14344467Y-13567508D01*
X14344467Y-13567508D02*
X14353991Y-13577031D01*
X14353991Y-13577031D02*
X14363515Y-13596079D01*
X14363515Y-13596079D02*
X14373039Y-13634174D01*
X14373039Y-13634174D02*
X14373039Y-13681793D01*
X14373039Y-13681793D02*
X14363515Y-13719888D01*
X14363515Y-13719888D02*
X14353991Y-13738936D01*
X14353991Y-13738936D02*
X14344467Y-13748460D01*
X14344467Y-13748460D02*
X14325420Y-13757984D01*
X14325420Y-13757984D02*
X14306372Y-13757984D01*
X14306372Y-13757984D02*
X14287324Y-13748460D01*
X14287324Y-13748460D02*
X14277801Y-13738936D01*
X14277801Y-13738936D02*
X14268277Y-13719888D01*
X14268277Y-13719888D02*
X14258753Y-13681793D01*
X14258753Y-13681793D02*
X14258753Y-13634174D01*
X14258753Y-13634174D02*
X14268277Y-13596079D01*
X14268277Y-13596079D02*
X14277801Y-13577031D01*
X14277801Y-13577031D02*
X14287324Y-13567508D01*
X14287324Y-13567508D02*
X14306372Y-13557984D01*
X14458753Y-13738936D02*
X14468277Y-13748460D01*
X14468277Y-13748460D02*
X14458753Y-13757984D01*
X14458753Y-13757984D02*
X14449229Y-13748460D01*
X14449229Y-13748460D02*
X14458753Y-13738936D01*
X14458753Y-13738936D02*
X14458753Y-13757984D01*
X14534943Y-13557984D02*
X14658753Y-13557984D01*
X14658753Y-13557984D02*
X14592086Y-13634174D01*
X14592086Y-13634174D02*
X14620658Y-13634174D01*
X14620658Y-13634174D02*
X14639705Y-13643698D01*
X14639705Y-13643698D02*
X14649229Y-13653222D01*
X14649229Y-13653222D02*
X14658753Y-13672269D01*
X14658753Y-13672269D02*
X14658753Y-13719888D01*
X14658753Y-13719888D02*
X14649229Y-13738936D01*
X14649229Y-13738936D02*
X14639705Y-13748460D01*
X14639705Y-13748460D02*
X14620658Y-13757984D01*
X14620658Y-13757984D02*
X14563515Y-13757984D01*
X14563515Y-13757984D02*
X14544467Y-13748460D01*
X14544467Y-13748460D02*
X14534943Y-13738936D01*
X14782562Y-13557984D02*
X14801610Y-13557984D01*
X14801610Y-13557984D02*
X14820658Y-13567508D01*
X14820658Y-13567508D02*
X14830182Y-13577031D01*
X14830182Y-13577031D02*
X14839705Y-13596079D01*
X14839705Y-13596079D02*
X14849229Y-13634174D01*
X14849229Y-13634174D02*
X14849229Y-13681793D01*
X14849229Y-13681793D02*
X14839705Y-13719888D01*
X14839705Y-13719888D02*
X14830182Y-13738936D01*
X14830182Y-13738936D02*
X14820658Y-13748460D01*
X14820658Y-13748460D02*
X14801610Y-13757984D01*
X14801610Y-13757984D02*
X14782562Y-13757984D01*
X14782562Y-13757984D02*
X14763515Y-13748460D01*
X14763515Y-13748460D02*
X14753991Y-13738936D01*
X14753991Y-13738936D02*
X14744467Y-13719888D01*
X14744467Y-13719888D02*
X14734943Y-13681793D01*
X14734943Y-13681793D02*
X14734943Y-13634174D01*
X14734943Y-13634174D02*
X14744467Y-13596079D01*
X14744467Y-13596079D02*
X14753991Y-13577031D01*
X14753991Y-13577031D02*
X14763515Y-13567508D01*
X14763515Y-13567508D02*
X14782562Y-13557984D01*
X14973039Y-13557984D02*
X14992086Y-13557984D01*
X14992086Y-13557984D02*
X15011134Y-13567508D01*
X15011134Y-13567508D02*
X15020658Y-13577031D01*
X15020658Y-13577031D02*
X15030182Y-13596079D01*
X15030182Y-13596079D02*
X15039705Y-13634174D01*
X15039705Y-13634174D02*
X15039705Y-13681793D01*
X15039705Y-13681793D02*
X15030182Y-13719888D01*
X15030182Y-13719888D02*
X15020658Y-13738936D01*
X15020658Y-13738936D02*
X15011134Y-13748460D01*
X15011134Y-13748460D02*
X14992086Y-13757984D01*
X14992086Y-13757984D02*
X14973039Y-13757984D01*
X14973039Y-13757984D02*
X14953991Y-13748460D01*
X14953991Y-13748460D02*
X14944467Y-13738936D01*
X14944467Y-13738936D02*
X14934943Y-13719888D01*
X14934943Y-13719888D02*
X14925420Y-13681793D01*
X14925420Y-13681793D02*
X14925420Y-13634174D01*
X14925420Y-13634174D02*
X14934943Y-13596079D01*
X14934943Y-13596079D02*
X14944467Y-13577031D01*
X14944467Y-13577031D02*
X14953991Y-13567508D01*
X14953991Y-13567508D02*
X14973039Y-13557984D01*
X15125420Y-13757984D02*
X15125420Y-13624650D01*
X15125420Y-13643698D02*
X15134943Y-13634174D01*
X15134943Y-13634174D02*
X15153991Y-13624650D01*
X15153991Y-13624650D02*
X15182563Y-13624650D01*
X15182563Y-13624650D02*
X15201610Y-13634174D01*
X15201610Y-13634174D02*
X15211134Y-13653222D01*
X15211134Y-13653222D02*
X15211134Y-13757984D01*
X15211134Y-13653222D02*
X15220658Y-13634174D01*
X15220658Y-13634174D02*
X15239705Y-13624650D01*
X15239705Y-13624650D02*
X15268277Y-13624650D01*
X15268277Y-13624650D02*
X15287324Y-13634174D01*
X15287324Y-13634174D02*
X15296848Y-13653222D01*
X15296848Y-13653222D02*
X15296848Y-13757984D01*
X15392086Y-13757984D02*
X15392086Y-13624650D01*
X15392086Y-13643698D02*
X15401610Y-13634174D01*
X15401610Y-13634174D02*
X15420658Y-13624650D01*
X15420658Y-13624650D02*
X15449229Y-13624650D01*
X15449229Y-13624650D02*
X15468277Y-13634174D01*
X15468277Y-13634174D02*
X15477801Y-13653222D01*
X15477801Y-13653222D02*
X15477801Y-13757984D01*
X15477801Y-13653222D02*
X15487324Y-13634174D01*
X15487324Y-13634174D02*
X15506372Y-13624650D01*
X15506372Y-13624650D02*
X15534943Y-13624650D01*
X15534943Y-13624650D02*
X15553991Y-13634174D01*
X15553991Y-13634174D02*
X15563515Y-13653222D01*
X15563515Y-13653222D02*
X15563515Y-13757984D01*
X15953991Y-13548460D02*
X15782563Y-13805603D01*
X16211134Y-13557984D02*
X16230182Y-13557984D01*
X16230182Y-13557984D02*
X16249229Y-13567508D01*
X16249229Y-13567508D02*
X16258753Y-13577031D01*
X16258753Y-13577031D02*
X16268277Y-13596079D01*
X16268277Y-13596079D02*
X16277801Y-13634174D01*
X16277801Y-13634174D02*
X16277801Y-13681793D01*
X16277801Y-13681793D02*
X16268277Y-13719888D01*
X16268277Y-13719888D02*
X16258753Y-13738936D01*
X16258753Y-13738936D02*
X16249229Y-13748460D01*
X16249229Y-13748460D02*
X16230182Y-13757984D01*
X16230182Y-13757984D02*
X16211134Y-13757984D01*
X16211134Y-13757984D02*
X16192086Y-13748460D01*
X16192086Y-13748460D02*
X16182563Y-13738936D01*
X16182563Y-13738936D02*
X16173039Y-13719888D01*
X16173039Y-13719888D02*
X16163515Y-13681793D01*
X16163515Y-13681793D02*
X16163515Y-13634174D01*
X16163515Y-13634174D02*
X16173039Y-13596079D01*
X16173039Y-13596079D02*
X16182563Y-13577031D01*
X16182563Y-13577031D02*
X16192086Y-13567508D01*
X16192086Y-13567508D02*
X16211134Y-13557984D01*
X16363515Y-13738936D02*
X16373039Y-13748460D01*
X16373039Y-13748460D02*
X16363515Y-13757984D01*
X16363515Y-13757984D02*
X16353991Y-13748460D01*
X16353991Y-13748460D02*
X16363515Y-13738936D01*
X16363515Y-13738936D02*
X16363515Y-13757984D01*
X16496848Y-13557984D02*
X16515896Y-13557984D01*
X16515896Y-13557984D02*
X16534944Y-13567508D01*
X16534944Y-13567508D02*
X16544467Y-13577031D01*
X16544467Y-13577031D02*
X16553991Y-13596079D01*
X16553991Y-13596079D02*
X16563515Y-13634174D01*
X16563515Y-13634174D02*
X16563515Y-13681793D01*
X16563515Y-13681793D02*
X16553991Y-13719888D01*
X16553991Y-13719888D02*
X16544467Y-13738936D01*
X16544467Y-13738936D02*
X16534944Y-13748460D01*
X16534944Y-13748460D02*
X16515896Y-13757984D01*
X16515896Y-13757984D02*
X16496848Y-13757984D01*
X16496848Y-13757984D02*
X16477801Y-13748460D01*
X16477801Y-13748460D02*
X16468277Y-13738936D01*
X16468277Y-13738936D02*
X16458753Y-13719888D01*
X16458753Y-13719888D02*
X16449229Y-13681793D01*
X16449229Y-13681793D02*
X16449229Y-13634174D01*
X16449229Y-13634174D02*
X16458753Y-13596079D01*
X16458753Y-13596079D02*
X16468277Y-13577031D01*
X16468277Y-13577031D02*
X16477801Y-13567508D01*
X16477801Y-13567508D02*
X16496848Y-13557984D01*
X16753991Y-13757984D02*
X16639706Y-13757984D01*
X16696848Y-13757984D02*
X16696848Y-13557984D01*
X16696848Y-13557984D02*
X16677801Y-13586555D01*
X16677801Y-13586555D02*
X16658753Y-13605603D01*
X16658753Y-13605603D02*
X16639706Y-13615127D01*
X16944468Y-13757984D02*
X16830182Y-13757984D01*
X16887325Y-13757984D02*
X16887325Y-13557984D01*
X16887325Y-13557984D02*
X16868277Y-13586555D01*
X16868277Y-13586555D02*
X16849229Y-13605603D01*
X16849229Y-13605603D02*
X16830182Y-13615127D01*
X17058753Y-13643698D02*
X17039706Y-13634174D01*
X17039706Y-13634174D02*
X17030182Y-13624650D01*
X17030182Y-13624650D02*
X17020658Y-13605603D01*
X17020658Y-13605603D02*
X17020658Y-13596079D01*
X17020658Y-13596079D02*
X17030182Y-13577031D01*
X17030182Y-13577031D02*
X17039706Y-13567508D01*
X17039706Y-13567508D02*
X17058753Y-13557984D01*
X17058753Y-13557984D02*
X17096849Y-13557984D01*
X17096849Y-13557984D02*
X17115896Y-13567508D01*
X17115896Y-13567508D02*
X17125420Y-13577031D01*
X17125420Y-13577031D02*
X17134944Y-13596079D01*
X17134944Y-13596079D02*
X17134944Y-13605603D01*
X17134944Y-13605603D02*
X17125420Y-13624650D01*
X17125420Y-13624650D02*
X17115896Y-13634174D01*
X17115896Y-13634174D02*
X17096849Y-13643698D01*
X17096849Y-13643698D02*
X17058753Y-13643698D01*
X17058753Y-13643698D02*
X17039706Y-13653222D01*
X17039706Y-13653222D02*
X17030182Y-13662746D01*
X17030182Y-13662746D02*
X17020658Y-13681793D01*
X17020658Y-13681793D02*
X17020658Y-13719888D01*
X17020658Y-13719888D02*
X17030182Y-13738936D01*
X17030182Y-13738936D02*
X17039706Y-13748460D01*
X17039706Y-13748460D02*
X17058753Y-13757984D01*
X17058753Y-13757984D02*
X17096849Y-13757984D01*
X17096849Y-13757984D02*
X17115896Y-13748460D01*
X17115896Y-13748460D02*
X17125420Y-13738936D01*
X17125420Y-13738936D02*
X17134944Y-13719888D01*
X17134944Y-13719888D02*
X17134944Y-13681793D01*
X17134944Y-13681793D02*
X17125420Y-13662746D01*
X17125420Y-13662746D02*
X17115896Y-13653222D01*
X17115896Y-13653222D02*
X17096849Y-13643698D01*
X17211134Y-13557984D02*
X17211134Y-13596079D01*
X17287325Y-13557984D02*
X17287325Y-13596079D01*
X17582563Y-13834174D02*
X17573039Y-13824650D01*
X17573039Y-13824650D02*
X17553991Y-13796079D01*
X17553991Y-13796079D02*
X17544468Y-13777031D01*
X17544468Y-13777031D02*
X17534944Y-13748460D01*
X17534944Y-13748460D02*
X17525420Y-13700841D01*
X17525420Y-13700841D02*
X17525420Y-13662746D01*
X17525420Y-13662746D02*
X17534944Y-13615127D01*
X17534944Y-13615127D02*
X17544468Y-13586555D01*
X17544468Y-13586555D02*
X17553991Y-13567508D01*
X17553991Y-13567508D02*
X17573039Y-13538936D01*
X17573039Y-13538936D02*
X17582563Y-13529412D01*
X17744468Y-13557984D02*
X17706372Y-13557984D01*
X17706372Y-13557984D02*
X17687325Y-13567508D01*
X17687325Y-13567508D02*
X17677801Y-13577031D01*
X17677801Y-13577031D02*
X17658753Y-13605603D01*
X17658753Y-13605603D02*
X17649230Y-13643698D01*
X17649230Y-13643698D02*
X17649230Y-13719888D01*
X17649230Y-13719888D02*
X17658753Y-13738936D01*
X17658753Y-13738936D02*
X17668277Y-13748460D01*
X17668277Y-13748460D02*
X17687325Y-13757984D01*
X17687325Y-13757984D02*
X17725420Y-13757984D01*
X17725420Y-13757984D02*
X17744468Y-13748460D01*
X17744468Y-13748460D02*
X17753991Y-13738936D01*
X17753991Y-13738936D02*
X17763515Y-13719888D01*
X17763515Y-13719888D02*
X17763515Y-13672269D01*
X17763515Y-13672269D02*
X17753991Y-13653222D01*
X17753991Y-13653222D02*
X17744468Y-13643698D01*
X17744468Y-13643698D02*
X17725420Y-13634174D01*
X17725420Y-13634174D02*
X17687325Y-13634174D01*
X17687325Y-13634174D02*
X17668277Y-13643698D01*
X17668277Y-13643698D02*
X17658753Y-13653222D01*
X17658753Y-13653222D02*
X17649230Y-13672269D01*
X17934944Y-13557984D02*
X17896849Y-13557984D01*
X17896849Y-13557984D02*
X17877801Y-13567508D01*
X17877801Y-13567508D02*
X17868277Y-13577031D01*
X17868277Y-13577031D02*
X17849230Y-13605603D01*
X17849230Y-13605603D02*
X17839706Y-13643698D01*
X17839706Y-13643698D02*
X17839706Y-13719888D01*
X17839706Y-13719888D02*
X17849230Y-13738936D01*
X17849230Y-13738936D02*
X17858753Y-13748460D01*
X17858753Y-13748460D02*
X17877801Y-13757984D01*
X17877801Y-13757984D02*
X17915896Y-13757984D01*
X17915896Y-13757984D02*
X17934944Y-13748460D01*
X17934944Y-13748460D02*
X17944468Y-13738936D01*
X17944468Y-13738936D02*
X17953991Y-13719888D01*
X17953991Y-13719888D02*
X17953991Y-13672269D01*
X17953991Y-13672269D02*
X17944468Y-13653222D01*
X17944468Y-13653222D02*
X17934944Y-13643698D01*
X17934944Y-13643698D02*
X17915896Y-13634174D01*
X17915896Y-13634174D02*
X17877801Y-13634174D01*
X17877801Y-13634174D02*
X17858753Y-13643698D01*
X17858753Y-13643698D02*
X17849230Y-13653222D01*
X17849230Y-13653222D02*
X17839706Y-13672269D01*
X18192087Y-13757984D02*
X18192087Y-13557984D01*
X18277801Y-13757984D02*
X18277801Y-13653222D01*
X18277801Y-13653222D02*
X18268277Y-13634174D01*
X18268277Y-13634174D02*
X18249230Y-13624650D01*
X18249230Y-13624650D02*
X18220658Y-13624650D01*
X18220658Y-13624650D02*
X18201611Y-13634174D01*
X18201611Y-13634174D02*
X18192087Y-13643698D01*
X18401611Y-13757984D02*
X18382563Y-13748460D01*
X18382563Y-13748460D02*
X18373039Y-13738936D01*
X18373039Y-13738936D02*
X18363515Y-13719888D01*
X18363515Y-13719888D02*
X18363515Y-13662746D01*
X18363515Y-13662746D02*
X18373039Y-13643698D01*
X18373039Y-13643698D02*
X18382563Y-13634174D01*
X18382563Y-13634174D02*
X18401611Y-13624650D01*
X18401611Y-13624650D02*
X18430182Y-13624650D01*
X18430182Y-13624650D02*
X18449230Y-13634174D01*
X18449230Y-13634174D02*
X18458753Y-13643698D01*
X18458753Y-13643698D02*
X18468277Y-13662746D01*
X18468277Y-13662746D02*
X18468277Y-13719888D01*
X18468277Y-13719888D02*
X18458753Y-13738936D01*
X18458753Y-13738936D02*
X18449230Y-13748460D01*
X18449230Y-13748460D02*
X18430182Y-13757984D01*
X18430182Y-13757984D02*
X18401611Y-13757984D01*
X18582563Y-13757984D02*
X18563515Y-13748460D01*
X18563515Y-13748460D02*
X18553992Y-13729412D01*
X18553992Y-13729412D02*
X18553992Y-13557984D01*
X18734944Y-13748460D02*
X18715896Y-13757984D01*
X18715896Y-13757984D02*
X18677801Y-13757984D01*
X18677801Y-13757984D02*
X18658753Y-13748460D01*
X18658753Y-13748460D02*
X18649230Y-13729412D01*
X18649230Y-13729412D02*
X18649230Y-13653222D01*
X18649230Y-13653222D02*
X18658753Y-13634174D01*
X18658753Y-13634174D02*
X18677801Y-13624650D01*
X18677801Y-13624650D02*
X18715896Y-13624650D01*
X18715896Y-13624650D02*
X18734944Y-13634174D01*
X18734944Y-13634174D02*
X18744468Y-13653222D01*
X18744468Y-13653222D02*
X18744468Y-13672269D01*
X18744468Y-13672269D02*
X18649230Y-13691317D01*
X18820658Y-13748460D02*
X18839706Y-13757984D01*
X18839706Y-13757984D02*
X18877801Y-13757984D01*
X18877801Y-13757984D02*
X18896849Y-13748460D01*
X18896849Y-13748460D02*
X18906373Y-13729412D01*
X18906373Y-13729412D02*
X18906373Y-13719888D01*
X18906373Y-13719888D02*
X18896849Y-13700841D01*
X18896849Y-13700841D02*
X18877801Y-13691317D01*
X18877801Y-13691317D02*
X18849230Y-13691317D01*
X18849230Y-13691317D02*
X18830182Y-13681793D01*
X18830182Y-13681793D02*
X18820658Y-13662746D01*
X18820658Y-13662746D02*
X18820658Y-13653222D01*
X18820658Y-13653222D02*
X18830182Y-13634174D01*
X18830182Y-13634174D02*
X18849230Y-13624650D01*
X18849230Y-13624650D02*
X18877801Y-13624650D01*
X18877801Y-13624650D02*
X18896849Y-13634174D01*
X18973039Y-13834174D02*
X18982563Y-13824650D01*
X18982563Y-13824650D02*
X19001611Y-13796079D01*
X19001611Y-13796079D02*
X19011134Y-13777031D01*
X19011134Y-13777031D02*
X19020658Y-13748460D01*
X19020658Y-13748460D02*
X19030182Y-13700841D01*
X19030182Y-13700841D02*
X19030182Y-13662746D01*
X19030182Y-13662746D02*
X19020658Y-13615127D01*
X19020658Y-13615127D02*
X19011134Y-13586555D01*
X19011134Y-13586555D02*
X19001611Y-13567508D01*
X19001611Y-13567508D02*
X18982563Y-13538936D01*
X18982563Y-13538936D02*
X18973039Y-13529412D01*
D12*
X13977500Y-13900500D02*
X13977500Y-13960500D01*
X13947500Y-13930500D02*
X14007500Y-13930500D01*
D11*
X14306372Y-13821984D02*
X14325420Y-13821984D01*
X14325420Y-13821984D02*
X14344467Y-13831508D01*
X14344467Y-13831508D02*
X14353991Y-13841031D01*
X14353991Y-13841031D02*
X14363515Y-13860079D01*
X14363515Y-13860079D02*
X14373039Y-13898174D01*
X14373039Y-13898174D02*
X14373039Y-13945793D01*
X14373039Y-13945793D02*
X14363515Y-13983888D01*
X14363515Y-13983888D02*
X14353991Y-14002936D01*
X14353991Y-14002936D02*
X14344467Y-14012460D01*
X14344467Y-14012460D02*
X14325420Y-14021984D01*
X14325420Y-14021984D02*
X14306372Y-14021984D01*
X14306372Y-14021984D02*
X14287324Y-14012460D01*
X14287324Y-14012460D02*
X14277801Y-14002936D01*
X14277801Y-14002936D02*
X14268277Y-13983888D01*
X14268277Y-13983888D02*
X14258753Y-13945793D01*
X14258753Y-13945793D02*
X14258753Y-13898174D01*
X14258753Y-13898174D02*
X14268277Y-13860079D01*
X14268277Y-13860079D02*
X14277801Y-13841031D01*
X14277801Y-13841031D02*
X14287324Y-13831508D01*
X14287324Y-13831508D02*
X14306372Y-13821984D01*
X14458753Y-14002936D02*
X14468277Y-14012460D01*
X14468277Y-14012460D02*
X14458753Y-14021984D01*
X14458753Y-14021984D02*
X14449229Y-14012460D01*
X14449229Y-14012460D02*
X14458753Y-14002936D01*
X14458753Y-14002936D02*
X14458753Y-14021984D01*
X14639705Y-13821984D02*
X14601610Y-13821984D01*
X14601610Y-13821984D02*
X14582562Y-13831508D01*
X14582562Y-13831508D02*
X14573039Y-13841031D01*
X14573039Y-13841031D02*
X14553991Y-13869603D01*
X14553991Y-13869603D02*
X14544467Y-13907698D01*
X14544467Y-13907698D02*
X14544467Y-13983888D01*
X14544467Y-13983888D02*
X14553991Y-14002936D01*
X14553991Y-14002936D02*
X14563515Y-14012460D01*
X14563515Y-14012460D02*
X14582562Y-14021984D01*
X14582562Y-14021984D02*
X14620658Y-14021984D01*
X14620658Y-14021984D02*
X14639705Y-14012460D01*
X14639705Y-14012460D02*
X14649229Y-14002936D01*
X14649229Y-14002936D02*
X14658753Y-13983888D01*
X14658753Y-13983888D02*
X14658753Y-13936269D01*
X14658753Y-13936269D02*
X14649229Y-13917222D01*
X14649229Y-13917222D02*
X14639705Y-13907698D01*
X14639705Y-13907698D02*
X14620658Y-13898174D01*
X14620658Y-13898174D02*
X14582562Y-13898174D01*
X14582562Y-13898174D02*
X14563515Y-13907698D01*
X14563515Y-13907698D02*
X14553991Y-13917222D01*
X14553991Y-13917222D02*
X14544467Y-13936269D01*
X14782562Y-13821984D02*
X14801610Y-13821984D01*
X14801610Y-13821984D02*
X14820658Y-13831508D01*
X14820658Y-13831508D02*
X14830182Y-13841031D01*
X14830182Y-13841031D02*
X14839705Y-13860079D01*
X14839705Y-13860079D02*
X14849229Y-13898174D01*
X14849229Y-13898174D02*
X14849229Y-13945793D01*
X14849229Y-13945793D02*
X14839705Y-13983888D01*
X14839705Y-13983888D02*
X14830182Y-14002936D01*
X14830182Y-14002936D02*
X14820658Y-14012460D01*
X14820658Y-14012460D02*
X14801610Y-14021984D01*
X14801610Y-14021984D02*
X14782562Y-14021984D01*
X14782562Y-14021984D02*
X14763515Y-14012460D01*
X14763515Y-14012460D02*
X14753991Y-14002936D01*
X14753991Y-14002936D02*
X14744467Y-13983888D01*
X14744467Y-13983888D02*
X14734943Y-13945793D01*
X14734943Y-13945793D02*
X14734943Y-13898174D01*
X14734943Y-13898174D02*
X14744467Y-13860079D01*
X14744467Y-13860079D02*
X14753991Y-13841031D01*
X14753991Y-13841031D02*
X14763515Y-13831508D01*
X14763515Y-13831508D02*
X14782562Y-13821984D01*
X14973039Y-13821984D02*
X14992086Y-13821984D01*
X14992086Y-13821984D02*
X15011134Y-13831508D01*
X15011134Y-13831508D02*
X15020658Y-13841031D01*
X15020658Y-13841031D02*
X15030182Y-13860079D01*
X15030182Y-13860079D02*
X15039705Y-13898174D01*
X15039705Y-13898174D02*
X15039705Y-13945793D01*
X15039705Y-13945793D02*
X15030182Y-13983888D01*
X15030182Y-13983888D02*
X15020658Y-14002936D01*
X15020658Y-14002936D02*
X15011134Y-14012460D01*
X15011134Y-14012460D02*
X14992086Y-14021984D01*
X14992086Y-14021984D02*
X14973039Y-14021984D01*
X14973039Y-14021984D02*
X14953991Y-14012460D01*
X14953991Y-14012460D02*
X14944467Y-14002936D01*
X14944467Y-14002936D02*
X14934943Y-13983888D01*
X14934943Y-13983888D02*
X14925420Y-13945793D01*
X14925420Y-13945793D02*
X14925420Y-13898174D01*
X14925420Y-13898174D02*
X14934943Y-13860079D01*
X14934943Y-13860079D02*
X14944467Y-13841031D01*
X14944467Y-13841031D02*
X14953991Y-13831508D01*
X14953991Y-13831508D02*
X14973039Y-13821984D01*
X15125420Y-14021984D02*
X15125420Y-13888650D01*
X15125420Y-13907698D02*
X15134943Y-13898174D01*
X15134943Y-13898174D02*
X15153991Y-13888650D01*
X15153991Y-13888650D02*
X15182563Y-13888650D01*
X15182563Y-13888650D02*
X15201610Y-13898174D01*
X15201610Y-13898174D02*
X15211134Y-13917222D01*
X15211134Y-13917222D02*
X15211134Y-14021984D01*
X15211134Y-13917222D02*
X15220658Y-13898174D01*
X15220658Y-13898174D02*
X15239705Y-13888650D01*
X15239705Y-13888650D02*
X15268277Y-13888650D01*
X15268277Y-13888650D02*
X15287324Y-13898174D01*
X15287324Y-13898174D02*
X15296848Y-13917222D01*
X15296848Y-13917222D02*
X15296848Y-14021984D01*
X15392086Y-14021984D02*
X15392086Y-13888650D01*
X15392086Y-13907698D02*
X15401610Y-13898174D01*
X15401610Y-13898174D02*
X15420658Y-13888650D01*
X15420658Y-13888650D02*
X15449229Y-13888650D01*
X15449229Y-13888650D02*
X15468277Y-13898174D01*
X15468277Y-13898174D02*
X15477801Y-13917222D01*
X15477801Y-13917222D02*
X15477801Y-14021984D01*
X15477801Y-13917222D02*
X15487324Y-13898174D01*
X15487324Y-13898174D02*
X15506372Y-13888650D01*
X15506372Y-13888650D02*
X15534943Y-13888650D01*
X15534943Y-13888650D02*
X15553991Y-13898174D01*
X15553991Y-13898174D02*
X15563515Y-13917222D01*
X15563515Y-13917222D02*
X15563515Y-14021984D01*
X15953991Y-13812460D02*
X15782563Y-14069603D01*
X16211134Y-13821984D02*
X16230182Y-13821984D01*
X16230182Y-13821984D02*
X16249229Y-13831508D01*
X16249229Y-13831508D02*
X16258753Y-13841031D01*
X16258753Y-13841031D02*
X16268277Y-13860079D01*
X16268277Y-13860079D02*
X16277801Y-13898174D01*
X16277801Y-13898174D02*
X16277801Y-13945793D01*
X16277801Y-13945793D02*
X16268277Y-13983888D01*
X16268277Y-13983888D02*
X16258753Y-14002936D01*
X16258753Y-14002936D02*
X16249229Y-14012460D01*
X16249229Y-14012460D02*
X16230182Y-14021984D01*
X16230182Y-14021984D02*
X16211134Y-14021984D01*
X16211134Y-14021984D02*
X16192086Y-14012460D01*
X16192086Y-14012460D02*
X16182563Y-14002936D01*
X16182563Y-14002936D02*
X16173039Y-13983888D01*
X16173039Y-13983888D02*
X16163515Y-13945793D01*
X16163515Y-13945793D02*
X16163515Y-13898174D01*
X16163515Y-13898174D02*
X16173039Y-13860079D01*
X16173039Y-13860079D02*
X16182563Y-13841031D01*
X16182563Y-13841031D02*
X16192086Y-13831508D01*
X16192086Y-13831508D02*
X16211134Y-13821984D01*
X16363515Y-14002936D02*
X16373039Y-14012460D01*
X16373039Y-14012460D02*
X16363515Y-14021984D01*
X16363515Y-14021984D02*
X16353991Y-14012460D01*
X16353991Y-14012460D02*
X16363515Y-14002936D01*
X16363515Y-14002936D02*
X16363515Y-14021984D01*
X16496848Y-13821984D02*
X16515896Y-13821984D01*
X16515896Y-13821984D02*
X16534944Y-13831508D01*
X16534944Y-13831508D02*
X16544467Y-13841031D01*
X16544467Y-13841031D02*
X16553991Y-13860079D01*
X16553991Y-13860079D02*
X16563515Y-13898174D01*
X16563515Y-13898174D02*
X16563515Y-13945793D01*
X16563515Y-13945793D02*
X16553991Y-13983888D01*
X16553991Y-13983888D02*
X16544467Y-14002936D01*
X16544467Y-14002936D02*
X16534944Y-14012460D01*
X16534944Y-14012460D02*
X16515896Y-14021984D01*
X16515896Y-14021984D02*
X16496848Y-14021984D01*
X16496848Y-14021984D02*
X16477801Y-14012460D01*
X16477801Y-14012460D02*
X16468277Y-14002936D01*
X16468277Y-14002936D02*
X16458753Y-13983888D01*
X16458753Y-13983888D02*
X16449229Y-13945793D01*
X16449229Y-13945793D02*
X16449229Y-13898174D01*
X16449229Y-13898174D02*
X16458753Y-13860079D01*
X16458753Y-13860079D02*
X16468277Y-13841031D01*
X16468277Y-13841031D02*
X16477801Y-13831508D01*
X16477801Y-13831508D02*
X16496848Y-13821984D01*
X16639706Y-13841031D02*
X16649229Y-13831508D01*
X16649229Y-13831508D02*
X16668277Y-13821984D01*
X16668277Y-13821984D02*
X16715896Y-13821984D01*
X16715896Y-13821984D02*
X16734944Y-13831508D01*
X16734944Y-13831508D02*
X16744467Y-13841031D01*
X16744467Y-13841031D02*
X16753991Y-13860079D01*
X16753991Y-13860079D02*
X16753991Y-13879127D01*
X16753991Y-13879127D02*
X16744467Y-13907698D01*
X16744467Y-13907698D02*
X16630182Y-14021984D01*
X16630182Y-14021984D02*
X16753991Y-14021984D01*
X16820658Y-13821984D02*
X16944468Y-13821984D01*
X16944468Y-13821984D02*
X16877801Y-13898174D01*
X16877801Y-13898174D02*
X16906372Y-13898174D01*
X16906372Y-13898174D02*
X16925420Y-13907698D01*
X16925420Y-13907698D02*
X16934944Y-13917222D01*
X16934944Y-13917222D02*
X16944468Y-13936269D01*
X16944468Y-13936269D02*
X16944468Y-13983888D01*
X16944468Y-13983888D02*
X16934944Y-14002936D01*
X16934944Y-14002936D02*
X16925420Y-14012460D01*
X16925420Y-14012460D02*
X16906372Y-14021984D01*
X16906372Y-14021984D02*
X16849229Y-14021984D01*
X16849229Y-14021984D02*
X16830182Y-14012460D01*
X16830182Y-14012460D02*
X16820658Y-14002936D01*
X17115896Y-13821984D02*
X17077801Y-13821984D01*
X17077801Y-13821984D02*
X17058753Y-13831508D01*
X17058753Y-13831508D02*
X17049229Y-13841031D01*
X17049229Y-13841031D02*
X17030182Y-13869603D01*
X17030182Y-13869603D02*
X17020658Y-13907698D01*
X17020658Y-13907698D02*
X17020658Y-13983888D01*
X17020658Y-13983888D02*
X17030182Y-14002936D01*
X17030182Y-14002936D02*
X17039706Y-14012460D01*
X17039706Y-14012460D02*
X17058753Y-14021984D01*
X17058753Y-14021984D02*
X17096849Y-14021984D01*
X17096849Y-14021984D02*
X17115896Y-14012460D01*
X17115896Y-14012460D02*
X17125420Y-14002936D01*
X17125420Y-14002936D02*
X17134944Y-13983888D01*
X17134944Y-13983888D02*
X17134944Y-13936269D01*
X17134944Y-13936269D02*
X17125420Y-13917222D01*
X17125420Y-13917222D02*
X17115896Y-13907698D01*
X17115896Y-13907698D02*
X17096849Y-13898174D01*
X17096849Y-13898174D02*
X17058753Y-13898174D01*
X17058753Y-13898174D02*
X17039706Y-13907698D01*
X17039706Y-13907698D02*
X17030182Y-13917222D01*
X17030182Y-13917222D02*
X17020658Y-13936269D01*
X17211134Y-13821984D02*
X17211134Y-13860079D01*
X17287325Y-13821984D02*
X17287325Y-13860079D01*
X17582563Y-14098174D02*
X17573039Y-14088650D01*
X17573039Y-14088650D02*
X17553991Y-14060079D01*
X17553991Y-14060079D02*
X17544468Y-14041031D01*
X17544468Y-14041031D02*
X17534944Y-14012460D01*
X17534944Y-14012460D02*
X17525420Y-13964841D01*
X17525420Y-13964841D02*
X17525420Y-13926746D01*
X17525420Y-13926746D02*
X17534944Y-13879127D01*
X17534944Y-13879127D02*
X17544468Y-13850555D01*
X17544468Y-13850555D02*
X17553991Y-13831508D01*
X17553991Y-13831508D02*
X17573039Y-13802936D01*
X17573039Y-13802936D02*
X17582563Y-13793412D01*
X17696849Y-13821984D02*
X17715896Y-13821984D01*
X17715896Y-13821984D02*
X17734944Y-13831508D01*
X17734944Y-13831508D02*
X17744468Y-13841031D01*
X17744468Y-13841031D02*
X17753991Y-13860079D01*
X17753991Y-13860079D02*
X17763515Y-13898174D01*
X17763515Y-13898174D02*
X17763515Y-13945793D01*
X17763515Y-13945793D02*
X17753991Y-13983888D01*
X17753991Y-13983888D02*
X17744468Y-14002936D01*
X17744468Y-14002936D02*
X17734944Y-14012460D01*
X17734944Y-14012460D02*
X17715896Y-14021984D01*
X17715896Y-14021984D02*
X17696849Y-14021984D01*
X17696849Y-14021984D02*
X17677801Y-14012460D01*
X17677801Y-14012460D02*
X17668277Y-14002936D01*
X17668277Y-14002936D02*
X17658753Y-13983888D01*
X17658753Y-13983888D02*
X17649230Y-13945793D01*
X17649230Y-13945793D02*
X17649230Y-13898174D01*
X17649230Y-13898174D02*
X17658753Y-13860079D01*
X17658753Y-13860079D02*
X17668277Y-13841031D01*
X17668277Y-13841031D02*
X17677801Y-13831508D01*
X17677801Y-13831508D02*
X17696849Y-13821984D01*
X18001611Y-14021984D02*
X18001611Y-13821984D01*
X18087325Y-14021984D02*
X18087325Y-13917222D01*
X18087325Y-13917222D02*
X18077801Y-13898174D01*
X18077801Y-13898174D02*
X18058753Y-13888650D01*
X18058753Y-13888650D02*
X18030182Y-13888650D01*
X18030182Y-13888650D02*
X18011134Y-13898174D01*
X18011134Y-13898174D02*
X18001611Y-13907698D01*
X18211134Y-14021984D02*
X18192087Y-14012460D01*
X18192087Y-14012460D02*
X18182563Y-14002936D01*
X18182563Y-14002936D02*
X18173039Y-13983888D01*
X18173039Y-13983888D02*
X18173039Y-13926746D01*
X18173039Y-13926746D02*
X18182563Y-13907698D01*
X18182563Y-13907698D02*
X18192087Y-13898174D01*
X18192087Y-13898174D02*
X18211134Y-13888650D01*
X18211134Y-13888650D02*
X18239706Y-13888650D01*
X18239706Y-13888650D02*
X18258753Y-13898174D01*
X18258753Y-13898174D02*
X18268277Y-13907698D01*
X18268277Y-13907698D02*
X18277801Y-13926746D01*
X18277801Y-13926746D02*
X18277801Y-13983888D01*
X18277801Y-13983888D02*
X18268277Y-14002936D01*
X18268277Y-14002936D02*
X18258753Y-14012460D01*
X18258753Y-14012460D02*
X18239706Y-14021984D01*
X18239706Y-14021984D02*
X18211134Y-14021984D01*
X18392087Y-14021984D02*
X18373039Y-14012460D01*
X18373039Y-14012460D02*
X18363515Y-13993412D01*
X18363515Y-13993412D02*
X18363515Y-13821984D01*
X18544468Y-14012460D02*
X18525420Y-14021984D01*
X18525420Y-14021984D02*
X18487325Y-14021984D01*
X18487325Y-14021984D02*
X18468277Y-14012460D01*
X18468277Y-14012460D02*
X18458753Y-13993412D01*
X18458753Y-13993412D02*
X18458753Y-13917222D01*
X18458753Y-13917222D02*
X18468277Y-13898174D01*
X18468277Y-13898174D02*
X18487325Y-13888650D01*
X18487325Y-13888650D02*
X18525420Y-13888650D01*
X18525420Y-13888650D02*
X18544468Y-13898174D01*
X18544468Y-13898174D02*
X18553992Y-13917222D01*
X18553992Y-13917222D02*
X18553992Y-13936269D01*
X18553992Y-13936269D02*
X18458753Y-13955317D01*
X18630182Y-14012460D02*
X18649230Y-14021984D01*
X18649230Y-14021984D02*
X18687325Y-14021984D01*
X18687325Y-14021984D02*
X18706373Y-14012460D01*
X18706373Y-14012460D02*
X18715896Y-13993412D01*
X18715896Y-13993412D02*
X18715896Y-13983888D01*
X18715896Y-13983888D02*
X18706373Y-13964841D01*
X18706373Y-13964841D02*
X18687325Y-13955317D01*
X18687325Y-13955317D02*
X18658753Y-13955317D01*
X18658753Y-13955317D02*
X18639706Y-13945793D01*
X18639706Y-13945793D02*
X18630182Y-13926746D01*
X18630182Y-13926746D02*
X18630182Y-13917222D01*
X18630182Y-13917222D02*
X18639706Y-13898174D01*
X18639706Y-13898174D02*
X18658753Y-13888650D01*
X18658753Y-13888650D02*
X18687325Y-13888650D01*
X18687325Y-13888650D02*
X18706373Y-13898174D01*
X18953992Y-13945793D02*
X19106373Y-13945793D01*
X19030182Y-14021984D02*
X19030182Y-13869603D01*
X19439706Y-13888650D02*
X19439706Y-14021984D01*
X19392087Y-13812460D02*
X19344468Y-13955317D01*
X19344468Y-13955317D02*
X19468277Y-13955317D01*
X19687325Y-14012460D02*
X19706373Y-14021984D01*
X19706373Y-14021984D02*
X19744468Y-14021984D01*
X19744468Y-14021984D02*
X19763516Y-14012460D01*
X19763516Y-14012460D02*
X19773039Y-13993412D01*
X19773039Y-13993412D02*
X19773039Y-13983888D01*
X19773039Y-13983888D02*
X19763516Y-13964841D01*
X19763516Y-13964841D02*
X19744468Y-13955317D01*
X19744468Y-13955317D02*
X19715896Y-13955317D01*
X19715896Y-13955317D02*
X19696849Y-13945793D01*
X19696849Y-13945793D02*
X19687325Y-13926746D01*
X19687325Y-13926746D02*
X19687325Y-13917222D01*
X19687325Y-13917222D02*
X19696849Y-13898174D01*
X19696849Y-13898174D02*
X19715896Y-13888650D01*
X19715896Y-13888650D02*
X19744468Y-13888650D01*
X19744468Y-13888650D02*
X19763516Y-13898174D01*
X19887325Y-14021984D02*
X19868277Y-14012460D01*
X19868277Y-14012460D02*
X19858754Y-13993412D01*
X19858754Y-13993412D02*
X19858754Y-13821984D01*
X19992087Y-14021984D02*
X19973039Y-14012460D01*
X19973039Y-14012460D02*
X19963516Y-14002936D01*
X19963516Y-14002936D02*
X19953992Y-13983888D01*
X19953992Y-13983888D02*
X19953992Y-13926746D01*
X19953992Y-13926746D02*
X19963516Y-13907698D01*
X19963516Y-13907698D02*
X19973039Y-13898174D01*
X19973039Y-13898174D02*
X19992087Y-13888650D01*
X19992087Y-13888650D02*
X20020658Y-13888650D01*
X20020658Y-13888650D02*
X20039706Y-13898174D01*
X20039706Y-13898174D02*
X20049230Y-13907698D01*
X20049230Y-13907698D02*
X20058754Y-13926746D01*
X20058754Y-13926746D02*
X20058754Y-13983888D01*
X20058754Y-13983888D02*
X20049230Y-14002936D01*
X20049230Y-14002936D02*
X20039706Y-14012460D01*
X20039706Y-14012460D02*
X20020658Y-14021984D01*
X20020658Y-14021984D02*
X19992087Y-14021984D01*
X20115897Y-13888650D02*
X20192087Y-13888650D01*
X20144468Y-13821984D02*
X20144468Y-13993412D01*
X20144468Y-13993412D02*
X20153992Y-14012460D01*
X20153992Y-14012460D02*
X20173039Y-14021984D01*
X20173039Y-14021984D02*
X20192087Y-14021984D01*
X20249230Y-14012460D02*
X20268277Y-14021984D01*
X20268277Y-14021984D02*
X20306373Y-14021984D01*
X20306373Y-14021984D02*
X20325420Y-14012460D01*
X20325420Y-14012460D02*
X20334944Y-13993412D01*
X20334944Y-13993412D02*
X20334944Y-13983888D01*
X20334944Y-13983888D02*
X20325420Y-13964841D01*
X20325420Y-13964841D02*
X20306373Y-13955317D01*
X20306373Y-13955317D02*
X20277801Y-13955317D01*
X20277801Y-13955317D02*
X20258754Y-13945793D01*
X20258754Y-13945793D02*
X20249230Y-13926746D01*
X20249230Y-13926746D02*
X20249230Y-13917222D01*
X20249230Y-13917222D02*
X20258754Y-13898174D01*
X20258754Y-13898174D02*
X20277801Y-13888650D01*
X20277801Y-13888650D02*
X20306373Y-13888650D01*
X20306373Y-13888650D02*
X20325420Y-13898174D01*
X20401611Y-14098174D02*
X20411135Y-14088650D01*
X20411135Y-14088650D02*
X20430182Y-14060079D01*
X20430182Y-14060079D02*
X20439706Y-14041031D01*
X20439706Y-14041031D02*
X20449230Y-14012460D01*
X20449230Y-14012460D02*
X20458754Y-13964841D01*
X20458754Y-13964841D02*
X20458754Y-13926746D01*
X20458754Y-13926746D02*
X20449230Y-13879127D01*
X20449230Y-13879127D02*
X20439706Y-13850555D01*
X20439706Y-13850555D02*
X20430182Y-13831508D01*
X20430182Y-13831508D02*
X20411135Y-13802936D01*
X20411135Y-13802936D02*
X20401611Y-13793412D01*
D12*
X13992856Y-14229856D02*
X13992856Y-14159144D01*
X13922144Y-14159144D01*
X13922144Y-14229856D01*
X13992856Y-14229856D01*
D11*
X14373039Y-14285984D02*
X14258753Y-14285984D01*
X14315896Y-14285984D02*
X14315896Y-14085984D01*
X14315896Y-14085984D02*
X14296848Y-14114555D01*
X14296848Y-14114555D02*
X14277801Y-14133603D01*
X14277801Y-14133603D02*
X14258753Y-14143127D01*
X14458753Y-14266936D02*
X14468277Y-14276460D01*
X14468277Y-14276460D02*
X14458753Y-14285984D01*
X14458753Y-14285984D02*
X14449229Y-14276460D01*
X14449229Y-14276460D02*
X14458753Y-14266936D01*
X14458753Y-14266936D02*
X14458753Y-14285984D01*
X14592086Y-14085984D02*
X14611134Y-14085984D01*
X14611134Y-14085984D02*
X14630182Y-14095508D01*
X14630182Y-14095508D02*
X14639705Y-14105031D01*
X14639705Y-14105031D02*
X14649229Y-14124079D01*
X14649229Y-14124079D02*
X14658753Y-14162174D01*
X14658753Y-14162174D02*
X14658753Y-14209793D01*
X14658753Y-14209793D02*
X14649229Y-14247888D01*
X14649229Y-14247888D02*
X14639705Y-14266936D01*
X14639705Y-14266936D02*
X14630182Y-14276460D01*
X14630182Y-14276460D02*
X14611134Y-14285984D01*
X14611134Y-14285984D02*
X14592086Y-14285984D01*
X14592086Y-14285984D02*
X14573039Y-14276460D01*
X14573039Y-14276460D02*
X14563515Y-14266936D01*
X14563515Y-14266936D02*
X14553991Y-14247888D01*
X14553991Y-14247888D02*
X14544467Y-14209793D01*
X14544467Y-14209793D02*
X14544467Y-14162174D01*
X14544467Y-14162174D02*
X14553991Y-14124079D01*
X14553991Y-14124079D02*
X14563515Y-14105031D01*
X14563515Y-14105031D02*
X14573039Y-14095508D01*
X14573039Y-14095508D02*
X14592086Y-14085984D01*
X14782562Y-14085984D02*
X14801610Y-14085984D01*
X14801610Y-14085984D02*
X14820658Y-14095508D01*
X14820658Y-14095508D02*
X14830182Y-14105031D01*
X14830182Y-14105031D02*
X14839705Y-14124079D01*
X14839705Y-14124079D02*
X14849229Y-14162174D01*
X14849229Y-14162174D02*
X14849229Y-14209793D01*
X14849229Y-14209793D02*
X14839705Y-14247888D01*
X14839705Y-14247888D02*
X14830182Y-14266936D01*
X14830182Y-14266936D02*
X14820658Y-14276460D01*
X14820658Y-14276460D02*
X14801610Y-14285984D01*
X14801610Y-14285984D02*
X14782562Y-14285984D01*
X14782562Y-14285984D02*
X14763515Y-14276460D01*
X14763515Y-14276460D02*
X14753991Y-14266936D01*
X14753991Y-14266936D02*
X14744467Y-14247888D01*
X14744467Y-14247888D02*
X14734943Y-14209793D01*
X14734943Y-14209793D02*
X14734943Y-14162174D01*
X14734943Y-14162174D02*
X14744467Y-14124079D01*
X14744467Y-14124079D02*
X14753991Y-14105031D01*
X14753991Y-14105031D02*
X14763515Y-14095508D01*
X14763515Y-14095508D02*
X14782562Y-14085984D01*
X14973039Y-14085984D02*
X14992086Y-14085984D01*
X14992086Y-14085984D02*
X15011134Y-14095508D01*
X15011134Y-14095508D02*
X15020658Y-14105031D01*
X15020658Y-14105031D02*
X15030182Y-14124079D01*
X15030182Y-14124079D02*
X15039705Y-14162174D01*
X15039705Y-14162174D02*
X15039705Y-14209793D01*
X15039705Y-14209793D02*
X15030182Y-14247888D01*
X15030182Y-14247888D02*
X15020658Y-14266936D01*
X15020658Y-14266936D02*
X15011134Y-14276460D01*
X15011134Y-14276460D02*
X14992086Y-14285984D01*
X14992086Y-14285984D02*
X14973039Y-14285984D01*
X14973039Y-14285984D02*
X14953991Y-14276460D01*
X14953991Y-14276460D02*
X14944467Y-14266936D01*
X14944467Y-14266936D02*
X14934943Y-14247888D01*
X14934943Y-14247888D02*
X14925420Y-14209793D01*
X14925420Y-14209793D02*
X14925420Y-14162174D01*
X14925420Y-14162174D02*
X14934943Y-14124079D01*
X14934943Y-14124079D02*
X14944467Y-14105031D01*
X14944467Y-14105031D02*
X14953991Y-14095508D01*
X14953991Y-14095508D02*
X14973039Y-14085984D01*
X15125420Y-14285984D02*
X15125420Y-14152650D01*
X15125420Y-14171698D02*
X15134943Y-14162174D01*
X15134943Y-14162174D02*
X15153991Y-14152650D01*
X15153991Y-14152650D02*
X15182563Y-14152650D01*
X15182563Y-14152650D02*
X15201610Y-14162174D01*
X15201610Y-14162174D02*
X15211134Y-14181222D01*
X15211134Y-14181222D02*
X15211134Y-14285984D01*
X15211134Y-14181222D02*
X15220658Y-14162174D01*
X15220658Y-14162174D02*
X15239705Y-14152650D01*
X15239705Y-14152650D02*
X15268277Y-14152650D01*
X15268277Y-14152650D02*
X15287324Y-14162174D01*
X15287324Y-14162174D02*
X15296848Y-14181222D01*
X15296848Y-14181222D02*
X15296848Y-14285984D01*
X15392086Y-14285984D02*
X15392086Y-14152650D01*
X15392086Y-14171698D02*
X15401610Y-14162174D01*
X15401610Y-14162174D02*
X15420658Y-14152650D01*
X15420658Y-14152650D02*
X15449229Y-14152650D01*
X15449229Y-14152650D02*
X15468277Y-14162174D01*
X15468277Y-14162174D02*
X15477801Y-14181222D01*
X15477801Y-14181222D02*
X15477801Y-14285984D01*
X15477801Y-14181222D02*
X15487324Y-14162174D01*
X15487324Y-14162174D02*
X15506372Y-14152650D01*
X15506372Y-14152650D02*
X15534943Y-14152650D01*
X15534943Y-14152650D02*
X15553991Y-14162174D01*
X15553991Y-14162174D02*
X15563515Y-14181222D01*
X15563515Y-14181222D02*
X15563515Y-14285984D01*
X15953991Y-14076460D02*
X15782563Y-14333603D01*
X16211134Y-14085984D02*
X16230182Y-14085984D01*
X16230182Y-14085984D02*
X16249229Y-14095508D01*
X16249229Y-14095508D02*
X16258753Y-14105031D01*
X16258753Y-14105031D02*
X16268277Y-14124079D01*
X16268277Y-14124079D02*
X16277801Y-14162174D01*
X16277801Y-14162174D02*
X16277801Y-14209793D01*
X16277801Y-14209793D02*
X16268277Y-14247888D01*
X16268277Y-14247888D02*
X16258753Y-14266936D01*
X16258753Y-14266936D02*
X16249229Y-14276460D01*
X16249229Y-14276460D02*
X16230182Y-14285984D01*
X16230182Y-14285984D02*
X16211134Y-14285984D01*
X16211134Y-14285984D02*
X16192086Y-14276460D01*
X16192086Y-14276460D02*
X16182563Y-14266936D01*
X16182563Y-14266936D02*
X16173039Y-14247888D01*
X16173039Y-14247888D02*
X16163515Y-14209793D01*
X16163515Y-14209793D02*
X16163515Y-14162174D01*
X16163515Y-14162174D02*
X16173039Y-14124079D01*
X16173039Y-14124079D02*
X16182563Y-14105031D01*
X16182563Y-14105031D02*
X16192086Y-14095508D01*
X16192086Y-14095508D02*
X16211134Y-14085984D01*
X16363515Y-14266936D02*
X16373039Y-14276460D01*
X16373039Y-14276460D02*
X16363515Y-14285984D01*
X16363515Y-14285984D02*
X16353991Y-14276460D01*
X16353991Y-14276460D02*
X16363515Y-14266936D01*
X16363515Y-14266936D02*
X16363515Y-14285984D01*
X16496848Y-14085984D02*
X16515896Y-14085984D01*
X16515896Y-14085984D02*
X16534944Y-14095508D01*
X16534944Y-14095508D02*
X16544467Y-14105031D01*
X16544467Y-14105031D02*
X16553991Y-14124079D01*
X16553991Y-14124079D02*
X16563515Y-14162174D01*
X16563515Y-14162174D02*
X16563515Y-14209793D01*
X16563515Y-14209793D02*
X16553991Y-14247888D01*
X16553991Y-14247888D02*
X16544467Y-14266936D01*
X16544467Y-14266936D02*
X16534944Y-14276460D01*
X16534944Y-14276460D02*
X16515896Y-14285984D01*
X16515896Y-14285984D02*
X16496848Y-14285984D01*
X16496848Y-14285984D02*
X16477801Y-14276460D01*
X16477801Y-14276460D02*
X16468277Y-14266936D01*
X16468277Y-14266936D02*
X16458753Y-14247888D01*
X16458753Y-14247888D02*
X16449229Y-14209793D01*
X16449229Y-14209793D02*
X16449229Y-14162174D01*
X16449229Y-14162174D02*
X16458753Y-14124079D01*
X16458753Y-14124079D02*
X16468277Y-14105031D01*
X16468277Y-14105031D02*
X16477801Y-14095508D01*
X16477801Y-14095508D02*
X16496848Y-14085984D01*
X16630182Y-14085984D02*
X16753991Y-14085984D01*
X16753991Y-14085984D02*
X16687325Y-14162174D01*
X16687325Y-14162174D02*
X16715896Y-14162174D01*
X16715896Y-14162174D02*
X16734944Y-14171698D01*
X16734944Y-14171698D02*
X16744467Y-14181222D01*
X16744467Y-14181222D02*
X16753991Y-14200269D01*
X16753991Y-14200269D02*
X16753991Y-14247888D01*
X16753991Y-14247888D02*
X16744467Y-14266936D01*
X16744467Y-14266936D02*
X16734944Y-14276460D01*
X16734944Y-14276460D02*
X16715896Y-14285984D01*
X16715896Y-14285984D02*
X16658753Y-14285984D01*
X16658753Y-14285984D02*
X16639706Y-14276460D01*
X16639706Y-14276460D02*
X16630182Y-14266936D01*
X16849229Y-14285984D02*
X16887325Y-14285984D01*
X16887325Y-14285984D02*
X16906372Y-14276460D01*
X16906372Y-14276460D02*
X16915896Y-14266936D01*
X16915896Y-14266936D02*
X16934944Y-14238365D01*
X16934944Y-14238365D02*
X16944468Y-14200269D01*
X16944468Y-14200269D02*
X16944468Y-14124079D01*
X16944468Y-14124079D02*
X16934944Y-14105031D01*
X16934944Y-14105031D02*
X16925420Y-14095508D01*
X16925420Y-14095508D02*
X16906372Y-14085984D01*
X16906372Y-14085984D02*
X16868277Y-14085984D01*
X16868277Y-14085984D02*
X16849229Y-14095508D01*
X16849229Y-14095508D02*
X16839706Y-14105031D01*
X16839706Y-14105031D02*
X16830182Y-14124079D01*
X16830182Y-14124079D02*
X16830182Y-14171698D01*
X16830182Y-14171698D02*
X16839706Y-14190746D01*
X16839706Y-14190746D02*
X16849229Y-14200269D01*
X16849229Y-14200269D02*
X16868277Y-14209793D01*
X16868277Y-14209793D02*
X16906372Y-14209793D01*
X16906372Y-14209793D02*
X16925420Y-14200269D01*
X16925420Y-14200269D02*
X16934944Y-14190746D01*
X16934944Y-14190746D02*
X16944468Y-14171698D01*
X17115896Y-14152650D02*
X17115896Y-14285984D01*
X17068277Y-14076460D02*
X17020658Y-14219317D01*
X17020658Y-14219317D02*
X17144468Y-14219317D01*
X17211134Y-14085984D02*
X17211134Y-14124079D01*
X17287325Y-14085984D02*
X17287325Y-14124079D01*
X17582563Y-14362174D02*
X17573039Y-14352650D01*
X17573039Y-14352650D02*
X17553991Y-14324079D01*
X17553991Y-14324079D02*
X17544468Y-14305031D01*
X17544468Y-14305031D02*
X17534944Y-14276460D01*
X17534944Y-14276460D02*
X17525420Y-14228841D01*
X17525420Y-14228841D02*
X17525420Y-14190746D01*
X17525420Y-14190746D02*
X17534944Y-14143127D01*
X17534944Y-14143127D02*
X17544468Y-14114555D01*
X17544468Y-14114555D02*
X17553991Y-14095508D01*
X17553991Y-14095508D02*
X17573039Y-14066936D01*
X17573039Y-14066936D02*
X17582563Y-14057412D01*
X17744468Y-14152650D02*
X17744468Y-14285984D01*
X17696849Y-14076460D02*
X17649230Y-14219317D01*
X17649230Y-14219317D02*
X17773039Y-14219317D01*
X17934944Y-14152650D02*
X17934944Y-14285984D01*
X17887325Y-14076460D02*
X17839706Y-14219317D01*
X17839706Y-14219317D02*
X17963515Y-14219317D01*
X18192087Y-14285984D02*
X18192087Y-14085984D01*
X18277801Y-14285984D02*
X18277801Y-14181222D01*
X18277801Y-14181222D02*
X18268277Y-14162174D01*
X18268277Y-14162174D02*
X18249230Y-14152650D01*
X18249230Y-14152650D02*
X18220658Y-14152650D01*
X18220658Y-14152650D02*
X18201611Y-14162174D01*
X18201611Y-14162174D02*
X18192087Y-14171698D01*
X18401611Y-14285984D02*
X18382563Y-14276460D01*
X18382563Y-14276460D02*
X18373039Y-14266936D01*
X18373039Y-14266936D02*
X18363515Y-14247888D01*
X18363515Y-14247888D02*
X18363515Y-14190746D01*
X18363515Y-14190746D02*
X18373039Y-14171698D01*
X18373039Y-14171698D02*
X18382563Y-14162174D01*
X18382563Y-14162174D02*
X18401611Y-14152650D01*
X18401611Y-14152650D02*
X18430182Y-14152650D01*
X18430182Y-14152650D02*
X18449230Y-14162174D01*
X18449230Y-14162174D02*
X18458753Y-14171698D01*
X18458753Y-14171698D02*
X18468277Y-14190746D01*
X18468277Y-14190746D02*
X18468277Y-14247888D01*
X18468277Y-14247888D02*
X18458753Y-14266936D01*
X18458753Y-14266936D02*
X18449230Y-14276460D01*
X18449230Y-14276460D02*
X18430182Y-14285984D01*
X18430182Y-14285984D02*
X18401611Y-14285984D01*
X18582563Y-14285984D02*
X18563515Y-14276460D01*
X18563515Y-14276460D02*
X18553992Y-14257412D01*
X18553992Y-14257412D02*
X18553992Y-14085984D01*
X18734944Y-14276460D02*
X18715896Y-14285984D01*
X18715896Y-14285984D02*
X18677801Y-14285984D01*
X18677801Y-14285984D02*
X18658753Y-14276460D01*
X18658753Y-14276460D02*
X18649230Y-14257412D01*
X18649230Y-14257412D02*
X18649230Y-14181222D01*
X18649230Y-14181222D02*
X18658753Y-14162174D01*
X18658753Y-14162174D02*
X18677801Y-14152650D01*
X18677801Y-14152650D02*
X18715896Y-14152650D01*
X18715896Y-14152650D02*
X18734944Y-14162174D01*
X18734944Y-14162174D02*
X18744468Y-14181222D01*
X18744468Y-14181222D02*
X18744468Y-14200269D01*
X18744468Y-14200269D02*
X18649230Y-14219317D01*
X18820658Y-14276460D02*
X18839706Y-14285984D01*
X18839706Y-14285984D02*
X18877801Y-14285984D01*
X18877801Y-14285984D02*
X18896849Y-14276460D01*
X18896849Y-14276460D02*
X18906373Y-14257412D01*
X18906373Y-14257412D02*
X18906373Y-14247888D01*
X18906373Y-14247888D02*
X18896849Y-14228841D01*
X18896849Y-14228841D02*
X18877801Y-14219317D01*
X18877801Y-14219317D02*
X18849230Y-14219317D01*
X18849230Y-14219317D02*
X18830182Y-14209793D01*
X18830182Y-14209793D02*
X18820658Y-14190746D01*
X18820658Y-14190746D02*
X18820658Y-14181222D01*
X18820658Y-14181222D02*
X18830182Y-14162174D01*
X18830182Y-14162174D02*
X18849230Y-14152650D01*
X18849230Y-14152650D02*
X18877801Y-14152650D01*
X18877801Y-14152650D02*
X18896849Y-14162174D01*
X18973039Y-14362174D02*
X18982563Y-14352650D01*
X18982563Y-14352650D02*
X19001611Y-14324079D01*
X19001611Y-14324079D02*
X19011134Y-14305031D01*
X19011134Y-14305031D02*
X19020658Y-14276460D01*
X19020658Y-14276460D02*
X19030182Y-14228841D01*
X19030182Y-14228841D02*
X19030182Y-14190746D01*
X19030182Y-14190746D02*
X19020658Y-14143127D01*
X19020658Y-14143127D02*
X19011134Y-14114555D01*
X19011134Y-14114555D02*
X19001611Y-14095508D01*
X19001611Y-14095508D02*
X18982563Y-14066936D01*
X18982563Y-14066936D02*
X18973039Y-14057412D01*
M02*
