%TF.GenerationSoftware,KiCad,Pcbnew,10.0.4*%
%TF.CreationDate,2026-09-08T14:40:06-04:00*%
%TF.ProjectId,ESP32S3_RF_DevBoard,45535033-3253-4335-9f52-465f44657642,rev?*%
%TF.SameCoordinates,Original*%
%TF.FileFunction,Copper,L3,Inr*%
%TF.FilePolarity,Positive*%
%FSLAX46Y46*%
G04 Gerber Fmt 4.6, Leading zero omitted, Abs format (unit mm)*
G04 Created by KiCad (PCBNEW 10.0.4) date 2026-09-08 14:40:06*
%MOMM*%
%LPD*%
G01*
G04 APERTURE LIST*
%TA.AperFunction,ComponentPad*%
%ADD10R,1.700000X1.700000*%
%TD*%
%TA.AperFunction,ComponentPad*%
%ADD11C,1.700000*%
%TD*%
%TA.AperFunction,ComponentPad*%
%ADD12O,1.000000X2.100000*%
%TD*%
%TA.AperFunction,ComponentPad*%
%ADD13O,1.000000X1.800000*%
%TD*%
%TA.AperFunction,HeatsinkPad*%
%ADD14C,0.600000*%
%TD*%
%TA.AperFunction,ViaPad*%
%ADD15C,0.600000*%
%TD*%
%TA.AperFunction,Conductor*%
%ADD16C,0.500000*%
%TD*%
%TA.AperFunction,Conductor*%
%ADD17C,0.200000*%
%TD*%
G04 APERTURE END LIST*
D10*
%TO.N,GND*%
%TO.C,J3*%
X164230000Y-70930000D03*
D11*
%TO.N,/GPIO1*%
X164230000Y-73470000D03*
%TO.N,/GPIO2*%
X164230000Y-76010000D03*
%TO.N,/TX*%
X164230000Y-78550000D03*
%TO.N,/RX*%
X164230000Y-81090000D03*
%TO.N,/GPIO42*%
X164230000Y-83630000D03*
%TO.N,/GPIO41*%
X164230000Y-86170000D03*
%TO.N,/GPIO40*%
X164230000Y-88710000D03*
%TO.N,/GPIO39*%
X164230000Y-91250000D03*
%TO.N,/GPIO37*%
X164230000Y-93790000D03*
%TO.N,/GPIO38*%
X164230000Y-96330000D03*
%TO.N,/GPIO36*%
X164230000Y-98870000D03*
%TO.N,/GPIO35*%
X164230000Y-101410000D03*
%TO.N,/GPIO0*%
X164230000Y-103950000D03*
%TO.N,/GPIO45*%
X164230000Y-106490000D03*
%TO.N,/GPIO48*%
X164230000Y-109030000D03*
%TO.N,/GPIO47*%
X164230000Y-111570000D03*
%TO.N,/GPIO21*%
X164230000Y-114110000D03*
%TO.N,unconnected-(J3-Pin_19-Pad19)*%
X164230000Y-116650000D03*
%TO.N,unconnected-(J3-Pin_20-Pad20)*%
X164230000Y-119190000D03*
%TO.N,GND*%
X164230000Y-121730000D03*
X164230000Y-124270000D03*
%TD*%
D12*
%TO.N,GND*%
%TO.C,J1*%
X149930000Y-120482500D03*
X158570000Y-120482500D03*
D13*
X149930000Y-124662500D03*
X158570000Y-124662500D03*
%TD*%
D14*
%TO.N,GND*%
%TO.C,U3*%
X149900000Y-76110000D03*
X149900000Y-77510000D03*
X150600000Y-75410000D03*
X150600000Y-76810000D03*
X150600000Y-78210000D03*
X151300000Y-76110000D03*
X151300000Y-77510000D03*
X152000000Y-75410000D03*
X152000000Y-76810000D03*
X152000000Y-78210000D03*
X152700000Y-76110000D03*
X152700000Y-77510000D03*
%TD*%
D10*
%TO.N,/+3V3*%
%TO.C,J2*%
X141370000Y-70930000D03*
D11*
X141370000Y-73470000D03*
%TO.N,/GPIO4*%
X141370000Y-76010000D03*
%TO.N,/CHIP_PU*%
X141370000Y-78550000D03*
%TO.N,/GPIO5*%
X141370000Y-81090000D03*
%TO.N,/GPIO6*%
X141370000Y-83630000D03*
%TO.N,/GPIO7*%
X141370000Y-86170000D03*
%TO.N,/GPIO15*%
X141370000Y-88710000D03*
%TO.N,/GPIO16*%
X141370000Y-91250000D03*
%TO.N,/GPIO17*%
X141370000Y-93790000D03*
%TO.N,/GPIO18*%
X141370000Y-96330000D03*
%TO.N,/GPIO8*%
X141370000Y-98870000D03*
%TO.N,/GPIO3*%
X141370000Y-101410000D03*
%TO.N,/GPIO46*%
X141370000Y-103950000D03*
%TO.N,/GPIO9*%
X141370000Y-106490000D03*
%TO.N,/GPIO10*%
X141370000Y-109030000D03*
%TO.N,/GPIO11*%
X141370000Y-111570000D03*
%TO.N,/GPIO12*%
X141370000Y-114110000D03*
%TO.N,/GPIO13*%
X141370000Y-116650000D03*
%TO.N,/GPIO14*%
X141370000Y-119190000D03*
%TO.N,/+5V_USB*%
X141370000Y-121730000D03*
%TO.N,GND*%
X141370000Y-124270000D03*
%TD*%
D15*
%TO.N,GND*%
X148500000Y-124750000D03*
X156750000Y-109750000D03*
X160500000Y-108750000D03*
X151750000Y-70750000D03*
X145500000Y-68500000D03*
X161477369Y-118000000D03*
X145250000Y-117000000D03*
X157314998Y-114500000D03*
X146000000Y-126550000D03*
X146291889Y-78670284D03*
X148450000Y-94800000D03*
X152714000Y-108250000D03*
X145250000Y-113500000D03*
X160250000Y-69000000D03*
X158875000Y-94625000D03*
X149668097Y-93900000D03*
X144500000Y-120500000D03*
X160116823Y-107833782D03*
X157500000Y-93000000D03*
X144500000Y-110301305D03*
X154700001Y-117349998D03*
X154059474Y-122070330D03*
X160954263Y-103120106D03*
X161842904Y-112796091D03*
X160450000Y-125450000D03*
%TO.N,/+3V3*%
X151750000Y-94250000D03*
X149225000Y-69500000D03*
%TO.N,/+5V_USB*%
X152200000Y-118650000D03*
X156450000Y-118700000D03*
%TO.N,/CHIP_PU*%
X145325000Y-72675000D03*
X148250000Y-91000000D03*
X146300000Y-115250000D03*
%TO.N,/GPIO38*%
X159500000Y-100500000D03*
X157500000Y-108649998D03*
%TO.N,/GPIO0*%
X160500000Y-85500000D03*
X151500000Y-111500000D03*
X160250000Y-101750000D03*
%TO.N,/GPIO42*%
X160250000Y-75440000D03*
%TO.N,/GPIO41*%
X160540000Y-76710000D03*
%TO.N,/GPIO39*%
X160500000Y-79250000D03*
%TO.N,/GPIO37*%
X160300000Y-81750000D03*
%TO.N,/GPIO36*%
X160560000Y-83060000D03*
%TO.N,/GPIO35*%
X160500000Y-84250000D03*
%TO.N,/GPIO45*%
X160800000Y-88250000D03*
%TO.N,/GPIO48*%
X159000000Y-88250000D03*
%TO.N,/GPIO47*%
X157750000Y-88250000D03*
%TO.N,/GPIO21*%
X156375000Y-88375000D03*
%TO.N,/ESP_3V3*%
X146250000Y-71250000D03*
X150418097Y-114581903D03*
X151500000Y-90500000D03*
%TO.N,/USB_D-*%
X153600001Y-121400000D03*
X154500000Y-121400000D03*
%TO.N,/GPIO7*%
X145000000Y-76750000D03*
%TO.N,/GPIO15*%
X145000000Y-77980000D03*
%TO.N,/GPIO16*%
X145000000Y-79250000D03*
%TO.N,/GPIO17*%
X145230000Y-80520000D03*
%TO.N,/GPIO18*%
X145250000Y-81750000D03*
%TO.N,/GPIO8*%
X145250000Y-83000000D03*
%TO.N,/GPIO3*%
X145800000Y-85500000D03*
%TO.N,/GPIO46*%
X147250000Y-85550000D03*
%TO.N,/GPIO9*%
X148250000Y-88000000D03*
%TO.N,/GPIO10*%
X148806737Y-85348791D03*
%TO.N,/GPIO11*%
X150500000Y-88250000D03*
%TO.N,/GPIO12*%
X152000000Y-88250000D03*
%TO.N,/GPIO13*%
X153250000Y-88250000D03*
%TO.N,/GPIO14*%
X154691131Y-88058869D03*
%TD*%
%TO.N,/+3V3*%
D16*
X142800000Y-69500000D02*
X141370000Y-70930000D01*
X149225000Y-71775000D02*
X149225000Y-69500000D01*
X141370000Y-73470000D02*
X141370000Y-70930000D01*
X148000000Y-83000000D02*
X148000000Y-73000000D01*
X149225000Y-69500000D02*
X142800000Y-69500000D01*
X148000000Y-73000000D02*
X149225000Y-71775000D01*
X149700000Y-92200000D02*
X149700000Y-84700000D01*
X149700000Y-84700000D02*
X148000000Y-83000000D01*
X151750000Y-94250000D02*
X149700000Y-92200000D01*
%TO.N,/+5V_USB*%
X152250000Y-123200000D02*
X152850000Y-123800000D01*
X155615000Y-123800000D02*
X156265000Y-123150000D01*
X152250000Y-118700000D02*
X152250000Y-123200000D01*
X156265000Y-123150000D02*
X156265000Y-118885000D01*
X156265000Y-118885000D02*
X156450000Y-118700000D01*
X152200000Y-118650000D02*
X152250000Y-118700000D01*
X152850000Y-123800000D02*
X155615000Y-123800000D01*
%TO.N,/CHIP_PU*%
D17*
X142520000Y-83153654D02*
X142500000Y-83133654D01*
X148250000Y-90250000D02*
X142520000Y-84520000D01*
X148250000Y-91000000D02*
X148250000Y-90250000D01*
X142520000Y-81566346D02*
X142520000Y-80613654D01*
X142520000Y-84520000D02*
X142520000Y-83153654D01*
X142500000Y-80593654D02*
X142500000Y-79680000D01*
X142500000Y-79680000D02*
X141370000Y-78550000D01*
X142500000Y-83133654D02*
X142500000Y-81586346D01*
X142500000Y-81586346D02*
X142520000Y-81566346D01*
X142520000Y-80613654D02*
X142500000Y-80593654D01*
%TD*%
%TA.AperFunction,Conductor*%
%TO.N,GND*%
G36*
X154061755Y-121714735D02*
G01*
X154075901Y-121719443D01*
X154087852Y-121719443D01*
X154119955Y-121734103D01*
X154126468Y-121738289D01*
X154147108Y-121754922D01*
X154192686Y-121800500D01*
X154295509Y-121859865D01*
X154304818Y-121869628D01*
X154316952Y-121875528D01*
X154328458Y-121894420D01*
X154343725Y-121910432D01*
X154347068Y-121924977D01*
X154353295Y-121935202D01*
X154354646Y-121957952D01*
X154357473Y-121970248D01*
X154357294Y-121977614D01*
X154354474Y-121997234D01*
X154354474Y-122094349D01*
X154354438Y-122095839D01*
X154353829Y-122097741D01*
X154350248Y-122124939D01*
X154338594Y-122168429D01*
X154326207Y-122198333D01*
X154303693Y-122237328D01*
X154283987Y-122263009D01*
X154252153Y-122294843D01*
X154226472Y-122314549D01*
X154187477Y-122337063D01*
X154157573Y-122349450D01*
X154139361Y-122354330D01*
X154114081Y-122361104D01*
X154081987Y-122365330D01*
X154036962Y-122365330D01*
X154004869Y-122361105D01*
X153983122Y-122355278D01*
X153961376Y-122349451D01*
X153931469Y-122337063D01*
X153892471Y-122314547D01*
X153866791Y-122294841D01*
X153834959Y-122263009D01*
X153815252Y-122237327D01*
X153803996Y-122217830D01*
X153803995Y-122217828D01*
X153792738Y-122198331D01*
X153780352Y-122168429D01*
X153768697Y-122124930D01*
X153764474Y-122092843D01*
X153764474Y-122002300D01*
X153763761Y-121985221D01*
X153763761Y-121985212D01*
X153762194Y-121966443D01*
X153776232Y-121897998D01*
X153823763Y-121848738D01*
X153907315Y-121800500D01*
X153949712Y-121758101D01*
X153977968Y-121736949D01*
X153991685Y-121729459D01*
X154007880Y-121725935D01*
X154017982Y-121719443D01*
X154037717Y-121719443D01*
X154059945Y-121714606D01*
X154061755Y-121714735D01*
G37*
%TD.AperFunction*%
%TD*%
%TA.AperFunction,Conductor*%
%TO.N,/+3V3*%
G36*
X145159363Y-67920185D02*
G01*
X145205118Y-67972989D01*
X145215062Y-68042147D01*
X145186037Y-68105703D01*
X145180005Y-68112181D01*
X145099502Y-68192683D01*
X145099500Y-68192686D01*
X145033608Y-68306812D01*
X144999500Y-68434108D01*
X144999500Y-68565891D01*
X145033608Y-68693187D01*
X145066554Y-68750250D01*
X145099500Y-68807314D01*
X145192686Y-68900500D01*
X145306814Y-68966392D01*
X145434108Y-69000500D01*
X145434110Y-69000500D01*
X145565890Y-69000500D01*
X145565892Y-69000500D01*
X145693186Y-68966392D01*
X145749103Y-68934108D01*
X159749500Y-68934108D01*
X159749500Y-69065891D01*
X159783608Y-69193187D01*
X159816554Y-69250250D01*
X159849500Y-69307314D01*
X159942686Y-69400500D01*
X160056814Y-69466392D01*
X160184108Y-69500500D01*
X160184110Y-69500500D01*
X160315890Y-69500500D01*
X160315892Y-69500500D01*
X160443186Y-69466392D01*
X160557314Y-69400500D01*
X160650500Y-69307314D01*
X160716392Y-69193186D01*
X160750500Y-69065892D01*
X160750500Y-68934108D01*
X160716392Y-68806814D01*
X160650500Y-68692686D01*
X160557314Y-68599500D01*
X160499100Y-68565890D01*
X160443187Y-68533608D01*
X160379539Y-68516554D01*
X160315892Y-68499500D01*
X160184108Y-68499500D01*
X160056812Y-68533608D01*
X159942686Y-68599500D01*
X159942683Y-68599502D01*
X159849502Y-68692683D01*
X159849500Y-68692686D01*
X159783608Y-68806812D01*
X159749500Y-68934108D01*
X145749103Y-68934108D01*
X145807314Y-68900500D01*
X145900500Y-68807314D01*
X145966392Y-68693186D01*
X146000500Y-68565892D01*
X146000500Y-68434108D01*
X145966392Y-68306814D01*
X145900500Y-68192686D01*
X145819995Y-68112181D01*
X145786510Y-68050858D01*
X145791494Y-67981166D01*
X145833366Y-67925233D01*
X145898830Y-67900816D01*
X145907676Y-67900500D01*
X165075500Y-67900500D01*
X165142539Y-67920185D01*
X165188294Y-67972989D01*
X165199500Y-68024500D01*
X165199500Y-69755500D01*
X165179815Y-69822539D01*
X165127011Y-69868294D01*
X165075500Y-69879500D01*
X163360247Y-69879500D01*
X163301770Y-69891131D01*
X163301769Y-69891132D01*
X163235447Y-69935447D01*
X163191132Y-70001769D01*
X163191131Y-70001770D01*
X163179500Y-70060247D01*
X163179500Y-71799752D01*
X163191131Y-71858229D01*
X163191132Y-71858230D01*
X163235447Y-71924552D01*
X163301769Y-71968867D01*
X163301770Y-71968868D01*
X163360247Y-71980499D01*
X163360250Y-71980500D01*
X165075500Y-71980500D01*
X165142539Y-72000185D01*
X165188294Y-72052989D01*
X165199500Y-72104500D01*
X165199500Y-72654505D01*
X165179815Y-72721544D01*
X165127011Y-72767299D01*
X165057853Y-72777243D01*
X164994297Y-72748218D01*
X164987819Y-72742186D01*
X164899657Y-72654024D01*
X164813626Y-72596541D01*
X164727598Y-72539059D01*
X164536420Y-72459870D01*
X164536412Y-72459868D01*
X164333469Y-72419500D01*
X164333465Y-72419500D01*
X164126535Y-72419500D01*
X164126530Y-72419500D01*
X163923587Y-72459868D01*
X163923579Y-72459870D01*
X163732403Y-72539058D01*
X163560342Y-72654024D01*
X163414024Y-72800342D01*
X163299058Y-72972403D01*
X163219870Y-73163579D01*
X163219868Y-73163587D01*
X163179500Y-73366530D01*
X163179500Y-73573469D01*
X163219868Y-73776412D01*
X163219870Y-73776420D01*
X163299058Y-73967596D01*
X163414024Y-74139657D01*
X163560342Y-74285975D01*
X163560345Y-74285977D01*
X163732402Y-74400941D01*
X163923580Y-74480130D01*
X164126530Y-74520499D01*
X164126534Y-74520500D01*
X164126535Y-74520500D01*
X164333466Y-74520500D01*
X164333467Y-74520499D01*
X164536420Y-74480130D01*
X164727598Y-74400941D01*
X164899655Y-74285977D01*
X164908983Y-74276649D01*
X164987819Y-74197814D01*
X165049142Y-74164329D01*
X165118834Y-74169313D01*
X165174767Y-74211185D01*
X165199184Y-74276649D01*
X165199500Y-74285495D01*
X165199500Y-75194505D01*
X165179815Y-75261544D01*
X165127011Y-75307299D01*
X165057853Y-75317243D01*
X164994297Y-75288218D01*
X164987819Y-75282186D01*
X164899657Y-75194024D01*
X164807853Y-75132683D01*
X164727598Y-75079059D01*
X164727593Y-75079057D01*
X164536420Y-74999870D01*
X164536412Y-74999868D01*
X164333469Y-74959500D01*
X164333465Y-74959500D01*
X164126535Y-74959500D01*
X164126530Y-74959500D01*
X163923587Y-74999868D01*
X163923579Y-74999870D01*
X163732403Y-75079058D01*
X163560342Y-75194024D01*
X163414024Y-75340342D01*
X163299058Y-75512403D01*
X163219870Y-75703579D01*
X163219868Y-75703587D01*
X163179500Y-75906530D01*
X163179500Y-76113469D01*
X163219868Y-76316412D01*
X163219870Y-76316420D01*
X163261661Y-76417313D01*
X163299059Y-76507598D01*
X163300998Y-76510500D01*
X163414024Y-76679657D01*
X163560342Y-76825975D01*
X163560345Y-76825977D01*
X163732402Y-76940941D01*
X163923580Y-77020130D01*
X164041613Y-77043608D01*
X164126530Y-77060499D01*
X164126534Y-77060500D01*
X164126535Y-77060500D01*
X164333466Y-77060500D01*
X164333467Y-77060499D01*
X164536420Y-77020130D01*
X164727598Y-76940941D01*
X164899655Y-76825977D01*
X164909742Y-76815890D01*
X164987819Y-76737814D01*
X165049142Y-76704329D01*
X165118834Y-76709313D01*
X165174767Y-76751185D01*
X165199184Y-76816649D01*
X165199500Y-76825495D01*
X165199500Y-77734505D01*
X165179815Y-77801544D01*
X165127011Y-77847299D01*
X165057853Y-77857243D01*
X164994297Y-77828218D01*
X164987819Y-77822186D01*
X164899657Y-77734024D01*
X164807853Y-77672683D01*
X164727598Y-77619059D01*
X164623379Y-77575890D01*
X164536420Y-77539870D01*
X164536412Y-77539868D01*
X164333469Y-77499500D01*
X164333465Y-77499500D01*
X164126535Y-77499500D01*
X164126530Y-77499500D01*
X163923587Y-77539868D01*
X163923579Y-77539870D01*
X163732403Y-77619058D01*
X163560342Y-77734024D01*
X163414024Y-77880342D01*
X163299058Y-78052403D01*
X163219870Y-78243579D01*
X163219868Y-78243587D01*
X163179500Y-78446530D01*
X163179500Y-78653469D01*
X163219868Y-78856412D01*
X163219870Y-78856420D01*
X163255601Y-78942683D01*
X163299059Y-79047598D01*
X163342160Y-79112104D01*
X163414024Y-79219657D01*
X163560342Y-79365975D01*
X163560345Y-79365977D01*
X163732402Y-79480941D01*
X163923580Y-79560130D01*
X164126530Y-79600499D01*
X164126534Y-79600500D01*
X164126535Y-79600500D01*
X164333466Y-79600500D01*
X164333467Y-79600499D01*
X164536420Y-79560130D01*
X164727598Y-79480941D01*
X164899655Y-79365977D01*
X164943471Y-79322161D01*
X164987819Y-79277814D01*
X165049142Y-79244329D01*
X165118834Y-79249313D01*
X165174767Y-79291185D01*
X165199184Y-79356649D01*
X165199500Y-79365495D01*
X165199500Y-80274505D01*
X165179815Y-80341544D01*
X165127011Y-80387299D01*
X165057853Y-80397243D01*
X164994297Y-80368218D01*
X164987819Y-80362186D01*
X164899657Y-80274024D01*
X164807853Y-80212683D01*
X164727598Y-80159059D01*
X164702927Y-80148840D01*
X164536420Y-80079870D01*
X164536412Y-80079868D01*
X164333469Y-80039500D01*
X164333465Y-80039500D01*
X164126535Y-80039500D01*
X164126530Y-80039500D01*
X163923587Y-80079868D01*
X163923579Y-80079870D01*
X163732403Y-80159058D01*
X163560342Y-80274024D01*
X163414024Y-80420342D01*
X163299058Y-80592403D01*
X163219870Y-80783579D01*
X163219868Y-80783587D01*
X163179500Y-80986530D01*
X163179500Y-81193469D01*
X163210537Y-81349500D01*
X163219870Y-81396420D01*
X163299059Y-81587598D01*
X163350629Y-81664779D01*
X163414024Y-81759657D01*
X163560342Y-81905975D01*
X163560345Y-81905977D01*
X163732402Y-82020941D01*
X163923580Y-82100130D01*
X164126530Y-82140499D01*
X164126534Y-82140500D01*
X164126535Y-82140500D01*
X164333466Y-82140500D01*
X164333467Y-82140499D01*
X164536420Y-82100130D01*
X164727598Y-82020941D01*
X164899655Y-81905977D01*
X164908983Y-81896649D01*
X164987819Y-81817814D01*
X165049142Y-81784329D01*
X165118834Y-81789313D01*
X165174767Y-81831185D01*
X165199184Y-81896649D01*
X165199500Y-81905495D01*
X165199500Y-82814505D01*
X165179815Y-82881544D01*
X165127011Y-82927299D01*
X165057853Y-82937243D01*
X164994297Y-82908218D01*
X164987819Y-82902186D01*
X164899657Y-82814024D01*
X164807853Y-82752683D01*
X164727598Y-82699059D01*
X164712212Y-82692686D01*
X164536420Y-82619870D01*
X164536412Y-82619868D01*
X164333469Y-82579500D01*
X164333465Y-82579500D01*
X164126535Y-82579500D01*
X164126530Y-82579500D01*
X163923587Y-82619868D01*
X163923579Y-82619870D01*
X163732403Y-82699058D01*
X163560342Y-82814024D01*
X163414024Y-82960342D01*
X163299058Y-83132403D01*
X163219870Y-83323579D01*
X163219868Y-83323587D01*
X163179500Y-83526530D01*
X163179500Y-83733469D01*
X163219868Y-83936412D01*
X163219870Y-83936420D01*
X163299058Y-84127596D01*
X163414024Y-84299657D01*
X163560342Y-84445975D01*
X163560345Y-84445977D01*
X163732402Y-84560941D01*
X163923580Y-84640130D01*
X164126530Y-84680499D01*
X164126534Y-84680500D01*
X164126535Y-84680500D01*
X164333466Y-84680500D01*
X164333467Y-84680499D01*
X164536420Y-84640130D01*
X164727598Y-84560941D01*
X164899655Y-84445977D01*
X164940712Y-84404920D01*
X164987819Y-84357814D01*
X165049142Y-84324329D01*
X165118834Y-84329313D01*
X165174767Y-84371185D01*
X165199184Y-84436649D01*
X165199500Y-84445495D01*
X165199500Y-85354505D01*
X165179815Y-85421544D01*
X165127011Y-85467299D01*
X165057853Y-85477243D01*
X164994297Y-85448218D01*
X164987819Y-85442186D01*
X164899657Y-85354024D01*
X164793210Y-85282899D01*
X164727598Y-85239059D01*
X164615644Y-85192686D01*
X164536420Y-85159870D01*
X164536412Y-85159868D01*
X164333469Y-85119500D01*
X164333465Y-85119500D01*
X164126535Y-85119500D01*
X164126530Y-85119500D01*
X163923587Y-85159868D01*
X163923579Y-85159870D01*
X163732403Y-85239058D01*
X163560342Y-85354024D01*
X163414024Y-85500342D01*
X163299058Y-85672403D01*
X163219870Y-85863579D01*
X163219868Y-85863587D01*
X163179500Y-86066530D01*
X163179500Y-86273469D01*
X163219868Y-86476412D01*
X163219870Y-86476420D01*
X163299058Y-86667596D01*
X163414024Y-86839657D01*
X163560342Y-86985975D01*
X163560345Y-86985977D01*
X163732402Y-87100941D01*
X163923580Y-87180130D01*
X164126530Y-87220499D01*
X164126534Y-87220500D01*
X164126535Y-87220500D01*
X164333466Y-87220500D01*
X164333467Y-87220499D01*
X164536420Y-87180130D01*
X164727598Y-87100941D01*
X164899655Y-86985977D01*
X164908983Y-86976649D01*
X164987819Y-86897814D01*
X165049142Y-86864329D01*
X165118834Y-86869313D01*
X165174767Y-86911185D01*
X165199184Y-86976649D01*
X165199500Y-86985495D01*
X165199500Y-87894505D01*
X165179815Y-87961544D01*
X165127011Y-88007299D01*
X165057853Y-88017243D01*
X164994297Y-87988218D01*
X164987819Y-87982186D01*
X164899657Y-87894024D01*
X164813626Y-87836541D01*
X164727598Y-87779059D01*
X164536420Y-87699870D01*
X164536412Y-87699868D01*
X164333469Y-87659500D01*
X164333465Y-87659500D01*
X164126535Y-87659500D01*
X164126530Y-87659500D01*
X163923587Y-87699868D01*
X163923579Y-87699870D01*
X163732403Y-87779058D01*
X163560342Y-87894024D01*
X163414024Y-88040342D01*
X163299058Y-88212403D01*
X163219870Y-88403579D01*
X163219868Y-88403587D01*
X163179500Y-88606530D01*
X163179500Y-88813469D01*
X163219868Y-89016412D01*
X163219870Y-89016420D01*
X163299058Y-89207596D01*
X163414024Y-89379657D01*
X163560342Y-89525975D01*
X163560345Y-89525977D01*
X163732402Y-89640941D01*
X163923580Y-89720130D01*
X164126530Y-89760499D01*
X164126534Y-89760500D01*
X164126535Y-89760500D01*
X164333466Y-89760500D01*
X164333467Y-89760499D01*
X164536420Y-89720130D01*
X164727598Y-89640941D01*
X164899655Y-89525977D01*
X164908983Y-89516649D01*
X164987819Y-89437814D01*
X165049142Y-89404329D01*
X165118834Y-89409313D01*
X165174767Y-89451185D01*
X165199184Y-89516649D01*
X165199500Y-89525495D01*
X165199500Y-90434505D01*
X165179815Y-90501544D01*
X165127011Y-90547299D01*
X165057853Y-90557243D01*
X164994297Y-90528218D01*
X164987819Y-90522186D01*
X164899657Y-90434024D01*
X164813626Y-90376541D01*
X164727598Y-90319059D01*
X164698031Y-90306812D01*
X164536420Y-90239870D01*
X164536412Y-90239868D01*
X164333469Y-90199500D01*
X164333465Y-90199500D01*
X164126535Y-90199500D01*
X164126530Y-90199500D01*
X163923587Y-90239868D01*
X163923579Y-90239870D01*
X163732403Y-90319058D01*
X163560342Y-90434024D01*
X163414024Y-90580342D01*
X163299058Y-90752403D01*
X163219870Y-90943579D01*
X163219868Y-90943587D01*
X163179500Y-91146530D01*
X163179500Y-91353469D01*
X163219868Y-91556412D01*
X163219870Y-91556420D01*
X163299058Y-91747596D01*
X163414024Y-91919657D01*
X163560342Y-92065975D01*
X163560345Y-92065977D01*
X163732402Y-92180941D01*
X163923580Y-92260130D01*
X164126530Y-92300499D01*
X164126534Y-92300500D01*
X164126535Y-92300500D01*
X164333466Y-92300500D01*
X164333467Y-92300499D01*
X164536420Y-92260130D01*
X164727598Y-92180941D01*
X164899655Y-92065977D01*
X164908983Y-92056649D01*
X164987819Y-91977814D01*
X165049142Y-91944329D01*
X165118834Y-91949313D01*
X165174767Y-91991185D01*
X165199184Y-92056649D01*
X165199500Y-92065495D01*
X165199500Y-92974505D01*
X165179815Y-93041544D01*
X165127011Y-93087299D01*
X165057853Y-93097243D01*
X164994297Y-93068218D01*
X164987819Y-93062186D01*
X164899657Y-92974024D01*
X164813626Y-92916541D01*
X164727598Y-92859059D01*
X164536420Y-92779870D01*
X164536412Y-92779868D01*
X164333469Y-92739500D01*
X164333465Y-92739500D01*
X164126535Y-92739500D01*
X164126530Y-92739500D01*
X163923587Y-92779868D01*
X163923579Y-92779870D01*
X163732403Y-92859058D01*
X163560342Y-92974024D01*
X163414024Y-93120342D01*
X163299058Y-93292403D01*
X163219870Y-93483579D01*
X163219868Y-93483587D01*
X163179500Y-93686530D01*
X163179500Y-93893469D01*
X163219868Y-94096412D01*
X163219870Y-94096420D01*
X163299058Y-94287596D01*
X163414024Y-94459657D01*
X163560342Y-94605975D01*
X163560345Y-94605977D01*
X163732402Y-94720941D01*
X163923580Y-94800130D01*
X164126530Y-94840499D01*
X164126534Y-94840500D01*
X164126535Y-94840500D01*
X164333466Y-94840500D01*
X164333467Y-94840499D01*
X164536420Y-94800130D01*
X164727598Y-94720941D01*
X164899655Y-94605977D01*
X164908983Y-94596649D01*
X164987819Y-94517814D01*
X165049142Y-94484329D01*
X165118834Y-94489313D01*
X165174767Y-94531185D01*
X165199184Y-94596649D01*
X165199500Y-94605495D01*
X165199500Y-95514505D01*
X165179815Y-95581544D01*
X165127011Y-95627299D01*
X165057853Y-95637243D01*
X164994297Y-95608218D01*
X164987819Y-95602186D01*
X164899657Y-95514024D01*
X164813626Y-95456541D01*
X164727598Y-95399059D01*
X164536420Y-95319870D01*
X164536412Y-95319868D01*
X164333469Y-95279500D01*
X164333465Y-95279500D01*
X164126535Y-95279500D01*
X164126530Y-95279500D01*
X163923587Y-95319868D01*
X163923579Y-95319870D01*
X163732403Y-95399058D01*
X163560342Y-95514024D01*
X163414024Y-95660342D01*
X163299058Y-95832403D01*
X163219870Y-96023579D01*
X163219868Y-96023587D01*
X163179500Y-96226530D01*
X163179500Y-96433469D01*
X163219868Y-96636412D01*
X163219870Y-96636420D01*
X163299058Y-96827596D01*
X163414024Y-96999657D01*
X163560342Y-97145975D01*
X163560345Y-97145977D01*
X163732402Y-97260941D01*
X163923580Y-97340130D01*
X164126530Y-97380499D01*
X164126534Y-97380500D01*
X164126535Y-97380500D01*
X164333466Y-97380500D01*
X164333467Y-97380499D01*
X164536420Y-97340130D01*
X164727598Y-97260941D01*
X164899655Y-97145977D01*
X164908983Y-97136649D01*
X164987819Y-97057814D01*
X165049142Y-97024329D01*
X165118834Y-97029313D01*
X165174767Y-97071185D01*
X165199184Y-97136649D01*
X165199500Y-97145495D01*
X165199500Y-98054505D01*
X165179815Y-98121544D01*
X165127011Y-98167299D01*
X165057853Y-98177243D01*
X164994297Y-98148218D01*
X164987819Y-98142186D01*
X164899657Y-98054024D01*
X164813626Y-97996541D01*
X164727598Y-97939059D01*
X164536420Y-97859870D01*
X164536412Y-97859868D01*
X164333469Y-97819500D01*
X164333465Y-97819500D01*
X164126535Y-97819500D01*
X164126530Y-97819500D01*
X163923587Y-97859868D01*
X163923579Y-97859870D01*
X163732403Y-97939058D01*
X163560342Y-98054024D01*
X163414024Y-98200342D01*
X163299058Y-98372403D01*
X163219870Y-98563579D01*
X163219868Y-98563587D01*
X163179500Y-98766530D01*
X163179500Y-98973469D01*
X163219868Y-99176412D01*
X163219870Y-99176420D01*
X163299058Y-99367596D01*
X163414024Y-99539657D01*
X163560342Y-99685975D01*
X163560345Y-99685977D01*
X163732402Y-99800941D01*
X163923580Y-99880130D01*
X164126530Y-99920499D01*
X164126534Y-99920500D01*
X164126535Y-99920500D01*
X164333466Y-99920500D01*
X164333467Y-99920499D01*
X164536420Y-99880130D01*
X164727598Y-99800941D01*
X164899655Y-99685977D01*
X164908983Y-99676649D01*
X164987819Y-99597814D01*
X165049142Y-99564329D01*
X165118834Y-99569313D01*
X165174767Y-99611185D01*
X165199184Y-99676649D01*
X165199500Y-99685495D01*
X165199500Y-100594505D01*
X165179815Y-100661544D01*
X165127011Y-100707299D01*
X165057853Y-100717243D01*
X164994297Y-100688218D01*
X164987819Y-100682186D01*
X164899657Y-100594024D01*
X164802466Y-100529084D01*
X164727598Y-100479059D01*
X164619077Y-100434108D01*
X164536420Y-100399870D01*
X164536412Y-100399868D01*
X164333469Y-100359500D01*
X164333465Y-100359500D01*
X164126535Y-100359500D01*
X164126530Y-100359500D01*
X163923587Y-100399868D01*
X163923579Y-100399870D01*
X163732403Y-100479058D01*
X163560342Y-100594024D01*
X163414024Y-100740342D01*
X163299058Y-100912403D01*
X163219870Y-101103579D01*
X163219868Y-101103587D01*
X163179500Y-101306530D01*
X163179500Y-101513469D01*
X163219868Y-101716412D01*
X163219870Y-101716420D01*
X163299058Y-101907596D01*
X163414024Y-102079657D01*
X163560342Y-102225975D01*
X163560345Y-102225977D01*
X163732402Y-102340941D01*
X163923580Y-102420130D01*
X164126530Y-102460499D01*
X164126534Y-102460500D01*
X164126535Y-102460500D01*
X164333466Y-102460500D01*
X164333467Y-102460499D01*
X164536420Y-102420130D01*
X164727598Y-102340941D01*
X164899655Y-102225977D01*
X164909241Y-102216391D01*
X164987819Y-102137814D01*
X165049142Y-102104329D01*
X165118834Y-102109313D01*
X165174767Y-102151185D01*
X165199184Y-102216649D01*
X165199500Y-102225495D01*
X165199500Y-103134505D01*
X165179815Y-103201544D01*
X165127011Y-103247299D01*
X165057853Y-103257243D01*
X164994297Y-103228218D01*
X164987819Y-103222186D01*
X164899657Y-103134024D01*
X164813626Y-103076541D01*
X164727598Y-103019059D01*
X164536420Y-102939870D01*
X164536412Y-102939868D01*
X164333469Y-102899500D01*
X164333465Y-102899500D01*
X164126535Y-102899500D01*
X164126530Y-102899500D01*
X163923587Y-102939868D01*
X163923579Y-102939870D01*
X163732403Y-103019058D01*
X163560342Y-103134024D01*
X163414024Y-103280342D01*
X163299058Y-103452403D01*
X163219870Y-103643579D01*
X163219868Y-103643587D01*
X163179500Y-103846530D01*
X163179500Y-104053469D01*
X163219868Y-104256412D01*
X163219870Y-104256420D01*
X163299058Y-104447596D01*
X163414024Y-104619657D01*
X163560342Y-104765975D01*
X163560345Y-104765977D01*
X163732402Y-104880941D01*
X163923580Y-104960130D01*
X164126530Y-105000499D01*
X164126534Y-105000500D01*
X164126535Y-105000500D01*
X164333466Y-105000500D01*
X164333467Y-105000499D01*
X164536420Y-104960130D01*
X164727598Y-104880941D01*
X164899655Y-104765977D01*
X164908983Y-104756649D01*
X164987819Y-104677814D01*
X165049142Y-104644329D01*
X165118834Y-104649313D01*
X165174767Y-104691185D01*
X165199184Y-104756649D01*
X165199500Y-104765495D01*
X165199500Y-105674505D01*
X165179815Y-105741544D01*
X165127011Y-105787299D01*
X165057853Y-105797243D01*
X164994297Y-105768218D01*
X164987819Y-105762186D01*
X164899657Y-105674024D01*
X164813626Y-105616541D01*
X164727598Y-105559059D01*
X164536420Y-105479870D01*
X164536412Y-105479868D01*
X164333469Y-105439500D01*
X164333465Y-105439500D01*
X164126535Y-105439500D01*
X164126530Y-105439500D01*
X163923587Y-105479868D01*
X163923579Y-105479870D01*
X163732403Y-105559058D01*
X163560342Y-105674024D01*
X163414024Y-105820342D01*
X163299058Y-105992403D01*
X163219870Y-106183579D01*
X163219868Y-106183587D01*
X163179500Y-106386530D01*
X163179500Y-106593469D01*
X163219868Y-106796412D01*
X163219870Y-106796420D01*
X163299058Y-106987596D01*
X163414024Y-107159657D01*
X163560342Y-107305975D01*
X163560345Y-107305977D01*
X163732402Y-107420941D01*
X163923580Y-107500130D01*
X164126530Y-107540499D01*
X164126534Y-107540500D01*
X164126535Y-107540500D01*
X164333466Y-107540500D01*
X164333467Y-107540499D01*
X164536420Y-107500130D01*
X164727598Y-107420941D01*
X164899655Y-107305977D01*
X164908983Y-107296649D01*
X164987819Y-107217814D01*
X165049142Y-107184329D01*
X165118834Y-107189313D01*
X165174767Y-107231185D01*
X165199184Y-107296649D01*
X165199500Y-107305495D01*
X165199500Y-108214505D01*
X165179815Y-108281544D01*
X165127011Y-108327299D01*
X165057853Y-108337243D01*
X164994297Y-108308218D01*
X164987819Y-108302186D01*
X164899657Y-108214024D01*
X164790510Y-108141095D01*
X164727598Y-108099059D01*
X164625605Y-108056812D01*
X164536420Y-108019870D01*
X164536412Y-108019868D01*
X164333469Y-107979500D01*
X164333465Y-107979500D01*
X164126535Y-107979500D01*
X164126530Y-107979500D01*
X163923587Y-108019868D01*
X163923579Y-108019870D01*
X163732403Y-108099058D01*
X163560342Y-108214024D01*
X163414024Y-108360342D01*
X163299058Y-108532403D01*
X163219870Y-108723579D01*
X163219868Y-108723587D01*
X163179500Y-108926530D01*
X163179500Y-109133469D01*
X163209365Y-109283608D01*
X163219870Y-109336420D01*
X163299059Y-109527598D01*
X163356541Y-109613626D01*
X163414024Y-109699657D01*
X163560342Y-109845975D01*
X163560345Y-109845977D01*
X163732402Y-109960941D01*
X163923580Y-110040130D01*
X164126530Y-110080499D01*
X164126534Y-110080500D01*
X164126535Y-110080500D01*
X164333466Y-110080500D01*
X164333467Y-110080499D01*
X164536420Y-110040130D01*
X164727598Y-109960941D01*
X164899655Y-109845977D01*
X164929742Y-109815890D01*
X164987819Y-109757814D01*
X165049142Y-109724329D01*
X165118834Y-109729313D01*
X165174767Y-109771185D01*
X165199184Y-109836649D01*
X165199500Y-109845495D01*
X165199500Y-110754505D01*
X165179815Y-110821544D01*
X165127011Y-110867299D01*
X165057853Y-110877243D01*
X164994297Y-110848218D01*
X164987819Y-110842186D01*
X164899657Y-110754024D01*
X164813626Y-110696541D01*
X164727598Y-110639059D01*
X164654107Y-110608618D01*
X164536420Y-110559870D01*
X164536412Y-110559868D01*
X164333469Y-110519500D01*
X164333465Y-110519500D01*
X164126535Y-110519500D01*
X164126530Y-110519500D01*
X163923587Y-110559868D01*
X163923579Y-110559870D01*
X163732403Y-110639058D01*
X163560342Y-110754024D01*
X163414024Y-110900342D01*
X163299058Y-111072403D01*
X163219870Y-111263579D01*
X163219868Y-111263587D01*
X163179500Y-111466530D01*
X163179500Y-111673469D01*
X163219868Y-111876412D01*
X163219870Y-111876420D01*
X163299058Y-112067596D01*
X163414024Y-112239657D01*
X163560342Y-112385975D01*
X163560345Y-112385977D01*
X163732402Y-112500941D01*
X163923580Y-112580130D01*
X164126530Y-112620499D01*
X164126534Y-112620500D01*
X164126535Y-112620500D01*
X164333466Y-112620500D01*
X164333467Y-112620499D01*
X164536420Y-112580130D01*
X164727598Y-112500941D01*
X164899655Y-112385977D01*
X164908983Y-112376649D01*
X164987819Y-112297814D01*
X165049142Y-112264329D01*
X165118834Y-112269313D01*
X165174767Y-112311185D01*
X165199184Y-112376649D01*
X165199500Y-112385495D01*
X165199500Y-113294505D01*
X165179815Y-113361544D01*
X165127011Y-113407299D01*
X165057853Y-113417243D01*
X164994297Y-113388218D01*
X164987819Y-113382186D01*
X164899657Y-113294024D01*
X164813626Y-113236541D01*
X164727598Y-113179059D01*
X164536420Y-113099870D01*
X164536412Y-113099868D01*
X164333469Y-113059500D01*
X164333465Y-113059500D01*
X164126535Y-113059500D01*
X164126530Y-113059500D01*
X163923587Y-113099868D01*
X163923579Y-113099870D01*
X163732403Y-113179058D01*
X163560342Y-113294024D01*
X163414024Y-113440342D01*
X163299058Y-113612403D01*
X163219870Y-113803579D01*
X163219868Y-113803587D01*
X163179500Y-114006530D01*
X163179500Y-114213469D01*
X163219868Y-114416412D01*
X163219870Y-114416420D01*
X163299058Y-114607596D01*
X163414024Y-114779657D01*
X163560342Y-114925975D01*
X163560345Y-114925977D01*
X163732402Y-115040941D01*
X163923580Y-115120130D01*
X164126530Y-115160499D01*
X164126534Y-115160500D01*
X164126535Y-115160500D01*
X164333466Y-115160500D01*
X164333467Y-115160499D01*
X164536420Y-115120130D01*
X164727598Y-115040941D01*
X164899655Y-114925977D01*
X164936416Y-114889216D01*
X164987819Y-114837814D01*
X165049142Y-114804329D01*
X165118834Y-114809313D01*
X165174767Y-114851185D01*
X165199184Y-114916649D01*
X165199500Y-114925495D01*
X165199500Y-115834505D01*
X165179815Y-115901544D01*
X165127011Y-115947299D01*
X165057853Y-115957243D01*
X164994297Y-115928218D01*
X164987819Y-115922186D01*
X164899657Y-115834024D01*
X164774653Y-115750500D01*
X164727598Y-115719059D01*
X164721159Y-115716392D01*
X164536420Y-115639870D01*
X164536412Y-115639868D01*
X164333469Y-115599500D01*
X164333465Y-115599500D01*
X164126535Y-115599500D01*
X164126530Y-115599500D01*
X163923587Y-115639868D01*
X163923579Y-115639870D01*
X163732403Y-115719058D01*
X163560342Y-115834024D01*
X163414024Y-115980342D01*
X163299058Y-116152403D01*
X163219870Y-116343579D01*
X163219868Y-116343587D01*
X163179500Y-116546530D01*
X163179500Y-116753469D01*
X163219868Y-116956412D01*
X163219870Y-116956420D01*
X163299059Y-117147598D01*
X163343412Y-117213977D01*
X163414024Y-117319657D01*
X163560342Y-117465975D01*
X163560345Y-117465977D01*
X163732402Y-117580941D01*
X163923580Y-117660130D01*
X164126530Y-117700499D01*
X164126534Y-117700500D01*
X164126535Y-117700500D01*
X164333466Y-117700500D01*
X164333467Y-117700499D01*
X164536420Y-117660130D01*
X164727598Y-117580941D01*
X164899655Y-117465977D01*
X164908983Y-117456649D01*
X164987819Y-117377814D01*
X165049142Y-117344329D01*
X165118834Y-117349313D01*
X165174767Y-117391185D01*
X165199184Y-117456649D01*
X165199500Y-117465495D01*
X165199500Y-118374505D01*
X165179815Y-118441544D01*
X165127011Y-118487299D01*
X165057853Y-118497243D01*
X164994297Y-118468218D01*
X164987819Y-118462186D01*
X164899657Y-118374024D01*
X164788123Y-118299500D01*
X164727598Y-118259059D01*
X164666154Y-118233608D01*
X164536420Y-118179870D01*
X164536412Y-118179868D01*
X164333469Y-118139500D01*
X164333465Y-118139500D01*
X164126535Y-118139500D01*
X164126530Y-118139500D01*
X163923587Y-118179868D01*
X163923579Y-118179870D01*
X163732403Y-118259058D01*
X163560342Y-118374024D01*
X163414024Y-118520342D01*
X163299058Y-118692403D01*
X163219870Y-118883579D01*
X163219868Y-118883587D01*
X163179500Y-119086530D01*
X163179500Y-119293469D01*
X163198381Y-119388388D01*
X163219870Y-119496420D01*
X163299059Y-119687598D01*
X163326173Y-119728177D01*
X163414024Y-119859657D01*
X163560342Y-120005975D01*
X163560345Y-120005977D01*
X163732402Y-120120941D01*
X163923580Y-120200130D01*
X164126530Y-120240499D01*
X164126534Y-120240500D01*
X164126535Y-120240500D01*
X164333466Y-120240500D01*
X164333467Y-120240499D01*
X164536420Y-120200130D01*
X164727598Y-120120941D01*
X164899655Y-120005977D01*
X164908983Y-119996649D01*
X164987819Y-119917814D01*
X165049142Y-119884329D01*
X165118834Y-119889313D01*
X165174767Y-119931185D01*
X165199184Y-119996649D01*
X165199500Y-120005495D01*
X165199500Y-120914505D01*
X165179815Y-120981544D01*
X165127011Y-121027299D01*
X165057853Y-121037243D01*
X164994297Y-121008218D01*
X164987819Y-121002186D01*
X164899657Y-120914024D01*
X164772324Y-120828944D01*
X164727598Y-120799059D01*
X164697768Y-120786703D01*
X164536420Y-120719870D01*
X164536412Y-120719868D01*
X164333469Y-120679500D01*
X164333465Y-120679500D01*
X164126535Y-120679500D01*
X164126530Y-120679500D01*
X163923587Y-120719868D01*
X163923579Y-120719870D01*
X163732403Y-120799058D01*
X163560342Y-120914024D01*
X163414024Y-121060342D01*
X163299058Y-121232403D01*
X163219870Y-121423579D01*
X163219868Y-121423587D01*
X163179500Y-121626530D01*
X163179500Y-121833469D01*
X163212075Y-121997234D01*
X163219870Y-122036420D01*
X163299059Y-122227598D01*
X163323059Y-122263517D01*
X163414024Y-122399657D01*
X163560342Y-122545975D01*
X163560345Y-122545977D01*
X163732402Y-122660941D01*
X163923580Y-122740130D01*
X164126530Y-122780499D01*
X164126534Y-122780500D01*
X164126535Y-122780500D01*
X164333466Y-122780500D01*
X164333467Y-122780499D01*
X164536420Y-122740130D01*
X164727598Y-122660941D01*
X164899655Y-122545977D01*
X164908983Y-122536649D01*
X164987819Y-122457814D01*
X165049142Y-122424329D01*
X165118834Y-122429313D01*
X165174767Y-122471185D01*
X165199184Y-122536649D01*
X165199500Y-122545495D01*
X165199500Y-123454505D01*
X165179815Y-123521544D01*
X165127011Y-123567299D01*
X165057853Y-123577243D01*
X164994297Y-123548218D01*
X164987819Y-123542186D01*
X164899657Y-123454024D01*
X164779722Y-123373887D01*
X164727598Y-123339059D01*
X164705281Y-123329815D01*
X164536420Y-123259870D01*
X164536412Y-123259868D01*
X164333469Y-123219500D01*
X164333465Y-123219500D01*
X164126535Y-123219500D01*
X164126530Y-123219500D01*
X163923587Y-123259868D01*
X163923579Y-123259870D01*
X163732403Y-123339058D01*
X163560342Y-123454024D01*
X163414024Y-123600342D01*
X163299058Y-123772403D01*
X163219870Y-123963579D01*
X163219868Y-123963587D01*
X163179500Y-124166530D01*
X163179500Y-124373469D01*
X163215970Y-124556814D01*
X163219870Y-124576420D01*
X163299059Y-124767598D01*
X163313451Y-124789137D01*
X163414024Y-124939657D01*
X163560342Y-125085975D01*
X163560345Y-125085977D01*
X163732402Y-125200941D01*
X163923580Y-125280130D01*
X164126530Y-125320499D01*
X164126534Y-125320500D01*
X164126535Y-125320500D01*
X164333466Y-125320500D01*
X164333467Y-125320499D01*
X164536420Y-125280130D01*
X164727598Y-125200941D01*
X164899655Y-125085977D01*
X164936132Y-125049500D01*
X164987819Y-124997814D01*
X165049142Y-124964329D01*
X165118834Y-124969313D01*
X165174767Y-125011185D01*
X165199184Y-125076649D01*
X165199500Y-125085495D01*
X165199500Y-127175500D01*
X165179815Y-127242539D01*
X165127011Y-127288294D01*
X165075500Y-127299500D01*
X140524500Y-127299500D01*
X140457461Y-127279815D01*
X140411706Y-127227011D01*
X140400500Y-127175500D01*
X140400500Y-126484108D01*
X145499500Y-126484108D01*
X145499500Y-126615891D01*
X145533608Y-126743187D01*
X145566554Y-126800250D01*
X145599500Y-126857314D01*
X145692686Y-126950500D01*
X145806814Y-127016392D01*
X145934108Y-127050500D01*
X145934110Y-127050500D01*
X146065890Y-127050500D01*
X146065892Y-127050500D01*
X146193186Y-127016392D01*
X146307314Y-126950500D01*
X146400500Y-126857314D01*
X146466392Y-126743186D01*
X146500500Y-126615892D01*
X146500500Y-126484108D01*
X146466392Y-126356814D01*
X146400500Y-126242686D01*
X146307314Y-126149500D01*
X146250250Y-126116554D01*
X146193187Y-126083608D01*
X146129539Y-126066554D01*
X146065892Y-126049500D01*
X145934108Y-126049500D01*
X145806812Y-126083608D01*
X145692686Y-126149500D01*
X145692683Y-126149502D01*
X145599502Y-126242683D01*
X145599500Y-126242686D01*
X145533608Y-126356812D01*
X145499500Y-126484108D01*
X140400500Y-126484108D01*
X140400500Y-125085495D01*
X140420185Y-125018456D01*
X140472989Y-124972701D01*
X140542147Y-124962757D01*
X140605703Y-124991782D01*
X140612181Y-124997814D01*
X140700342Y-125085975D01*
X140700345Y-125085977D01*
X140872402Y-125200941D01*
X141063580Y-125280130D01*
X141266530Y-125320499D01*
X141266534Y-125320500D01*
X141266535Y-125320500D01*
X141473466Y-125320500D01*
X141473467Y-125320499D01*
X141676420Y-125280130D01*
X141867598Y-125200941D01*
X142039655Y-125085977D01*
X142185977Y-124939655D01*
X142300941Y-124767598D01*
X142335524Y-124684108D01*
X147999500Y-124684108D01*
X147999500Y-124815891D01*
X148033608Y-124943187D01*
X148056946Y-124983608D01*
X148099500Y-125057314D01*
X148192686Y-125150500D01*
X148306814Y-125216392D01*
X148434108Y-125250500D01*
X148434110Y-125250500D01*
X148565890Y-125250500D01*
X148565892Y-125250500D01*
X148693186Y-125216392D01*
X148807314Y-125150500D01*
X148900500Y-125057314D01*
X148966392Y-124943186D01*
X148985725Y-124871030D01*
X149022090Y-124811371D01*
X149084937Y-124780842D01*
X149154312Y-124789137D01*
X149208190Y-124833622D01*
X149229465Y-124900174D01*
X149229500Y-124903125D01*
X149229500Y-125131493D01*
X149229500Y-125131495D01*
X149229499Y-125131495D01*
X149256418Y-125266822D01*
X149256421Y-125266832D01*
X149309221Y-125394304D01*
X149309228Y-125394317D01*
X149385885Y-125509041D01*
X149385888Y-125509045D01*
X149483454Y-125606611D01*
X149483458Y-125606614D01*
X149598182Y-125683271D01*
X149598195Y-125683278D01*
X149725667Y-125736078D01*
X149725672Y-125736080D01*
X149725676Y-125736080D01*
X149725677Y-125736081D01*
X149861004Y-125763000D01*
X149861007Y-125763000D01*
X149998995Y-125763000D01*
X150090041Y-125744889D01*
X150134328Y-125736080D01*
X150261811Y-125683275D01*
X150376542Y-125606614D01*
X150474114Y-125509042D01*
X150550775Y-125394311D01*
X150603580Y-125266828D01*
X150616686Y-125200941D01*
X150630500Y-125131495D01*
X157869499Y-125131495D01*
X157896418Y-125266822D01*
X157896421Y-125266832D01*
X157949221Y-125394304D01*
X157949228Y-125394317D01*
X158025885Y-125509041D01*
X158025888Y-125509045D01*
X158123454Y-125606611D01*
X158123458Y-125606614D01*
X158238182Y-125683271D01*
X158238195Y-125683278D01*
X158365667Y-125736078D01*
X158365672Y-125736080D01*
X158365676Y-125736080D01*
X158365677Y-125736081D01*
X158501004Y-125763000D01*
X158501007Y-125763000D01*
X158638995Y-125763000D01*
X158730041Y-125744889D01*
X158774328Y-125736080D01*
X158901811Y-125683275D01*
X159016542Y-125606614D01*
X159114114Y-125509042D01*
X159190775Y-125394311D01*
X159190778Y-125394304D01*
X159195001Y-125384108D01*
X159949500Y-125384108D01*
X159949500Y-125515891D01*
X159983608Y-125643187D01*
X160006751Y-125683271D01*
X160049500Y-125757314D01*
X160142686Y-125850500D01*
X160256814Y-125916392D01*
X160384108Y-125950500D01*
X160384110Y-125950500D01*
X160515890Y-125950500D01*
X160515892Y-125950500D01*
X160643186Y-125916392D01*
X160757314Y-125850500D01*
X160850500Y-125757314D01*
X160916392Y-125643186D01*
X160950500Y-125515892D01*
X160950500Y-125384108D01*
X160916392Y-125256814D01*
X160850500Y-125142686D01*
X160757314Y-125049500D01*
X160690951Y-125011185D01*
X160643187Y-124983608D01*
X160565368Y-124962757D01*
X160515892Y-124949500D01*
X160384108Y-124949500D01*
X160256812Y-124983608D01*
X160142686Y-125049500D01*
X160142683Y-125049502D01*
X160049502Y-125142683D01*
X160049500Y-125142686D01*
X159983608Y-125256812D01*
X159949500Y-125384108D01*
X159195001Y-125384108D01*
X159218023Y-125328529D01*
X159238070Y-125280130D01*
X159243580Y-125266828D01*
X159256686Y-125200941D01*
X159270500Y-125131495D01*
X159270500Y-124193504D01*
X159243581Y-124058177D01*
X159243580Y-124058176D01*
X159243580Y-124058172D01*
X159204399Y-123963580D01*
X159190778Y-123930695D01*
X159190771Y-123930682D01*
X159114114Y-123815958D01*
X159114111Y-123815954D01*
X159016545Y-123718388D01*
X159016541Y-123718385D01*
X158901817Y-123641728D01*
X158901804Y-123641721D01*
X158774332Y-123588921D01*
X158774322Y-123588918D01*
X158638995Y-123562000D01*
X158638993Y-123562000D01*
X158501007Y-123562000D01*
X158501005Y-123562000D01*
X158365677Y-123588918D01*
X158365667Y-123588921D01*
X158238195Y-123641721D01*
X158238182Y-123641728D01*
X158123458Y-123718385D01*
X158123454Y-123718388D01*
X158025888Y-123815954D01*
X158025885Y-123815958D01*
X157949228Y-123930682D01*
X157949221Y-123930695D01*
X157896421Y-124058167D01*
X157896418Y-124058177D01*
X157869500Y-124193504D01*
X157869500Y-124193507D01*
X157869500Y-125131493D01*
X157869500Y-125131495D01*
X157869499Y-125131495D01*
X150630500Y-125131495D01*
X150630500Y-124193504D01*
X150603581Y-124058177D01*
X150603580Y-124058176D01*
X150603580Y-124058172D01*
X150564399Y-123963580D01*
X150550778Y-123930695D01*
X150550771Y-123930682D01*
X150474114Y-123815958D01*
X150474111Y-123815954D01*
X150376545Y-123718388D01*
X150376541Y-123718385D01*
X150261817Y-123641728D01*
X150261804Y-123641721D01*
X150134332Y-123588921D01*
X150134322Y-123588918D01*
X149998995Y-123562000D01*
X149998993Y-123562000D01*
X149861007Y-123562000D01*
X149861005Y-123562000D01*
X149725677Y-123588918D01*
X149725667Y-123588921D01*
X149598195Y-123641721D01*
X149598182Y-123641728D01*
X149483458Y-123718385D01*
X149483454Y-123718388D01*
X149385888Y-123815954D01*
X149385885Y-123815958D01*
X149309228Y-123930682D01*
X149309221Y-123930695D01*
X149256421Y-124058167D01*
X149256418Y-124058177D01*
X149229500Y-124193504D01*
X149229500Y-124596874D01*
X149209815Y-124663913D01*
X149157011Y-124709668D01*
X149087853Y-124719612D01*
X149024297Y-124690587D01*
X148986523Y-124631809D01*
X148985725Y-124628968D01*
X148966392Y-124556814D01*
X148900500Y-124442686D01*
X148807314Y-124349500D01*
X148750250Y-124316554D01*
X148693187Y-124283608D01*
X148629539Y-124266554D01*
X148565892Y-124249500D01*
X148434108Y-124249500D01*
X148306812Y-124283608D01*
X148192686Y-124349500D01*
X148192683Y-124349502D01*
X148099502Y-124442683D01*
X148099500Y-124442686D01*
X148033608Y-124556812D01*
X147999500Y-124684108D01*
X142335524Y-124684108D01*
X142380130Y-124576420D01*
X142420500Y-124373465D01*
X142420500Y-124166535D01*
X142380130Y-123963580D01*
X142300941Y-123772402D01*
X142185977Y-123600345D01*
X142185975Y-123600342D01*
X142039657Y-123454024D01*
X141919722Y-123373887D01*
X141867598Y-123339059D01*
X141845281Y-123329815D01*
X141676420Y-123259870D01*
X141676412Y-123259868D01*
X141473469Y-123219500D01*
X141473465Y-123219500D01*
X141266535Y-123219500D01*
X141266530Y-123219500D01*
X141063587Y-123259868D01*
X141063579Y-123259870D01*
X140872403Y-123339058D01*
X140700342Y-123454024D01*
X140700341Y-123454025D01*
X140612181Y-123542186D01*
X140550858Y-123575671D01*
X140481166Y-123570687D01*
X140425233Y-123528815D01*
X140400816Y-123463351D01*
X140400500Y-123454505D01*
X140400500Y-122545495D01*
X140420185Y-122478456D01*
X140472989Y-122432701D01*
X140542147Y-122422757D01*
X140605703Y-122451782D01*
X140612181Y-122457814D01*
X140700342Y-122545975D01*
X140700345Y-122545977D01*
X140872402Y-122660941D01*
X141063580Y-122740130D01*
X141266530Y-122780499D01*
X141266534Y-122780500D01*
X141266535Y-122780500D01*
X141473466Y-122780500D01*
X141473467Y-122780499D01*
X141676420Y-122740130D01*
X141867598Y-122660941D01*
X142039655Y-122545977D01*
X142185977Y-122399655D01*
X142300941Y-122227598D01*
X142380130Y-122036420D01*
X142420500Y-121833465D01*
X142420500Y-121626535D01*
X142380130Y-121423580D01*
X142300941Y-121232402D01*
X142213472Y-121101495D01*
X149229499Y-121101495D01*
X149256418Y-121236822D01*
X149256421Y-121236832D01*
X149309221Y-121364304D01*
X149309228Y-121364317D01*
X149385885Y-121479041D01*
X149385888Y-121479045D01*
X149483454Y-121576611D01*
X149483458Y-121576614D01*
X149598182Y-121653271D01*
X149598195Y-121653278D01*
X149725667Y-121706078D01*
X149725672Y-121706080D01*
X149725676Y-121706080D01*
X149725677Y-121706081D01*
X149861004Y-121733000D01*
X149861007Y-121733000D01*
X149998995Y-121733000D01*
X150090041Y-121714889D01*
X150134328Y-121706080D01*
X150261811Y-121653275D01*
X150376542Y-121576614D01*
X150474114Y-121479042D01*
X150550775Y-121364311D01*
X150603580Y-121236828D01*
X150619353Y-121157533D01*
X150651737Y-121095622D01*
X150712453Y-121061048D01*
X150782223Y-121064787D01*
X150838895Y-121105653D01*
X150860744Y-121149628D01*
X150862862Y-121157532D01*
X150870312Y-121185337D01*
X150870313Y-121185338D01*
X150939492Y-121305161D01*
X150939494Y-121305164D01*
X150939495Y-121305165D01*
X151037335Y-121403005D01*
X151157164Y-121472188D01*
X151290817Y-121508000D01*
X151290819Y-121508000D01*
X151429181Y-121508000D01*
X151429183Y-121508000D01*
X151562836Y-121472188D01*
X151613500Y-121442936D01*
X151681400Y-121426464D01*
X151747427Y-121449316D01*
X151790618Y-121504238D01*
X151799500Y-121550324D01*
X151799500Y-123259309D01*
X151813935Y-123313181D01*
X151816804Y-123323887D01*
X151816804Y-123323889D01*
X151830199Y-123373884D01*
X151830201Y-123373887D01*
X151889511Y-123476614D01*
X152573386Y-124160489D01*
X152676113Y-124219799D01*
X152700321Y-124226284D01*
X152700324Y-124226286D01*
X152700325Y-124226286D01*
X152730447Y-124234357D01*
X152790691Y-124250500D01*
X152790693Y-124250500D01*
X155674308Y-124250500D01*
X155674309Y-124250500D01*
X155764673Y-124226286D01*
X155788887Y-124219799D01*
X155891614Y-124160489D01*
X156625490Y-123426614D01*
X156655932Y-123373887D01*
X156684798Y-123323889D01*
X156684800Y-123323885D01*
X156702102Y-123259309D01*
X156715500Y-123209309D01*
X156715500Y-121558984D01*
X156735185Y-121491945D01*
X156787989Y-121446190D01*
X156857147Y-121436246D01*
X156901496Y-121451595D01*
X156937164Y-121472188D01*
X157070817Y-121508000D01*
X157070819Y-121508000D01*
X157209181Y-121508000D01*
X157209183Y-121508000D01*
X157342836Y-121472188D01*
X157462665Y-121403005D01*
X157560505Y-121305165D01*
X157629688Y-121185336D01*
X157639255Y-121149629D01*
X157675618Y-121089971D01*
X157738464Y-121059441D01*
X157807840Y-121067735D01*
X157861718Y-121112219D01*
X157880646Y-121157532D01*
X157896418Y-121236822D01*
X157896421Y-121236832D01*
X157949221Y-121364304D01*
X157949228Y-121364317D01*
X158025885Y-121479041D01*
X158025888Y-121479045D01*
X158123454Y-121576611D01*
X158123458Y-121576614D01*
X158238182Y-121653271D01*
X158238195Y-121653278D01*
X158365667Y-121706078D01*
X158365672Y-121706080D01*
X158365676Y-121706080D01*
X158365677Y-121706081D01*
X158501004Y-121733000D01*
X158501007Y-121733000D01*
X158638995Y-121733000D01*
X158730041Y-121714889D01*
X158774328Y-121706080D01*
X158901811Y-121653275D01*
X159016542Y-121576614D01*
X159114114Y-121479042D01*
X159190775Y-121364311D01*
X159243580Y-121236828D01*
X159253822Y-121185337D01*
X159270500Y-121101495D01*
X159270500Y-119863504D01*
X159243581Y-119728177D01*
X159243580Y-119728176D01*
X159243580Y-119728172D01*
X159226773Y-119687596D01*
X159190778Y-119600695D01*
X159190771Y-119600682D01*
X159114114Y-119485958D01*
X159114111Y-119485954D01*
X159016545Y-119388388D01*
X159016541Y-119388385D01*
X158901817Y-119311728D01*
X158901804Y-119311721D01*
X158774332Y-119258921D01*
X158774322Y-119258918D01*
X158638995Y-119232000D01*
X158638993Y-119232000D01*
X158501007Y-119232000D01*
X158501005Y-119232000D01*
X158365677Y-119258918D01*
X158365667Y-119258921D01*
X158238195Y-119311721D01*
X158238182Y-119311728D01*
X158123458Y-119388385D01*
X158123454Y-119388388D01*
X158025888Y-119485954D01*
X158025885Y-119485958D01*
X157949228Y-119600682D01*
X157949221Y-119600695D01*
X157896421Y-119728167D01*
X157896418Y-119728177D01*
X157869500Y-119863504D01*
X157869500Y-120735231D01*
X157849815Y-120802270D01*
X157797011Y-120848025D01*
X157727853Y-120857969D01*
X157664297Y-120828944D01*
X157633812Y-120786668D01*
X157633752Y-120786703D01*
X157633409Y-120786109D01*
X157630940Y-120782685D01*
X157629690Y-120779667D01*
X157560507Y-120659838D01*
X157560503Y-120659833D01*
X157462666Y-120561996D01*
X157462661Y-120561992D01*
X157342838Y-120492813D01*
X157342837Y-120492812D01*
X157342836Y-120492812D01*
X157209183Y-120457000D01*
X157070817Y-120457000D01*
X156937164Y-120492812D01*
X156937163Y-120492812D01*
X156901499Y-120513403D01*
X156833599Y-120529874D01*
X156767572Y-120507022D01*
X156724382Y-120452100D01*
X156715500Y-120406015D01*
X156715500Y-119193676D01*
X156735185Y-119126637D01*
X156751819Y-119105995D01*
X156771284Y-119086530D01*
X156850500Y-119007314D01*
X156916392Y-118893186D01*
X156950500Y-118765892D01*
X156950500Y-118634108D01*
X156916392Y-118506814D01*
X156850500Y-118392686D01*
X156757314Y-118299500D01*
X156700250Y-118266554D01*
X156643187Y-118233608D01*
X156579539Y-118216554D01*
X156515892Y-118199500D01*
X156384108Y-118199500D01*
X156256812Y-118233608D01*
X156142686Y-118299500D01*
X156142683Y-118299502D01*
X156049502Y-118392683D01*
X156049498Y-118392689D01*
X155983606Y-118506816D01*
X155980495Y-118514328D01*
X155979158Y-118513774D01*
X155951888Y-118561007D01*
X155904512Y-118608383D01*
X155845201Y-118711112D01*
X155845200Y-118711117D01*
X155814500Y-118825691D01*
X155814500Y-122912034D01*
X155794815Y-122979073D01*
X155778181Y-122999715D01*
X155464716Y-123313181D01*
X155403393Y-123346666D01*
X155377035Y-123349500D01*
X153087965Y-123349500D01*
X153020926Y-123329815D01*
X153000284Y-123313181D01*
X152736819Y-123049716D01*
X152703334Y-122988393D01*
X152700500Y-122962035D01*
X152700500Y-121334108D01*
X153099501Y-121334108D01*
X153099501Y-121465892D01*
X153110784Y-121508000D01*
X153133609Y-121593187D01*
X153152863Y-121626535D01*
X153199501Y-121707314D01*
X153292687Y-121800500D01*
X153406815Y-121866392D01*
X153467069Y-121882536D01*
X153526727Y-121918899D01*
X153557257Y-121981745D01*
X153558974Y-122002310D01*
X153558974Y-122136221D01*
X153593082Y-122263517D01*
X153626028Y-122320580D01*
X153658974Y-122377644D01*
X153752160Y-122470830D01*
X153850995Y-122527893D01*
X153866161Y-122536649D01*
X153866288Y-122536722D01*
X153993582Y-122570830D01*
X153993584Y-122570830D01*
X154125364Y-122570830D01*
X154125366Y-122570830D01*
X154252660Y-122536722D01*
X154366788Y-122470830D01*
X154459974Y-122377644D01*
X154525866Y-122263516D01*
X154559974Y-122136222D01*
X154559974Y-122004438D01*
X154559974Y-121997234D01*
X154579659Y-121930195D01*
X154632463Y-121884440D01*
X154651875Y-121877461D01*
X154693186Y-121866392D01*
X154807314Y-121800500D01*
X154900500Y-121707314D01*
X154966392Y-121593186D01*
X155000500Y-121465892D01*
X155000500Y-121334108D01*
X154966392Y-121206814D01*
X154900500Y-121092686D01*
X154807314Y-120999500D01*
X154749968Y-120966391D01*
X154693187Y-120933608D01*
X154621892Y-120914505D01*
X154565892Y-120899500D01*
X154434108Y-120899500D01*
X154306812Y-120933608D01*
X154192686Y-120999500D01*
X154137681Y-121054505D01*
X154076357Y-121087989D01*
X154006665Y-121083004D01*
X153962319Y-121054504D01*
X153907317Y-120999502D01*
X153907315Y-120999500D01*
X153849969Y-120966391D01*
X153793188Y-120933608D01*
X153721893Y-120914505D01*
X153665893Y-120899500D01*
X153534109Y-120899500D01*
X153406813Y-120933608D01*
X153292687Y-120999500D01*
X153292684Y-120999502D01*
X153199503Y-121092683D01*
X153199501Y-121092686D01*
X153133609Y-121206812D01*
X153116072Y-121272264D01*
X153099501Y-121334108D01*
X152700500Y-121334108D01*
X152700500Y-118584110D01*
X152700500Y-118584108D01*
X152666392Y-118456814D01*
X152600500Y-118342686D01*
X152507314Y-118249500D01*
X152420712Y-118199500D01*
X152393187Y-118183608D01*
X152329539Y-118166554D01*
X152265892Y-118149500D01*
X152134108Y-118149500D01*
X152006812Y-118183608D01*
X151892686Y-118249500D01*
X151892683Y-118249502D01*
X151799502Y-118342683D01*
X151799500Y-118342686D01*
X151733608Y-118456812D01*
X151718197Y-118514328D01*
X151699500Y-118584108D01*
X151699500Y-118715892D01*
X151733608Y-118843186D01*
X151782887Y-118928540D01*
X151799500Y-118990539D01*
X151799500Y-120414675D01*
X151779815Y-120481714D01*
X151727011Y-120527469D01*
X151657853Y-120537413D01*
X151613501Y-120522063D01*
X151562836Y-120492812D01*
X151521417Y-120481714D01*
X151429183Y-120457000D01*
X151290817Y-120457000D01*
X151157164Y-120492812D01*
X151157161Y-120492813D01*
X151037338Y-120561992D01*
X151037333Y-120561996D01*
X150939496Y-120659833D01*
X150939492Y-120659838D01*
X150870309Y-120779667D01*
X150869060Y-120782685D01*
X150867324Y-120784839D01*
X150866248Y-120786703D01*
X150865957Y-120786535D01*
X150825219Y-120837088D01*
X150758924Y-120859152D01*
X150691225Y-120841872D01*
X150643615Y-120790734D01*
X150630500Y-120735231D01*
X150630500Y-119863504D01*
X150603581Y-119728177D01*
X150603580Y-119728176D01*
X150603580Y-119728172D01*
X150586773Y-119687596D01*
X150550778Y-119600695D01*
X150550771Y-119600682D01*
X150474114Y-119485958D01*
X150474111Y-119485954D01*
X150376545Y-119388388D01*
X150376541Y-119388385D01*
X150261817Y-119311728D01*
X150261804Y-119311721D01*
X150134332Y-119258921D01*
X150134322Y-119258918D01*
X149998995Y-119232000D01*
X149998993Y-119232000D01*
X149861007Y-119232000D01*
X149861005Y-119232000D01*
X149725677Y-119258918D01*
X149725667Y-119258921D01*
X149598195Y-119311721D01*
X149598182Y-119311728D01*
X149483458Y-119388385D01*
X149483454Y-119388388D01*
X149385888Y-119485954D01*
X149385885Y-119485958D01*
X149309228Y-119600682D01*
X149309221Y-119600695D01*
X149256421Y-119728167D01*
X149256418Y-119728177D01*
X149229500Y-119863504D01*
X149229500Y-119863507D01*
X149229500Y-121101493D01*
X149229500Y-121101495D01*
X149229499Y-121101495D01*
X142213472Y-121101495D01*
X142185977Y-121060345D01*
X142185975Y-121060342D01*
X142039657Y-120914024D01*
X141912324Y-120828944D01*
X141867598Y-120799059D01*
X141837768Y-120786703D01*
X141676420Y-120719870D01*
X141676412Y-120719868D01*
X141473469Y-120679500D01*
X141473465Y-120679500D01*
X141266535Y-120679500D01*
X141266530Y-120679500D01*
X141063587Y-120719868D01*
X141063579Y-120719870D01*
X140872403Y-120799058D01*
X140700342Y-120914024D01*
X140700341Y-120914025D01*
X140612181Y-121002186D01*
X140550858Y-121035671D01*
X140481166Y-121030687D01*
X140425233Y-120988815D01*
X140400816Y-120923351D01*
X140400500Y-120914505D01*
X140400500Y-120434108D01*
X143999500Y-120434108D01*
X143999500Y-120565891D01*
X144033608Y-120693187D01*
X144049013Y-120719868D01*
X144099500Y-120807314D01*
X144192686Y-120900500D01*
X144306814Y-120966392D01*
X144434108Y-121000500D01*
X144434110Y-121000500D01*
X144565890Y-121000500D01*
X144565892Y-121000500D01*
X144693186Y-120966392D01*
X144807314Y-120900500D01*
X144900500Y-120807314D01*
X144966392Y-120693186D01*
X145000500Y-120565892D01*
X145000500Y-120434108D01*
X144966392Y-120306814D01*
X144900500Y-120192686D01*
X144807314Y-120099500D01*
X144750250Y-120066554D01*
X144693187Y-120033608D01*
X144629539Y-120016554D01*
X144565892Y-119999500D01*
X144434108Y-119999500D01*
X144306812Y-120033608D01*
X144192686Y-120099500D01*
X144192683Y-120099502D01*
X144099502Y-120192683D01*
X144099500Y-120192686D01*
X144033608Y-120306812D01*
X143999500Y-120434108D01*
X140400500Y-120434108D01*
X140400500Y-120005495D01*
X140420185Y-119938456D01*
X140472989Y-119892701D01*
X140542147Y-119882757D01*
X140605703Y-119911782D01*
X140612181Y-119917814D01*
X140700342Y-120005975D01*
X140700345Y-120005977D01*
X140872402Y-120120941D01*
X141063580Y-120200130D01*
X141266530Y-120240499D01*
X141266534Y-120240500D01*
X141266535Y-120240500D01*
X141473466Y-120240500D01*
X141473467Y-120240499D01*
X141676420Y-120200130D01*
X141867598Y-120120941D01*
X142039655Y-120005977D01*
X142185977Y-119859655D01*
X142273828Y-119728177D01*
X142300940Y-119687600D01*
X142300940Y-119687599D01*
X142300941Y-119687598D01*
X142380130Y-119496420D01*
X142420500Y-119293465D01*
X142420500Y-119086535D01*
X142380130Y-118883580D01*
X142300941Y-118692402D01*
X142185977Y-118520345D01*
X142185975Y-118520342D01*
X142039657Y-118374024D01*
X141928123Y-118299500D01*
X141867598Y-118259059D01*
X141806154Y-118233608D01*
X141676420Y-118179870D01*
X141676412Y-118179868D01*
X141473469Y-118139500D01*
X141473465Y-118139500D01*
X141266535Y-118139500D01*
X141266530Y-118139500D01*
X141063587Y-118179868D01*
X141063579Y-118179870D01*
X140872403Y-118259058D01*
X140700342Y-118374024D01*
X140700341Y-118374025D01*
X140612181Y-118462186D01*
X140550858Y-118495671D01*
X140481166Y-118490687D01*
X140425233Y-118448815D01*
X140400816Y-118383351D01*
X140400500Y-118374505D01*
X140400500Y-117934108D01*
X160976869Y-117934108D01*
X160976869Y-118065891D01*
X161010977Y-118193187D01*
X161014622Y-118199500D01*
X161076869Y-118307314D01*
X161170055Y-118400500D01*
X161284183Y-118466392D01*
X161411477Y-118500500D01*
X161411479Y-118500500D01*
X161543259Y-118500500D01*
X161543261Y-118500500D01*
X161670555Y-118466392D01*
X161784683Y-118400500D01*
X161877869Y-118307314D01*
X161943761Y-118193186D01*
X161977869Y-118065892D01*
X161977869Y-117934108D01*
X161943761Y-117806814D01*
X161877869Y-117692686D01*
X161784683Y-117599500D01*
X161727619Y-117566554D01*
X161670556Y-117533608D01*
X161606908Y-117516554D01*
X161543261Y-117499500D01*
X161411477Y-117499500D01*
X161284181Y-117533608D01*
X161170055Y-117599500D01*
X161170052Y-117599502D01*
X161076871Y-117692683D01*
X161076869Y-117692686D01*
X161010977Y-117806812D01*
X160976869Y-117934108D01*
X140400500Y-117934108D01*
X140400500Y-117465495D01*
X140420185Y-117398456D01*
X140472989Y-117352701D01*
X140542147Y-117342757D01*
X140605703Y-117371782D01*
X140612181Y-117377814D01*
X140700342Y-117465975D01*
X140700345Y-117465977D01*
X140872402Y-117580941D01*
X141063580Y-117660130D01*
X141266530Y-117700499D01*
X141266534Y-117700500D01*
X141266535Y-117700500D01*
X141473466Y-117700500D01*
X141473467Y-117700499D01*
X141676420Y-117660130D01*
X141867598Y-117580941D01*
X142039655Y-117465977D01*
X142185977Y-117319655D01*
X142300941Y-117147598D01*
X142380130Y-116956420D01*
X142384568Y-116934108D01*
X144749500Y-116934108D01*
X144749500Y-117065891D01*
X144783608Y-117193187D01*
X144795612Y-117213978D01*
X144849500Y-117307314D01*
X144942686Y-117400500D01*
X145039939Y-117456649D01*
X145056091Y-117465975D01*
X145056814Y-117466392D01*
X145184108Y-117500500D01*
X145184110Y-117500500D01*
X145315890Y-117500500D01*
X145315892Y-117500500D01*
X145443186Y-117466392D01*
X145557314Y-117400500D01*
X145650500Y-117307314D01*
X145663899Y-117284106D01*
X154199501Y-117284106D01*
X154199501Y-117415890D01*
X154212921Y-117465974D01*
X154233609Y-117543185D01*
X154255408Y-117580941D01*
X154299501Y-117657312D01*
X154392687Y-117750498D01*
X154506815Y-117816390D01*
X154634109Y-117850498D01*
X154634111Y-117850498D01*
X154765891Y-117850498D01*
X154765893Y-117850498D01*
X154893187Y-117816390D01*
X155007315Y-117750498D01*
X155100501Y-117657312D01*
X155166393Y-117543184D01*
X155200501Y-117415890D01*
X155200501Y-117284106D01*
X155166393Y-117156812D01*
X155100501Y-117042684D01*
X155007315Y-116949498D01*
X154924683Y-116901790D01*
X154893188Y-116883606D01*
X154829540Y-116866552D01*
X154765893Y-116849498D01*
X154634109Y-116849498D01*
X154506813Y-116883606D01*
X154392687Y-116949498D01*
X154392684Y-116949500D01*
X154299503Y-117042681D01*
X154299501Y-117042684D01*
X154233609Y-117156810D01*
X154199501Y-117284106D01*
X145663899Y-117284106D01*
X145716392Y-117193186D01*
X145750500Y-117065892D01*
X145750500Y-116934108D01*
X145716392Y-116806814D01*
X145650500Y-116692686D01*
X145557314Y-116599500D01*
X145500250Y-116566554D01*
X145443187Y-116533608D01*
X145379539Y-116516554D01*
X145315892Y-116499500D01*
X145184108Y-116499500D01*
X145056812Y-116533608D01*
X144942686Y-116599500D01*
X144942683Y-116599502D01*
X144849502Y-116692683D01*
X144849500Y-116692686D01*
X144783608Y-116806812D01*
X144749500Y-116934108D01*
X142384568Y-116934108D01*
X142420500Y-116753465D01*
X142420500Y-116546535D01*
X142380130Y-116343580D01*
X142300941Y-116152402D01*
X142185977Y-115980345D01*
X142185975Y-115980342D01*
X142039657Y-115834024D01*
X141914653Y-115750500D01*
X141867598Y-115719059D01*
X141861159Y-115716392D01*
X141676420Y-115639870D01*
X141676412Y-115639868D01*
X141473469Y-115599500D01*
X141473465Y-115599500D01*
X141266535Y-115599500D01*
X141266530Y-115599500D01*
X141063587Y-115639868D01*
X141063579Y-115639870D01*
X140872403Y-115719058D01*
X140700342Y-115834024D01*
X140700341Y-115834025D01*
X140612181Y-115922186D01*
X140550858Y-115955671D01*
X140481166Y-115950687D01*
X140425233Y-115908815D01*
X140400816Y-115843351D01*
X140400500Y-115834505D01*
X140400500Y-115184108D01*
X145799500Y-115184108D01*
X145799500Y-115315891D01*
X145833608Y-115443187D01*
X145866554Y-115500250D01*
X145899500Y-115557314D01*
X145992686Y-115650500D01*
X146106814Y-115716392D01*
X146234108Y-115750500D01*
X146234110Y-115750500D01*
X146365890Y-115750500D01*
X146365892Y-115750500D01*
X146493186Y-115716392D01*
X146607314Y-115650500D01*
X146700500Y-115557314D01*
X146766392Y-115443186D01*
X146800500Y-115315892D01*
X146800500Y-115184108D01*
X146766392Y-115056814D01*
X146700500Y-114942686D01*
X146607314Y-114849500D01*
X146550250Y-114816554D01*
X146493187Y-114783608D01*
X146429539Y-114766554D01*
X146365892Y-114749500D01*
X146234108Y-114749500D01*
X146106812Y-114783608D01*
X145992686Y-114849500D01*
X145992683Y-114849502D01*
X145899502Y-114942683D01*
X145899500Y-114942686D01*
X145833608Y-115056812D01*
X145799500Y-115184108D01*
X140400500Y-115184108D01*
X140400500Y-114925495D01*
X140420185Y-114858456D01*
X140472989Y-114812701D01*
X140542147Y-114802757D01*
X140605703Y-114831782D01*
X140612181Y-114837814D01*
X140700342Y-114925975D01*
X140700345Y-114925977D01*
X140872402Y-115040941D01*
X141063580Y-115120130D01*
X141266530Y-115160499D01*
X141266534Y-115160500D01*
X141266535Y-115160500D01*
X141473466Y-115160500D01*
X141473467Y-115160499D01*
X141676420Y-115120130D01*
X141818158Y-115061420D01*
X141867596Y-115040942D01*
X141867596Y-115040941D01*
X141867598Y-115040941D01*
X142039655Y-114925977D01*
X142185977Y-114779655D01*
X142300941Y-114607598D01*
X142338878Y-114516011D01*
X149917597Y-114516011D01*
X149917597Y-114647794D01*
X149951705Y-114775090D01*
X149970310Y-114807314D01*
X150017597Y-114889217D01*
X150110783Y-114982403D01*
X150209618Y-115039466D01*
X150212173Y-115040941D01*
X150224911Y-115048295D01*
X150352205Y-115082403D01*
X150352207Y-115082403D01*
X150483987Y-115082403D01*
X150483989Y-115082403D01*
X150611283Y-115048295D01*
X150725411Y-114982403D01*
X150818597Y-114889217D01*
X150884489Y-114775089D01*
X150918597Y-114647795D01*
X150918597Y-114516011D01*
X150896651Y-114434108D01*
X156814498Y-114434108D01*
X156814498Y-114565892D01*
X156825673Y-114607598D01*
X156848606Y-114693187D01*
X156881119Y-114749500D01*
X156914498Y-114807314D01*
X157007684Y-114900500D01*
X157121812Y-114966392D01*
X157249106Y-115000500D01*
X157249108Y-115000500D01*
X157380888Y-115000500D01*
X157380890Y-115000500D01*
X157508184Y-114966392D01*
X157622312Y-114900500D01*
X157715498Y-114807314D01*
X157781390Y-114693186D01*
X157815498Y-114565892D01*
X157815498Y-114434108D01*
X157781390Y-114306814D01*
X157715498Y-114192686D01*
X157622312Y-114099500D01*
X157565248Y-114066554D01*
X157508185Y-114033608D01*
X157407141Y-114006534D01*
X157380890Y-113999500D01*
X157249106Y-113999500D01*
X157121810Y-114033608D01*
X157007684Y-114099500D01*
X157007681Y-114099502D01*
X156914500Y-114192683D01*
X156914498Y-114192686D01*
X156848606Y-114306812D01*
X156826661Y-114388715D01*
X156814498Y-114434108D01*
X150896651Y-114434108D01*
X150884489Y-114388717D01*
X150818597Y-114274589D01*
X150725411Y-114181403D01*
X150668347Y-114148457D01*
X150611284Y-114115511D01*
X150547636Y-114098457D01*
X150483989Y-114081403D01*
X150352205Y-114081403D01*
X150224909Y-114115511D01*
X150110783Y-114181403D01*
X150110780Y-114181405D01*
X150017599Y-114274586D01*
X150017597Y-114274589D01*
X149951705Y-114388715D01*
X149917597Y-114516011D01*
X142338878Y-114516011D01*
X142380130Y-114416420D01*
X142420500Y-114213465D01*
X142420500Y-114006535D01*
X142380130Y-113803580D01*
X142300941Y-113612402D01*
X142214578Y-113483150D01*
X142185977Y-113440344D01*
X142179741Y-113434108D01*
X144749500Y-113434108D01*
X144749500Y-113565892D01*
X144766554Y-113629539D01*
X144783608Y-113693187D01*
X144790712Y-113705491D01*
X144849500Y-113807314D01*
X144942686Y-113900500D01*
X145056814Y-113966392D01*
X145184108Y-114000500D01*
X145184110Y-114000500D01*
X145315890Y-114000500D01*
X145315892Y-114000500D01*
X145443186Y-113966392D01*
X145557314Y-113900500D01*
X145650500Y-113807314D01*
X145716392Y-113693186D01*
X145750500Y-113565892D01*
X145750500Y-113434108D01*
X145716392Y-113306814D01*
X145650500Y-113192686D01*
X145557314Y-113099500D01*
X145488032Y-113059500D01*
X145443187Y-113033608D01*
X145379539Y-113016554D01*
X145315892Y-112999500D01*
X145184108Y-112999500D01*
X145056812Y-113033608D01*
X144942686Y-113099500D01*
X144942683Y-113099502D01*
X144849502Y-113192683D01*
X144849500Y-113192686D01*
X144783608Y-113306812D01*
X144754440Y-113415671D01*
X144749500Y-113434108D01*
X142179741Y-113434108D01*
X142039657Y-113294024D01*
X141953626Y-113236541D01*
X141867598Y-113179059D01*
X141676420Y-113099870D01*
X141676412Y-113099868D01*
X141473469Y-113059500D01*
X141473465Y-113059500D01*
X141266535Y-113059500D01*
X141266530Y-113059500D01*
X141063587Y-113099868D01*
X141063579Y-113099870D01*
X140872403Y-113179058D01*
X140700342Y-113294024D01*
X140700341Y-113294025D01*
X140612181Y-113382186D01*
X140550858Y-113415671D01*
X140481166Y-113410687D01*
X140425233Y-113368815D01*
X140400816Y-113303351D01*
X140400500Y-113294505D01*
X140400500Y-112730199D01*
X161342404Y-112730199D01*
X161342404Y-112861982D01*
X161376512Y-112989278D01*
X161409458Y-113046341D01*
X161442404Y-113103405D01*
X161535590Y-113196591D01*
X161649718Y-113262483D01*
X161777012Y-113296591D01*
X161777014Y-113296591D01*
X161908794Y-113296591D01*
X161908796Y-113296591D01*
X162036090Y-113262483D01*
X162150218Y-113196591D01*
X162243404Y-113103405D01*
X162309296Y-112989277D01*
X162343404Y-112861983D01*
X162343404Y-112730199D01*
X162309296Y-112602905D01*
X162307881Y-112600455D01*
X162296146Y-112580129D01*
X162243404Y-112488777D01*
X162150218Y-112395591D01*
X162093154Y-112362645D01*
X162036091Y-112329699D01*
X161917092Y-112297814D01*
X161908796Y-112295591D01*
X161777012Y-112295591D01*
X161649716Y-112329699D01*
X161535590Y-112395591D01*
X161535587Y-112395593D01*
X161442406Y-112488774D01*
X161442404Y-112488777D01*
X161376512Y-112602903D01*
X161342404Y-112730199D01*
X140400500Y-112730199D01*
X140400500Y-112385495D01*
X140420185Y-112318456D01*
X140472989Y-112272701D01*
X140542147Y-112262757D01*
X140605703Y-112291782D01*
X140612181Y-112297814D01*
X140700342Y-112385975D01*
X140700345Y-112385977D01*
X140872402Y-112500941D01*
X141063580Y-112580130D01*
X141266530Y-112620499D01*
X141266534Y-112620500D01*
X141266535Y-112620500D01*
X141473466Y-112620500D01*
X141473467Y-112620499D01*
X141504286Y-112614369D01*
X141574241Y-112600455D01*
X141619157Y-112591520D01*
X141676420Y-112580130D01*
X141867598Y-112500941D01*
X142039655Y-112385977D01*
X142185977Y-112239655D01*
X142300941Y-112067598D01*
X142380130Y-111876420D01*
X142420500Y-111673465D01*
X142420500Y-111466535D01*
X142417245Y-111450170D01*
X142417245Y-111450168D01*
X142414050Y-111434108D01*
X150999500Y-111434108D01*
X150999500Y-111565891D01*
X151033608Y-111693187D01*
X151066554Y-111750250D01*
X151099500Y-111807314D01*
X151192686Y-111900500D01*
X151306814Y-111966392D01*
X151434108Y-112000500D01*
X151434110Y-112000500D01*
X151565890Y-112000500D01*
X151565892Y-112000500D01*
X151693186Y-111966392D01*
X151807314Y-111900500D01*
X151900500Y-111807314D01*
X151966392Y-111693186D01*
X152000500Y-111565892D01*
X152000500Y-111434108D01*
X151966392Y-111306814D01*
X151900500Y-111192686D01*
X151807314Y-111099500D01*
X151750250Y-111066554D01*
X151693187Y-111033608D01*
X151629539Y-111016554D01*
X151565892Y-110999500D01*
X151434108Y-110999500D01*
X151306812Y-111033608D01*
X151192686Y-111099500D01*
X151192683Y-111099502D01*
X151099502Y-111192683D01*
X151099500Y-111192686D01*
X151033608Y-111306812D01*
X150999500Y-111434108D01*
X142414050Y-111434108D01*
X142380131Y-111263587D01*
X142380130Y-111263580D01*
X142300941Y-111072402D01*
X142185977Y-110900345D01*
X142185975Y-110900342D01*
X142039657Y-110754024D01*
X141953626Y-110696541D01*
X141867598Y-110639059D01*
X141794107Y-110608618D01*
X141676420Y-110559870D01*
X141676412Y-110559868D01*
X141473469Y-110519500D01*
X141473465Y-110519500D01*
X141266535Y-110519500D01*
X141266530Y-110519500D01*
X141063587Y-110559868D01*
X141063579Y-110559870D01*
X140872403Y-110639058D01*
X140700342Y-110754024D01*
X140700341Y-110754025D01*
X140612181Y-110842186D01*
X140550858Y-110875671D01*
X140481166Y-110870687D01*
X140425233Y-110828815D01*
X140400816Y-110763351D01*
X140400500Y-110754505D01*
X140400500Y-110235413D01*
X143999500Y-110235413D01*
X143999500Y-110367196D01*
X144033608Y-110494492D01*
X144048047Y-110519500D01*
X144099500Y-110608619D01*
X144192686Y-110701805D01*
X144283965Y-110754505D01*
X144299286Y-110763351D01*
X144306814Y-110767697D01*
X144434108Y-110801805D01*
X144434110Y-110801805D01*
X144565890Y-110801805D01*
X144565892Y-110801805D01*
X144693186Y-110767697D01*
X144807314Y-110701805D01*
X144900500Y-110608619D01*
X144966392Y-110494491D01*
X145000500Y-110367197D01*
X145000500Y-110235413D01*
X144966392Y-110108119D01*
X144900500Y-109993991D01*
X144807314Y-109900805D01*
X144750250Y-109867859D01*
X144693187Y-109834913D01*
X144622194Y-109815891D01*
X144565892Y-109800805D01*
X144434108Y-109800805D01*
X144306812Y-109834913D01*
X144192686Y-109900805D01*
X144192683Y-109900807D01*
X144099502Y-109993988D01*
X144099500Y-109993991D01*
X144033608Y-110108117D01*
X143999500Y-110235413D01*
X140400500Y-110235413D01*
X140400500Y-109845495D01*
X140420185Y-109778456D01*
X140472989Y-109732701D01*
X140542147Y-109722757D01*
X140605703Y-109751782D01*
X140612181Y-109757814D01*
X140700342Y-109845975D01*
X140700345Y-109845977D01*
X140872402Y-109960941D01*
X141063580Y-110040130D01*
X141266530Y-110080499D01*
X141266534Y-110080500D01*
X141266535Y-110080500D01*
X141473466Y-110080500D01*
X141473467Y-110080499D01*
X141676420Y-110040130D01*
X141867598Y-109960941D01*
X142039655Y-109845977D01*
X142185977Y-109699655D01*
X142196365Y-109684108D01*
X156249500Y-109684108D01*
X156249500Y-109815892D01*
X156257561Y-109845975D01*
X156283608Y-109943187D01*
X156312939Y-109993988D01*
X156349500Y-110057314D01*
X156442686Y-110150500D01*
X156556814Y-110216392D01*
X156684108Y-110250500D01*
X156684110Y-110250500D01*
X156815890Y-110250500D01*
X156815892Y-110250500D01*
X156943186Y-110216392D01*
X157057314Y-110150500D01*
X157150500Y-110057314D01*
X157216392Y-109943186D01*
X157250500Y-109815892D01*
X157250500Y-109684108D01*
X157216392Y-109556814D01*
X157150500Y-109442686D01*
X157057314Y-109349500D01*
X157000250Y-109316554D01*
X156943187Y-109283608D01*
X156879539Y-109266554D01*
X156815892Y-109249500D01*
X156684108Y-109249500D01*
X156556812Y-109283608D01*
X156442686Y-109349500D01*
X156442683Y-109349502D01*
X156349502Y-109442683D01*
X156349500Y-109442686D01*
X156283608Y-109556812D01*
X156249500Y-109684108D01*
X142196365Y-109684108D01*
X142300941Y-109527598D01*
X142380130Y-109336420D01*
X142420500Y-109133465D01*
X142420500Y-108926535D01*
X142380130Y-108723580D01*
X142300941Y-108532402D01*
X142185977Y-108360345D01*
X142185975Y-108360342D01*
X142039657Y-108214024D01*
X141994884Y-108184108D01*
X152213500Y-108184108D01*
X152213500Y-108315892D01*
X152217464Y-108330687D01*
X152247608Y-108443187D01*
X152255475Y-108456812D01*
X152313500Y-108557314D01*
X152406686Y-108650500D01*
X152505521Y-108707563D01*
X152519944Y-108715890D01*
X152520814Y-108716392D01*
X152648108Y-108750500D01*
X152648110Y-108750500D01*
X152779890Y-108750500D01*
X152779892Y-108750500D01*
X152907186Y-108716392D01*
X153021314Y-108650500D01*
X153087708Y-108584106D01*
X156999500Y-108584106D01*
X156999500Y-108715890D01*
X157008773Y-108750499D01*
X157033608Y-108843185D01*
X157066554Y-108900248D01*
X157099500Y-108957312D01*
X157192686Y-109050498D01*
X157306814Y-109116390D01*
X157434108Y-109150498D01*
X157434110Y-109150498D01*
X157565890Y-109150498D01*
X157565892Y-109150498D01*
X157693186Y-109116390D01*
X157807314Y-109050498D01*
X157900500Y-108957312D01*
X157966392Y-108843184D01*
X158000500Y-108715890D01*
X158000500Y-108584106D01*
X157966392Y-108456812D01*
X157900500Y-108342684D01*
X157807314Y-108249498D01*
X157745870Y-108214023D01*
X157693187Y-108183606D01*
X157628666Y-108166318D01*
X157565892Y-108149498D01*
X157434108Y-108149498D01*
X157306812Y-108183606D01*
X157192686Y-108249498D01*
X157192683Y-108249500D01*
X157099502Y-108342681D01*
X157099500Y-108342684D01*
X157033608Y-108456810D01*
X157006813Y-108556812D01*
X156999500Y-108584106D01*
X153087708Y-108584106D01*
X153114500Y-108557314D01*
X153180392Y-108443186D01*
X153214500Y-108315892D01*
X153214500Y-108184108D01*
X153180392Y-108056814D01*
X153114500Y-107942686D01*
X153021314Y-107849500D01*
X152964250Y-107816554D01*
X152907187Y-107783608D01*
X152848525Y-107767890D01*
X159616323Y-107767890D01*
X159616323Y-107899673D01*
X159650431Y-108026969D01*
X159683217Y-108083755D01*
X159716323Y-108141096D01*
X159809509Y-108234282D01*
X159923637Y-108300174D01*
X159991101Y-108318250D01*
X160050761Y-108354615D01*
X160081290Y-108417462D01*
X160072995Y-108486837D01*
X160066395Y-108500024D01*
X160033608Y-108556812D01*
X159999500Y-108684108D01*
X159999500Y-108815891D01*
X160033608Y-108943187D01*
X160066554Y-109000250D01*
X160099500Y-109057314D01*
X160192686Y-109150500D01*
X160306814Y-109216392D01*
X160434108Y-109250500D01*
X160434110Y-109250500D01*
X160565890Y-109250500D01*
X160565892Y-109250500D01*
X160693186Y-109216392D01*
X160807314Y-109150500D01*
X160900500Y-109057314D01*
X160966392Y-108943186D01*
X161000500Y-108815892D01*
X161000500Y-108684108D01*
X160966392Y-108556814D01*
X160900500Y-108442686D01*
X160807314Y-108349500D01*
X160693186Y-108283608D01*
X160625720Y-108265530D01*
X160566061Y-108229165D01*
X160535532Y-108166318D01*
X160543827Y-108096943D01*
X160550429Y-108083755D01*
X160565983Y-108056814D01*
X160583215Y-108026968D01*
X160617323Y-107899674D01*
X160617323Y-107767890D01*
X160583215Y-107640596D01*
X160517323Y-107526468D01*
X160424137Y-107433282D01*
X160367073Y-107400336D01*
X160310010Y-107367390D01*
X160246362Y-107350336D01*
X160182715Y-107333282D01*
X160050931Y-107333282D01*
X159923635Y-107367390D01*
X159809509Y-107433282D01*
X159809506Y-107433284D01*
X159716325Y-107526465D01*
X159716323Y-107526468D01*
X159650431Y-107640594D01*
X159616323Y-107767890D01*
X152848525Y-107767890D01*
X152843539Y-107766554D01*
X152779892Y-107749500D01*
X152648108Y-107749500D01*
X152520812Y-107783608D01*
X152406686Y-107849500D01*
X152406683Y-107849502D01*
X152313502Y-107942683D01*
X152313500Y-107942686D01*
X152247608Y-108056812D01*
X152218267Y-108166318D01*
X152213500Y-108184108D01*
X141994884Y-108184108D01*
X141930510Y-108141095D01*
X141867598Y-108099059D01*
X141765605Y-108056812D01*
X141676420Y-108019870D01*
X141676412Y-108019868D01*
X141473469Y-107979500D01*
X141473465Y-107979500D01*
X141266535Y-107979500D01*
X141266530Y-107979500D01*
X141063587Y-108019868D01*
X141063579Y-108019870D01*
X140872403Y-108099058D01*
X140700342Y-108214024D01*
X140700341Y-108214025D01*
X140612181Y-108302186D01*
X140550858Y-108335671D01*
X140481166Y-108330687D01*
X140425233Y-108288815D01*
X140400816Y-108223351D01*
X140400500Y-108214505D01*
X140400500Y-107305495D01*
X140420185Y-107238456D01*
X140472989Y-107192701D01*
X140542147Y-107182757D01*
X140605703Y-107211782D01*
X140612181Y-107217814D01*
X140700342Y-107305975D01*
X140700345Y-107305977D01*
X140872402Y-107420941D01*
X141063580Y-107500130D01*
X141266530Y-107540499D01*
X141266534Y-107540500D01*
X141266535Y-107540500D01*
X141473466Y-107540500D01*
X141473467Y-107540499D01*
X141676420Y-107500130D01*
X141867598Y-107420941D01*
X142039655Y-107305977D01*
X142185977Y-107159655D01*
X142300941Y-106987598D01*
X142380130Y-106796420D01*
X142420500Y-106593465D01*
X142420500Y-106386535D01*
X142380130Y-106183580D01*
X142300941Y-105992402D01*
X142185977Y-105820345D01*
X142185975Y-105820342D01*
X142039657Y-105674024D01*
X141953626Y-105616541D01*
X141867598Y-105559059D01*
X141676420Y-105479870D01*
X141676412Y-105479868D01*
X141473469Y-105439500D01*
X141473465Y-105439500D01*
X141266535Y-105439500D01*
X141266530Y-105439500D01*
X141063587Y-105479868D01*
X141063579Y-105479870D01*
X140872403Y-105559058D01*
X140700342Y-105674024D01*
X140700341Y-105674025D01*
X140612181Y-105762186D01*
X140550858Y-105795671D01*
X140481166Y-105790687D01*
X140425233Y-105748815D01*
X140400816Y-105683351D01*
X140400500Y-105674505D01*
X140400500Y-104765495D01*
X140420185Y-104698456D01*
X140472989Y-104652701D01*
X140542147Y-104642757D01*
X140605703Y-104671782D01*
X140612181Y-104677814D01*
X140700342Y-104765975D01*
X140700345Y-104765977D01*
X140872402Y-104880941D01*
X141063580Y-104960130D01*
X141266530Y-105000499D01*
X141266534Y-105000500D01*
X141266535Y-105000500D01*
X141473466Y-105000500D01*
X141473467Y-105000499D01*
X141676420Y-104960130D01*
X141867598Y-104880941D01*
X142039655Y-104765977D01*
X142185977Y-104619655D01*
X142300941Y-104447598D01*
X142380130Y-104256420D01*
X142420500Y-104053465D01*
X142420500Y-103846535D01*
X142380130Y-103643580D01*
X142300941Y-103452402D01*
X142185977Y-103280345D01*
X142185975Y-103280342D01*
X142039657Y-103134024D01*
X141953626Y-103076541D01*
X141920211Y-103054214D01*
X160453763Y-103054214D01*
X160453763Y-103185998D01*
X160465076Y-103228218D01*
X160487871Y-103313293D01*
X160520817Y-103370356D01*
X160553763Y-103427420D01*
X160646949Y-103520606D01*
X160761077Y-103586498D01*
X160888371Y-103620606D01*
X160888373Y-103620606D01*
X161020153Y-103620606D01*
X161020155Y-103620606D01*
X161147449Y-103586498D01*
X161261577Y-103520606D01*
X161354763Y-103427420D01*
X161420655Y-103313292D01*
X161454763Y-103185998D01*
X161454763Y-103054214D01*
X161420655Y-102926920D01*
X161354763Y-102812792D01*
X161261577Y-102719606D01*
X161204513Y-102686660D01*
X161147450Y-102653714D01*
X161083802Y-102636660D01*
X161020155Y-102619606D01*
X160888371Y-102619606D01*
X160761075Y-102653714D01*
X160646949Y-102719606D01*
X160646946Y-102719608D01*
X160553765Y-102812789D01*
X160553763Y-102812792D01*
X160487871Y-102926918D01*
X160484401Y-102939870D01*
X160453763Y-103054214D01*
X141920211Y-103054214D01*
X141867598Y-103019059D01*
X141676420Y-102939870D01*
X141676412Y-102939868D01*
X141473469Y-102899500D01*
X141473465Y-102899500D01*
X141266535Y-102899500D01*
X141266530Y-102899500D01*
X141063587Y-102939868D01*
X141063579Y-102939870D01*
X140872403Y-103019058D01*
X140700342Y-103134024D01*
X140700341Y-103134025D01*
X140612181Y-103222186D01*
X140550858Y-103255671D01*
X140481166Y-103250687D01*
X140425233Y-103208815D01*
X140400816Y-103143351D01*
X140400500Y-103134505D01*
X140400500Y-102225495D01*
X140420185Y-102158456D01*
X140472989Y-102112701D01*
X140542147Y-102102757D01*
X140605703Y-102131782D01*
X140612181Y-102137814D01*
X140700342Y-102225975D01*
X140700345Y-102225977D01*
X140872402Y-102340941D01*
X141063580Y-102420130D01*
X141266530Y-102460499D01*
X141266534Y-102460500D01*
X141266535Y-102460500D01*
X141473466Y-102460500D01*
X141473467Y-102460499D01*
X141676420Y-102420130D01*
X141867598Y-102340941D01*
X142039655Y-102225977D01*
X142185977Y-102079655D01*
X142300941Y-101907598D01*
X142380130Y-101716420D01*
X142386557Y-101684108D01*
X159749500Y-101684108D01*
X159749500Y-101815891D01*
X159783608Y-101943187D01*
X159816554Y-102000250D01*
X159849500Y-102057314D01*
X159942686Y-102150500D01*
X160056814Y-102216392D01*
X160184108Y-102250500D01*
X160184110Y-102250500D01*
X160315890Y-102250500D01*
X160315892Y-102250500D01*
X160443186Y-102216392D01*
X160557314Y-102150500D01*
X160650500Y-102057314D01*
X160716392Y-101943186D01*
X160750500Y-101815892D01*
X160750500Y-101684108D01*
X160716392Y-101556814D01*
X160650500Y-101442686D01*
X160557314Y-101349500D01*
X160482888Y-101306530D01*
X160443187Y-101283608D01*
X160379539Y-101266554D01*
X160315892Y-101249500D01*
X160184108Y-101249500D01*
X160056812Y-101283608D01*
X159942686Y-101349500D01*
X159942683Y-101349502D01*
X159849502Y-101442683D01*
X159849500Y-101442686D01*
X159783608Y-101556812D01*
X159749500Y-101684108D01*
X142386557Y-101684108D01*
X142420500Y-101513465D01*
X142420500Y-101306535D01*
X142380130Y-101103580D01*
X142300941Y-100912402D01*
X142185977Y-100740345D01*
X142185975Y-100740342D01*
X142039657Y-100594024D01*
X141942466Y-100529084D01*
X141867598Y-100479059D01*
X141759077Y-100434108D01*
X158999500Y-100434108D01*
X158999500Y-100565891D01*
X159033608Y-100693187D01*
X159060835Y-100740345D01*
X159099500Y-100807314D01*
X159192686Y-100900500D01*
X159306814Y-100966392D01*
X159434108Y-101000500D01*
X159434110Y-101000500D01*
X159565890Y-101000500D01*
X159565892Y-101000500D01*
X159693186Y-100966392D01*
X159807314Y-100900500D01*
X159900500Y-100807314D01*
X159966392Y-100693186D01*
X160000500Y-100565892D01*
X160000500Y-100434108D01*
X159966392Y-100306814D01*
X159900500Y-100192686D01*
X159807314Y-100099500D01*
X159750250Y-100066554D01*
X159693187Y-100033608D01*
X159629539Y-100016554D01*
X159565892Y-99999500D01*
X159434108Y-99999500D01*
X159306812Y-100033608D01*
X159192686Y-100099500D01*
X159192683Y-100099502D01*
X159099502Y-100192683D01*
X159099500Y-100192686D01*
X159033608Y-100306812D01*
X158999500Y-100434108D01*
X141759077Y-100434108D01*
X141676420Y-100399870D01*
X141676412Y-100399868D01*
X141473469Y-100359500D01*
X141473465Y-100359500D01*
X141266535Y-100359500D01*
X141266530Y-100359500D01*
X141063587Y-100399868D01*
X141063579Y-100399870D01*
X140872403Y-100479058D01*
X140700342Y-100594024D01*
X140700341Y-100594025D01*
X140612181Y-100682186D01*
X140550858Y-100715671D01*
X140481166Y-100710687D01*
X140425233Y-100668815D01*
X140400816Y-100603351D01*
X140400500Y-100594505D01*
X140400500Y-99685495D01*
X140420185Y-99618456D01*
X140472989Y-99572701D01*
X140542147Y-99562757D01*
X140605703Y-99591782D01*
X140612181Y-99597814D01*
X140700342Y-99685975D01*
X140700345Y-99685977D01*
X140872402Y-99800941D01*
X141063580Y-99880130D01*
X141266530Y-99920499D01*
X141266534Y-99920500D01*
X141266535Y-99920500D01*
X141473466Y-99920500D01*
X141473467Y-99920499D01*
X141676420Y-99880130D01*
X141867598Y-99800941D01*
X142039655Y-99685977D01*
X142185977Y-99539655D01*
X142300941Y-99367598D01*
X142380130Y-99176420D01*
X142420500Y-98973465D01*
X142420500Y-98766535D01*
X142380130Y-98563580D01*
X142300941Y-98372402D01*
X142185977Y-98200345D01*
X142185975Y-98200342D01*
X142039657Y-98054024D01*
X141953626Y-97996541D01*
X141867598Y-97939059D01*
X141676420Y-97859870D01*
X141676412Y-97859868D01*
X141473469Y-97819500D01*
X141473465Y-97819500D01*
X141266535Y-97819500D01*
X141266530Y-97819500D01*
X141063587Y-97859868D01*
X141063579Y-97859870D01*
X140872403Y-97939058D01*
X140700342Y-98054024D01*
X140700341Y-98054025D01*
X140612181Y-98142186D01*
X140550858Y-98175671D01*
X140481166Y-98170687D01*
X140425233Y-98128815D01*
X140400816Y-98063351D01*
X140400500Y-98054505D01*
X140400500Y-97145495D01*
X140420185Y-97078456D01*
X140472989Y-97032701D01*
X140542147Y-97022757D01*
X140605703Y-97051782D01*
X140612181Y-97057814D01*
X140700342Y-97145975D01*
X140700345Y-97145977D01*
X140872402Y-97260941D01*
X141063580Y-97340130D01*
X141266530Y-97380499D01*
X141266534Y-97380500D01*
X141266535Y-97380500D01*
X141473466Y-97380500D01*
X141473467Y-97380499D01*
X141676420Y-97340130D01*
X141867598Y-97260941D01*
X142039655Y-97145977D01*
X142185977Y-96999655D01*
X142300941Y-96827598D01*
X142380130Y-96636420D01*
X142420500Y-96433465D01*
X142420500Y-96226535D01*
X142380130Y-96023580D01*
X142300941Y-95832402D01*
X142185977Y-95660345D01*
X142185975Y-95660342D01*
X142039657Y-95514024D01*
X141953626Y-95456541D01*
X141867598Y-95399059D01*
X141676420Y-95319870D01*
X141676412Y-95319868D01*
X141473469Y-95279500D01*
X141473465Y-95279500D01*
X141266535Y-95279500D01*
X141266530Y-95279500D01*
X141063587Y-95319868D01*
X141063579Y-95319870D01*
X140872403Y-95399058D01*
X140700342Y-95514024D01*
X140700341Y-95514025D01*
X140612181Y-95602186D01*
X140550858Y-95635671D01*
X140481166Y-95630687D01*
X140425233Y-95588815D01*
X140400816Y-95523351D01*
X140400500Y-95514505D01*
X140400500Y-94605495D01*
X140420185Y-94538456D01*
X140472989Y-94492701D01*
X140542147Y-94482757D01*
X140605703Y-94511782D01*
X140612181Y-94517814D01*
X140700342Y-94605975D01*
X140700345Y-94605977D01*
X140872402Y-94720941D01*
X141063580Y-94800130D01*
X141266530Y-94840499D01*
X141266534Y-94840500D01*
X141266535Y-94840500D01*
X141473466Y-94840500D01*
X141473467Y-94840499D01*
X141676420Y-94800130D01*
X141835810Y-94734108D01*
X147949500Y-94734108D01*
X147949500Y-94865891D01*
X147983608Y-94993187D01*
X148016554Y-95050250D01*
X148049500Y-95107314D01*
X148142686Y-95200500D01*
X148256814Y-95266392D01*
X148384108Y-95300500D01*
X148384110Y-95300500D01*
X148515890Y-95300500D01*
X148515892Y-95300500D01*
X148643186Y-95266392D01*
X148757314Y-95200500D01*
X148850500Y-95107314D01*
X148916392Y-94993186D01*
X148950500Y-94865892D01*
X148950500Y-94734108D01*
X148916392Y-94606814D01*
X148916390Y-94606811D01*
X148916391Y-94606811D01*
X148888849Y-94559108D01*
X158374500Y-94559108D01*
X158374500Y-94690891D01*
X158408608Y-94818187D01*
X158436151Y-94865892D01*
X158474500Y-94932314D01*
X158567686Y-95025500D01*
X158681814Y-95091392D01*
X158809108Y-95125500D01*
X158809110Y-95125500D01*
X158940890Y-95125500D01*
X158940892Y-95125500D01*
X159068186Y-95091392D01*
X159182314Y-95025500D01*
X159275500Y-94932314D01*
X159341392Y-94818186D01*
X159375500Y-94690892D01*
X159375500Y-94559108D01*
X159341392Y-94431814D01*
X159275500Y-94317686D01*
X159182314Y-94224500D01*
X159125250Y-94191554D01*
X159068187Y-94158608D01*
X159004539Y-94141554D01*
X158940892Y-94124500D01*
X158809108Y-94124500D01*
X158681812Y-94158608D01*
X158567686Y-94224500D01*
X158567683Y-94224502D01*
X158474502Y-94317683D01*
X158474500Y-94317686D01*
X158408608Y-94431812D01*
X158374500Y-94559108D01*
X148888849Y-94559108D01*
X148850502Y-94492689D01*
X148850497Y-94492683D01*
X148757316Y-94399502D01*
X148757314Y-94399500D01*
X148699968Y-94366391D01*
X148643187Y-94333608D01*
X148579539Y-94316554D01*
X148515892Y-94299500D01*
X148384108Y-94299500D01*
X148256812Y-94333608D01*
X148142686Y-94399500D01*
X148142683Y-94399502D01*
X148049502Y-94492683D01*
X148049500Y-94492686D01*
X147983608Y-94606812D01*
X147949500Y-94734108D01*
X141835810Y-94734108D01*
X141867598Y-94720941D01*
X142039655Y-94605977D01*
X142185977Y-94459655D01*
X142300941Y-94287598D01*
X142380130Y-94096420D01*
X142420500Y-93893465D01*
X142420500Y-93834108D01*
X149167597Y-93834108D01*
X149167597Y-93965891D01*
X149201705Y-94093187D01*
X149203572Y-94096420D01*
X149267597Y-94207314D01*
X149360783Y-94300500D01*
X149474911Y-94366392D01*
X149602205Y-94400500D01*
X149602207Y-94400500D01*
X149733987Y-94400500D01*
X149733989Y-94400500D01*
X149861283Y-94366392D01*
X149975411Y-94300500D01*
X150068597Y-94207314D01*
X150134489Y-94093186D01*
X150168597Y-93965892D01*
X150168597Y-93834108D01*
X150134489Y-93706814D01*
X150068597Y-93592686D01*
X149975411Y-93499500D01*
X149918065Y-93466391D01*
X149861284Y-93433608D01*
X149797636Y-93416554D01*
X149733989Y-93399500D01*
X149602205Y-93399500D01*
X149474909Y-93433608D01*
X149360783Y-93499500D01*
X149360780Y-93499502D01*
X149267599Y-93592683D01*
X149267597Y-93592686D01*
X149201705Y-93706812D01*
X149167597Y-93834108D01*
X142420500Y-93834108D01*
X142420500Y-93686535D01*
X142380130Y-93483580D01*
X142300941Y-93292402D01*
X142185977Y-93120345D01*
X142185975Y-93120342D01*
X142039657Y-92974024D01*
X141979917Y-92934108D01*
X156999500Y-92934108D01*
X156999500Y-93065892D01*
X157016554Y-93129539D01*
X157033608Y-93193187D01*
X157066554Y-93250250D01*
X157099500Y-93307314D01*
X157192686Y-93400500D01*
X157306814Y-93466392D01*
X157434108Y-93500500D01*
X157434110Y-93500500D01*
X157565890Y-93500500D01*
X157565892Y-93500500D01*
X157693186Y-93466392D01*
X157807314Y-93400500D01*
X157900500Y-93307314D01*
X157966392Y-93193186D01*
X158000500Y-93065892D01*
X158000500Y-92934108D01*
X157966392Y-92806814D01*
X157900500Y-92692686D01*
X157807314Y-92599500D01*
X157750250Y-92566554D01*
X157693187Y-92533608D01*
X157629539Y-92516554D01*
X157565892Y-92499500D01*
X157434108Y-92499500D01*
X157306812Y-92533608D01*
X157192686Y-92599500D01*
X157192683Y-92599502D01*
X157099502Y-92692683D01*
X157099500Y-92692686D01*
X157033608Y-92806812D01*
X157019609Y-92859058D01*
X156999500Y-92934108D01*
X141979917Y-92934108D01*
X141953626Y-92916541D01*
X141867598Y-92859059D01*
X141676420Y-92779870D01*
X141676412Y-92779868D01*
X141473469Y-92739500D01*
X141473465Y-92739500D01*
X141266535Y-92739500D01*
X141266530Y-92739500D01*
X141063587Y-92779868D01*
X141063579Y-92779870D01*
X140872403Y-92859058D01*
X140700342Y-92974024D01*
X140700341Y-92974025D01*
X140612181Y-93062186D01*
X140550858Y-93095671D01*
X140481166Y-93090687D01*
X140425233Y-93048815D01*
X140400816Y-92983351D01*
X140400500Y-92974505D01*
X140400500Y-92065495D01*
X140420185Y-91998456D01*
X140472989Y-91952701D01*
X140542147Y-91942757D01*
X140605703Y-91971782D01*
X140612181Y-91977814D01*
X140700342Y-92065975D01*
X140700345Y-92065977D01*
X140872402Y-92180941D01*
X141063580Y-92260130D01*
X141266530Y-92300499D01*
X141266534Y-92300500D01*
X141266535Y-92300500D01*
X141473466Y-92300500D01*
X141473467Y-92300499D01*
X141676420Y-92260130D01*
X141867598Y-92180941D01*
X142039655Y-92065977D01*
X142185977Y-91919655D01*
X142300941Y-91747598D01*
X142380130Y-91556420D01*
X142420500Y-91353465D01*
X142420500Y-91146535D01*
X142380130Y-90943580D01*
X142300941Y-90752402D01*
X142185977Y-90580345D01*
X142185975Y-90580342D01*
X142039657Y-90434024D01*
X141953626Y-90376541D01*
X141867598Y-90319059D01*
X141838031Y-90306812D01*
X141676420Y-90239870D01*
X141676412Y-90239868D01*
X141473469Y-90199500D01*
X141473465Y-90199500D01*
X141266535Y-90199500D01*
X141266530Y-90199500D01*
X141063587Y-90239868D01*
X141063579Y-90239870D01*
X140872403Y-90319058D01*
X140700342Y-90434024D01*
X140700341Y-90434025D01*
X140612181Y-90522186D01*
X140550858Y-90555671D01*
X140481166Y-90550687D01*
X140425233Y-90508815D01*
X140400816Y-90443351D01*
X140400500Y-90434505D01*
X140400500Y-89525495D01*
X140420185Y-89458456D01*
X140472989Y-89412701D01*
X140542147Y-89402757D01*
X140605703Y-89431782D01*
X140612181Y-89437814D01*
X140700342Y-89525975D01*
X140700345Y-89525977D01*
X140872402Y-89640941D01*
X141063580Y-89720130D01*
X141266530Y-89760499D01*
X141266534Y-89760500D01*
X141266535Y-89760500D01*
X141473466Y-89760500D01*
X141473467Y-89760499D01*
X141676420Y-89720130D01*
X141867598Y-89640941D01*
X142039655Y-89525977D01*
X142185977Y-89379655D01*
X142300941Y-89207598D01*
X142380130Y-89016420D01*
X142420500Y-88813465D01*
X142420500Y-88606535D01*
X142380130Y-88403580D01*
X142300941Y-88212402D01*
X142185977Y-88040345D01*
X142185975Y-88040342D01*
X142039657Y-87894024D01*
X141953626Y-87836541D01*
X141867598Y-87779059D01*
X141676420Y-87699870D01*
X141676412Y-87699868D01*
X141473469Y-87659500D01*
X141473465Y-87659500D01*
X141266535Y-87659500D01*
X141266530Y-87659500D01*
X141063587Y-87699868D01*
X141063579Y-87699870D01*
X140872403Y-87779058D01*
X140700342Y-87894024D01*
X140700341Y-87894025D01*
X140612181Y-87982186D01*
X140550858Y-88015671D01*
X140481166Y-88010687D01*
X140425233Y-87968815D01*
X140400816Y-87903351D01*
X140400500Y-87894505D01*
X140400500Y-86985495D01*
X140420185Y-86918456D01*
X140472989Y-86872701D01*
X140542147Y-86862757D01*
X140605703Y-86891782D01*
X140612181Y-86897814D01*
X140700342Y-86985975D01*
X140700345Y-86985977D01*
X140872402Y-87100941D01*
X141063580Y-87180130D01*
X141266530Y-87220499D01*
X141266534Y-87220500D01*
X141266535Y-87220500D01*
X141473466Y-87220500D01*
X141473467Y-87220499D01*
X141676420Y-87180130D01*
X141867598Y-87100941D01*
X142039655Y-86985977D01*
X142185977Y-86839655D01*
X142300941Y-86667598D01*
X142380130Y-86476420D01*
X142420500Y-86273465D01*
X142420500Y-86066535D01*
X142380130Y-85863580D01*
X142300941Y-85672402D01*
X142185977Y-85500345D01*
X142185975Y-85500342D01*
X142039657Y-85354024D01*
X141933210Y-85282899D01*
X141867598Y-85239059D01*
X141755644Y-85192686D01*
X141676420Y-85159870D01*
X141676412Y-85159868D01*
X141473469Y-85119500D01*
X141473465Y-85119500D01*
X141266535Y-85119500D01*
X141266530Y-85119500D01*
X141063587Y-85159868D01*
X141063579Y-85159870D01*
X140872403Y-85239058D01*
X140700342Y-85354024D01*
X140700341Y-85354025D01*
X140612181Y-85442186D01*
X140550858Y-85475671D01*
X140481166Y-85470687D01*
X140425233Y-85428815D01*
X140400816Y-85363351D01*
X140400500Y-85354505D01*
X140400500Y-84445495D01*
X140420185Y-84378456D01*
X140472989Y-84332701D01*
X140542147Y-84322757D01*
X140605703Y-84351782D01*
X140612181Y-84357814D01*
X140700342Y-84445975D01*
X140700345Y-84445977D01*
X140872402Y-84560941D01*
X141063580Y-84640130D01*
X141266530Y-84680499D01*
X141266534Y-84680500D01*
X141266535Y-84680500D01*
X141473466Y-84680500D01*
X141473467Y-84680499D01*
X141676420Y-84640130D01*
X141867598Y-84560941D01*
X141867599Y-84560940D01*
X141867600Y-84560940D01*
X142026610Y-84454694D01*
X142093287Y-84433816D01*
X142160667Y-84452301D01*
X142207357Y-84504280D01*
X142218082Y-84551549D01*
X142218439Y-84551503D01*
X142218946Y-84555355D01*
X142219500Y-84557796D01*
X142219500Y-84559562D01*
X142219870Y-84560941D01*
X142239979Y-84635990D01*
X142239982Y-84635995D01*
X142279535Y-84704504D01*
X142279541Y-84704512D01*
X147913181Y-90338152D01*
X147927884Y-90365079D01*
X147944477Y-90390898D01*
X147945368Y-90397098D01*
X147946666Y-90399475D01*
X147949500Y-90425833D01*
X147949500Y-90541323D01*
X147929815Y-90608362D01*
X147913182Y-90629004D01*
X147849500Y-90692686D01*
X147783608Y-90806812D01*
X147749500Y-90934108D01*
X147749500Y-91065891D01*
X147783608Y-91193187D01*
X147816554Y-91250250D01*
X147849500Y-91307314D01*
X147942686Y-91400500D01*
X148056814Y-91466392D01*
X148184108Y-91500500D01*
X148184110Y-91500500D01*
X148315890Y-91500500D01*
X148315892Y-91500500D01*
X148443186Y-91466392D01*
X148557314Y-91400500D01*
X148650500Y-91307314D01*
X148716392Y-91193186D01*
X148750500Y-91065892D01*
X148750500Y-90934108D01*
X148716392Y-90806814D01*
X148650500Y-90692686D01*
X148586818Y-90629004D01*
X148572113Y-90602073D01*
X148555523Y-90576258D01*
X148554631Y-90570055D01*
X148553334Y-90567680D01*
X148550500Y-90541323D01*
X148550500Y-90434108D01*
X150999500Y-90434108D01*
X150999500Y-90565892D01*
X151002278Y-90576258D01*
X151033608Y-90693187D01*
X151066554Y-90750250D01*
X151099500Y-90807314D01*
X151192686Y-90900500D01*
X151306814Y-90966392D01*
X151434108Y-91000500D01*
X151434110Y-91000500D01*
X151565890Y-91000500D01*
X151565892Y-91000500D01*
X151693186Y-90966392D01*
X151807314Y-90900500D01*
X151900500Y-90807314D01*
X151966392Y-90693186D01*
X152000500Y-90565892D01*
X152000500Y-90434108D01*
X151966392Y-90306814D01*
X151900500Y-90192686D01*
X151807314Y-90099500D01*
X151748400Y-90065486D01*
X151693187Y-90033608D01*
X151629539Y-90016554D01*
X151565892Y-89999500D01*
X151434108Y-89999500D01*
X151306812Y-90033608D01*
X151192686Y-90099500D01*
X151192683Y-90099502D01*
X151099502Y-90192683D01*
X151099500Y-90192686D01*
X151033608Y-90306812D01*
X151011078Y-90390898D01*
X150999500Y-90434108D01*
X148550500Y-90434108D01*
X148550500Y-90210440D01*
X148550499Y-90210436D01*
X148545742Y-90192683D01*
X148540572Y-90173386D01*
X148530022Y-90134012D01*
X148490460Y-90065489D01*
X146359079Y-87934108D01*
X147749500Y-87934108D01*
X147749500Y-88065892D01*
X147765274Y-88124761D01*
X147783608Y-88193187D01*
X147794702Y-88212402D01*
X147849500Y-88307314D01*
X147942686Y-88400500D01*
X148056814Y-88466392D01*
X148184108Y-88500500D01*
X148184110Y-88500500D01*
X148315890Y-88500500D01*
X148315892Y-88500500D01*
X148443186Y-88466392D01*
X148557314Y-88400500D01*
X148650500Y-88307314D01*
X148716392Y-88193186D01*
X148718824Y-88184108D01*
X149999500Y-88184108D01*
X149999500Y-88315891D01*
X150033608Y-88443187D01*
X150042951Y-88459369D01*
X150099500Y-88557314D01*
X150192686Y-88650500D01*
X150306814Y-88716392D01*
X150434108Y-88750500D01*
X150434110Y-88750500D01*
X150565890Y-88750500D01*
X150565892Y-88750500D01*
X150693186Y-88716392D01*
X150807314Y-88650500D01*
X150900500Y-88557314D01*
X150966392Y-88443186D01*
X151000500Y-88315892D01*
X151000500Y-88184108D01*
X151499500Y-88184108D01*
X151499500Y-88315891D01*
X151533608Y-88443187D01*
X151542951Y-88459369D01*
X151599500Y-88557314D01*
X151692686Y-88650500D01*
X151806814Y-88716392D01*
X151934108Y-88750500D01*
X151934110Y-88750500D01*
X152065890Y-88750500D01*
X152065892Y-88750500D01*
X152193186Y-88716392D01*
X152307314Y-88650500D01*
X152400500Y-88557314D01*
X152466392Y-88443186D01*
X152500500Y-88315892D01*
X152500500Y-88184108D01*
X152749500Y-88184108D01*
X152749500Y-88315891D01*
X152783608Y-88443187D01*
X152792951Y-88459369D01*
X152849500Y-88557314D01*
X152942686Y-88650500D01*
X153056814Y-88716392D01*
X153184108Y-88750500D01*
X153184110Y-88750500D01*
X153315890Y-88750500D01*
X153315892Y-88750500D01*
X153443186Y-88716392D01*
X153557314Y-88650500D01*
X153650500Y-88557314D01*
X153716392Y-88443186D01*
X153750500Y-88315892D01*
X153750500Y-88184108D01*
X153716392Y-88056814D01*
X153716389Y-88056810D01*
X153716389Y-88056806D01*
X153710642Y-88046854D01*
X153710640Y-88046851D01*
X153702549Y-88032837D01*
X153679536Y-87992977D01*
X154190631Y-87992977D01*
X154190631Y-88124761D01*
X154195756Y-88143887D01*
X154224739Y-88252056D01*
X154255590Y-88305491D01*
X154290631Y-88366183D01*
X154383817Y-88459369D01*
X154497945Y-88525261D01*
X154625239Y-88559369D01*
X154625241Y-88559369D01*
X154757021Y-88559369D01*
X154757023Y-88559369D01*
X154884317Y-88525261D01*
X154998445Y-88459369D01*
X155091631Y-88366183D01*
X155124583Y-88309108D01*
X155874500Y-88309108D01*
X155874500Y-88440892D01*
X155890472Y-88500500D01*
X155908608Y-88568187D01*
X155930746Y-88606530D01*
X155974500Y-88682314D01*
X156067686Y-88775500D01*
X156181814Y-88841392D01*
X156309108Y-88875500D01*
X156309110Y-88875500D01*
X156440890Y-88875500D01*
X156440892Y-88875500D01*
X156568186Y-88841392D01*
X156682314Y-88775500D01*
X156775500Y-88682314D01*
X156841392Y-88568186D01*
X156875500Y-88440892D01*
X156875500Y-88309108D01*
X156842007Y-88184108D01*
X157249500Y-88184108D01*
X157249500Y-88315891D01*
X157283608Y-88443187D01*
X157292951Y-88459369D01*
X157349500Y-88557314D01*
X157442686Y-88650500D01*
X157556814Y-88716392D01*
X157684108Y-88750500D01*
X157684110Y-88750500D01*
X157815890Y-88750500D01*
X157815892Y-88750500D01*
X157943186Y-88716392D01*
X158057314Y-88650500D01*
X158150500Y-88557314D01*
X158216392Y-88443186D01*
X158250500Y-88315892D01*
X158250500Y-88184108D01*
X158499500Y-88184108D01*
X158499500Y-88315891D01*
X158533608Y-88443187D01*
X158542951Y-88459369D01*
X158599500Y-88557314D01*
X158692686Y-88650500D01*
X158806814Y-88716392D01*
X158934108Y-88750500D01*
X158934110Y-88750500D01*
X159065890Y-88750500D01*
X159065892Y-88750500D01*
X159193186Y-88716392D01*
X159307314Y-88650500D01*
X159400500Y-88557314D01*
X159466392Y-88443186D01*
X159500500Y-88315892D01*
X159500500Y-88184108D01*
X160299500Y-88184108D01*
X160299500Y-88315891D01*
X160333608Y-88443187D01*
X160342951Y-88459369D01*
X160399500Y-88557314D01*
X160492686Y-88650500D01*
X160606814Y-88716392D01*
X160734108Y-88750500D01*
X160734110Y-88750500D01*
X160865890Y-88750500D01*
X160865892Y-88750500D01*
X160993186Y-88716392D01*
X161107314Y-88650500D01*
X161200500Y-88557314D01*
X161266392Y-88443186D01*
X161300500Y-88315892D01*
X161300500Y-88184108D01*
X161266392Y-88056814D01*
X161266387Y-88056806D01*
X161256882Y-88040342D01*
X161200500Y-87942686D01*
X161107314Y-87849500D01*
X161033380Y-87806814D01*
X160993187Y-87783608D01*
X160873561Y-87751555D01*
X160865892Y-87749500D01*
X160734108Y-87749500D01*
X160606812Y-87783608D01*
X160492686Y-87849500D01*
X160492683Y-87849502D01*
X160399502Y-87942683D01*
X160399500Y-87942686D01*
X160333608Y-88056812D01*
X160299500Y-88184108D01*
X159500500Y-88184108D01*
X159466392Y-88056814D01*
X159466387Y-88056806D01*
X159456882Y-88040342D01*
X159400500Y-87942686D01*
X159307314Y-87849500D01*
X159233380Y-87806814D01*
X159193187Y-87783608D01*
X159073561Y-87751555D01*
X159065892Y-87749500D01*
X158934108Y-87749500D01*
X158806812Y-87783608D01*
X158692686Y-87849500D01*
X158692683Y-87849502D01*
X158599502Y-87942683D01*
X158599500Y-87942686D01*
X158533608Y-88056812D01*
X158499500Y-88184108D01*
X158250500Y-88184108D01*
X158216392Y-88056814D01*
X158216387Y-88056806D01*
X158206882Y-88040342D01*
X158150500Y-87942686D01*
X158057314Y-87849500D01*
X157983380Y-87806814D01*
X157943187Y-87783608D01*
X157823561Y-87751555D01*
X157815892Y-87749500D01*
X157684108Y-87749500D01*
X157556812Y-87783608D01*
X157442686Y-87849500D01*
X157442683Y-87849502D01*
X157349502Y-87942683D01*
X157349500Y-87942686D01*
X157283608Y-88056812D01*
X157249500Y-88184108D01*
X156842007Y-88184108D01*
X156841392Y-88181814D01*
X156775500Y-88067686D01*
X156682314Y-87974500D01*
X156612353Y-87934108D01*
X156568187Y-87908608D01*
X156504539Y-87891554D01*
X156440892Y-87874500D01*
X156309108Y-87874500D01*
X156181812Y-87908608D01*
X156067686Y-87974500D01*
X156067683Y-87974502D01*
X155974502Y-88067683D01*
X155974500Y-88067686D01*
X155908608Y-88181812D01*
X155889787Y-88252055D01*
X155874500Y-88309108D01*
X155124583Y-88309108D01*
X155157523Y-88252055D01*
X155191631Y-88124761D01*
X155191631Y-87992977D01*
X155157523Y-87865683D01*
X155091631Y-87751555D01*
X154998445Y-87658369D01*
X154896485Y-87599502D01*
X154884318Y-87592477D01*
X154820670Y-87575423D01*
X154757023Y-87558369D01*
X154625239Y-87558369D01*
X154497943Y-87592477D01*
X154383817Y-87658369D01*
X154383814Y-87658371D01*
X154290633Y-87751552D01*
X154290631Y-87751555D01*
X154224739Y-87865681D01*
X154217016Y-87894505D01*
X154190631Y-87992977D01*
X153679536Y-87992977D01*
X153650500Y-87942686D01*
X153557314Y-87849500D01*
X153483380Y-87806814D01*
X153443187Y-87783608D01*
X153323561Y-87751555D01*
X153315892Y-87749500D01*
X153184108Y-87749500D01*
X153056812Y-87783608D01*
X152942686Y-87849500D01*
X152942683Y-87849502D01*
X152849502Y-87942683D01*
X152849500Y-87942686D01*
X152783608Y-88056812D01*
X152749500Y-88184108D01*
X152500500Y-88184108D01*
X152466392Y-88056814D01*
X152466387Y-88056806D01*
X152456882Y-88040342D01*
X152400500Y-87942686D01*
X152307314Y-87849500D01*
X152233380Y-87806814D01*
X152193187Y-87783608D01*
X152073561Y-87751555D01*
X152065892Y-87749500D01*
X151934108Y-87749500D01*
X151806812Y-87783608D01*
X151692686Y-87849500D01*
X151692683Y-87849502D01*
X151599502Y-87942683D01*
X151599500Y-87942686D01*
X151533608Y-88056812D01*
X151499500Y-88184108D01*
X151000500Y-88184108D01*
X150966392Y-88056814D01*
X150966387Y-88056806D01*
X150956882Y-88040342D01*
X150900500Y-87942686D01*
X150807314Y-87849500D01*
X150733380Y-87806814D01*
X150693187Y-87783608D01*
X150573561Y-87751555D01*
X150565892Y-87749500D01*
X150434108Y-87749500D01*
X150306812Y-87783608D01*
X150192686Y-87849500D01*
X150192683Y-87849502D01*
X150099502Y-87942683D01*
X150099500Y-87942686D01*
X150033608Y-88056812D01*
X149999500Y-88184108D01*
X148718824Y-88184108D01*
X148750500Y-88065892D01*
X148750500Y-87934108D01*
X148716392Y-87806814D01*
X148650500Y-87692686D01*
X148557314Y-87599500D01*
X148486073Y-87558369D01*
X148443187Y-87533608D01*
X148379539Y-87516554D01*
X148315892Y-87499500D01*
X148184108Y-87499500D01*
X148056812Y-87533608D01*
X147942686Y-87599500D01*
X147942683Y-87599502D01*
X147849502Y-87692683D01*
X147849500Y-87692686D01*
X147783608Y-87806812D01*
X147760240Y-87894024D01*
X147749500Y-87934108D01*
X146359079Y-87934108D01*
X143859079Y-85434108D01*
X145299500Y-85434108D01*
X145299500Y-85565891D01*
X145333608Y-85693187D01*
X145362476Y-85743186D01*
X145399500Y-85807314D01*
X145492686Y-85900500D01*
X145606814Y-85966392D01*
X145734108Y-86000500D01*
X145734110Y-86000500D01*
X145865890Y-86000500D01*
X145865892Y-86000500D01*
X145993186Y-85966392D01*
X146107314Y-85900500D01*
X146200500Y-85807314D01*
X146266392Y-85693186D01*
X146300500Y-85565892D01*
X146300500Y-85484108D01*
X146749500Y-85484108D01*
X146749500Y-85615892D01*
X146764642Y-85672402D01*
X146783608Y-85743187D01*
X146816554Y-85800250D01*
X146849500Y-85857314D01*
X146942686Y-85950500D01*
X147056814Y-86016392D01*
X147184108Y-86050500D01*
X147184110Y-86050500D01*
X147315890Y-86050500D01*
X147315892Y-86050500D01*
X147443186Y-86016392D01*
X147557314Y-85950500D01*
X147650500Y-85857314D01*
X147716392Y-85743186D01*
X147750500Y-85615892D01*
X147750500Y-85484108D01*
X147716392Y-85356814D01*
X147673717Y-85282899D01*
X148306237Y-85282899D01*
X148306237Y-85414683D01*
X148313606Y-85442186D01*
X148340345Y-85541978D01*
X148354152Y-85565892D01*
X148406237Y-85656105D01*
X148499423Y-85749291D01*
X148598258Y-85806354D01*
X148599921Y-85807314D01*
X148613551Y-85815183D01*
X148740845Y-85849291D01*
X148740847Y-85849291D01*
X148872627Y-85849291D01*
X148872629Y-85849291D01*
X148999923Y-85815183D01*
X149114051Y-85749291D01*
X149207237Y-85656105D01*
X149273129Y-85541977D01*
X149302032Y-85434108D01*
X159999500Y-85434108D01*
X159999500Y-85565891D01*
X160033608Y-85693187D01*
X160062476Y-85743186D01*
X160099500Y-85807314D01*
X160192686Y-85900500D01*
X160306814Y-85966392D01*
X160434108Y-86000500D01*
X160434110Y-86000500D01*
X160565890Y-86000500D01*
X160565892Y-86000500D01*
X160693186Y-85966392D01*
X160807314Y-85900500D01*
X160900500Y-85807314D01*
X160966392Y-85693186D01*
X161000500Y-85565892D01*
X161000500Y-85434108D01*
X160966392Y-85306814D01*
X160900500Y-85192686D01*
X160807314Y-85099500D01*
X160720712Y-85049500D01*
X160693187Y-85033608D01*
X160629539Y-85016554D01*
X160565892Y-84999500D01*
X160434108Y-84999500D01*
X160306812Y-85033608D01*
X160192686Y-85099500D01*
X160192683Y-85099502D01*
X160099502Y-85192683D01*
X160099500Y-85192686D01*
X160033608Y-85306812D01*
X159999500Y-85434108D01*
X149302032Y-85434108D01*
X149307237Y-85414683D01*
X149307237Y-85282899D01*
X149273129Y-85155605D01*
X149269605Y-85149502D01*
X149252284Y-85119500D01*
X149207237Y-85041477D01*
X149114051Y-84948291D01*
X149056987Y-84915345D01*
X148999924Y-84882399D01*
X148936276Y-84865345D01*
X148872629Y-84848291D01*
X148740845Y-84848291D01*
X148613549Y-84882399D01*
X148499423Y-84948291D01*
X148499420Y-84948293D01*
X148406239Y-85041474D01*
X148406237Y-85041477D01*
X148340345Y-85155603D01*
X148339202Y-85159870D01*
X148306237Y-85282899D01*
X147673717Y-85282899D01*
X147650500Y-85242686D01*
X147557314Y-85149500D01*
X147500250Y-85116554D01*
X147443187Y-85083608D01*
X147379539Y-85066554D01*
X147315892Y-85049500D01*
X147184108Y-85049500D01*
X147056812Y-85083608D01*
X146942686Y-85149500D01*
X146942683Y-85149502D01*
X146849502Y-85242683D01*
X146849500Y-85242686D01*
X146783608Y-85356812D01*
X146754004Y-85467299D01*
X146749500Y-85484108D01*
X146300500Y-85484108D01*
X146300500Y-85434108D01*
X146266392Y-85306814D01*
X146200500Y-85192686D01*
X146107314Y-85099500D01*
X146020712Y-85049500D01*
X145993187Y-85033608D01*
X145929539Y-85016554D01*
X145865892Y-84999500D01*
X145734108Y-84999500D01*
X145606812Y-85033608D01*
X145492686Y-85099500D01*
X145492683Y-85099502D01*
X145399502Y-85192683D01*
X145399500Y-85192686D01*
X145333608Y-85306812D01*
X145299500Y-85434108D01*
X143859079Y-85434108D01*
X142856819Y-84431848D01*
X142842115Y-84404920D01*
X142825523Y-84379102D01*
X142824631Y-84372901D01*
X142823334Y-84370525D01*
X142820500Y-84344167D01*
X142820500Y-84184108D01*
X159999500Y-84184108D01*
X159999500Y-84315892D01*
X160001761Y-84324329D01*
X160033608Y-84443187D01*
X160040252Y-84454694D01*
X160099500Y-84557314D01*
X160192686Y-84650500D01*
X160306814Y-84716392D01*
X160434108Y-84750500D01*
X160434110Y-84750500D01*
X160565890Y-84750500D01*
X160565892Y-84750500D01*
X160693186Y-84716392D01*
X160807314Y-84650500D01*
X160900500Y-84557314D01*
X160966392Y-84443186D01*
X161000500Y-84315892D01*
X161000500Y-84184108D01*
X160966392Y-84056814D01*
X160900500Y-83942686D01*
X160807314Y-83849500D01*
X160693186Y-83783608D01*
X160690214Y-83782811D01*
X160687991Y-83781456D01*
X160685682Y-83780500D01*
X160685831Y-83780139D01*
X160630556Y-83746445D01*
X160600028Y-83683597D01*
X160608325Y-83614222D01*
X160652812Y-83560346D01*
X160690214Y-83543264D01*
X160753186Y-83526392D01*
X160867314Y-83460500D01*
X160960500Y-83367314D01*
X161026392Y-83253186D01*
X161060500Y-83125892D01*
X161060500Y-82994108D01*
X161026392Y-82866814D01*
X160960500Y-82752686D01*
X160867314Y-82659500D01*
X160798670Y-82619868D01*
X160753187Y-82593608D01*
X160689539Y-82576554D01*
X160625892Y-82559500D01*
X160494108Y-82559500D01*
X160366812Y-82593608D01*
X160252686Y-82659500D01*
X160252683Y-82659502D01*
X160159502Y-82752683D01*
X160159500Y-82752686D01*
X160093608Y-82866812D01*
X160084130Y-82902186D01*
X160059500Y-82994108D01*
X160059500Y-83125892D01*
X160061245Y-83132403D01*
X160093608Y-83253187D01*
X160124858Y-83307313D01*
X160159500Y-83367314D01*
X160252686Y-83460500D01*
X160366814Y-83526392D01*
X160369777Y-83527186D01*
X160371997Y-83528538D01*
X160374318Y-83529500D01*
X160374168Y-83529861D01*
X160429438Y-83563548D01*
X160459969Y-83626394D01*
X160451677Y-83695770D01*
X160407194Y-83749649D01*
X160369782Y-83766735D01*
X160306814Y-83783608D01*
X160306813Y-83783608D01*
X160306811Y-83783609D01*
X160192686Y-83849500D01*
X160192683Y-83849502D01*
X160099502Y-83942683D01*
X160099500Y-83942686D01*
X160033608Y-84056812D01*
X159999500Y-84184108D01*
X142820500Y-84184108D01*
X142820500Y-83114094D01*
X142820500Y-83114092D01*
X142804725Y-83055219D01*
X142800500Y-83023126D01*
X142800500Y-82934108D01*
X144749500Y-82934108D01*
X144749500Y-83065891D01*
X144783608Y-83193187D01*
X144802259Y-83225491D01*
X144849500Y-83307314D01*
X144942686Y-83400500D01*
X145041521Y-83457563D01*
X145046603Y-83460497D01*
X145056814Y-83466392D01*
X145184108Y-83500500D01*
X145184110Y-83500500D01*
X145315890Y-83500500D01*
X145315892Y-83500500D01*
X145443186Y-83466392D01*
X145557314Y-83400500D01*
X145650500Y-83307314D01*
X145716392Y-83193186D01*
X145750500Y-83065892D01*
X145750500Y-82934108D01*
X145716392Y-82806814D01*
X145650500Y-82692686D01*
X145557314Y-82599500D01*
X145488032Y-82559500D01*
X145443187Y-82533608D01*
X145379539Y-82516554D01*
X145315892Y-82499500D01*
X145184108Y-82499500D01*
X145056812Y-82533608D01*
X144942686Y-82599500D01*
X144942683Y-82599502D01*
X144849502Y-82692683D01*
X144849500Y-82692686D01*
X144783608Y-82806812D01*
X144749500Y-82934108D01*
X142800500Y-82934108D01*
X142800500Y-81696873D01*
X142802180Y-81684108D01*
X144749500Y-81684108D01*
X144749500Y-81815891D01*
X144783608Y-81943187D01*
X144803502Y-81977643D01*
X144849500Y-82057314D01*
X144942686Y-82150500D01*
X145056814Y-82216392D01*
X145184108Y-82250500D01*
X145184110Y-82250500D01*
X145315890Y-82250500D01*
X145315892Y-82250500D01*
X145443186Y-82216392D01*
X145557314Y-82150500D01*
X145650500Y-82057314D01*
X145716392Y-81943186D01*
X145750500Y-81815892D01*
X145750500Y-81684108D01*
X159799500Y-81684108D01*
X159799500Y-81815891D01*
X159833608Y-81943187D01*
X159853502Y-81977643D01*
X159899500Y-82057314D01*
X159992686Y-82150500D01*
X160106814Y-82216392D01*
X160234108Y-82250500D01*
X160234110Y-82250500D01*
X160365890Y-82250500D01*
X160365892Y-82250500D01*
X160493186Y-82216392D01*
X160607314Y-82150500D01*
X160700500Y-82057314D01*
X160766392Y-81943186D01*
X160800500Y-81815892D01*
X160800500Y-81684108D01*
X160766392Y-81556814D01*
X160700500Y-81442686D01*
X160607314Y-81349500D01*
X160550250Y-81316554D01*
X160493187Y-81283608D01*
X160429539Y-81266554D01*
X160365892Y-81249500D01*
X160234108Y-81249500D01*
X160106812Y-81283608D01*
X159992686Y-81349500D01*
X159992683Y-81349502D01*
X159899502Y-81442683D01*
X159899500Y-81442686D01*
X159833608Y-81556812D01*
X159799500Y-81684108D01*
X145750500Y-81684108D01*
X145716392Y-81556814D01*
X145650500Y-81442686D01*
X145557314Y-81349500D01*
X145443186Y-81283608D01*
X145315892Y-81249500D01*
X145184108Y-81249500D01*
X145140043Y-81261306D01*
X145140039Y-81261307D01*
X145080882Y-81277158D01*
X145056814Y-81283608D01*
X145056812Y-81283608D01*
X145056812Y-81283609D01*
X144942686Y-81349500D01*
X144942683Y-81349502D01*
X144849502Y-81442683D01*
X144849500Y-81442686D01*
X144783608Y-81556812D01*
X144749500Y-81684108D01*
X142802180Y-81684108D01*
X142804725Y-81664779D01*
X142820500Y-81605908D01*
X142820500Y-80574092D01*
X142804725Y-80515219D01*
X142800500Y-80483126D01*
X142800500Y-80454108D01*
X144729500Y-80454108D01*
X144729500Y-80585892D01*
X144731245Y-80592403D01*
X144763608Y-80713187D01*
X144796554Y-80770250D01*
X144829500Y-80827314D01*
X144922686Y-80920500D01*
X145036814Y-80986392D01*
X145164108Y-81020500D01*
X145295892Y-81020500D01*
X145423186Y-80986392D01*
X145537314Y-80920500D01*
X145630500Y-80827314D01*
X145696392Y-80713186D01*
X145730500Y-80585892D01*
X145730500Y-80454108D01*
X145696392Y-80326814D01*
X145630500Y-80212686D01*
X145537314Y-80119500D01*
X145468670Y-80079868D01*
X145423187Y-80053608D01*
X145359539Y-80036554D01*
X145295892Y-80019500D01*
X145164108Y-80019500D01*
X145036812Y-80053608D01*
X144922686Y-80119500D01*
X144922683Y-80119502D01*
X144829502Y-80212683D01*
X144829500Y-80212686D01*
X144763608Y-80326812D01*
X144754130Y-80362186D01*
X144729500Y-80454108D01*
X142800500Y-80454108D01*
X142800500Y-79640439D01*
X142780020Y-79564009D01*
X142780017Y-79564004D01*
X142740464Y-79495495D01*
X142740458Y-79495487D01*
X142429079Y-79184108D01*
X144499500Y-79184108D01*
X144499500Y-79315891D01*
X144533608Y-79443187D01*
X144553469Y-79477587D01*
X144599500Y-79557314D01*
X144692686Y-79650500D01*
X144806814Y-79716392D01*
X144934108Y-79750500D01*
X144934110Y-79750500D01*
X145065890Y-79750500D01*
X145065892Y-79750500D01*
X145193186Y-79716392D01*
X145307314Y-79650500D01*
X145400500Y-79557314D01*
X145466392Y-79443186D01*
X145500500Y-79315892D01*
X145500500Y-79184108D01*
X159999500Y-79184108D01*
X159999500Y-79315891D01*
X160033608Y-79443187D01*
X160053469Y-79477587D01*
X160099500Y-79557314D01*
X160192686Y-79650500D01*
X160306814Y-79716392D01*
X160434108Y-79750500D01*
X160434110Y-79750500D01*
X160565890Y-79750500D01*
X160565892Y-79750500D01*
X160693186Y-79716392D01*
X160807314Y-79650500D01*
X160900500Y-79557314D01*
X160966392Y-79443186D01*
X161000500Y-79315892D01*
X161000500Y-79184108D01*
X160966392Y-79056814D01*
X160900500Y-78942686D01*
X160807314Y-78849500D01*
X160750250Y-78816554D01*
X160693187Y-78783608D01*
X160629539Y-78766554D01*
X160565892Y-78749500D01*
X160434108Y-78749500D01*
X160306812Y-78783608D01*
X160192686Y-78849500D01*
X160192683Y-78849502D01*
X160099502Y-78942683D01*
X160099500Y-78942686D01*
X160033608Y-79056812D01*
X159999500Y-79184108D01*
X145500500Y-79184108D01*
X145466392Y-79056814D01*
X145400500Y-78942686D01*
X145307314Y-78849500D01*
X145250250Y-78816554D01*
X145193187Y-78783608D01*
X145129539Y-78766554D01*
X145065892Y-78749500D01*
X144934108Y-78749500D01*
X144806812Y-78783608D01*
X144692686Y-78849500D01*
X144692683Y-78849502D01*
X144599502Y-78942683D01*
X144599500Y-78942686D01*
X144533608Y-79056812D01*
X144499500Y-79184108D01*
X142429079Y-79184108D01*
X142357075Y-79112104D01*
X142323590Y-79050781D01*
X142328574Y-78981089D01*
X142330163Y-78977049D01*
X142380130Y-78856420D01*
X142420500Y-78653465D01*
X142420500Y-78604392D01*
X145791389Y-78604392D01*
X145791389Y-78736175D01*
X145825497Y-78863471D01*
X145858443Y-78920534D01*
X145891389Y-78977598D01*
X145984575Y-79070784D01*
X146098703Y-79136676D01*
X146225997Y-79170784D01*
X146225999Y-79170784D01*
X146357779Y-79170784D01*
X146357781Y-79170784D01*
X146485075Y-79136676D01*
X146599203Y-79070784D01*
X146692389Y-78977598D01*
X146758281Y-78863470D01*
X146792389Y-78736176D01*
X146792389Y-78604392D01*
X146758281Y-78477098D01*
X146757929Y-78476489D01*
X146740635Y-78446534D01*
X146692389Y-78362970D01*
X146599203Y-78269784D01*
X146542139Y-78236838D01*
X146485076Y-78203892D01*
X146421428Y-78186838D01*
X146357781Y-78169784D01*
X146225997Y-78169784D01*
X146098701Y-78203892D01*
X145984575Y-78269784D01*
X145984572Y-78269786D01*
X145891391Y-78362967D01*
X145891389Y-78362970D01*
X145825497Y-78477096D01*
X145791389Y-78604392D01*
X142420500Y-78604392D01*
X142420500Y-78446535D01*
X142380130Y-78243580D01*
X142300941Y-78052402D01*
X142208537Y-77914108D01*
X144499500Y-77914108D01*
X144499500Y-78045892D01*
X144501245Y-78052403D01*
X144533608Y-78173187D01*
X144551336Y-78203892D01*
X144599500Y-78287314D01*
X144692686Y-78380500D01*
X144806814Y-78446392D01*
X144934108Y-78480500D01*
X144934110Y-78480500D01*
X145065889Y-78480500D01*
X145065892Y-78480500D01*
X145193186Y-78446392D01*
X145307314Y-78380500D01*
X145400500Y-78287314D01*
X145466392Y-78173186D01*
X145500500Y-78045892D01*
X145500500Y-77914108D01*
X145466392Y-77786814D01*
X145400500Y-77672686D01*
X145307314Y-77579500D01*
X145238670Y-77539868D01*
X145193187Y-77513608D01*
X145160618Y-77504881D01*
X145065892Y-77479500D01*
X144934108Y-77479500D01*
X144871948Y-77496155D01*
X144806812Y-77513608D01*
X144692686Y-77579500D01*
X144692683Y-77579502D01*
X144599502Y-77672683D01*
X144599500Y-77672686D01*
X144533608Y-77786812D01*
X144525435Y-77817316D01*
X144499500Y-77914108D01*
X142208537Y-77914108D01*
X142185977Y-77880345D01*
X142185975Y-77880342D01*
X142039657Y-77734024D01*
X141947853Y-77672683D01*
X141867598Y-77619059D01*
X141763379Y-77575890D01*
X141676420Y-77539870D01*
X141676412Y-77539868D01*
X141473469Y-77499500D01*
X141473465Y-77499500D01*
X141266535Y-77499500D01*
X141266530Y-77499500D01*
X141063587Y-77539868D01*
X141063579Y-77539870D01*
X140872403Y-77619058D01*
X140700342Y-77734024D01*
X140700341Y-77734025D01*
X140612181Y-77822186D01*
X140550858Y-77855671D01*
X140481166Y-77850687D01*
X140425233Y-77808815D01*
X140400816Y-77743351D01*
X140400500Y-77734505D01*
X140400500Y-76825495D01*
X140420185Y-76758456D01*
X140472989Y-76712701D01*
X140542147Y-76702757D01*
X140605703Y-76731782D01*
X140612181Y-76737814D01*
X140700342Y-76825975D01*
X140700345Y-76825977D01*
X140872402Y-76940941D01*
X141063580Y-77020130D01*
X141181613Y-77043608D01*
X141266530Y-77060499D01*
X141266534Y-77060500D01*
X141266535Y-77060500D01*
X141473466Y-77060500D01*
X141473467Y-77060499D01*
X141676420Y-77020130D01*
X141867598Y-76940941D01*
X142039655Y-76825977D01*
X142181524Y-76684108D01*
X144499500Y-76684108D01*
X144499500Y-76815892D01*
X144502202Y-76825975D01*
X144533608Y-76943187D01*
X144558635Y-76986534D01*
X144599500Y-77057314D01*
X144692686Y-77150500D01*
X144806814Y-77216392D01*
X144934108Y-77250500D01*
X145065892Y-77250500D01*
X145193186Y-77216392D01*
X145307314Y-77150500D01*
X145400500Y-77057314D01*
X145466392Y-76943186D01*
X145500500Y-76815892D01*
X145500500Y-76684108D01*
X145466392Y-76556814D01*
X145400500Y-76442686D01*
X145307314Y-76349500D01*
X145227096Y-76303186D01*
X145193187Y-76283608D01*
X145129539Y-76266554D01*
X145065892Y-76249500D01*
X144934108Y-76249500D01*
X144806812Y-76283608D01*
X144692686Y-76349500D01*
X144692683Y-76349502D01*
X144599502Y-76442683D01*
X144599500Y-76442686D01*
X144533608Y-76556812D01*
X144513074Y-76633448D01*
X144499500Y-76684108D01*
X142181524Y-76684108D01*
X142185977Y-76679655D01*
X142300941Y-76507598D01*
X142380130Y-76316420D01*
X142420500Y-76113465D01*
X142420500Y-76044108D01*
X149399500Y-76044108D01*
X149399500Y-76175891D01*
X149433608Y-76303187D01*
X149456946Y-76343608D01*
X149499500Y-76417314D01*
X149592686Y-76510500D01*
X149672901Y-76556812D01*
X149706810Y-76576390D01*
X149706814Y-76576392D01*
X149834108Y-76610500D01*
X149834110Y-76610500D01*
X149974019Y-76610500D01*
X149974019Y-76613600D01*
X149976421Y-76613974D01*
X149993371Y-76611537D01*
X150010227Y-76619235D01*
X150028540Y-76622085D01*
X150041351Y-76633448D01*
X150056927Y-76640562D01*
X150066945Y-76656150D01*
X150080810Y-76668449D01*
X150085630Y-76685226D01*
X150094701Y-76699340D01*
X150096559Y-76723260D01*
X150099724Y-76734275D01*
X150099724Y-76743272D01*
X150099500Y-76744108D01*
X150099500Y-76875892D01*
X150099724Y-76876727D01*
X150099724Y-76885724D01*
X150092074Y-76911774D01*
X150087883Y-76938604D01*
X150082375Y-76944806D01*
X150080039Y-76952763D01*
X150059522Y-76970540D01*
X150041489Y-76990848D01*
X150033501Y-76993088D01*
X150027235Y-76998518D01*
X150000362Y-77002381D01*
X149974215Y-77009715D01*
X149971208Y-77009500D01*
X149965892Y-77009500D01*
X149834108Y-77009500D01*
X149706812Y-77043608D01*
X149592686Y-77109500D01*
X149592683Y-77109502D01*
X149499502Y-77202683D01*
X149499500Y-77202686D01*
X149433608Y-77316812D01*
X149399500Y-77444108D01*
X149399500Y-77575892D01*
X149416554Y-77639539D01*
X149433608Y-77703187D01*
X149437253Y-77709500D01*
X149499500Y-77817314D01*
X149592686Y-77910500D01*
X149706814Y-77976392D01*
X149834108Y-78010500D01*
X149834110Y-78010500D01*
X149974019Y-78010500D01*
X149974019Y-78013600D01*
X150028540Y-78022085D01*
X150080810Y-78068449D01*
X150099716Y-78135712D01*
X150099500Y-78138745D01*
X150099500Y-78144108D01*
X150099500Y-78275892D01*
X150102561Y-78287316D01*
X150133608Y-78403187D01*
X150166554Y-78460250D01*
X150199500Y-78517314D01*
X150292686Y-78610500D01*
X150406814Y-78676392D01*
X150534108Y-78710500D01*
X150534110Y-78710500D01*
X150665890Y-78710500D01*
X150665892Y-78710500D01*
X150793186Y-78676392D01*
X150907314Y-78610500D01*
X151000500Y-78517314D01*
X151066392Y-78403186D01*
X151100500Y-78275892D01*
X151100500Y-78144108D01*
X151100500Y-78135981D01*
X151103599Y-78135981D01*
X151103973Y-78133574D01*
X151101537Y-78116628D01*
X151109237Y-78099766D01*
X151112089Y-78081451D01*
X151123450Y-78068644D01*
X151130562Y-78053072D01*
X151146155Y-78043051D01*
X151158457Y-78029184D01*
X151175231Y-78024364D01*
X151189340Y-78015298D01*
X151213224Y-78013449D01*
X151224275Y-78010275D01*
X151233268Y-78010275D01*
X151234108Y-78010500D01*
X151365892Y-78010500D01*
X151366732Y-78010275D01*
X151375724Y-78010275D01*
X151401740Y-78017914D01*
X151428540Y-78022085D01*
X151434773Y-78027613D01*
X151442763Y-78029960D01*
X151460516Y-78050448D01*
X151480810Y-78068449D01*
X151483064Y-78076470D01*
X151488518Y-78082764D01*
X151492376Y-78109600D01*
X151499716Y-78135712D01*
X151499500Y-78138745D01*
X151499500Y-78144108D01*
X151499500Y-78275892D01*
X151502561Y-78287316D01*
X151533608Y-78403187D01*
X151566554Y-78460250D01*
X151599500Y-78517314D01*
X151692686Y-78610500D01*
X151806814Y-78676392D01*
X151934108Y-78710500D01*
X151934110Y-78710500D01*
X152065890Y-78710500D01*
X152065892Y-78710500D01*
X152193186Y-78676392D01*
X152307314Y-78610500D01*
X152400500Y-78517314D01*
X152466392Y-78403186D01*
X152500500Y-78275892D01*
X152500500Y-78144108D01*
X152500500Y-78135981D01*
X152503599Y-78135981D01*
X152512089Y-78081451D01*
X152558457Y-78029184D01*
X152625722Y-78010283D01*
X152628754Y-78010500D01*
X152634108Y-78010500D01*
X152765890Y-78010500D01*
X152765892Y-78010500D01*
X152893186Y-77976392D01*
X153007314Y-77910500D01*
X153100500Y-77817314D01*
X153166392Y-77703186D01*
X153200500Y-77575892D01*
X153200500Y-77444108D01*
X153166392Y-77316814D01*
X153100500Y-77202686D01*
X153007314Y-77109500D01*
X152916929Y-77057316D01*
X152893187Y-77043608D01*
X152829539Y-77026554D01*
X152765892Y-77009500D01*
X152634108Y-77009500D01*
X152625981Y-77009500D01*
X152625981Y-77006412D01*
X152623537Y-77006030D01*
X152606628Y-77008462D01*
X152589734Y-77000746D01*
X152571386Y-76997879D01*
X152558612Y-76986534D01*
X152543072Y-76979437D01*
X152533031Y-76963813D01*
X152519146Y-76951481D01*
X152514337Y-76934724D01*
X152505298Y-76920659D01*
X152503452Y-76896794D01*
X152500275Y-76885724D01*
X152500275Y-76876731D01*
X152500500Y-76875892D01*
X152500500Y-76744108D01*
X152500275Y-76743268D01*
X152500275Y-76734275D01*
X152507916Y-76708252D01*
X152512089Y-76681451D01*
X152517615Y-76675221D01*
X152519960Y-76667236D01*
X152540452Y-76649479D01*
X152545217Y-76644108D01*
X160039500Y-76644108D01*
X160039500Y-76775891D01*
X160073608Y-76903187D01*
X160097637Y-76944806D01*
X160139500Y-77017314D01*
X160232686Y-77110500D01*
X160346814Y-77176392D01*
X160474108Y-77210500D01*
X160474110Y-77210500D01*
X160605890Y-77210500D01*
X160605892Y-77210500D01*
X160733186Y-77176392D01*
X160847314Y-77110500D01*
X160940500Y-77017314D01*
X161006392Y-76903186D01*
X161040500Y-76775892D01*
X161040500Y-76644108D01*
X161006392Y-76516814D01*
X160940500Y-76402686D01*
X160847314Y-76309500D01*
X160790250Y-76276554D01*
X160733187Y-76243608D01*
X160669539Y-76226554D01*
X160605892Y-76209500D01*
X160474108Y-76209500D01*
X160346812Y-76243608D01*
X160232686Y-76309500D01*
X160232683Y-76309502D01*
X160139502Y-76402683D01*
X160139500Y-76402686D01*
X160073608Y-76516812D01*
X160039500Y-76644108D01*
X152545217Y-76644108D01*
X152558457Y-76629184D01*
X152566474Y-76626931D01*
X152572764Y-76621481D01*
X152599605Y-76617621D01*
X152625722Y-76610283D01*
X152628754Y-76610500D01*
X152634108Y-76610500D01*
X152765890Y-76610500D01*
X152765892Y-76610500D01*
X152893186Y-76576392D01*
X153007314Y-76510500D01*
X153100500Y-76417314D01*
X153166392Y-76303186D01*
X153200500Y-76175892D01*
X153200500Y-76044108D01*
X153166392Y-75916814D01*
X153100500Y-75802686D01*
X153007314Y-75709500D01*
X152950250Y-75676554D01*
X152893187Y-75643608D01*
X152829539Y-75626554D01*
X152765892Y-75609500D01*
X152634108Y-75609500D01*
X152625981Y-75609500D01*
X152625981Y-75606412D01*
X152623423Y-75606012D01*
X152606397Y-75608428D01*
X152589623Y-75600729D01*
X152571386Y-75597879D01*
X152558526Y-75586457D01*
X152542896Y-75579284D01*
X152532946Y-75563738D01*
X152519146Y-75551481D01*
X152514335Y-75534658D01*
X152505232Y-75520435D01*
X152503396Y-75496406D01*
X152500275Y-75485491D01*
X152500291Y-75476669D01*
X152500500Y-75475892D01*
X152500500Y-75374108D01*
X159749500Y-75374108D01*
X159749500Y-75505892D01*
X159751245Y-75512403D01*
X159783608Y-75633187D01*
X159789625Y-75643608D01*
X159849500Y-75747314D01*
X159942686Y-75840500D01*
X160056814Y-75906392D01*
X160184108Y-75940500D01*
X160184110Y-75940500D01*
X160315890Y-75940500D01*
X160315892Y-75940500D01*
X160443186Y-75906392D01*
X160557314Y-75840500D01*
X160650500Y-75747314D01*
X160716392Y-75633186D01*
X160750500Y-75505892D01*
X160750500Y-75374108D01*
X160716392Y-75246814D01*
X160650500Y-75132686D01*
X160557314Y-75039500D01*
X160488670Y-74999868D01*
X160443187Y-74973608D01*
X160331223Y-74943608D01*
X160315892Y-74939500D01*
X160184108Y-74939500D01*
X160056812Y-74973608D01*
X159942686Y-75039500D01*
X159942683Y-75039502D01*
X159849502Y-75132683D01*
X159849500Y-75132686D01*
X159783608Y-75246812D01*
X159774130Y-75282186D01*
X159749500Y-75374108D01*
X152500500Y-75374108D01*
X152500500Y-75344108D01*
X152466392Y-75216814D01*
X152400500Y-75102686D01*
X152307314Y-75009500D01*
X152220712Y-74959500D01*
X152193187Y-74943608D01*
X152129539Y-74926554D01*
X152065892Y-74909500D01*
X151934108Y-74909500D01*
X151806812Y-74943608D01*
X151692686Y-75009500D01*
X151692683Y-75009502D01*
X151599502Y-75102683D01*
X151599500Y-75102686D01*
X151533608Y-75216812D01*
X151499500Y-75344108D01*
X151499500Y-75484019D01*
X151496411Y-75484019D01*
X151496030Y-75486457D01*
X151498462Y-75503371D01*
X151490748Y-75520260D01*
X151487883Y-75538604D01*
X151476536Y-75551381D01*
X151469437Y-75566927D01*
X151453817Y-75576964D01*
X151441489Y-75590848D01*
X151424729Y-75595658D01*
X151410659Y-75604701D01*
X151386758Y-75606556D01*
X151375724Y-75609724D01*
X151366728Y-75609724D01*
X151365892Y-75609500D01*
X151234108Y-75609500D01*
X151233272Y-75609724D01*
X151224275Y-75609724D01*
X151198219Y-75602073D01*
X151171386Y-75597879D01*
X151165187Y-75592373D01*
X151157236Y-75590039D01*
X151139455Y-75569519D01*
X151119146Y-75551481D01*
X151116907Y-75543497D01*
X151111481Y-75537235D01*
X151107616Y-75510359D01*
X151100284Y-75484206D01*
X151100500Y-75481201D01*
X151100500Y-75344110D01*
X151100500Y-75344108D01*
X151066392Y-75216814D01*
X151000500Y-75102686D01*
X150907314Y-75009500D01*
X150820712Y-74959500D01*
X150793187Y-74943608D01*
X150729539Y-74926554D01*
X150665892Y-74909500D01*
X150534108Y-74909500D01*
X150406812Y-74943608D01*
X150292686Y-75009500D01*
X150292683Y-75009502D01*
X150199502Y-75102683D01*
X150199500Y-75102686D01*
X150133608Y-75216812D01*
X150099500Y-75344108D01*
X150099500Y-75484019D01*
X150096411Y-75484019D01*
X150087883Y-75538604D01*
X150041489Y-75590848D01*
X149974215Y-75609715D01*
X149971208Y-75609500D01*
X149965892Y-75609500D01*
X149834108Y-75609500D01*
X149706812Y-75643608D01*
X149592686Y-75709500D01*
X149592683Y-75709502D01*
X149499502Y-75802683D01*
X149499500Y-75802686D01*
X149433608Y-75916812D01*
X149399500Y-76044108D01*
X142420500Y-76044108D01*
X142420500Y-75906535D01*
X142380130Y-75703580D01*
X142300941Y-75512402D01*
X142185977Y-75340345D01*
X142185975Y-75340342D01*
X142039657Y-75194024D01*
X141947853Y-75132683D01*
X141867598Y-75079059D01*
X141867593Y-75079057D01*
X141805891Y-75053499D01*
X141702890Y-75010834D01*
X141648488Y-74966994D01*
X141626423Y-74900700D01*
X141643702Y-74833001D01*
X141694839Y-74785390D01*
X141712026Y-74778343D01*
X141888217Y-74721095D01*
X142077554Y-74624622D01*
X142131716Y-74585270D01*
X142131717Y-74585270D01*
X141499409Y-73952962D01*
X141562993Y-73935925D01*
X141677007Y-73870099D01*
X141770099Y-73777007D01*
X141835925Y-73662993D01*
X141852962Y-73599409D01*
X142485270Y-74231717D01*
X142485270Y-74231716D01*
X142524622Y-74177554D01*
X142621095Y-73988217D01*
X142686757Y-73786130D01*
X142686757Y-73786127D01*
X142720000Y-73576246D01*
X142720000Y-73363753D01*
X142686757Y-73153872D01*
X142686757Y-73153869D01*
X142621095Y-72951782D01*
X142524624Y-72762449D01*
X142485270Y-72708282D01*
X142485269Y-72708282D01*
X141852962Y-73340590D01*
X141835925Y-73277007D01*
X141770099Y-73162993D01*
X141677007Y-73069901D01*
X141562993Y-73004075D01*
X141499407Y-72987036D01*
X141877336Y-72609108D01*
X144824500Y-72609108D01*
X144824500Y-72740891D01*
X144858608Y-72868187D01*
X144891554Y-72925250D01*
X144924500Y-72982314D01*
X145017686Y-73075500D01*
X145131814Y-73141392D01*
X145259108Y-73175500D01*
X145259110Y-73175500D01*
X145390890Y-73175500D01*
X145390892Y-73175500D01*
X145518186Y-73141392D01*
X145632314Y-73075500D01*
X145725500Y-72982314D01*
X145791392Y-72868186D01*
X145825500Y-72740892D01*
X145825500Y-72609108D01*
X145791392Y-72481814D01*
X145725500Y-72367686D01*
X145632314Y-72274500D01*
X145543720Y-72223350D01*
X145518187Y-72208608D01*
X145454539Y-72191554D01*
X145390892Y-72174500D01*
X145259108Y-72174500D01*
X145131812Y-72208608D01*
X145017686Y-72274500D01*
X145017683Y-72274502D01*
X144924502Y-72367683D01*
X144924500Y-72367686D01*
X144858608Y-72481812D01*
X144824500Y-72609108D01*
X141877336Y-72609108D01*
X142168802Y-72317642D01*
X142230125Y-72284157D01*
X142244833Y-72285078D01*
X142244556Y-72282501D01*
X142327375Y-72273598D01*
X142462086Y-72223354D01*
X142462093Y-72223350D01*
X142577187Y-72137190D01*
X142577190Y-72137187D01*
X142663350Y-72022093D01*
X142663354Y-72022086D01*
X142713596Y-71887379D01*
X142713598Y-71887372D01*
X142719999Y-71827843D01*
X142720000Y-71827827D01*
X142720000Y-71184108D01*
X145749500Y-71184108D01*
X145749500Y-71315891D01*
X145783608Y-71443187D01*
X145816554Y-71500250D01*
X145849500Y-71557314D01*
X145942686Y-71650500D01*
X146056814Y-71716392D01*
X146184108Y-71750500D01*
X146184110Y-71750500D01*
X146315890Y-71750500D01*
X146315892Y-71750500D01*
X146443186Y-71716392D01*
X146557314Y-71650500D01*
X146650500Y-71557314D01*
X146716392Y-71443186D01*
X146750500Y-71315892D01*
X146750500Y-71184108D01*
X146716392Y-71056814D01*
X146650500Y-70942686D01*
X146557314Y-70849500D01*
X146443186Y-70783608D01*
X146315892Y-70749500D01*
X146184108Y-70749500D01*
X146056812Y-70783608D01*
X145942686Y-70849500D01*
X145942683Y-70849502D01*
X145849502Y-70942683D01*
X145849500Y-70942686D01*
X145783608Y-71056812D01*
X145749500Y-71184108D01*
X142720000Y-71184108D01*
X142720000Y-71180000D01*
X141803012Y-71180000D01*
X141835925Y-71122993D01*
X141870000Y-70995826D01*
X141870000Y-70864174D01*
X141835925Y-70737007D01*
X141805384Y-70684108D01*
X151249500Y-70684108D01*
X151249500Y-70815891D01*
X151283608Y-70943187D01*
X151314000Y-70995826D01*
X151349500Y-71057314D01*
X151442686Y-71150500D01*
X151556814Y-71216392D01*
X151684108Y-71250500D01*
X151684110Y-71250500D01*
X151815890Y-71250500D01*
X151815892Y-71250500D01*
X151943186Y-71216392D01*
X152057314Y-71150500D01*
X152150500Y-71057314D01*
X152216392Y-70943186D01*
X152250500Y-70815892D01*
X152250500Y-70684108D01*
X152216392Y-70556814D01*
X152150500Y-70442686D01*
X152057314Y-70349500D01*
X152000250Y-70316554D01*
X151943187Y-70283608D01*
X151879539Y-70266554D01*
X151815892Y-70249500D01*
X151684108Y-70249500D01*
X151556812Y-70283608D01*
X151442686Y-70349500D01*
X151442683Y-70349502D01*
X151349502Y-70442683D01*
X151349500Y-70442686D01*
X151283608Y-70556812D01*
X151249500Y-70684108D01*
X141805384Y-70684108D01*
X141803012Y-70680000D01*
X142720000Y-70680000D01*
X142720000Y-70032172D01*
X142719999Y-70032155D01*
X142713598Y-69972627D01*
X142713596Y-69972620D01*
X142663354Y-69837913D01*
X142663350Y-69837906D01*
X142577190Y-69722812D01*
X142577187Y-69722809D01*
X142462093Y-69636649D01*
X142462086Y-69636645D01*
X142327379Y-69586403D01*
X142327372Y-69586401D01*
X142267844Y-69580000D01*
X141620000Y-69580000D01*
X141620000Y-70496988D01*
X141562993Y-70464075D01*
X141435826Y-70430000D01*
X141304174Y-70430000D01*
X141177007Y-70464075D01*
X141120000Y-70496988D01*
X141120000Y-69580000D01*
X140524500Y-69580000D01*
X140457461Y-69560315D01*
X140411706Y-69507511D01*
X140400500Y-69456000D01*
X140400500Y-68024500D01*
X140420185Y-67957461D01*
X140472989Y-67911706D01*
X140524500Y-67900500D01*
X145092324Y-67900500D01*
X145159363Y-67920185D01*
G37*
%TD.AperFunction*%
%TD*%
M02*
