%TF.GenerationSoftware,KiCad,Pcbnew,10.0.4*%
%TF.CreationDate,2026-09-08T14:40:06-04:00*%
%TF.ProjectId,ESP32S3_RF_DevBoard,45535033-3253-4335-9f52-465f44657642,rev?*%
%TF.SameCoordinates,Original*%
%TF.FileFunction,Copper,L4,Bot*%
%TF.FilePolarity,Positive*%
%FSLAX46Y46*%
G04 Gerber Fmt 4.6, Leading zero omitted, Abs format (unit mm)*
G04 Created by KiCad (PCBNEW 10.0.4) date 2026-09-08 14:40:06*
%MOMM*%
%LPD*%
G01*
G04 APERTURE LIST*
G04 Aperture macros list*
%AMRoundRect*
0 Rectangle with rounded corners*
0 $1 Rounding radius*
0 $2 $3 $4 $5 $6 $7 $8 $9 X,Y pos of 4 corners*
0 Add a 4 corners polygon primitive as box body*
4,1,4,$2,$3,$4,$5,$6,$7,$8,$9,$2,$3,0*
0 Add four circle primitives for the rounded corners*
1,1,$1+$1,$2,$3*
1,1,$1+$1,$4,$5*
1,1,$1+$1,$6,$7*
1,1,$1+$1,$8,$9*
0 Add four rect primitives between the rounded corners*
20,1,$1+$1,$2,$3,$4,$5,0*
20,1,$1+$1,$4,$5,$6,$7,0*
20,1,$1+$1,$6,$7,$8,$9,0*
20,1,$1+$1,$8,$9,$2,$3,0*%
G04 Aperture macros list end*
%TA.AperFunction,ComponentPad*%
%ADD10R,1.700000X1.700000*%
%TD*%
%TA.AperFunction,ComponentPad*%
%ADD11C,1.700000*%
%TD*%
%TA.AperFunction,ComponentPad*%
%ADD12O,1.000000X2.100000*%
%TD*%
%TA.AperFunction,ComponentPad*%
%ADD13O,1.000000X1.800000*%
%TD*%
%TA.AperFunction,HeatsinkPad*%
%ADD14C,0.600000*%
%TD*%
%TA.AperFunction,SMDPad,CuDef*%
%ADD15RoundRect,0.250000X-0.475000X0.250000X-0.475000X-0.250000X0.475000X-0.250000X0.475000X0.250000X0*%
%TD*%
%TA.AperFunction,SMDPad,CuDef*%
%ADD16RoundRect,0.200000X-0.275000X0.200000X-0.275000X-0.200000X0.275000X-0.200000X0.275000X0.200000X0*%
%TD*%
%TA.AperFunction,SMDPad,CuDef*%
%ADD17RoundRect,0.225000X-0.225000X-0.250000X0.225000X-0.250000X0.225000X0.250000X-0.225000X0.250000X0*%
%TD*%
%TA.AperFunction,ViaPad*%
%ADD18C,0.600000*%
%TD*%
%TA.AperFunction,Conductor*%
%ADD19C,0.200000*%
%TD*%
%TA.AperFunction,Conductor*%
%ADD20C,0.500000*%
%TD*%
G04 APERTURE END LIST*
D10*
%TO.P,J3,1,Pin_1_1*%
%TO.N,GND*%
X164230000Y-70930000D03*
D11*
%TO.P,J3,2,Pin_2_2*%
%TO.N,/GPIO1*%
X164230000Y-73470000D03*
%TO.P,J3,3,Pin_3_3*%
%TO.N,/GPIO2*%
X164230000Y-76010000D03*
%TO.P,J3,4,Pin_4_4*%
%TO.N,/TX*%
X164230000Y-78550000D03*
%TO.P,J3,5,Pin_5_5*%
%TO.N,/RX*%
X164230000Y-81090000D03*
%TO.P,J3,6,Pin_6_6*%
%TO.N,/GPIO42*%
X164230000Y-83630000D03*
%TO.P,J3,7,Pin_7_7*%
%TO.N,/GPIO41*%
X164230000Y-86170000D03*
%TO.P,J3,8,Pin_8_8*%
%TO.N,/GPIO40*%
X164230000Y-88710000D03*
%TO.P,J3,9,Pin_9_9*%
%TO.N,/GPIO39*%
X164230000Y-91250000D03*
%TO.P,J3,10,Pin_10_10*%
%TO.N,/GPIO37*%
X164230000Y-93790000D03*
%TO.P,J3,11,Pin_11_11*%
%TO.N,/GPIO38*%
X164230000Y-96330000D03*
%TO.P,J3,12,Pin_12_12*%
%TO.N,/GPIO36*%
X164230000Y-98870000D03*
%TO.P,J3,13,Pin_13_13*%
%TO.N,/GPIO35*%
X164230000Y-101410000D03*
%TO.P,J3,14,Pin_14_14*%
%TO.N,/GPIO0*%
X164230000Y-103950000D03*
%TO.P,J3,15,Pin_15_15*%
%TO.N,/GPIO45*%
X164230000Y-106490000D03*
%TO.P,J3,16,Pin_16_16*%
%TO.N,/GPIO48*%
X164230000Y-109030000D03*
%TO.P,J3,17,Pin_17_17*%
%TO.N,/GPIO47*%
X164230000Y-111570000D03*
%TO.P,J3,18,Pin_18_18*%
%TO.N,/GPIO21*%
X164230000Y-114110000D03*
%TO.P,J3,19,Pin_19_19*%
%TO.N,unconnected-(J3-Pin_19-Pad19)*%
X164230000Y-116650000D03*
%TO.P,J3,20,Pin_20_20*%
%TO.N,unconnected-(J3-Pin_20-Pad20)*%
X164230000Y-119190000D03*
%TO.P,J3,21,Pin_21_21*%
%TO.N,GND*%
X164230000Y-121730000D03*
%TO.P,J3,22,Pin_22_22*%
X164230000Y-124270000D03*
%TD*%
D12*
%TO.P,J1,SH1,SHELL_GND_SH1*%
%TO.N,GND*%
X149930000Y-120482500D03*
%TO.P,J1,SH2,SHELL_GND__1_SH2*%
X158570000Y-120482500D03*
D13*
%TO.P,J1,SH3,SHELL_GND__2_SH3*%
X149930000Y-124662500D03*
%TO.P,J1,SH4,SHELL_GND__3_SH4*%
X158570000Y-124662500D03*
%TD*%
D14*
%TO.P,U3,41,GND_41*%
%TO.N,GND*%
X149900000Y-76110000D03*
X149900000Y-77510000D03*
X150600000Y-75410000D03*
X150600000Y-76810000D03*
X150600000Y-78210000D03*
X151300000Y-76110000D03*
X151300000Y-77510000D03*
X152000000Y-75410000D03*
X152000000Y-76810000D03*
X152000000Y-78210000D03*
X152700000Y-76110000D03*
X152700000Y-77510000D03*
%TD*%
D10*
%TO.P,J2,1,Pin_1_1*%
%TO.N,/+3V3*%
X141370000Y-70930000D03*
D11*
%TO.P,J2,2,Pin_2_2*%
X141370000Y-73470000D03*
%TO.P,J2,3,Pin_3_3*%
%TO.N,/GPIO4*%
X141370000Y-76010000D03*
%TO.P,J2,4,Pin_4_4*%
%TO.N,/CHIP_PU*%
X141370000Y-78550000D03*
%TO.P,J2,5,Pin_5_5*%
%TO.N,/GPIO5*%
X141370000Y-81090000D03*
%TO.P,J2,6,Pin_6_6*%
%TO.N,/GPIO6*%
X141370000Y-83630000D03*
%TO.P,J2,7,Pin_7_7*%
%TO.N,/GPIO7*%
X141370000Y-86170000D03*
%TO.P,J2,8,Pin_8_8*%
%TO.N,/GPIO15*%
X141370000Y-88710000D03*
%TO.P,J2,9,Pin_9_9*%
%TO.N,/GPIO16*%
X141370000Y-91250000D03*
%TO.P,J2,10,Pin_10_10*%
%TO.N,/GPIO17*%
X141370000Y-93790000D03*
%TO.P,J2,11,Pin_11_11*%
%TO.N,/GPIO18*%
X141370000Y-96330000D03*
%TO.P,J2,12,Pin_12_12*%
%TO.N,/GPIO8*%
X141370000Y-98870000D03*
%TO.P,J2,13,Pin_13_13*%
%TO.N,/GPIO3*%
X141370000Y-101410000D03*
%TO.P,J2,14,Pin_14_14*%
%TO.N,/GPIO46*%
X141370000Y-103950000D03*
%TO.P,J2,15,Pin_15_15*%
%TO.N,/GPIO9*%
X141370000Y-106490000D03*
%TO.P,J2,16,Pin_16_16*%
%TO.N,/GPIO10*%
X141370000Y-109030000D03*
%TO.P,J2,17,Pin_17_17*%
%TO.N,/GPIO11*%
X141370000Y-111570000D03*
%TO.P,J2,18,Pin_18_18*%
%TO.N,/GPIO12*%
X141370000Y-114110000D03*
%TO.P,J2,19,Pin_19_19*%
%TO.N,/GPIO13*%
X141370000Y-116650000D03*
%TO.P,J2,20,Pin_20_20*%
%TO.N,/GPIO14*%
X141370000Y-119190000D03*
%TO.P,J2,21,Pin_21_21*%
%TO.N,/+5V_USB*%
X141370000Y-121730000D03*
%TO.P,J2,22,Pin_22_22*%
%TO.N,GND*%
X141370000Y-124270000D03*
%TD*%
D15*
%TO.P,C6,1*%
%TO.N,/CHIP_PU*%
X146250000Y-75816228D03*
%TO.P,C6,2*%
%TO.N,GND*%
X146250000Y-77716228D03*
%TD*%
D16*
%TO.P,R5,1*%
%TO.N,/ESP_3V3*%
X146500000Y-72399695D03*
%TO.P,R5,2*%
%TO.N,/CHIP_PU*%
X146500000Y-74049695D03*
%TD*%
D17*
%TO.P,C5,1*%
%TO.N,/+3V3*%
X149225000Y-70750000D03*
%TO.P,C5,2*%
%TO.N,GND*%
X150775000Y-70750000D03*
%TD*%
D18*
%TO.N,GND*%
X148500000Y-124750000D03*
X156750000Y-109750000D03*
X160500000Y-108750000D03*
X151750000Y-70750000D03*
X145500000Y-68500000D03*
X161477369Y-118000000D03*
X145250000Y-117000000D03*
X157314998Y-114500000D03*
X146000000Y-126550000D03*
X146291889Y-78670284D03*
X148450000Y-94800000D03*
X152714000Y-108250000D03*
X145250000Y-113500000D03*
X160250000Y-69000000D03*
X158875000Y-94625000D03*
X149668097Y-93900000D03*
X144500000Y-120500000D03*
X160116823Y-107833782D03*
X157500000Y-93000000D03*
X144500000Y-110301305D03*
X154700001Y-117349998D03*
X154059474Y-122070330D03*
X160954263Y-103120106D03*
X161842904Y-112796091D03*
X160450000Y-125450000D03*
%TO.N,/+3V3*%
X151750000Y-94250000D03*
X149225000Y-69500000D03*
%TO.N,/+5V_USB*%
X152200000Y-118650000D03*
X156450000Y-118700000D03*
%TO.N,/CHIP_PU*%
X145325000Y-72675000D03*
X148250000Y-91000000D03*
X146300000Y-115250000D03*
%TO.N,/GPIO38*%
X159500000Y-100500000D03*
X157500000Y-108649998D03*
%TO.N,/GPIO0*%
X160500000Y-85500000D03*
X151500000Y-111500000D03*
X160250000Y-101750000D03*
%TO.N,/GPIO42*%
X160250000Y-75440000D03*
%TO.N,/GPIO41*%
X160540000Y-76710000D03*
%TO.N,/GPIO39*%
X160500000Y-79250000D03*
%TO.N,/GPIO37*%
X160300000Y-81750000D03*
%TO.N,/GPIO36*%
X160560000Y-83060000D03*
%TO.N,/GPIO35*%
X160500000Y-84250000D03*
%TO.N,/GPIO45*%
X160800000Y-88250000D03*
%TO.N,/GPIO48*%
X159000000Y-88250000D03*
%TO.N,/GPIO47*%
X157750000Y-88250000D03*
%TO.N,/GPIO21*%
X156375000Y-88375000D03*
%TO.N,/ESP_3V3*%
X146250000Y-71250000D03*
X150418097Y-114581903D03*
X151500000Y-90500000D03*
%TO.N,/USB_D-*%
X153600001Y-121400000D03*
X154500000Y-121400000D03*
%TO.N,/GPIO7*%
X145000000Y-76750000D03*
%TO.N,/GPIO15*%
X145000000Y-77980000D03*
%TO.N,/GPIO16*%
X145000000Y-79250000D03*
%TO.N,/GPIO17*%
X145230000Y-80520000D03*
%TO.N,/GPIO18*%
X145250000Y-81750000D03*
%TO.N,/GPIO8*%
X145250000Y-83000000D03*
%TO.N,/GPIO3*%
X145800000Y-85500000D03*
%TO.N,/GPIO46*%
X147250000Y-85550000D03*
%TO.N,/GPIO9*%
X148250000Y-88000000D03*
%TO.N,/GPIO10*%
X148806737Y-85348791D03*
%TO.N,/GPIO11*%
X150500000Y-88250000D03*
%TO.N,/GPIO12*%
X152000000Y-88250000D03*
%TO.N,/GPIO13*%
X153250000Y-88250000D03*
%TO.N,/GPIO14*%
X154691131Y-88058869D03*
%TD*%
%TO.N,GND*%
D19*
X146291889Y-77758117D02*
X146250000Y-77716228D01*
X146291889Y-78670284D02*
X146291889Y-77758117D01*
X150775000Y-70750000D02*
X151750000Y-70750000D01*
%TO.N,/+3V3*%
D20*
X149225000Y-70750000D02*
X149225000Y-69500000D01*
%TO.N,/CHIP_PU*%
D19*
X145250000Y-72750000D02*
X145250000Y-73500000D01*
X146250000Y-98500000D02*
X146250000Y-97250000D01*
X146238132Y-74049695D02*
X146208111Y-74079716D01*
X146250000Y-75816228D02*
X146250000Y-74000000D01*
X141370000Y-78314315D02*
X141370000Y-78550000D01*
X145325000Y-72675000D02*
X145250000Y-72750000D01*
X145750000Y-99000000D02*
X146250000Y-98500000D01*
X144850000Y-107350000D02*
X144850000Y-106250000D01*
X146920017Y-96579983D02*
X146920017Y-91645669D01*
X144850000Y-106250000D02*
X145750000Y-105350000D01*
X143868087Y-75816228D02*
X141370000Y-78314315D01*
X146250000Y-97250000D02*
X146920017Y-96579983D01*
X146250000Y-75816228D02*
X143868087Y-75816228D01*
X146000000Y-114950000D02*
X146000000Y-108500000D01*
X146000000Y-108500000D02*
X144850000Y-107350000D01*
X145250000Y-73500000D02*
X145799695Y-74049695D01*
X145799695Y-74049695D02*
X146238132Y-74049695D01*
X146300000Y-115250000D02*
X146000000Y-114950000D01*
X145750000Y-105350000D02*
X145750000Y-99000000D01*
X147565686Y-91000000D02*
X148250000Y-91000000D01*
X146920017Y-91645669D02*
X147565686Y-91000000D01*
%TO.N,/GPIO38*%
X158350002Y-107799996D02*
X157500000Y-108649998D01*
X159500000Y-100500000D02*
X159000000Y-101000000D01*
X159000000Y-103500000D02*
X158350002Y-104149998D01*
X159000000Y-101000000D02*
X159000000Y-103500000D01*
X158350002Y-104149998D02*
X158350002Y-107799996D01*
%TO.N,/GPIO0*%
X162350000Y-98121372D02*
X162350000Y-100095686D01*
X156598529Y-108750000D02*
X157098527Y-109249998D01*
X161400000Y-91965686D02*
X162200000Y-92765686D01*
X163750000Y-103470000D02*
X164230000Y-103950000D01*
X160500000Y-85500000D02*
X161400000Y-86400000D01*
X163750000Y-102556346D02*
X163750000Y-103470000D01*
X160250000Y-106748527D02*
X160250000Y-101750000D01*
X162350000Y-100095686D02*
X163133984Y-100879670D01*
X161400000Y-86400000D02*
X161400000Y-91965686D01*
X157748529Y-109249998D02*
X160250000Y-106748527D01*
X162200000Y-92765686D02*
X162200001Y-97639999D01*
X163080000Y-101886346D02*
X163750000Y-102556346D01*
X151500000Y-111500000D02*
X154250000Y-108750000D01*
X163133984Y-100879670D02*
X163080000Y-100933654D01*
X162200001Y-97971373D02*
X162350000Y-98121372D01*
X157098527Y-109249998D02*
X157748529Y-109249998D01*
X163080000Y-100933654D02*
X163080000Y-101886346D01*
X162199999Y-97640001D02*
X162200001Y-97971373D01*
X162200001Y-97639999D02*
X162199999Y-97640001D01*
X154250000Y-108750000D02*
X156598529Y-108750000D01*
%TO.N,/GPIO42*%
X160250000Y-75470000D02*
X161500000Y-76720000D01*
X161500000Y-76720000D02*
X161500000Y-80500000D01*
X164230000Y-83230000D02*
X164230000Y-83630000D01*
X160250000Y-75440000D02*
X160250000Y-75470000D01*
X161500000Y-80500000D02*
X164230000Y-83230000D01*
%TO.N,/GPIO41*%
X162900000Y-82900000D02*
X163000000Y-83000000D01*
X163000000Y-83000000D02*
X163000000Y-84250000D01*
X163000000Y-84250000D02*
X164230000Y-85480000D01*
X161000000Y-79598529D02*
X161000000Y-80934314D01*
X161100000Y-79001471D02*
X161100000Y-79498529D01*
X161100000Y-79498529D02*
X161000000Y-79598529D01*
X160500000Y-76750000D02*
X160500000Y-78401471D01*
X160540000Y-76710000D02*
X160500000Y-76750000D01*
X162900000Y-82834315D02*
X162900000Y-82900000D01*
X161000000Y-80934314D02*
X162900000Y-82834315D01*
X160500000Y-78401471D02*
X161100000Y-79001471D01*
X164230000Y-85480000D02*
X164230000Y-86170000D01*
%TO.N,/GPIO39*%
X163000000Y-85000000D02*
X163000000Y-90020000D01*
X160500000Y-81000000D02*
X162500000Y-83000000D01*
X162500000Y-83000000D02*
X162500000Y-84500000D01*
X160500000Y-79250000D02*
X160500000Y-81000000D01*
X163000000Y-90020000D02*
X164230000Y-91250000D01*
X162500000Y-84500000D02*
X163000000Y-85000000D01*
%TO.N,/GPIO37*%
X162100000Y-84665686D02*
X162600000Y-85165686D01*
X163000000Y-90585686D02*
X163000000Y-91646346D01*
X162100000Y-83600000D02*
X162100000Y-84665686D01*
X164103654Y-93350660D02*
X163947157Y-93507157D01*
X160300000Y-81750000D02*
X160450000Y-81900000D01*
X163770000Y-94250000D02*
X164230000Y-93790000D01*
X160450000Y-81900000D02*
X160450000Y-81950000D01*
X160450000Y-81950000D02*
X162100000Y-83600000D01*
X164103654Y-92750000D02*
X164103654Y-93350660D01*
X162600000Y-90185686D02*
X163000000Y-90585686D01*
X163000000Y-91646346D02*
X164103654Y-92750000D01*
X162600000Y-85165686D02*
X162600000Y-90185686D01*
%TO.N,/GPIO36*%
X162200000Y-85331372D02*
X162200000Y-90351372D01*
X162200000Y-90351372D02*
X162600000Y-90751372D01*
X160560000Y-83060000D02*
X161700000Y-84200000D01*
X163000000Y-97640000D02*
X164230000Y-98870000D01*
X162600000Y-90751372D02*
X162600000Y-91812032D01*
X162600000Y-91812032D02*
X163000000Y-92212032D01*
X161700000Y-84831372D02*
X162200000Y-85331372D01*
X163000000Y-92212032D02*
X163000000Y-97640000D01*
X161700000Y-84200000D02*
X161700000Y-84831372D01*
%TO.N,/GPIO35*%
X162600000Y-97805686D02*
X162750000Y-97955685D01*
X161800000Y-91800000D02*
X162600000Y-92600000D01*
X161800000Y-85550000D02*
X161800000Y-91800000D01*
X162600000Y-92600000D02*
X162600000Y-97805686D01*
X162750000Y-99930000D02*
X164230000Y-101410000D01*
X160500000Y-84250000D02*
X161800000Y-85550000D01*
X162750000Y-97955685D02*
X162750000Y-99930000D01*
%TO.N,/GPIO45*%
X163000000Y-102372032D02*
X163000000Y-104500000D01*
X161800001Y-93050001D02*
X161800001Y-97474313D01*
X161950000Y-98287058D02*
X161950000Y-100261372D01*
X161800002Y-98137060D02*
X161950000Y-98287058D01*
X161800001Y-97474313D02*
X161799998Y-97474318D01*
X162680000Y-100991372D02*
X162680000Y-102052032D01*
X163000000Y-104500000D02*
X164230000Y-105730000D01*
X164230000Y-105730000D02*
X164230000Y-106490000D01*
X161799998Y-97474318D02*
X161800002Y-98137060D01*
X160800000Y-88250000D02*
X160800000Y-92050000D01*
X162680000Y-102052032D02*
X163000000Y-102372032D01*
X161950000Y-100261372D02*
X162680000Y-100991372D01*
X160800000Y-92050000D02*
X161800001Y-93050001D01*
%TO.N,/GPIO48*%
X163000000Y-105065686D02*
X163000000Y-107800000D01*
X161400003Y-98302747D02*
X161500000Y-98402743D01*
X160250000Y-92250000D02*
X161400001Y-93400001D01*
X160250000Y-89000000D02*
X160250000Y-92250000D01*
X162600000Y-104665686D02*
X163000000Y-105065686D01*
X161399996Y-97308632D02*
X161399996Y-97640004D01*
X161400001Y-93400001D02*
X161400001Y-97308627D01*
X161500000Y-100750000D02*
X162280000Y-101530000D01*
X163000000Y-107800000D02*
X164230000Y-109030000D01*
X161399996Y-97640004D02*
X161399999Y-97640007D01*
X159000000Y-88250000D02*
X159500000Y-88250000D01*
X162600000Y-102537718D02*
X162600000Y-104665686D01*
X162280000Y-101530000D02*
X162280000Y-102217718D01*
X159500000Y-88250000D02*
X160250000Y-89000000D01*
X162280000Y-102217718D02*
X162600000Y-102537718D01*
X161400001Y-97308627D02*
X161399996Y-97308632D01*
X161500000Y-98402743D02*
X161500000Y-100750000D01*
X161399999Y-97640007D02*
X161400003Y-98302747D01*
%TO.N,/GPIO47*%
X159850000Y-92600000D02*
X161000000Y-93750000D01*
X162500000Y-105131372D02*
X162500000Y-109000000D01*
X164230000Y-110730000D02*
X164230000Y-111570000D01*
X157750000Y-88250000D02*
X158000000Y-88250000D01*
X161880000Y-101695686D02*
X161880000Y-102383404D01*
X161880000Y-102383404D02*
X162200000Y-102703404D01*
X162500000Y-109000000D02*
X164230000Y-110730000D01*
X161100000Y-98568429D02*
X161100000Y-100915686D01*
X162200000Y-104831372D02*
X162500000Y-105131372D01*
X161000000Y-93750000D02*
X161000000Y-97142943D01*
X161100000Y-100915686D02*
X161880000Y-101695686D01*
X162200000Y-102703404D02*
X162200000Y-104831372D01*
X161000000Y-97142943D02*
X160999996Y-97142947D01*
X160999996Y-97142947D02*
X160999996Y-97805690D01*
X158000000Y-88250000D02*
X159850000Y-90100000D01*
X161000004Y-98468435D02*
X161100000Y-98568429D01*
X159850000Y-90100000D02*
X159850000Y-92600000D01*
X161000000Y-97805694D02*
X161000004Y-98468435D01*
X160999996Y-97805690D02*
X161000000Y-97805694D01*
%TO.N,/GPIO21*%
X161800000Y-104997058D02*
X162100000Y-105297058D01*
X161250000Y-102319090D02*
X161800000Y-102869090D01*
X159450000Y-92950000D02*
X160600000Y-94100000D01*
X161250000Y-101631372D02*
X161250000Y-102319090D01*
X160599996Y-97971376D02*
X160600001Y-97971380D01*
X163000000Y-112000000D02*
X164230000Y-113230000D01*
X156375000Y-88375000D02*
X157032843Y-89032843D01*
X160700000Y-98734117D02*
X160700000Y-101081372D01*
X157032843Y-89032843D02*
X158217157Y-89032843D01*
X162100000Y-105297058D02*
X162100000Y-109165686D01*
X160600006Y-98634125D02*
X160700000Y-98734117D01*
X162100000Y-109165686D02*
X163000000Y-110065686D01*
X160600001Y-97971380D02*
X160600006Y-98634125D01*
X160700000Y-101081372D02*
X161250000Y-101631372D01*
X160600000Y-96977258D02*
X160599996Y-96977262D01*
X161800000Y-102869090D02*
X161800000Y-104997058D01*
X159450000Y-90265686D02*
X159450000Y-92950000D01*
X160599996Y-96977262D02*
X160599996Y-97971376D01*
X160600000Y-94100000D02*
X160600000Y-96977258D01*
X163000000Y-110065686D02*
X163000000Y-112000000D01*
X158217157Y-89032843D02*
X159450000Y-90265686D01*
X164230000Y-113230000D02*
X164230000Y-114110000D01*
%TO.N,/ESP_3V3*%
D20*
X148000000Y-73899695D02*
X148000000Y-81000000D01*
X155500000Y-85750000D02*
X155500000Y-88310661D01*
X146500000Y-72399695D02*
X146500000Y-71500000D01*
X155500000Y-88310661D02*
X153310661Y-90500000D01*
X146500000Y-71500000D02*
X146250000Y-71250000D01*
X153310661Y-90500000D02*
X151500000Y-90500000D01*
X150418097Y-91331903D02*
X151250000Y-90500000D01*
X153750000Y-84000000D02*
X155500000Y-85750000D01*
X151250000Y-90500000D02*
X151500000Y-90500000D01*
X146500000Y-72399695D02*
X148000000Y-73899695D01*
X151000000Y-84000000D02*
X153750000Y-84000000D01*
X148000000Y-81000000D02*
X151000000Y-84000000D01*
X150418097Y-114581903D02*
X150418097Y-91331903D01*
%TO.N,/USB_D-*%
D19*
X153600001Y-121400000D02*
X154500000Y-121400000D01*
%TO.N,/GPIO7*%
X142750000Y-77500000D02*
X142750000Y-84790000D01*
X142750000Y-84790000D02*
X141370000Y-86170000D01*
X145000000Y-76750000D02*
X143500000Y-76750000D01*
X143500000Y-76750000D02*
X142750000Y-77500000D01*
%TO.N,/GPIO15*%
X143150000Y-78350000D02*
X143150000Y-86100000D01*
X143150000Y-86100000D02*
X142000000Y-87250000D01*
X143520000Y-77980000D02*
X143150000Y-78350000D01*
X145000000Y-77980000D02*
X143520000Y-77980000D01*
X142000000Y-87250000D02*
X142000000Y-88080000D01*
X142000000Y-88080000D02*
X141370000Y-88710000D01*
%TO.N,/GPIO16*%
X143550000Y-79700000D02*
X143550000Y-86265686D01*
X142500000Y-89206346D02*
X142500000Y-89250000D01*
X142520000Y-89186346D02*
X142500000Y-89206346D01*
X142500000Y-87315686D02*
X142500000Y-88213654D01*
X142500000Y-88213654D02*
X142520000Y-88233654D01*
X142520000Y-88233654D02*
X142520000Y-89186346D01*
X141370000Y-90380000D02*
X141370000Y-91250000D01*
X144000000Y-79250000D02*
X143550000Y-79700000D01*
X143550000Y-86265686D02*
X142500000Y-87315686D01*
X142500000Y-89250000D02*
X141370000Y-90380000D01*
X145000000Y-79250000D02*
X144000000Y-79250000D01*
%TO.N,/GPIO17*%
X144480000Y-80520000D02*
X143950000Y-81050000D01*
X142000000Y-93160000D02*
X141370000Y-93790000D01*
X142920000Y-89352032D02*
X142900000Y-89372032D01*
X142900000Y-89415686D02*
X142500000Y-89815686D01*
X143950000Y-81050000D02*
X143950000Y-86431372D01*
X143950000Y-86431372D02*
X142900000Y-87481372D01*
X142500000Y-90753654D02*
X142520000Y-90773654D01*
X142500000Y-91750000D02*
X142000000Y-92250000D01*
X145230000Y-80520000D02*
X144480000Y-80520000D01*
X142900000Y-89372032D02*
X142900000Y-89415686D01*
X142000000Y-92250000D02*
X142000000Y-93160000D01*
X142500000Y-89815686D02*
X142500000Y-90753654D01*
X142500000Y-91746346D02*
X142500000Y-91750000D01*
X142900000Y-88047968D02*
X142920000Y-88067969D01*
X142920000Y-88067969D02*
X142920000Y-89352032D01*
X142520000Y-91726346D02*
X142500000Y-91746346D01*
X142900000Y-87481372D02*
X142900000Y-88047968D01*
X142520000Y-90773654D02*
X142520000Y-91726346D01*
%TO.N,/GPIO18*%
X143300000Y-87882284D02*
X143320000Y-87902284D01*
X142500000Y-94286346D02*
X142500000Y-95200000D01*
X142500000Y-93293654D02*
X142520000Y-93313654D01*
X145250000Y-81750000D02*
X144350000Y-82650000D01*
X143320000Y-87902284D02*
X143320000Y-87902289D01*
X142520000Y-94266346D02*
X142500000Y-94286346D01*
X142900000Y-91912031D02*
X142900000Y-91915686D01*
X143300000Y-87647058D02*
X143300000Y-87882284D01*
X142520000Y-93313654D02*
X142520000Y-94266346D01*
X143320000Y-88067979D02*
X143320000Y-89517718D01*
X142900000Y-91915686D02*
X142500000Y-92315686D01*
X143320004Y-87902293D02*
X143320000Y-88067979D01*
X142920000Y-90607969D02*
X142920000Y-91892032D01*
X142500000Y-92315686D02*
X142500000Y-93293654D01*
X142920000Y-91892032D02*
X142900000Y-91912031D01*
X144350000Y-82650000D02*
X144350000Y-86597058D01*
X143320000Y-87902289D02*
X143320004Y-87902293D01*
X143300000Y-89537717D02*
X143300000Y-89581372D01*
X142500000Y-95200000D02*
X141370000Y-96330000D01*
X142900000Y-90587968D02*
X142920000Y-90607969D01*
X142900000Y-89981372D02*
X142900000Y-90587968D01*
X144350000Y-86597058D02*
X143300000Y-87647058D01*
X143320000Y-89517718D02*
X143300000Y-89537717D01*
X143300000Y-89581372D02*
X142900000Y-89981372D01*
%TO.N,/GPIO8*%
X142500000Y-96826346D02*
X142500000Y-97000000D01*
X143700000Y-89747058D02*
X143300000Y-90147058D01*
X142520000Y-96806346D02*
X142500000Y-96826346D01*
X143719996Y-89683414D02*
X143700000Y-89703409D01*
X143700000Y-89703409D02*
X143700000Y-89747058D01*
X141370000Y-98130000D02*
X141370000Y-98870000D01*
X144750000Y-83500000D02*
X144750000Y-86762744D01*
X142500000Y-95833654D02*
X142520000Y-95853654D01*
X142920000Y-94432032D02*
X142900000Y-94452031D01*
X143720000Y-89517728D02*
X143720000Y-89683403D01*
X143320000Y-91892042D02*
X143320000Y-92057717D01*
X143320000Y-91726352D02*
X143320004Y-91726356D01*
X142520000Y-95853654D02*
X142520000Y-96806346D01*
X144750000Y-86762744D02*
X143720007Y-87792737D01*
X143720000Y-88067983D02*
X143720000Y-89352038D01*
X143719996Y-89683407D02*
X143719996Y-89683414D01*
X143320000Y-90442289D02*
X143320004Y-90442293D01*
X142920000Y-93147969D02*
X142920000Y-94432032D01*
X142900000Y-95365686D02*
X142500000Y-95765686D01*
X143320000Y-90442284D02*
X143320000Y-90442289D01*
X142900000Y-94452031D02*
X142900000Y-95365686D01*
X143720000Y-89352038D02*
X143720004Y-89352042D01*
X143320000Y-90607979D02*
X143320000Y-91726352D01*
X143300000Y-92077723D02*
X143300000Y-92081372D01*
X142500000Y-97000000D02*
X141370000Y-98130000D01*
X142900000Y-93127968D02*
X142920000Y-93147969D01*
X143319996Y-92057721D02*
X143319996Y-92057728D01*
X143320000Y-92057717D02*
X143319996Y-92057721D01*
X145250000Y-83000000D02*
X144750000Y-83500000D01*
X143319996Y-92057728D02*
X143300000Y-92077723D01*
X143720007Y-87792737D02*
X143720004Y-88067979D01*
X142900000Y-92481372D02*
X142900000Y-93127968D01*
X143720004Y-88067979D02*
X143720000Y-88067983D01*
X143300000Y-90147058D02*
X143300000Y-90422284D01*
X143300000Y-92081372D02*
X142900000Y-92481372D01*
X143720004Y-89352042D02*
X143720000Y-89517728D01*
X143300000Y-90422284D02*
X143320000Y-90442284D01*
X143720000Y-89683403D02*
X143719996Y-89683407D01*
X143320004Y-90442293D02*
X143320000Y-90607979D01*
X142500000Y-95765686D02*
X142500000Y-95833654D01*
X143320004Y-91726356D02*
X143320000Y-91892042D01*
%TO.N,/GPIO3*%
X143300000Y-95531372D02*
X142920000Y-95911372D01*
X144120004Y-89352052D02*
X144120004Y-89517728D01*
X144120000Y-89186352D02*
X144120004Y-89186356D01*
X144120005Y-87958425D02*
X144120004Y-88233665D01*
X143720004Y-91560677D02*
X143720008Y-91560681D01*
X142520000Y-98393654D02*
X142520000Y-99346346D01*
X143720004Y-91892042D02*
X143720000Y-91892046D01*
X142900000Y-96992031D02*
X142900000Y-97165686D01*
X143720004Y-91560670D02*
X143720004Y-91560677D01*
X143320004Y-94266356D02*
X143320000Y-94432042D01*
X144119992Y-89849110D02*
X144100000Y-89869101D01*
X144120004Y-89186356D02*
X144120004Y-89186363D01*
X143700000Y-92243415D02*
X143700000Y-92247058D01*
X142500000Y-99366346D02*
X142500000Y-99500000D01*
X144120004Y-89186363D02*
X144120008Y-89186367D01*
X143719992Y-92223424D02*
X143700000Y-92243415D01*
X144100000Y-89912744D02*
X143720008Y-90292736D01*
X144120004Y-88233665D02*
X144120000Y-88233669D01*
X145150000Y-86350000D02*
X145150000Y-86928430D01*
X142500000Y-97565686D02*
X142500000Y-98373654D01*
X142920000Y-95911372D02*
X142920000Y-96972032D01*
X144100000Y-89869101D02*
X144100000Y-89912744D01*
X143720004Y-90453049D02*
X143720004Y-90607979D01*
X144120000Y-88233669D02*
X144120000Y-89186352D01*
X144119992Y-89849103D02*
X144119992Y-89849110D01*
X143720008Y-91560681D02*
X143720004Y-91726366D01*
X144119996Y-89849099D02*
X144119992Y-89849103D01*
X144120004Y-89517728D02*
X144120000Y-89517732D01*
X143720008Y-90292736D02*
X143720004Y-90453049D01*
X143719996Y-92223413D02*
X143719992Y-92223417D01*
X142900000Y-97165686D02*
X142500000Y-97565686D01*
X143320000Y-92982284D02*
X143320000Y-92982289D01*
X142920000Y-96972032D02*
X142900000Y-96992031D01*
X143700000Y-92247058D02*
X143300000Y-92647058D01*
X143300000Y-92962284D02*
X143320000Y-92982284D01*
X141370000Y-100630000D02*
X141370000Y-101410000D01*
X145800000Y-85500000D02*
X145800000Y-85700000D01*
X142500000Y-99500000D02*
X141370000Y-100630000D01*
X144120008Y-89186367D02*
X144120004Y-89352052D01*
X143320000Y-94597717D02*
X143319996Y-94597721D01*
X143720000Y-92223403D02*
X143719996Y-92223406D01*
X143320000Y-92982289D02*
X143320004Y-92982293D01*
X144119996Y-89849092D02*
X144119996Y-89849099D01*
X142500000Y-98373654D02*
X142520000Y-98393654D01*
X142520000Y-99346346D02*
X142500000Y-99366346D01*
X143300000Y-92647058D02*
X143300000Y-92962284D01*
X143320000Y-94432042D02*
X143320000Y-94597717D01*
X143319996Y-94597728D02*
X143300000Y-94617723D01*
X143719992Y-92223417D02*
X143719992Y-92223424D01*
X143720004Y-91726366D02*
X143720004Y-91892042D01*
X145150000Y-86928430D02*
X144120005Y-87958425D01*
X143320004Y-92982293D02*
X143320000Y-93147979D01*
X143720000Y-90607983D02*
X143720000Y-91560666D01*
X144120000Y-89517732D02*
X144120000Y-89849089D01*
X145800000Y-85700000D02*
X145150000Y-86350000D01*
X143720000Y-91560666D02*
X143720004Y-91560670D01*
X143319996Y-94597721D02*
X143319996Y-94597728D01*
X143720004Y-90607979D02*
X143720000Y-90607983D01*
X143300000Y-94617723D02*
X143300000Y-95531372D01*
X144120000Y-89849089D02*
X144119996Y-89849092D01*
X143320000Y-94266352D02*
X143320004Y-94266356D01*
X143719996Y-92223406D02*
X143719996Y-92223413D01*
X143320000Y-93147979D02*
X143320000Y-94266352D01*
X143720000Y-91892046D02*
X143720000Y-92223403D01*
%TO.N,/GPIO46*%
X144520008Y-89352053D02*
X144520004Y-89352057D01*
X144520004Y-89683413D02*
X144520000Y-89683418D01*
X144519988Y-90014806D02*
X144500000Y-90034793D01*
X144519992Y-90014795D02*
X144519988Y-90014799D01*
X143720004Y-92982304D02*
X143720004Y-93147979D01*
X144120008Y-91395002D02*
X144120012Y-91395006D01*
X143720000Y-93147983D02*
X143720000Y-94100666D01*
X144120004Y-92057728D02*
X144120000Y-92057732D01*
X143719992Y-94763417D02*
X143719992Y-94763424D01*
X143720000Y-94432046D02*
X143720000Y-94763403D01*
X143720008Y-94100681D02*
X143720004Y-94266366D01*
X144520008Y-89186377D02*
X144520008Y-89352053D01*
X143720000Y-94100666D02*
X143720004Y-94100670D01*
X144520004Y-89020677D02*
X144520008Y-89020681D01*
X144119992Y-92389109D02*
X144119988Y-92389113D01*
X144120000Y-91394980D02*
X144120004Y-91394985D01*
X143320000Y-96972042D02*
X143320000Y-97137717D01*
X143320000Y-97137717D02*
X143319996Y-97137721D01*
X143700000Y-95697058D02*
X143320000Y-96077058D01*
X143720004Y-94266366D02*
X143720004Y-94432042D01*
X144519996Y-90014778D02*
X144519996Y-90014784D01*
X143720004Y-94100670D02*
X143720004Y-94100677D01*
X143720000Y-94763403D02*
X143719996Y-94763407D01*
X144120004Y-90458426D02*
X144120004Y-90773665D01*
X144120000Y-92389089D02*
X144119996Y-92389092D01*
X147250000Y-85750000D02*
X144520000Y-88480000D01*
X142500000Y-101906346D02*
X142500000Y-102250000D01*
X143300000Y-97157723D02*
X143300000Y-97331372D01*
X144520000Y-89683418D02*
X144520000Y-90014774D01*
X144120000Y-90773669D02*
X144120000Y-91394980D01*
X143720000Y-92816599D02*
X143720004Y-92816614D01*
X144119992Y-92389102D02*
X144119992Y-92389109D01*
X143700000Y-94783415D02*
X143700000Y-95697058D01*
X144119996Y-92389098D02*
X144119992Y-92389102D01*
X143708073Y-92804671D02*
X143720000Y-92816599D01*
X143720004Y-94100677D02*
X143720008Y-94100681D01*
X142500000Y-100913654D02*
X142520000Y-100933654D01*
X144120008Y-91394995D02*
X144120008Y-91395002D01*
X144120000Y-92057732D02*
X144120000Y-92389089D01*
X142520000Y-100933654D02*
X142520000Y-101886346D01*
X143720004Y-94432042D02*
X143720000Y-94432046D01*
X144120008Y-91560691D02*
X144120008Y-91726367D01*
X144500000Y-90034793D02*
X144500000Y-90078430D01*
X143319996Y-97137728D02*
X143300000Y-97157723D01*
X144120008Y-91726367D02*
X144120004Y-91726371D01*
X143719992Y-94763424D02*
X143700000Y-94783415D01*
X144520000Y-88480000D02*
X144520000Y-89020666D01*
X144520000Y-89020666D02*
X144520004Y-89020671D01*
X142920000Y-98227969D02*
X142920000Y-99512032D01*
X144500000Y-90078430D02*
X144120004Y-90458426D01*
X142500000Y-100065686D02*
X142500000Y-100913654D01*
X144100000Y-92412744D02*
X143708073Y-92804671D01*
X144120004Y-91394985D02*
X144120004Y-91394991D01*
X144520000Y-90014774D02*
X144519996Y-90014778D01*
X143300000Y-97331372D02*
X142900000Y-97731372D01*
X142900000Y-99532031D02*
X142900000Y-99665686D01*
X144120004Y-91726371D02*
X144120004Y-92057728D01*
X142900000Y-99665686D02*
X142500000Y-100065686D01*
X143320000Y-96806352D02*
X143320004Y-96806356D01*
X143719996Y-94763407D02*
X143719996Y-94763413D01*
X144100000Y-92409107D02*
X144100000Y-92412744D01*
X144520004Y-89020671D02*
X144520004Y-89020677D01*
X141370000Y-103380000D02*
X141370000Y-103950000D01*
X142520000Y-101886346D02*
X142500000Y-101906346D01*
X142500000Y-102250000D02*
X141370000Y-103380000D01*
X144120012Y-91395006D02*
X144120008Y-91560691D01*
X147250000Y-85550000D02*
X147250000Y-85750000D01*
X144520008Y-89020688D02*
X144520012Y-89020692D01*
X144120004Y-91394991D02*
X144120008Y-91394995D01*
X143720004Y-93147979D02*
X143720000Y-93147983D01*
X143320004Y-96806356D02*
X143320000Y-96972042D01*
X143320000Y-96077058D02*
X143320000Y-96806352D01*
X143319996Y-97137721D02*
X143319996Y-97137728D01*
X144519992Y-90014789D02*
X144519992Y-90014795D01*
X144519996Y-90014784D02*
X144519992Y-90014789D01*
X142900000Y-97731372D02*
X142900000Y-98207968D01*
X144119988Y-92389113D02*
X144119988Y-92389120D01*
X142900000Y-98207968D02*
X142920000Y-98227969D01*
X144519988Y-90014799D02*
X144519988Y-90014806D01*
X142920000Y-99512032D02*
X142900000Y-99532031D01*
X143719996Y-94763413D02*
X143719992Y-94763417D01*
X143720004Y-92816614D02*
X143720008Y-92816618D01*
X144520012Y-89020692D02*
X144520008Y-89186377D01*
X144119988Y-92389120D02*
X144100000Y-92409107D01*
X144119996Y-92389092D02*
X144119996Y-92389098D01*
X144520008Y-89020681D02*
X144520008Y-89020688D01*
X144520004Y-89352057D02*
X144520004Y-89683413D01*
X144120004Y-90773665D02*
X144120000Y-90773669D01*
X143720008Y-92816618D02*
X143720004Y-92982304D01*
%TO.N,/GPIO9*%
X144500000Y-92578430D02*
X144120015Y-92958415D01*
X143720004Y-96640677D02*
X143720008Y-96640681D01*
X144120015Y-92958415D02*
X144120015Y-92982300D01*
X144520000Y-90939355D02*
X144520000Y-91229294D01*
X144920012Y-88855006D02*
X144920012Y-88855013D01*
X144520000Y-92554775D02*
X144519996Y-92554779D01*
X144120008Y-93935002D02*
X144120012Y-93935006D01*
X144920008Y-89517739D02*
X144920004Y-89517742D01*
X147500000Y-87250000D02*
X146500000Y-87250000D01*
X143720000Y-96242744D02*
X143720000Y-96640666D01*
X144920000Y-88854980D02*
X144920005Y-88854985D01*
X144920000Y-88830000D02*
X144920000Y-88854980D01*
X144520012Y-91229320D02*
X144520012Y-91229327D01*
X143719996Y-97303413D02*
X143719992Y-97303417D01*
X144520004Y-91229305D02*
X144520008Y-91229310D01*
X144919996Y-90180463D02*
X144919996Y-90180470D01*
X144900000Y-90200485D02*
X144900000Y-90244116D01*
X144519984Y-92554816D02*
X144500000Y-92574799D01*
X144100000Y-95862744D02*
X143720000Y-96242744D01*
X144920000Y-89849102D02*
X144920000Y-90180460D01*
X142250000Y-105610000D02*
X141370000Y-106490000D01*
X144119988Y-94929113D02*
X144119988Y-94929120D01*
X144120008Y-94100691D02*
X144120008Y-94266367D01*
X144520004Y-90939351D02*
X144520000Y-90939355D01*
X144920004Y-89517742D02*
X144920004Y-89849099D01*
X144520004Y-90624112D02*
X144520004Y-90939351D01*
X144920016Y-88855017D02*
X144920012Y-89020702D01*
X144920004Y-89849099D02*
X144920000Y-89849102D01*
X144519992Y-92554794D02*
X144519988Y-92554798D01*
X146500000Y-87250000D02*
X144920000Y-88830000D01*
X144919984Y-90180502D02*
X144900000Y-90200485D01*
X144120000Y-94597732D02*
X144120000Y-94929089D01*
X144120004Y-93934991D02*
X144120008Y-93934995D01*
X143719996Y-97303406D02*
X143719996Y-97303413D01*
X143700000Y-97497058D02*
X143320004Y-97877054D01*
X143720008Y-96640681D02*
X143720004Y-96806367D01*
X142250000Y-104750000D02*
X142250000Y-105610000D01*
X144919996Y-90180470D02*
X144919992Y-90180473D01*
X143720004Y-96640670D02*
X143720004Y-96640677D01*
X143720000Y-96640666D02*
X143720004Y-96640670D01*
X143719992Y-97303424D02*
X143700000Y-97323415D01*
X144120004Y-93934985D02*
X144120004Y-93934991D01*
X144519984Y-92554809D02*
X144519984Y-92554816D01*
X143320004Y-103679996D02*
X142250000Y-104750000D01*
X144520000Y-91229294D02*
X144520005Y-91229299D01*
X144920005Y-88854992D02*
X144920012Y-88855006D01*
X144919992Y-90180481D02*
X144919988Y-90180484D01*
X144520008Y-91892053D02*
X144520004Y-91892057D01*
X144519988Y-92554805D02*
X144519984Y-92554809D01*
X144920005Y-88854985D02*
X144920005Y-88854992D01*
X144900000Y-90244116D02*
X144520004Y-90624112D01*
X144120004Y-94266371D02*
X144120004Y-94597728D01*
X144919984Y-90180495D02*
X144919984Y-90180502D01*
X144520004Y-91892057D02*
X144520004Y-92223414D01*
X144520004Y-92223414D02*
X144520000Y-92223417D01*
X144520012Y-91560692D02*
X144520008Y-91560696D01*
X144520008Y-91229316D02*
X144520012Y-91229320D01*
X143719992Y-97303417D02*
X143719992Y-97303424D01*
X144520012Y-91229327D02*
X144520016Y-91229331D01*
X144520000Y-92223417D02*
X144520000Y-92554775D01*
X144120004Y-94597728D02*
X144120000Y-94597732D01*
X144119988Y-94929120D02*
X144100000Y-94949107D01*
X144519996Y-92554779D02*
X144519992Y-92554794D01*
X143720000Y-97303403D02*
X143719996Y-97303406D01*
X144100000Y-94949107D02*
X144100000Y-95862744D01*
X143720004Y-96806367D02*
X143720004Y-96972042D01*
X144120012Y-93935006D02*
X144120008Y-94100691D01*
X144519988Y-92554798D02*
X144519988Y-92554805D01*
X144919988Y-90180484D02*
X144919988Y-90180491D01*
X144520016Y-91229331D02*
X144520012Y-91395016D01*
X144119992Y-94929109D02*
X144119988Y-94929113D01*
X144520008Y-91560696D02*
X144520008Y-91892053D01*
X144920012Y-89020702D02*
X144920012Y-89186378D01*
X144520008Y-91229310D02*
X144520008Y-91229316D01*
X144120015Y-92982300D02*
X144120004Y-92982311D01*
X144120000Y-93934980D02*
X144120004Y-93934985D01*
X144520005Y-91229299D02*
X144520004Y-91229305D01*
X144920012Y-88855013D02*
X144920016Y-88855017D01*
X148250000Y-88000000D02*
X147500000Y-87250000D01*
X144119996Y-94929093D02*
X144119992Y-94929109D01*
X144120000Y-94929089D02*
X144119996Y-94929093D01*
X144500000Y-92574799D02*
X144500000Y-92578430D01*
X144120008Y-94266367D02*
X144120004Y-94266371D01*
X144120004Y-93313665D02*
X144120000Y-93313668D01*
X144120004Y-92982311D02*
X144120004Y-93313665D01*
X143720004Y-96972042D02*
X143720000Y-96972046D01*
X144920008Y-89186382D02*
X144920008Y-89517739D01*
X144919988Y-90180491D02*
X144919984Y-90180495D01*
X144920012Y-89186378D02*
X144920008Y-89186382D01*
X144919992Y-90180473D02*
X144919992Y-90180481D01*
X144120000Y-93313668D02*
X144120000Y-93934980D01*
X143320004Y-97877054D02*
X143320004Y-103679996D01*
X143720000Y-96972046D02*
X143720000Y-97303403D01*
X143700000Y-97323415D02*
X143700000Y-97497058D01*
X144920000Y-90180460D02*
X144919996Y-90180463D01*
X144520012Y-91395016D02*
X144520012Y-91560692D01*
X144120008Y-93934995D02*
X144120008Y-93935002D01*
%TO.N,/GPIO10*%
X144120008Y-96474995D02*
X144120008Y-96475002D01*
X144520004Y-93147996D02*
X144520004Y-93479351D01*
X144920020Y-91063656D02*
X144920016Y-91229341D01*
X145320008Y-89683425D02*
X145320004Y-89683428D01*
X144520008Y-94432053D02*
X144520004Y-94432057D01*
X145320012Y-89352064D02*
X145320008Y-89352068D01*
X144520004Y-93769305D02*
X144520008Y-93769310D01*
X144920008Y-92057739D02*
X144920004Y-92057742D01*
X144519988Y-95094799D02*
X144519988Y-95094805D01*
X145300000Y-90366177D02*
X145300000Y-90409802D01*
X144920009Y-91063631D02*
X144920016Y-91063645D01*
X142750000Y-104815686D02*
X142750000Y-107650000D01*
X145320016Y-89020703D02*
X145320012Y-89020707D01*
X145319988Y-90346170D02*
X145319988Y-90346176D01*
X144120008Y-96640692D02*
X144120008Y-96806367D01*
X144120004Y-97137728D02*
X144120000Y-97137731D01*
X144519984Y-95094816D02*
X144500000Y-95114799D01*
X144920012Y-91395021D02*
X144920012Y-91726378D01*
X144520016Y-93769331D02*
X144520012Y-93935016D01*
X144920004Y-92057742D02*
X144920004Y-92389100D01*
X144520004Y-94763414D02*
X144520000Y-94763417D01*
X144120004Y-96474991D02*
X144120008Y-96474995D01*
X145319988Y-90346176D02*
X145319984Y-90346180D01*
X148001471Y-88600000D02*
X147651471Y-88250000D01*
X144120004Y-96806371D02*
X144120004Y-97137728D01*
X149500000Y-86042054D02*
X149500000Y-87598529D01*
X144920016Y-91395017D02*
X144920012Y-91395021D01*
X144920004Y-91063619D02*
X144920009Y-91063624D01*
X144520012Y-93935016D02*
X144520012Y-94100692D01*
X144900000Y-92744116D02*
X144520015Y-93124101D01*
X144520000Y-95094775D02*
X144519992Y-95094782D01*
X144920016Y-91063645D02*
X144920016Y-91063652D01*
X144520008Y-94100696D02*
X144520008Y-94432053D01*
X147651471Y-88250000D02*
X146065686Y-88250000D01*
X148806737Y-85348791D02*
X149500000Y-86042054D01*
X144919992Y-92720480D02*
X144919988Y-92720484D01*
X145319996Y-90346149D02*
X145319996Y-90346155D01*
X144919988Y-92720490D02*
X144919984Y-92720495D01*
X144100000Y-97662744D02*
X143720004Y-98042740D01*
X145300000Y-90409802D02*
X144920004Y-90789798D01*
X144520012Y-93769327D02*
X144520016Y-93769331D01*
X144500000Y-95114799D02*
X144500000Y-96028430D01*
X145320019Y-88995667D02*
X145320019Y-89020692D01*
X144520012Y-94100692D02*
X144520008Y-94100696D01*
X145320008Y-89352068D02*
X145320008Y-89683425D01*
X144920009Y-91063624D02*
X144920009Y-91063631D01*
X144919988Y-92720484D02*
X144919988Y-92720490D01*
X144120008Y-96806367D02*
X144120004Y-96806371D01*
X144120000Y-96408430D02*
X144120000Y-96474980D01*
X146065686Y-88250000D02*
X145320019Y-88995667D01*
X144500000Y-96028430D02*
X144120000Y-96408430D01*
X145319992Y-90346167D02*
X145319988Y-90346170D01*
X144520004Y-93479351D02*
X144520000Y-93479355D01*
X148498529Y-88600000D02*
X148001471Y-88600000D01*
X144919980Y-92720505D02*
X144919980Y-92720512D01*
X144120000Y-96474980D02*
X144120004Y-96474985D01*
X144919980Y-92720512D02*
X144900000Y-92740491D01*
X145320012Y-89020707D02*
X145320012Y-89352064D01*
X144119996Y-97469092D02*
X144119996Y-97469099D01*
X144520000Y-93769294D02*
X144520005Y-93769299D01*
X144920004Y-90789798D02*
X144920004Y-91063619D01*
X144519984Y-95094809D02*
X144519984Y-95094816D01*
X145319984Y-90346187D02*
X145319980Y-90346191D01*
X144119988Y-97469120D02*
X144100000Y-97489107D01*
X145319992Y-90346159D02*
X145319992Y-90346167D01*
X144920000Y-92389104D02*
X144920000Y-92720461D01*
X143720004Y-98042740D02*
X143720004Y-103845682D01*
X145320004Y-89683428D02*
X145320004Y-90014785D01*
X144519992Y-95094782D02*
X144519992Y-95094795D01*
X142750000Y-107650000D02*
X141370000Y-109030000D01*
X144119996Y-97469099D02*
X144119992Y-97469103D01*
X144919992Y-92720468D02*
X144919992Y-92720480D01*
X145320019Y-89020692D02*
X145320016Y-89020695D01*
X144920012Y-91726378D02*
X144920008Y-91726381D01*
X144519988Y-95094805D02*
X144519984Y-95094809D01*
X144120008Y-96475002D02*
X144120012Y-96475006D01*
X144520008Y-93769316D02*
X144520012Y-93769320D01*
X144520005Y-93769299D02*
X144520004Y-93769305D01*
X145320000Y-90346146D02*
X145319996Y-90346149D01*
X144519992Y-95094795D02*
X144519988Y-95094799D01*
X144120004Y-96474985D02*
X144120004Y-96474991D01*
X144520015Y-93147985D02*
X144520004Y-93147996D01*
X144520008Y-93769310D02*
X144520008Y-93769316D01*
X145319980Y-90346198D02*
X145300000Y-90366177D01*
X144520004Y-94432057D02*
X144520004Y-94763414D01*
X144919984Y-92720495D02*
X144919984Y-92720501D01*
X145320000Y-90014789D02*
X145320000Y-90346146D01*
X149500000Y-87598529D02*
X148498529Y-88600000D01*
X144920008Y-91726381D02*
X144920008Y-92057739D01*
X144119988Y-97469113D02*
X144119988Y-97469120D01*
X144520000Y-94763417D02*
X144520000Y-95094775D01*
X144520000Y-93479355D02*
X144520000Y-93769294D01*
X144919984Y-92720501D02*
X144919980Y-92720505D01*
X145319996Y-90346155D02*
X145319992Y-90346159D01*
X144920000Y-92720461D02*
X144919992Y-92720468D01*
X144520015Y-93124101D02*
X144520015Y-93147985D01*
X144120000Y-97469089D02*
X144119996Y-97469092D01*
X144920016Y-91063652D02*
X144920020Y-91063656D01*
X145320004Y-90014785D02*
X145320000Y-90014789D01*
X144119992Y-97469109D02*
X144119988Y-97469113D01*
X144920004Y-92389100D02*
X144920000Y-92389104D01*
X143720004Y-103845682D02*
X142750000Y-104815686D01*
X144100000Y-97489107D02*
X144100000Y-97662744D01*
X145320016Y-89020695D02*
X145320016Y-89020703D01*
X144520012Y-93769320D02*
X144520012Y-93769327D01*
X144120000Y-97137731D02*
X144120000Y-97469089D01*
X144900000Y-92740491D02*
X144900000Y-92744116D01*
X144920016Y-91229341D02*
X144920016Y-91395017D01*
X144119992Y-97469103D02*
X144119992Y-97469109D01*
X144120012Y-96475006D02*
X144120008Y-96640692D01*
X145319980Y-90346191D02*
X145319980Y-90346198D01*
X145319984Y-90346180D02*
X145319984Y-90346187D01*
%TO.N,/GPIO11*%
X144520000Y-97303417D02*
X144519999Y-97634776D01*
X141846346Y-110180000D02*
X141820000Y-110180000D01*
X144920020Y-93603656D02*
X144920016Y-93769341D01*
X145319992Y-92886154D02*
X145319992Y-92886166D01*
X145720008Y-89529992D02*
X145720008Y-89849111D01*
X143250000Y-104881372D02*
X143250000Y-108750000D01*
X145720004Y-89849114D02*
X145720004Y-90180470D01*
X147835785Y-89000000D02*
X147485785Y-88650000D01*
X144900000Y-95280491D02*
X144900000Y-96194116D01*
X144519984Y-97634816D02*
X144500000Y-97654799D01*
X145719980Y-90511877D02*
X145719980Y-90511883D01*
X145319984Y-92886186D02*
X145319980Y-92886191D01*
X145319988Y-92886176D02*
X145319984Y-92886179D01*
X144500000Y-97828430D02*
X144120004Y-98208426D01*
X144500000Y-97654799D02*
X144500000Y-97828430D01*
X145700000Y-90531869D02*
X145700000Y-90575488D01*
X144920008Y-94597738D02*
X144920004Y-94597742D01*
X145720000Y-90511831D02*
X145719996Y-90511835D01*
X144919992Y-95260468D02*
X144919992Y-95260481D01*
X145319976Y-92886208D02*
X145300000Y-92906183D01*
X145300000Y-92909802D02*
X144920016Y-93289786D01*
X145319992Y-92886166D02*
X145319988Y-92886170D01*
X145320012Y-91560707D02*
X145320012Y-91892063D01*
X145320008Y-92223424D02*
X145320004Y-92223429D01*
X144919988Y-95260490D02*
X144919984Y-95260495D01*
X145719976Y-90511894D02*
X145700000Y-90531869D01*
X145720000Y-90180475D02*
X145720000Y-90511831D01*
X144920004Y-94597742D02*
X144920004Y-94929100D01*
X144920008Y-94266381D02*
X144920008Y-94597738D01*
X144520004Y-96972057D02*
X144520004Y-97303413D01*
X144520008Y-96972052D02*
X144520004Y-96972057D01*
X145320016Y-91560703D02*
X145320012Y-91560707D01*
X144920012Y-93935021D02*
X144920012Y-94266377D01*
X144920012Y-94266377D02*
X144920008Y-94266381D01*
X145300000Y-92906183D02*
X145300000Y-92909802D01*
X144520012Y-96574104D02*
X144520012Y-96640692D01*
X145720004Y-90180470D02*
X145720000Y-90180475D01*
X145320023Y-91229331D02*
X145320020Y-91229334D01*
X145320000Y-92886147D02*
X145319992Y-92886154D01*
X147485785Y-88650000D02*
X146600000Y-88650000D01*
X145719976Y-90511887D02*
X145719976Y-90511894D01*
X142520000Y-109480000D02*
X142520000Y-109506346D01*
X145719992Y-90511844D02*
X145719992Y-90511852D01*
X142520000Y-109506346D02*
X141846346Y-110180000D01*
X144920016Y-93769341D02*
X144920016Y-93935017D01*
X145319988Y-92886170D02*
X145319988Y-92886176D01*
X144120004Y-104011368D02*
X143250000Y-104881372D01*
X145320008Y-91892068D02*
X145320008Y-92223424D01*
X144919984Y-95260495D02*
X144919984Y-95260501D01*
X145320004Y-92223429D02*
X145320004Y-92554785D01*
X144919988Y-95260484D02*
X144919988Y-95260490D01*
X144120004Y-98208426D02*
X144120004Y-104011368D01*
X145319984Y-92886179D02*
X145319984Y-92886186D01*
X149414215Y-88250000D02*
X148664214Y-89000000D01*
X144519999Y-97634776D02*
X144519988Y-97634805D01*
X144920016Y-93289786D02*
X144920016Y-93603652D01*
X145320023Y-90955465D02*
X145320023Y-91229331D01*
X144520004Y-97303413D02*
X144520000Y-97303417D01*
X144920000Y-95260461D02*
X144919992Y-95260468D01*
X150500000Y-88250000D02*
X149414215Y-88250000D01*
X145719996Y-90511835D02*
X145719996Y-90511841D01*
X144919980Y-95260505D02*
X144919980Y-95260512D01*
X144920016Y-93935017D02*
X144920012Y-93935021D01*
X145320020Y-91229334D02*
X145320020Y-91229342D01*
X145700000Y-90575488D02*
X145320023Y-90955465D01*
X141820000Y-110180000D02*
X141370000Y-110630000D01*
X144900000Y-96194116D02*
X144520012Y-96574104D01*
X145320020Y-91229342D02*
X145320016Y-91229346D01*
X145719992Y-90511852D02*
X145719988Y-90511856D01*
X145719996Y-90511841D02*
X145719992Y-90511844D01*
X145719988Y-90511856D02*
X145719984Y-90511872D01*
X146600000Y-88650000D02*
X145720008Y-89529992D01*
X145320012Y-91892063D02*
X145320008Y-91892068D01*
X144920004Y-94929100D02*
X144920000Y-94929104D01*
X145719984Y-90511872D02*
X145719980Y-90511877D01*
X144919984Y-95260501D02*
X144919980Y-95260505D01*
X145319980Y-92886197D02*
X145319976Y-92886201D01*
X145320004Y-92554785D02*
X145320000Y-92554789D01*
X148664214Y-89000000D02*
X147835785Y-89000000D01*
X144919980Y-95260512D02*
X144900000Y-95280491D01*
X145320000Y-92554789D02*
X145320000Y-92886147D01*
X144919992Y-95260481D02*
X144919988Y-95260484D01*
X144520008Y-96640696D02*
X144520008Y-96972052D01*
X144920016Y-93603652D02*
X144920020Y-93603656D01*
X145719980Y-90511883D02*
X145719976Y-90511887D01*
X144920000Y-94929104D02*
X144920000Y-95260461D01*
X145320016Y-91229346D02*
X145320016Y-91560703D01*
X144520012Y-96640692D02*
X144520008Y-96640696D01*
X141370000Y-110630000D02*
X141370000Y-111570000D01*
X143250000Y-108750000D02*
X142520000Y-109480000D01*
X144519984Y-97634809D02*
X144519984Y-97634816D01*
X145319980Y-92886191D02*
X145319980Y-92886197D01*
X145720008Y-89849111D02*
X145720004Y-89849114D01*
X144519988Y-97634805D02*
X144519984Y-97634809D01*
X145319976Y-92886201D02*
X145319976Y-92886208D01*
%TO.N,/GPIO12*%
X144520004Y-98374112D02*
X144520004Y-104177054D01*
X145720023Y-91121151D02*
X145720023Y-91395016D01*
X143650000Y-105047058D02*
X143650000Y-108915686D01*
X142520000Y-112046346D02*
X142500000Y-112066346D01*
X145719976Y-93051887D02*
X145719976Y-93051893D01*
X146120000Y-90677516D02*
X146119992Y-90677530D01*
X145319988Y-95426176D02*
X145319984Y-95426181D01*
X145720000Y-93051833D02*
X145719992Y-93051840D01*
X144520004Y-104177054D02*
X143650000Y-105047058D01*
X142390000Y-114110000D02*
X141370000Y-114110000D01*
X145720020Y-91395027D02*
X145720016Y-91395032D01*
X144919996Y-97800464D02*
X144919996Y-97800470D01*
X144919984Y-97800501D02*
X144919980Y-97800505D01*
X145319992Y-95426154D02*
X145319992Y-95426167D01*
X144919999Y-97800462D02*
X144919996Y-97800464D01*
X146119976Y-90677579D02*
X146119972Y-90677583D01*
X146119972Y-90677590D02*
X146100000Y-90697561D01*
X144900000Y-97994116D02*
X144520004Y-98374112D01*
X145320000Y-95094790D02*
X145320000Y-95426147D01*
X146765686Y-89050000D02*
X146120008Y-89695678D01*
X145720008Y-92389109D02*
X145720004Y-92389114D01*
X144920000Y-97469104D02*
X144919999Y-97800462D01*
X146119980Y-90677568D02*
X146119976Y-90677573D01*
X144920008Y-97137738D02*
X144920004Y-97137743D01*
X151751471Y-88498529D02*
X151100000Y-88498529D01*
X144919984Y-97800495D02*
X144919984Y-97800501D01*
X142500000Y-112066346D02*
X142500000Y-114000000D01*
X142500000Y-111073654D02*
X142520000Y-111093654D01*
X144919980Y-97800505D02*
X144919980Y-97800512D01*
X152000000Y-88250000D02*
X151751471Y-88498529D01*
X144920012Y-96739790D02*
X144920012Y-96806377D01*
X144919980Y-97800512D02*
X144900000Y-97820491D01*
X145719980Y-93051882D02*
X145719976Y-93051887D01*
X144920008Y-96806382D02*
X144920008Y-97137738D01*
X145320004Y-95094785D02*
X145320000Y-95094790D01*
X150251471Y-88850000D02*
X150051471Y-88650000D01*
X145720004Y-92389114D02*
X145720004Y-92720471D01*
X146120008Y-90014796D02*
X146120004Y-90014801D01*
X146119984Y-90677558D02*
X146119980Y-90677562D01*
X146120000Y-90346161D02*
X146120000Y-90677516D01*
X145720012Y-91726392D02*
X145720012Y-92057749D01*
X142920000Y-109645686D02*
X142920000Y-109672032D01*
X145320000Y-95426147D02*
X145319992Y-95426154D01*
X145700000Y-93071875D02*
X145700000Y-93075488D01*
X145320016Y-93769346D02*
X145320016Y-94100703D01*
X146119976Y-90677573D02*
X146119976Y-90677579D01*
X147670099Y-89400000D02*
X147320099Y-89050000D01*
X149579901Y-88650000D02*
X148829899Y-89400000D01*
X145320012Y-94100707D02*
X145320012Y-94432063D01*
X146119992Y-90677538D02*
X146119984Y-90677546D01*
X144919988Y-97800479D02*
X144919988Y-97800491D01*
X145320004Y-94763429D02*
X145320004Y-95094785D01*
X145719984Y-93051866D02*
X145719980Y-93051882D01*
X145300000Y-96359802D02*
X144920012Y-96739790D01*
X144919996Y-97800470D02*
X144919988Y-97800479D01*
X142500000Y-114000000D02*
X142390000Y-114110000D01*
X148829899Y-89400000D02*
X147670099Y-89400000D01*
X145320016Y-94100703D02*
X145320012Y-94100707D01*
X146119980Y-90677562D02*
X146119980Y-90677568D01*
X145320020Y-93769342D02*
X145320016Y-93769346D01*
X142500000Y-110092032D02*
X142500000Y-111073654D01*
X145319984Y-95426181D02*
X145319980Y-95426197D01*
X150051471Y-88650000D02*
X149579901Y-88650000D01*
X146119992Y-90677530D02*
X146119992Y-90677538D01*
X146100000Y-90741174D02*
X145720023Y-91121151D01*
X145319980Y-95426197D02*
X145319976Y-95426201D01*
X147320099Y-89050000D02*
X146765686Y-89050000D01*
X145320024Y-93455464D02*
X145320020Y-93612408D01*
X144919988Y-97800491D02*
X144919984Y-97800495D01*
X145300000Y-95446183D02*
X145300000Y-96359802D01*
X145719976Y-93051893D02*
X145719972Y-93051897D01*
X145319992Y-95426167D02*
X145319988Y-95426170D01*
X145719988Y-93051855D02*
X145719988Y-93051861D01*
X145319988Y-95426170D02*
X145319988Y-95426176D01*
X146100000Y-90697561D02*
X146100000Y-90741174D01*
X144920004Y-97469099D02*
X144920000Y-97469104D01*
X145719992Y-93051840D02*
X145719992Y-93051852D01*
X145320008Y-94763424D02*
X145320004Y-94763429D01*
X142920000Y-109672032D02*
X142500000Y-110092032D01*
X145720012Y-92057749D02*
X145720008Y-92057754D01*
X146120008Y-89695678D02*
X146120008Y-90014796D01*
X145719988Y-93051861D02*
X145719984Y-93051866D01*
X145319976Y-95426201D02*
X145319976Y-95426208D01*
X145719972Y-93051897D02*
X145719972Y-93051904D01*
X142520000Y-111093654D02*
X142520000Y-112046346D01*
X146119984Y-90677546D02*
X146119984Y-90677558D01*
X144920004Y-97137743D02*
X144920004Y-97469099D01*
X145720020Y-91395019D02*
X145720020Y-91395027D01*
X145720016Y-91395032D02*
X145720016Y-91726388D01*
X144900000Y-97820491D02*
X144900000Y-97994116D01*
X144920012Y-96806377D02*
X144920008Y-96806382D01*
X145720008Y-92057754D02*
X145720008Y-92389109D01*
X145719972Y-93051904D02*
X145700000Y-93071875D01*
X145720004Y-92720471D02*
X145720000Y-92720476D01*
X150748529Y-88850000D02*
X150251471Y-88850000D01*
X145719992Y-93051852D02*
X145719988Y-93051855D01*
X145320020Y-93612408D02*
X145320020Y-93769342D01*
X145320008Y-94432067D02*
X145320008Y-94763424D01*
X151100000Y-88498529D02*
X150748529Y-88850000D01*
X143650000Y-108915686D02*
X142920000Y-109645686D01*
X145720023Y-91395016D02*
X145720020Y-91395019D01*
X146120004Y-90014801D02*
X146120004Y-90346156D01*
X145720000Y-92720476D02*
X145720000Y-93051833D01*
X146119972Y-90677583D02*
X146119972Y-90677590D01*
X145700000Y-93075488D02*
X145320024Y-93455464D01*
X146120004Y-90346156D02*
X146120000Y-90346161D01*
X145720016Y-91726388D02*
X145720012Y-91726392D01*
X145319976Y-95426208D02*
X145300000Y-95446183D01*
X145320012Y-94432063D02*
X145320008Y-94432067D01*
%TO.N,/GPIO13*%
X145320000Y-97966147D02*
X145320000Y-97634790D01*
X145719972Y-95591897D02*
X145719976Y-95591893D01*
X146120023Y-91560701D02*
X146120023Y-91286837D01*
X147154412Y-89450000D02*
X147504413Y-89800000D01*
X146119976Y-93217572D02*
X146119980Y-93217568D01*
X146120023Y-91286837D02*
X146500000Y-90906860D01*
X142920000Y-111170000D02*
X142920000Y-110375000D01*
X152351471Y-88898529D02*
X153000000Y-88250000D01*
X146520008Y-90180482D02*
X146520008Y-89861364D01*
X145720008Y-94597754D02*
X145720012Y-94597749D01*
X146119992Y-93217537D02*
X146119992Y-93217526D01*
X150914214Y-89250000D02*
X151265686Y-88898529D01*
X150085786Y-89250000D02*
X150914214Y-89250000D01*
X149745586Y-89050000D02*
X149885785Y-89050000D01*
X146520004Y-90511842D02*
X146520004Y-90180487D01*
X146520004Y-90180487D02*
X146520008Y-90180482D01*
X146519972Y-90843275D02*
X146519972Y-90843268D01*
X145320008Y-96972067D02*
X145320012Y-96972063D01*
X146120000Y-93217518D02*
X146120000Y-92886161D01*
X145719976Y-95591893D02*
X145719976Y-95591887D01*
X146520008Y-89861364D02*
X146931372Y-89450000D01*
X146120016Y-91892074D02*
X146120016Y-91560717D01*
X146519983Y-90843245D02*
X146519984Y-90843233D01*
X145719972Y-95591904D02*
X145719972Y-95591897D01*
X145319976Y-97966201D02*
X145319980Y-97966197D01*
X146119992Y-93217526D02*
X146120000Y-93217518D01*
X146119972Y-93217589D02*
X146119972Y-93217582D01*
X145319980Y-97966197D02*
X145319980Y-97966190D01*
X145300000Y-98159802D02*
X145300000Y-97986183D01*
X146119972Y-93217582D02*
X146119976Y-93217579D01*
X145320012Y-96972063D02*
X145320012Y-96905476D01*
X145319980Y-97966190D02*
X145319988Y-97966176D01*
X147504413Y-89800000D02*
X148995584Y-89800000D01*
X146120012Y-91892079D02*
X146120016Y-91892074D01*
X145720016Y-94266389D02*
X145720016Y-93935032D01*
X146100000Y-93241174D02*
X146100000Y-93237567D01*
X145720008Y-94929109D02*
X145720008Y-94597754D01*
X145319996Y-97966156D02*
X145320000Y-97966147D01*
X145700000Y-96525488D02*
X145700000Y-95611875D01*
X145319988Y-97966163D02*
X145319996Y-97966156D01*
X146519996Y-90843208D02*
X146520000Y-90843204D01*
X146500000Y-90906860D02*
X146500000Y-90863253D01*
X146120020Y-91560713D02*
X146120020Y-91560705D01*
X142920000Y-112212032D02*
X142900000Y-112232031D01*
X146119976Y-93217579D02*
X146119976Y-93217572D01*
X142920000Y-111151372D02*
X142920000Y-112212032D01*
X146119988Y-93217541D02*
X146119992Y-93217537D01*
X146120004Y-92554800D02*
X146120008Y-92554797D01*
X145319988Y-97966176D02*
X145319988Y-97966163D01*
X146519968Y-90843279D02*
X146519972Y-90843275D01*
X146519968Y-90843286D02*
X146519968Y-90843279D01*
X149885785Y-89050000D02*
X150085786Y-89250000D01*
X153000000Y-88250000D02*
X153250000Y-88250000D01*
X145720012Y-94597749D02*
X145720012Y-94266393D01*
X144050000Y-109081372D02*
X144050000Y-105212744D01*
X145719988Y-95591856D02*
X145719992Y-95591852D01*
X145720016Y-93935032D02*
X145720020Y-93935027D01*
X145300000Y-97986183D02*
X145319976Y-97966208D01*
X145320004Y-97303428D02*
X145320008Y-97303424D01*
X146119980Y-93217568D02*
X146119988Y-93217541D01*
X146519984Y-90843233D02*
X146519992Y-90843224D01*
X145319976Y-97966208D02*
X145319976Y-97966201D01*
X146519972Y-90843268D02*
X146519976Y-90843264D01*
X145720004Y-95260470D02*
X145720004Y-94929114D01*
X145320012Y-96905476D02*
X145700000Y-96525488D01*
X145719980Y-95591883D02*
X145719980Y-95591870D01*
X151265686Y-88898529D02*
X152351471Y-88898529D01*
X145719992Y-95591852D02*
X145719992Y-95591841D01*
X143750000Y-109381372D02*
X144050000Y-109081372D01*
X146519976Y-90843264D02*
X146519983Y-90843245D01*
X146120008Y-92554797D02*
X146120008Y-92223440D01*
X146120012Y-92223435D02*
X146120012Y-91892079D01*
X145719980Y-95591870D02*
X145719988Y-95591862D01*
X146120020Y-91560705D02*
X146120023Y-91560701D01*
X144920004Y-104342740D02*
X144920004Y-98539798D01*
X143750000Y-109545000D02*
X143750000Y-109381372D01*
X146520000Y-90511847D02*
X146520004Y-90511842D01*
X142520000Y-114586346D02*
X141370000Y-115736346D01*
X146100000Y-93237567D02*
X146119968Y-93217600D01*
X142920000Y-110375000D02*
X143750000Y-109545000D01*
X146520000Y-90843204D02*
X146520000Y-90511847D01*
X146931372Y-89450000D02*
X147154412Y-89450000D01*
X145719992Y-95591841D02*
X145720000Y-95591832D01*
X146519992Y-90843224D02*
X146519996Y-90843208D01*
X145719988Y-95591862D02*
X145719988Y-95591856D01*
X145720020Y-93621154D02*
X146100000Y-93241174D01*
X145719976Y-95591887D02*
X145719980Y-95591883D01*
X145720000Y-95591832D02*
X145720000Y-95260475D01*
X146120000Y-92886161D02*
X146120004Y-92886156D01*
X145720020Y-93935027D02*
X145720020Y-93621154D01*
X142900000Y-114165686D02*
X142520000Y-114545686D01*
X146120004Y-92886156D02*
X146120004Y-92554800D01*
X146500000Y-90863253D02*
X146519968Y-90843286D01*
X146119968Y-93217600D02*
X146119968Y-93217593D01*
X145720012Y-94266393D02*
X145720016Y-94266389D01*
X144920004Y-98539798D02*
X145300000Y-98159802D01*
X145320008Y-97303424D02*
X145320008Y-96972067D01*
X145720000Y-95260475D02*
X145720004Y-95260470D01*
X142900000Y-112232031D02*
X142900000Y-114165686D01*
X145320004Y-97634785D02*
X145320004Y-97303428D01*
X145320000Y-97634790D02*
X145320004Y-97634785D01*
X145700000Y-95611875D02*
X145719972Y-95591904D01*
X142520000Y-114545686D02*
X142520000Y-114586346D01*
X146119968Y-93217593D02*
X146119972Y-93217589D01*
X144050000Y-105212744D02*
X144920004Y-104342740D01*
X146120016Y-91560717D02*
X146120020Y-91560713D01*
X141370000Y-115736346D02*
X141370000Y-116650000D01*
X148995584Y-89800000D02*
X149745586Y-89050000D01*
X145720004Y-94929114D02*
X145720008Y-94929109D01*
X146120008Y-92223440D02*
X146120012Y-92223435D01*
%TO.N,/GPIO14*%
X146520020Y-91726391D02*
X146520020Y-91726399D01*
X146265685Y-96525489D02*
X145720012Y-97071162D01*
X145719994Y-98131862D02*
X145719980Y-98131876D01*
X145700000Y-98151875D02*
X145700000Y-98325488D01*
X145720008Y-97469110D02*
X145720005Y-97469112D01*
X146520017Y-91726402D02*
X146520017Y-93386843D01*
X143320004Y-112046356D02*
X143320000Y-112212042D01*
X145720012Y-97071162D02*
X145720012Y-97137749D01*
X143319996Y-112377728D02*
X143300000Y-112397723D01*
X142520000Y-117126346D02*
X142500000Y-117146346D01*
X154691131Y-88058869D02*
X153451471Y-89298529D01*
X151148530Y-89649999D02*
X149711271Y-89649999D01*
X146520017Y-93386843D02*
X146265685Y-93641174D01*
X146520020Y-91726399D02*
X146520017Y-91726402D01*
X147250000Y-90500000D02*
X147250000Y-90750000D01*
X144150000Y-109710686D02*
X143320000Y-110540686D01*
X145700000Y-98325488D02*
X145320004Y-98705484D01*
X143320000Y-112046352D02*
X143320004Y-112046356D01*
X143320000Y-112212042D02*
X143320000Y-112377717D01*
X143320000Y-112377717D02*
X143319996Y-112377721D01*
X144450000Y-109247058D02*
X144150000Y-109547058D01*
X145720008Y-97137753D02*
X145720008Y-97469110D01*
X143320000Y-110540686D02*
X143320000Y-112046352D01*
X142920000Y-114711370D02*
X142920000Y-114752032D01*
X144150000Y-109547058D02*
X144150000Y-109710686D01*
X151500000Y-89298529D02*
X151148530Y-89649999D01*
X147500000Y-90250000D02*
X147250000Y-90500000D01*
X145719976Y-98131893D02*
X145719972Y-98131897D01*
X145720005Y-98131833D02*
X145719994Y-98131844D01*
X149111270Y-90250000D02*
X147500000Y-90250000D01*
X141370000Y-118380000D02*
X141370000Y-119190000D01*
X143300000Y-112397723D02*
X143299999Y-114331372D01*
X145320004Y-98705484D02*
X145320004Y-104508426D01*
X145720012Y-97137749D02*
X145720008Y-97137753D01*
X143299999Y-114331372D02*
X142920000Y-114711370D01*
X142920000Y-114752032D02*
X142500000Y-115172032D01*
X145719972Y-98131897D02*
X145719972Y-98131904D01*
X142500000Y-115172032D02*
X142500000Y-116153654D01*
X146265685Y-93641174D02*
X146265685Y-96525489D01*
X142500000Y-117146346D02*
X142500000Y-117250000D01*
X145719976Y-98131887D02*
X145719976Y-98131893D01*
X145719980Y-98131876D02*
X145719980Y-98131883D01*
X145320004Y-104508426D02*
X144450000Y-105378430D01*
X149711271Y-89649999D02*
X149111270Y-90250000D01*
X142500000Y-117250000D02*
X141370000Y-118380000D01*
X153451471Y-89298529D02*
X151500000Y-89298529D01*
X146520024Y-91479976D02*
X146520024Y-91726387D01*
X145719980Y-98131883D02*
X145719976Y-98131887D01*
X145719972Y-98131904D02*
X145700000Y-98151875D01*
X146520024Y-91726387D02*
X146520020Y-91726391D01*
X142500000Y-116153654D02*
X142520000Y-116173654D01*
X145719994Y-98131844D02*
X145719994Y-98131862D01*
X143319996Y-112377721D02*
X143319996Y-112377728D01*
X147250000Y-90750000D02*
X146520024Y-91479976D01*
X145720005Y-97469112D02*
X145720005Y-98131833D01*
X144450000Y-105378430D02*
X144450000Y-109247058D01*
X142520000Y-116173654D02*
X142520000Y-117126346D01*
%TD*%
M02*
