M48
; DRILL file KiCad 10.0.4 date 2026-09-03T17:10:17
; FORMAT={-:-/ absolute / metric / decimal}
; #@! TF.CreationDate,2026-09-03T17:10:17-04:00
; #@! TF.GenerationSoftware,Kicad,Pcbnew,10.0.4
; #@! TF.FileFunction,Plated,1,4,PTH
FMAT,2
METRIC
; #@! TA.AperFunction,Plated,PTH,ComponentDrill
T1C0.200
; #@! TA.AperFunction,Plated,PTH,ViaDrill
T2C0.300
; #@! TA.AperFunction,Plated,PTH,ComponentDrill
T3C0.600
; #@! TA.AperFunction,Plated,PTH,ComponentDrill
T4C1.000
%
G90
G05
T1
X149.9Y-76.11
X149.9Y-77.51
X150.6Y-75.41
X150.6Y-76.81
X150.6Y-78.21
X151.3Y-76.11
X151.3Y-77.51
X152.0Y-75.41
X152.0Y-76.81
X152.0Y-78.21
X152.7Y-76.11
X152.7Y-77.51
T2
X144.5Y-110.301
X144.5Y-120.5
X145.0Y-76.75
X145.0Y-77.98
X145.0Y-79.25
X145.23Y-80.52
X145.25Y-81.75
X145.25Y-83.0
X145.25Y-113.5
X145.25Y-117.0
X145.325Y-72.675
X145.5Y-68.5
X145.8Y-85.5
X146.0Y-126.55
X146.25Y-71.25
X146.292Y-78.67
X146.3Y-115.25
X147.25Y-85.55
X148.25Y-88.0
X148.25Y-91.0
X148.45Y-94.8
X148.5Y-124.75
X148.807Y-85.349
X149.225Y-69.5
X149.668Y-93.9
X150.418Y-114.582
X150.5Y-88.25
X151.5Y-90.5
X151.5Y-111.5
X151.75Y-70.75
X151.75Y-94.25
X152.0Y-88.25
X152.2Y-118.65
X152.714Y-108.25
X153.25Y-88.25
X153.6Y-121.4
X154.059Y-122.07
X154.5Y-121.4
X154.691Y-88.059
X154.7Y-117.35
X156.375Y-88.375
X156.45Y-118.7
X156.75Y-109.75
X157.315Y-114.5
X157.5Y-93.0
X157.5Y-108.65
X157.75Y-88.25
X158.875Y-94.625
X159.0Y-88.25
X159.5Y-100.5
X160.117Y-107.834
X160.25Y-69.0
X160.25Y-75.44
X160.25Y-101.75
X160.3Y-81.75
X160.45Y-125.45
X160.5Y-79.25
X160.5Y-84.25
X160.5Y-85.5
X160.5Y-108.75
X160.54Y-76.71
X160.56Y-83.06
X160.8Y-88.25
X160.954Y-103.12
X161.477Y-118.0
X161.843Y-112.796
T4
X141.37Y-70.93
X141.37Y-73.47
X141.37Y-76.01
X141.37Y-78.55
X141.37Y-81.09
X141.37Y-83.63
X141.37Y-86.17
X141.37Y-88.71
X141.37Y-91.25
X141.37Y-93.79
X141.37Y-96.33
X141.37Y-98.87
X141.37Y-101.41
X141.37Y-103.95
X141.37Y-106.49
X141.37Y-109.03
X141.37Y-111.57
X141.37Y-114.11
X141.37Y-116.65
X141.37Y-119.19
X141.37Y-121.73
X141.37Y-124.27
X164.23Y-70.93
X164.23Y-73.47
X164.23Y-76.01
X164.23Y-78.55
X164.23Y-81.09
X164.23Y-83.63
X164.23Y-86.17
X164.23Y-88.71
X164.23Y-91.25
X164.23Y-93.79
X164.23Y-96.33
X164.23Y-98.87
X164.23Y-101.41
X164.23Y-103.95
X164.23Y-106.49
X164.23Y-109.03
X164.23Y-111.57
X164.23Y-114.11
X164.23Y-116.65
X164.23Y-119.19
X164.23Y-121.73
X164.23Y-124.27
T3
X149.93Y-119.932G85X149.93Y-121.032
G05
X149.93Y-124.262G85X149.93Y-125.062
G05
X158.57Y-119.932G85X158.57Y-121.032
G05
X158.57Y-124.262G85X158.57Y-125.062
G05
M30
