%TF.GenerationSoftware,KiCad,Pcbnew,10.0.4*%
%TF.CreationDate,2026-09-03T17:10:01-04:00*%
%TF.ProjectId,ESP32S3_RF_DevBoard,45535033-3253-4335-9f52-465f44657642,rev?*%
%TF.SameCoordinates,Original*%
%TF.FileFunction,Legend,Bot*%
%TF.FilePolarity,Positive*%
%FSLAX46Y46*%
G04 Gerber Fmt 4.6, Leading zero omitted, Abs format (unit mm)*
G04 Created by KiCad (PCBNEW 10.0.4) date 2026-09-03 17:10:01*
%MOMM*%
%LPD*%
G01*
G04 APERTURE LIST*
G04 Aperture macros list*
%AMRoundRect*
0 Rectangle with rounded corners*
0 $1 Rounding radius*
0 $2 $3 $4 $5 $6 $7 $8 $9 X,Y pos of 4 corners*
0 Add a 4 corners polygon primitive as box body*
4,1,4,$2,$3,$4,$5,$6,$7,$8,$9,$2,$3,0*
0 Add four circle primitives for the rounded corners*
1,1,$1+$1,$2,$3*
1,1,$1+$1,$4,$5*
1,1,$1+$1,$6,$7*
1,1,$1+$1,$8,$9*
0 Add four rect primitives between the rounded corners*
20,1,$1+$1,$2,$3,$4,$5,0*
20,1,$1+$1,$4,$5,$6,$7,0*
20,1,$1+$1,$6,$7,$8,$9,0*
20,1,$1+$1,$8,$9,$2,$3,0*%
G04 Aperture macros list end*
%ADD10C,0.150000*%
%ADD11C,0.120000*%
%ADD12C,0.650000*%
%ADD13O,1.204000X2.304000*%
%ADD14O,1.204000X2.004000*%
%ADD15R,1.700000X1.700000*%
%ADD16C,1.700000*%
%ADD17RoundRect,0.250000X-0.475000X0.250000X-0.475000X-0.250000X0.475000X-0.250000X0.475000X0.250000X0*%
%ADD18RoundRect,0.200000X-0.275000X0.200000X-0.275000X-0.200000X0.275000X-0.200000X0.275000X0.200000X0*%
%ADD19RoundRect,0.225000X-0.225000X-0.250000X0.225000X-0.250000X0.225000X0.250000X-0.225000X0.250000X0*%
G04 APERTURE END LIST*
D10*
X147506621Y-90905804D02*
X147506621Y-91239137D01*
X148030431Y-91381994D02*
X148030431Y-90905804D01*
X148030431Y-90905804D02*
X147030431Y-90905804D01*
X147030431Y-90905804D02*
X147030431Y-91381994D01*
X147982812Y-91762947D02*
X148030431Y-91905804D01*
X148030431Y-91905804D02*
X148030431Y-92143899D01*
X148030431Y-92143899D02*
X147982812Y-92239137D01*
X147982812Y-92239137D02*
X147935192Y-92286756D01*
X147935192Y-92286756D02*
X147839954Y-92334375D01*
X147839954Y-92334375D02*
X147744716Y-92334375D01*
X147744716Y-92334375D02*
X147649478Y-92286756D01*
X147649478Y-92286756D02*
X147601859Y-92239137D01*
X147601859Y-92239137D02*
X147554240Y-92143899D01*
X147554240Y-92143899D02*
X147506621Y-91953423D01*
X147506621Y-91953423D02*
X147459002Y-91858185D01*
X147459002Y-91858185D02*
X147411383Y-91810566D01*
X147411383Y-91810566D02*
X147316145Y-91762947D01*
X147316145Y-91762947D02*
X147220907Y-91762947D01*
X147220907Y-91762947D02*
X147125669Y-91810566D01*
X147125669Y-91810566D02*
X147078050Y-91858185D01*
X147078050Y-91858185D02*
X147030431Y-91953423D01*
X147030431Y-91953423D02*
X147030431Y-92191518D01*
X147030431Y-92191518D02*
X147078050Y-92334375D01*
X148030431Y-92762947D02*
X147030431Y-92762947D01*
X147030431Y-92762947D02*
X147030431Y-93143899D01*
X147030431Y-93143899D02*
X147078050Y-93239137D01*
X147078050Y-93239137D02*
X147125669Y-93286756D01*
X147125669Y-93286756D02*
X147220907Y-93334375D01*
X147220907Y-93334375D02*
X147363764Y-93334375D01*
X147363764Y-93334375D02*
X147459002Y-93286756D01*
X147459002Y-93286756D02*
X147506621Y-93239137D01*
X147506621Y-93239137D02*
X147554240Y-93143899D01*
X147554240Y-93143899D02*
X147554240Y-92762947D01*
X147030431Y-93667709D02*
X147030431Y-94286756D01*
X147030431Y-94286756D02*
X147411383Y-93953423D01*
X147411383Y-93953423D02*
X147411383Y-94096280D01*
X147411383Y-94096280D02*
X147459002Y-94191518D01*
X147459002Y-94191518D02*
X147506621Y-94239137D01*
X147506621Y-94239137D02*
X147601859Y-94286756D01*
X147601859Y-94286756D02*
X147839954Y-94286756D01*
X147839954Y-94286756D02*
X147935192Y-94239137D01*
X147935192Y-94239137D02*
X147982812Y-94191518D01*
X147982812Y-94191518D02*
X148030431Y-94096280D01*
X148030431Y-94096280D02*
X148030431Y-93810566D01*
X148030431Y-93810566D02*
X147982812Y-93715328D01*
X147982812Y-93715328D02*
X147935192Y-93667709D01*
X147125669Y-94667709D02*
X147078050Y-94715328D01*
X147078050Y-94715328D02*
X147030431Y-94810566D01*
X147030431Y-94810566D02*
X147030431Y-95048661D01*
X147030431Y-95048661D02*
X147078050Y-95143899D01*
X147078050Y-95143899D02*
X147125669Y-95191518D01*
X147125669Y-95191518D02*
X147220907Y-95239137D01*
X147220907Y-95239137D02*
X147316145Y-95239137D01*
X147316145Y-95239137D02*
X147459002Y-95191518D01*
X147459002Y-95191518D02*
X148030431Y-94620090D01*
X148030431Y-94620090D02*
X148030431Y-95239137D01*
X147649478Y-95667709D02*
X147649478Y-96429614D01*
X147982812Y-96858185D02*
X148030431Y-97001042D01*
X148030431Y-97001042D02*
X148030431Y-97239137D01*
X148030431Y-97239137D02*
X147982812Y-97334375D01*
X147982812Y-97334375D02*
X147935192Y-97381994D01*
X147935192Y-97381994D02*
X147839954Y-97429613D01*
X147839954Y-97429613D02*
X147744716Y-97429613D01*
X147744716Y-97429613D02*
X147649478Y-97381994D01*
X147649478Y-97381994D02*
X147601859Y-97334375D01*
X147601859Y-97334375D02*
X147554240Y-97239137D01*
X147554240Y-97239137D02*
X147506621Y-97048661D01*
X147506621Y-97048661D02*
X147459002Y-96953423D01*
X147459002Y-96953423D02*
X147411383Y-96905804D01*
X147411383Y-96905804D02*
X147316145Y-96858185D01*
X147316145Y-96858185D02*
X147220907Y-96858185D01*
X147220907Y-96858185D02*
X147125669Y-96905804D01*
X147125669Y-96905804D02*
X147078050Y-96953423D01*
X147078050Y-96953423D02*
X147030431Y-97048661D01*
X147030431Y-97048661D02*
X147030431Y-97286756D01*
X147030431Y-97286756D02*
X147078050Y-97429613D01*
X147030431Y-97762947D02*
X147030431Y-98381994D01*
X147030431Y-98381994D02*
X147411383Y-98048661D01*
X147411383Y-98048661D02*
X147411383Y-98191518D01*
X147411383Y-98191518D02*
X147459002Y-98286756D01*
X147459002Y-98286756D02*
X147506621Y-98334375D01*
X147506621Y-98334375D02*
X147601859Y-98381994D01*
X147601859Y-98381994D02*
X147839954Y-98381994D01*
X147839954Y-98381994D02*
X147935192Y-98334375D01*
X147935192Y-98334375D02*
X147982812Y-98286756D01*
X147982812Y-98286756D02*
X148030431Y-98191518D01*
X148030431Y-98191518D02*
X148030431Y-97905804D01*
X148030431Y-97905804D02*
X147982812Y-97810566D01*
X147982812Y-97810566D02*
X147935192Y-97762947D01*
X148030431Y-100143899D02*
X147554240Y-99810566D01*
X148030431Y-99572471D02*
X147030431Y-99572471D01*
X147030431Y-99572471D02*
X147030431Y-99953423D01*
X147030431Y-99953423D02*
X147078050Y-100048661D01*
X147078050Y-100048661D02*
X147125669Y-100096280D01*
X147125669Y-100096280D02*
X147220907Y-100143899D01*
X147220907Y-100143899D02*
X147363764Y-100143899D01*
X147363764Y-100143899D02*
X147459002Y-100096280D01*
X147459002Y-100096280D02*
X147506621Y-100048661D01*
X147506621Y-100048661D02*
X147554240Y-99953423D01*
X147554240Y-99953423D02*
X147554240Y-99572471D01*
X147506621Y-100905804D02*
X147506621Y-100572471D01*
X148030431Y-100572471D02*
X147030431Y-100572471D01*
X147030431Y-100572471D02*
X147030431Y-101048661D01*
X148030431Y-102191519D02*
X147030431Y-102191519D01*
X147030431Y-102191519D02*
X147030431Y-102429614D01*
X147030431Y-102429614D02*
X147078050Y-102572471D01*
X147078050Y-102572471D02*
X147173288Y-102667709D01*
X147173288Y-102667709D02*
X147268526Y-102715328D01*
X147268526Y-102715328D02*
X147459002Y-102762947D01*
X147459002Y-102762947D02*
X147601859Y-102762947D01*
X147601859Y-102762947D02*
X147792335Y-102715328D01*
X147792335Y-102715328D02*
X147887573Y-102667709D01*
X147887573Y-102667709D02*
X147982812Y-102572471D01*
X147982812Y-102572471D02*
X148030431Y-102429614D01*
X148030431Y-102429614D02*
X148030431Y-102191519D01*
X147506621Y-103191519D02*
X147506621Y-103524852D01*
X148030431Y-103667709D02*
X148030431Y-103191519D01*
X148030431Y-103191519D02*
X147030431Y-103191519D01*
X147030431Y-103191519D02*
X147030431Y-103667709D01*
X147030431Y-103953424D02*
X148030431Y-104286757D01*
X148030431Y-104286757D02*
X147030431Y-104620090D01*
X147506621Y-105286757D02*
X147554240Y-105429614D01*
X147554240Y-105429614D02*
X147601859Y-105477233D01*
X147601859Y-105477233D02*
X147697097Y-105524852D01*
X147697097Y-105524852D02*
X147839954Y-105524852D01*
X147839954Y-105524852D02*
X147935192Y-105477233D01*
X147935192Y-105477233D02*
X147982812Y-105429614D01*
X147982812Y-105429614D02*
X148030431Y-105334376D01*
X148030431Y-105334376D02*
X148030431Y-104953424D01*
X148030431Y-104953424D02*
X147030431Y-104953424D01*
X147030431Y-104953424D02*
X147030431Y-105286757D01*
X147030431Y-105286757D02*
X147078050Y-105381995D01*
X147078050Y-105381995D02*
X147125669Y-105429614D01*
X147125669Y-105429614D02*
X147220907Y-105477233D01*
X147220907Y-105477233D02*
X147316145Y-105477233D01*
X147316145Y-105477233D02*
X147411383Y-105429614D01*
X147411383Y-105429614D02*
X147459002Y-105381995D01*
X147459002Y-105381995D02*
X147506621Y-105286757D01*
X147506621Y-105286757D02*
X147506621Y-104953424D01*
X147030431Y-106143900D02*
X147030431Y-106334376D01*
X147030431Y-106334376D02*
X147078050Y-106429614D01*
X147078050Y-106429614D02*
X147173288Y-106524852D01*
X147173288Y-106524852D02*
X147363764Y-106572471D01*
X147363764Y-106572471D02*
X147697097Y-106572471D01*
X147697097Y-106572471D02*
X147887573Y-106524852D01*
X147887573Y-106524852D02*
X147982812Y-106429614D01*
X147982812Y-106429614D02*
X148030431Y-106334376D01*
X148030431Y-106334376D02*
X148030431Y-106143900D01*
X148030431Y-106143900D02*
X147982812Y-106048662D01*
X147982812Y-106048662D02*
X147887573Y-105953424D01*
X147887573Y-105953424D02*
X147697097Y-105905805D01*
X147697097Y-105905805D02*
X147363764Y-105905805D01*
X147363764Y-105905805D02*
X147173288Y-105953424D01*
X147173288Y-105953424D02*
X147078050Y-106048662D01*
X147078050Y-106048662D02*
X147030431Y-106143900D01*
X147744716Y-106953424D02*
X147744716Y-107429614D01*
X148030431Y-106858186D02*
X147030431Y-107191519D01*
X147030431Y-107191519D02*
X148030431Y-107524852D01*
X148030431Y-108429614D02*
X147554240Y-108096281D01*
X148030431Y-107858186D02*
X147030431Y-107858186D01*
X147030431Y-107858186D02*
X147030431Y-108239138D01*
X147030431Y-108239138D02*
X147078050Y-108334376D01*
X147078050Y-108334376D02*
X147125669Y-108381995D01*
X147125669Y-108381995D02*
X147220907Y-108429614D01*
X147220907Y-108429614D02*
X147363764Y-108429614D01*
X147363764Y-108429614D02*
X147459002Y-108381995D01*
X147459002Y-108381995D02*
X147506621Y-108334376D01*
X147506621Y-108334376D02*
X147554240Y-108239138D01*
X147554240Y-108239138D02*
X147554240Y-107858186D01*
X148030431Y-108858186D02*
X147030431Y-108858186D01*
X147030431Y-108858186D02*
X147030431Y-109096281D01*
X147030431Y-109096281D02*
X147078050Y-109239138D01*
X147078050Y-109239138D02*
X147173288Y-109334376D01*
X147173288Y-109334376D02*
X147268526Y-109381995D01*
X147268526Y-109381995D02*
X147459002Y-109429614D01*
X147459002Y-109429614D02*
X147601859Y-109429614D01*
X147601859Y-109429614D02*
X147792335Y-109381995D01*
X147792335Y-109381995D02*
X147887573Y-109334376D01*
X147887573Y-109334376D02*
X147982812Y-109239138D01*
X147982812Y-109239138D02*
X148030431Y-109096281D01*
X148030431Y-109096281D02*
X148030431Y-108858186D01*
X149640375Y-95048661D02*
X149164184Y-94715328D01*
X149640375Y-94477233D02*
X148640375Y-94477233D01*
X148640375Y-94477233D02*
X148640375Y-94858185D01*
X148640375Y-94858185D02*
X148687994Y-94953423D01*
X148687994Y-94953423D02*
X148735613Y-95001042D01*
X148735613Y-95001042D02*
X148830851Y-95048661D01*
X148830851Y-95048661D02*
X148973708Y-95048661D01*
X148973708Y-95048661D02*
X149068946Y-95001042D01*
X149068946Y-95001042D02*
X149116565Y-94953423D01*
X149116565Y-94953423D02*
X149164184Y-94858185D01*
X149164184Y-94858185D02*
X149164184Y-94477233D01*
X149116565Y-95477233D02*
X149116565Y-95810566D01*
X149640375Y-95953423D02*
X149640375Y-95477233D01*
X149640375Y-95477233D02*
X148640375Y-95477233D01*
X148640375Y-95477233D02*
X148640375Y-95953423D01*
X148640375Y-96239138D02*
X149640375Y-96572471D01*
X149640375Y-96572471D02*
X148640375Y-96905804D01*
X148973708Y-97905805D02*
X149640375Y-98143900D01*
X149640375Y-98143900D02*
X148973708Y-98381995D01*
X149640375Y-99286757D02*
X149640375Y-98715329D01*
X149640375Y-99001043D02*
X148640375Y-99001043D01*
X148640375Y-99001043D02*
X148783232Y-98905805D01*
X148783232Y-98905805D02*
X148878470Y-98810567D01*
X148878470Y-98810567D02*
X148926089Y-98715329D01*
X149164184Y-100762948D02*
X149354660Y-100762948D01*
X149354660Y-100810567D02*
X149164184Y-100810567D01*
X149116565Y-100858186D02*
X149402279Y-100858186D01*
X149354660Y-100905805D02*
X149164184Y-100905805D01*
X149164184Y-100953424D02*
X149354660Y-100953424D01*
X149307041Y-100762948D02*
X149402279Y-100858186D01*
X149402279Y-100858186D02*
X149307041Y-100953424D01*
X149211803Y-100762948D02*
X149116565Y-100858186D01*
X149116565Y-100858186D02*
X149211803Y-100953424D01*
X149164184Y-100762948D02*
X149116565Y-100858186D01*
X149116565Y-100858186D02*
X149164184Y-100953424D01*
X149164184Y-100953424D02*
X149259422Y-101001043D01*
X149259422Y-101001043D02*
X149354660Y-100953424D01*
X149354660Y-100953424D02*
X149402279Y-100858186D01*
X149402279Y-100858186D02*
X149354660Y-100762948D01*
X149354660Y-100762948D02*
X149259422Y-100715329D01*
X149259422Y-100715329D02*
X149164184Y-100762948D01*
X148735613Y-102429615D02*
X148687994Y-102477234D01*
X148687994Y-102477234D02*
X148640375Y-102572472D01*
X148640375Y-102572472D02*
X148640375Y-102810567D01*
X148640375Y-102810567D02*
X148687994Y-102905805D01*
X148687994Y-102905805D02*
X148735613Y-102953424D01*
X148735613Y-102953424D02*
X148830851Y-103001043D01*
X148830851Y-103001043D02*
X148926089Y-103001043D01*
X148926089Y-103001043D02*
X149068946Y-102953424D01*
X149068946Y-102953424D02*
X149640375Y-102381996D01*
X149640375Y-102381996D02*
X149640375Y-103001043D01*
X148640375Y-103620091D02*
X148640375Y-103715329D01*
X148640375Y-103715329D02*
X148687994Y-103810567D01*
X148687994Y-103810567D02*
X148735613Y-103858186D01*
X148735613Y-103858186D02*
X148830851Y-103905805D01*
X148830851Y-103905805D02*
X149021327Y-103953424D01*
X149021327Y-103953424D02*
X149259422Y-103953424D01*
X149259422Y-103953424D02*
X149449898Y-103905805D01*
X149449898Y-103905805D02*
X149545136Y-103858186D01*
X149545136Y-103858186D02*
X149592756Y-103810567D01*
X149592756Y-103810567D02*
X149640375Y-103715329D01*
X149640375Y-103715329D02*
X149640375Y-103620091D01*
X149640375Y-103620091D02*
X149592756Y-103524853D01*
X149592756Y-103524853D02*
X149545136Y-103477234D01*
X149545136Y-103477234D02*
X149449898Y-103429615D01*
X149449898Y-103429615D02*
X149259422Y-103381996D01*
X149259422Y-103381996D02*
X149021327Y-103381996D01*
X149021327Y-103381996D02*
X148830851Y-103429615D01*
X148830851Y-103429615D02*
X148735613Y-103477234D01*
X148735613Y-103477234D02*
X148687994Y-103524853D01*
X148687994Y-103524853D02*
X148640375Y-103620091D01*
X148735613Y-104334377D02*
X148687994Y-104381996D01*
X148687994Y-104381996D02*
X148640375Y-104477234D01*
X148640375Y-104477234D02*
X148640375Y-104715329D01*
X148640375Y-104715329D02*
X148687994Y-104810567D01*
X148687994Y-104810567D02*
X148735613Y-104858186D01*
X148735613Y-104858186D02*
X148830851Y-104905805D01*
X148830851Y-104905805D02*
X148926089Y-104905805D01*
X148926089Y-104905805D02*
X149068946Y-104858186D01*
X149068946Y-104858186D02*
X149640375Y-104286758D01*
X149640375Y-104286758D02*
X149640375Y-104905805D01*
X148640375Y-105762948D02*
X148640375Y-105572472D01*
X148640375Y-105572472D02*
X148687994Y-105477234D01*
X148687994Y-105477234D02*
X148735613Y-105429615D01*
X148735613Y-105429615D02*
X148878470Y-105334377D01*
X148878470Y-105334377D02*
X149068946Y-105286758D01*
X149068946Y-105286758D02*
X149449898Y-105286758D01*
X149449898Y-105286758D02*
X149545136Y-105334377D01*
X149545136Y-105334377D02*
X149592756Y-105381996D01*
X149592756Y-105381996D02*
X149640375Y-105477234D01*
X149640375Y-105477234D02*
X149640375Y-105667710D01*
X149640375Y-105667710D02*
X149592756Y-105762948D01*
X149592756Y-105762948D02*
X149545136Y-105810567D01*
X149545136Y-105810567D02*
X149449898Y-105858186D01*
X149449898Y-105858186D02*
X149211803Y-105858186D01*
X149211803Y-105858186D02*
X149116565Y-105810567D01*
X149116565Y-105810567D02*
X149068946Y-105762948D01*
X149068946Y-105762948D02*
X149021327Y-105667710D01*
X149021327Y-105667710D02*
X149021327Y-105477234D01*
X149021327Y-105477234D02*
X149068946Y-105381996D01*
X149068946Y-105381996D02*
X149116565Y-105334377D01*
X149116565Y-105334377D02*
X149211803Y-105286758D01*
X150964604Y-92739137D02*
X150964604Y-93215327D01*
X151250319Y-92643899D02*
X150250319Y-92977232D01*
X150250319Y-92977232D02*
X151250319Y-93310565D01*
X150583652Y-93643899D02*
X151250319Y-93643899D01*
X150678890Y-93643899D02*
X150631271Y-93691518D01*
X150631271Y-93691518D02*
X150583652Y-93786756D01*
X150583652Y-93786756D02*
X150583652Y-93929613D01*
X150583652Y-93929613D02*
X150631271Y-94024851D01*
X150631271Y-94024851D02*
X150726509Y-94072470D01*
X150726509Y-94072470D02*
X151250319Y-94072470D01*
X150583652Y-94405804D02*
X150583652Y-94786756D01*
X150250319Y-94548661D02*
X151107461Y-94548661D01*
X151107461Y-94548661D02*
X151202700Y-94596280D01*
X151202700Y-94596280D02*
X151250319Y-94691518D01*
X151250319Y-94691518D02*
X151250319Y-94786756D01*
X151250319Y-95262947D02*
X151202700Y-95167709D01*
X151202700Y-95167709D02*
X151155080Y-95120090D01*
X151155080Y-95120090D02*
X151059842Y-95072471D01*
X151059842Y-95072471D02*
X150774128Y-95072471D01*
X150774128Y-95072471D02*
X150678890Y-95120090D01*
X150678890Y-95120090D02*
X150631271Y-95167709D01*
X150631271Y-95167709D02*
X150583652Y-95262947D01*
X150583652Y-95262947D02*
X150583652Y-95405804D01*
X150583652Y-95405804D02*
X150631271Y-95501042D01*
X150631271Y-95501042D02*
X150678890Y-95548661D01*
X150678890Y-95548661D02*
X150774128Y-95596280D01*
X150774128Y-95596280D02*
X151059842Y-95596280D01*
X151059842Y-95596280D02*
X151155080Y-95548661D01*
X151155080Y-95548661D02*
X151202700Y-95501042D01*
X151202700Y-95501042D02*
X151250319Y-95405804D01*
X151250319Y-95405804D02*
X151250319Y-95262947D01*
X151250319Y-96024852D02*
X150583652Y-96024852D01*
X150250319Y-96024852D02*
X150297938Y-95977233D01*
X150297938Y-95977233D02*
X150345557Y-96024852D01*
X150345557Y-96024852D02*
X150297938Y-96072471D01*
X150297938Y-96072471D02*
X150250319Y-96024852D01*
X150250319Y-96024852D02*
X150345557Y-96024852D01*
X150583652Y-96501042D02*
X151250319Y-96501042D01*
X150678890Y-96501042D02*
X150631271Y-96548661D01*
X150631271Y-96548661D02*
X150583652Y-96643899D01*
X150583652Y-96643899D02*
X150583652Y-96786756D01*
X150583652Y-96786756D02*
X150631271Y-96881994D01*
X150631271Y-96881994D02*
X150726509Y-96929613D01*
X150726509Y-96929613D02*
X151250319Y-96929613D01*
X151202700Y-97786756D02*
X151250319Y-97691518D01*
X151250319Y-97691518D02*
X151250319Y-97501042D01*
X151250319Y-97501042D02*
X151202700Y-97405804D01*
X151202700Y-97405804D02*
X151107461Y-97358185D01*
X151107461Y-97358185D02*
X150726509Y-97358185D01*
X150726509Y-97358185D02*
X150631271Y-97405804D01*
X150631271Y-97405804D02*
X150583652Y-97501042D01*
X150583652Y-97501042D02*
X150583652Y-97691518D01*
X150583652Y-97691518D02*
X150631271Y-97786756D01*
X150631271Y-97786756D02*
X150726509Y-97834375D01*
X150726509Y-97834375D02*
X150821747Y-97834375D01*
X150821747Y-97834375D02*
X150916985Y-97358185D01*
X150583652Y-98120090D02*
X150583652Y-98501042D01*
X150250319Y-98262947D02*
X151107461Y-98262947D01*
X151107461Y-98262947D02*
X151202700Y-98310566D01*
X151202700Y-98310566D02*
X151250319Y-98405804D01*
X151250319Y-98405804D02*
X151250319Y-98501042D01*
X150583652Y-98691519D02*
X150583652Y-99072471D01*
X150250319Y-98834376D02*
X151107461Y-98834376D01*
X151107461Y-98834376D02*
X151202700Y-98881995D01*
X151202700Y-98881995D02*
X151250319Y-98977233D01*
X151250319Y-98977233D02*
X151250319Y-99072471D01*
X151202700Y-99786757D02*
X151250319Y-99691519D01*
X151250319Y-99691519D02*
X151250319Y-99501043D01*
X151250319Y-99501043D02*
X151202700Y-99405805D01*
X151202700Y-99405805D02*
X151107461Y-99358186D01*
X151107461Y-99358186D02*
X150726509Y-99358186D01*
X150726509Y-99358186D02*
X150631271Y-99405805D01*
X150631271Y-99405805D02*
X150583652Y-99501043D01*
X150583652Y-99501043D02*
X150583652Y-99691519D01*
X150583652Y-99691519D02*
X150631271Y-99786757D01*
X150631271Y-99786757D02*
X150726509Y-99834376D01*
X150726509Y-99834376D02*
X150821747Y-99834376D01*
X150821747Y-99834376D02*
X150916985Y-99358186D01*
X151250319Y-101024853D02*
X150250319Y-101024853D01*
X150250319Y-101024853D02*
X151250319Y-101596281D01*
X151250319Y-101596281D02*
X150250319Y-101596281D01*
X151250319Y-102834377D02*
X150250319Y-102834377D01*
X151250319Y-103405805D02*
X150678890Y-102977234D01*
X150250319Y-103405805D02*
X150821747Y-102834377D01*
X151202700Y-104215329D02*
X151250319Y-104120091D01*
X151250319Y-104120091D02*
X151250319Y-103929615D01*
X151250319Y-103929615D02*
X151202700Y-103834377D01*
X151202700Y-103834377D02*
X151107461Y-103786758D01*
X151107461Y-103786758D02*
X150726509Y-103786758D01*
X150726509Y-103786758D02*
X150631271Y-103834377D01*
X150631271Y-103834377D02*
X150583652Y-103929615D01*
X150583652Y-103929615D02*
X150583652Y-104120091D01*
X150583652Y-104120091D02*
X150631271Y-104215329D01*
X150631271Y-104215329D02*
X150726509Y-104262948D01*
X150726509Y-104262948D02*
X150821747Y-104262948D01*
X150821747Y-104262948D02*
X150916985Y-103786758D01*
X151250319Y-104834377D02*
X151202700Y-104739139D01*
X151202700Y-104739139D02*
X151107461Y-104691520D01*
X151107461Y-104691520D02*
X150250319Y-104691520D01*
X151250319Y-105358187D02*
X151202700Y-105262949D01*
X151202700Y-105262949D02*
X151107461Y-105215330D01*
X151107461Y-105215330D02*
X150250319Y-105215330D01*
X151250319Y-106167711D02*
X150726509Y-106167711D01*
X150726509Y-106167711D02*
X150631271Y-106120092D01*
X150631271Y-106120092D02*
X150583652Y-106024854D01*
X150583652Y-106024854D02*
X150583652Y-105834378D01*
X150583652Y-105834378D02*
X150631271Y-105739140D01*
X151202700Y-106167711D02*
X151250319Y-106072473D01*
X151250319Y-106072473D02*
X151250319Y-105834378D01*
X151250319Y-105834378D02*
X151202700Y-105739140D01*
X151202700Y-105739140D02*
X151107461Y-105691521D01*
X151107461Y-105691521D02*
X151012223Y-105691521D01*
X151012223Y-105691521D02*
X150916985Y-105739140D01*
X150916985Y-105739140D02*
X150869366Y-105834378D01*
X150869366Y-105834378D02*
X150869366Y-106072473D01*
X150869366Y-106072473D02*
X150821747Y-106167711D01*
X151250319Y-106643902D02*
X150583652Y-106643902D01*
X150678890Y-106643902D02*
X150631271Y-106691521D01*
X150631271Y-106691521D02*
X150583652Y-106786759D01*
X150583652Y-106786759D02*
X150583652Y-106929616D01*
X150583652Y-106929616D02*
X150631271Y-107024854D01*
X150631271Y-107024854D02*
X150726509Y-107072473D01*
X150726509Y-107072473D02*
X151250319Y-107072473D01*
X150726509Y-107072473D02*
X150631271Y-107120092D01*
X150631271Y-107120092D02*
X150583652Y-107215330D01*
X150583652Y-107215330D02*
X150583652Y-107358187D01*
X150583652Y-107358187D02*
X150631271Y-107453426D01*
X150631271Y-107453426D02*
X150726509Y-107501045D01*
X150726509Y-107501045D02*
X151250319Y-107501045D01*
X146416666Y-79675808D02*
X146464285Y-79723428D01*
X146464285Y-79723428D02*
X146607142Y-79771047D01*
X146607142Y-79771047D02*
X146702380Y-79771047D01*
X146702380Y-79771047D02*
X146845237Y-79723428D01*
X146845237Y-79723428D02*
X146940475Y-79628189D01*
X146940475Y-79628189D02*
X146988094Y-79532951D01*
X146988094Y-79532951D02*
X147035713Y-79342475D01*
X147035713Y-79342475D02*
X147035713Y-79199618D01*
X147035713Y-79199618D02*
X146988094Y-79009142D01*
X146988094Y-79009142D02*
X146940475Y-78913904D01*
X146940475Y-78913904D02*
X146845237Y-78818666D01*
X146845237Y-78818666D02*
X146702380Y-78771047D01*
X146702380Y-78771047D02*
X146607142Y-78771047D01*
X146607142Y-78771047D02*
X146464285Y-78818666D01*
X146464285Y-78818666D02*
X146416666Y-78866285D01*
X145559523Y-78771047D02*
X145749999Y-78771047D01*
X145749999Y-78771047D02*
X145845237Y-78818666D01*
X145845237Y-78818666D02*
X145892856Y-78866285D01*
X145892856Y-78866285D02*
X145988094Y-79009142D01*
X145988094Y-79009142D02*
X146035713Y-79199618D01*
X146035713Y-79199618D02*
X146035713Y-79580570D01*
X146035713Y-79580570D02*
X145988094Y-79675808D01*
X145988094Y-79675808D02*
X145940475Y-79723428D01*
X145940475Y-79723428D02*
X145845237Y-79771047D01*
X145845237Y-79771047D02*
X145654761Y-79771047D01*
X145654761Y-79771047D02*
X145559523Y-79723428D01*
X145559523Y-79723428D02*
X145511904Y-79675808D01*
X145511904Y-79675808D02*
X145464285Y-79580570D01*
X145464285Y-79580570D02*
X145464285Y-79342475D01*
X145464285Y-79342475D02*
X145511904Y-79247237D01*
X145511904Y-79247237D02*
X145559523Y-79199618D01*
X145559523Y-79199618D02*
X145654761Y-79151999D01*
X145654761Y-79151999D02*
X145845237Y-79151999D01*
X145845237Y-79151999D02*
X145940475Y-79199618D01*
X145940475Y-79199618D02*
X145988094Y-79247237D01*
X145988094Y-79247237D02*
X146035713Y-79342475D01*
X148666666Y-73504514D02*
X148999999Y-73028323D01*
X149238094Y-73504514D02*
X149238094Y-72504514D01*
X149238094Y-72504514D02*
X148857142Y-72504514D01*
X148857142Y-72504514D02*
X148761904Y-72552133D01*
X148761904Y-72552133D02*
X148714285Y-72599752D01*
X148714285Y-72599752D02*
X148666666Y-72694990D01*
X148666666Y-72694990D02*
X148666666Y-72837847D01*
X148666666Y-72837847D02*
X148714285Y-72933085D01*
X148714285Y-72933085D02*
X148761904Y-72980704D01*
X148761904Y-72980704D02*
X148857142Y-73028323D01*
X148857142Y-73028323D02*
X149238094Y-73028323D01*
X147761904Y-72504514D02*
X148238094Y-72504514D01*
X148238094Y-72504514D02*
X148285713Y-72980704D01*
X148285713Y-72980704D02*
X148238094Y-72933085D01*
X148238094Y-72933085D02*
X148142856Y-72885466D01*
X148142856Y-72885466D02*
X147904761Y-72885466D01*
X147904761Y-72885466D02*
X147809523Y-72933085D01*
X147809523Y-72933085D02*
X147761904Y-72980704D01*
X147761904Y-72980704D02*
X147714285Y-73075942D01*
X147714285Y-73075942D02*
X147714285Y-73314037D01*
X147714285Y-73314037D02*
X147761904Y-73409275D01*
X147761904Y-73409275D02*
X147809523Y-73456895D01*
X147809523Y-73456895D02*
X147904761Y-73504514D01*
X147904761Y-73504514D02*
X148142856Y-73504514D01*
X148142856Y-73504514D02*
X148238094Y-73456895D01*
X148238094Y-73456895D02*
X148285713Y-73409275D01*
X152891666Y-71109580D02*
X152939285Y-71157200D01*
X152939285Y-71157200D02*
X153082142Y-71204819D01*
X153082142Y-71204819D02*
X153177380Y-71204819D01*
X153177380Y-71204819D02*
X153320237Y-71157200D01*
X153320237Y-71157200D02*
X153415475Y-71061961D01*
X153415475Y-71061961D02*
X153463094Y-70966723D01*
X153463094Y-70966723D02*
X153510713Y-70776247D01*
X153510713Y-70776247D02*
X153510713Y-70633390D01*
X153510713Y-70633390D02*
X153463094Y-70442914D01*
X153463094Y-70442914D02*
X153415475Y-70347676D01*
X153415475Y-70347676D02*
X153320237Y-70252438D01*
X153320237Y-70252438D02*
X153177380Y-70204819D01*
X153177380Y-70204819D02*
X153082142Y-70204819D01*
X153082142Y-70204819D02*
X152939285Y-70252438D01*
X152939285Y-70252438D02*
X152891666Y-70300057D01*
X151986904Y-70204819D02*
X152463094Y-70204819D01*
X152463094Y-70204819D02*
X152510713Y-70681009D01*
X152510713Y-70681009D02*
X152463094Y-70633390D01*
X152463094Y-70633390D02*
X152367856Y-70585771D01*
X152367856Y-70585771D02*
X152129761Y-70585771D01*
X152129761Y-70585771D02*
X152034523Y-70633390D01*
X152034523Y-70633390D02*
X151986904Y-70681009D01*
X151986904Y-70681009D02*
X151939285Y-70776247D01*
X151939285Y-70776247D02*
X151939285Y-71014342D01*
X151939285Y-71014342D02*
X151986904Y-71109580D01*
X151986904Y-71109580D02*
X152034523Y-71157200D01*
X152034523Y-71157200D02*
X152129761Y-71204819D01*
X152129761Y-71204819D02*
X152367856Y-71204819D01*
X152367856Y-71204819D02*
X152463094Y-71157200D01*
X152463094Y-71157200D02*
X152510713Y-71109580D01*
%TO.C,C6*%
D11*
X145515000Y-76504976D02*
X145515000Y-77027480D01*
X146985000Y-76504976D02*
X146985000Y-77027480D01*
%TO.C,R5*%
X145977500Y-72987437D02*
X145977500Y-73461953D01*
X147022500Y-72987437D02*
X147022500Y-73461953D01*
%TO.C,C5*%
X149859420Y-70240000D02*
X150140580Y-70240000D01*
X149859420Y-71260000D02*
X150140580Y-71260000D01*
%TD*%
%LPC*%
D12*
%TO.C,J1*%
X151360000Y-120982500D03*
X157140000Y-120982500D03*
D13*
X149930000Y-120482500D03*
X158570000Y-120482500D03*
D14*
X149930000Y-124662500D03*
X158570000Y-124662500D03*
%TD*%
D15*
%TO.C,J3*%
X164230000Y-70930000D03*
D16*
X164230000Y-73470000D03*
X164230000Y-76010000D03*
X164230000Y-78550000D03*
X164230000Y-81090000D03*
X164230000Y-83630000D03*
X164230000Y-86170000D03*
X164230000Y-88710000D03*
X164230000Y-91250000D03*
X164230000Y-93790000D03*
X164230000Y-96330000D03*
X164230000Y-98870000D03*
X164230000Y-101410000D03*
X164230000Y-103950000D03*
X164230000Y-106490000D03*
X164230000Y-109030000D03*
X164230000Y-111570000D03*
X164230000Y-114110000D03*
X164230000Y-116650000D03*
X164230000Y-119190000D03*
X164230000Y-121730000D03*
X164230000Y-124270000D03*
%TD*%
D15*
%TO.C,J2*%
X141370000Y-70930000D03*
D16*
X141370000Y-73470000D03*
X141370000Y-76010000D03*
X141370000Y-78550000D03*
X141370000Y-81090000D03*
X141370000Y-83630000D03*
X141370000Y-86170000D03*
X141370000Y-88710000D03*
X141370000Y-91250000D03*
X141370000Y-93790000D03*
X141370000Y-96330000D03*
X141370000Y-98870000D03*
X141370000Y-101410000D03*
X141370000Y-103950000D03*
X141370000Y-106490000D03*
X141370000Y-109030000D03*
X141370000Y-111570000D03*
X141370000Y-114110000D03*
X141370000Y-116650000D03*
X141370000Y-119190000D03*
X141370000Y-121730000D03*
X141370000Y-124270000D03*
%TD*%
D17*
%TO.C,C6*%
X146250000Y-75816228D03*
X146250000Y-77716228D03*
%TD*%
D18*
%TO.C,R5*%
X146500000Y-72399695D03*
X146500000Y-74049695D03*
%TD*%
D19*
%TO.C,C5*%
X149225000Y-70750000D03*
X150775000Y-70750000D03*
%TD*%
%LPD*%
M02*
