%TF.GenerationSoftware,KiCad,Pcbnew,10.0.4*%
%TF.CreationDate,2026-09-03T17:10:01-04:00*%
%TF.ProjectId,ESP32S3_RF_DevBoard,45535033-3253-4335-9f52-465f44657642,rev?*%
%TF.SameCoordinates,Original*%
%TF.FileFunction,Soldermask,Top*%
%TF.FilePolarity,Negative*%
%FSLAX46Y46*%
G04 Gerber Fmt 4.6, Leading zero omitted, Abs format (unit mm)*
G04 Created by KiCad (PCBNEW 10.0.4) date 2026-09-03 17:10:01*
%MOMM*%
%LPD*%
G01*
G04 APERTURE LIST*
G04 Aperture macros list*
%AMRoundRect*
0 Rectangle with rounded corners*
0 $1 Rounding radius*
0 $2 $3 $4 $5 $6 $7 $8 $9 X,Y pos of 4 corners*
0 Add a 4 corners polygon primitive as box body*
4,1,4,$2,$3,$4,$5,$6,$7,$8,$9,$2,$3,0*
0 Add four circle primitives for the rounded corners*
1,1,$1+$1,$2,$3*
1,1,$1+$1,$4,$5*
1,1,$1+$1,$6,$7*
1,1,$1+$1,$8,$9*
0 Add four rect primitives between the rounded corners*
20,1,$1+$1,$2,$3,$4,$5,0*
20,1,$1+$1,$4,$5,$6,$7,0*
20,1,$1+$1,$6,$7,$8,$9,0*
20,1,$1+$1,$8,$9,$2,$3,0*%
G04 Aperture macros list end*
%ADD10C,0.010000*%
%ADD11C,0.650000*%
%ADD12O,1.204000X2.304000*%
%ADD13O,1.204000X2.004000*%
%ADD14RoundRect,0.250000X-0.420000X-0.945000X0.420000X-0.945000X0.420000X0.945000X-0.420000X0.945000X0*%
%ADD15R,1.500000X0.900000*%
%ADD16R,0.900000X1.500000*%
%ADD17C,0.600000*%
%ADD18R,3.900000X3.900000*%
%ADD19RoundRect,0.102000X-0.200000X0.240000X-0.200000X-0.240000X0.200000X-0.240000X0.200000X0.240000X0*%
%ADD20R,0.850000X0.600000*%
%ADD21C,1.000000*%
%ADD22C,1.500000*%
%ADD23R,0.600000X1.100000*%
%ADD24R,0.939000X2.477998*%
%ADD25R,5.562600X6.299200*%
%ADD26R,0.660400X1.041400*%
%ADD27RoundRect,0.200000X0.275000X-0.200000X0.275000X0.200000X-0.275000X0.200000X-0.275000X-0.200000X0*%
%ADD28RoundRect,0.225000X-0.250000X0.225000X-0.250000X-0.225000X0.250000X-0.225000X0.250000X0.225000X0*%
%ADD29RoundRect,0.200000X-0.275000X0.200000X-0.275000X-0.200000X0.275000X-0.200000X0.275000X0.200000X0*%
%ADD30R,1.700000X1.700000*%
%ADD31C,1.700000*%
%ADD32RoundRect,0.250000X-0.250000X-0.475000X0.250000X-0.475000X0.250000X0.475000X-0.250000X0.475000X0*%
%ADD33RoundRect,0.200000X0.200000X0.275000X-0.200000X0.275000X-0.200000X-0.275000X0.200000X-0.275000X0*%
%ADD34R,0.299999X0.299999*%
%ADD35RoundRect,0.225000X-0.225000X-0.250000X0.225000X-0.250000X0.225000X0.250000X-0.225000X0.250000X0*%
%ADD36RoundRect,0.218750X-0.256250X0.218750X-0.256250X-0.218750X0.256250X-0.218750X0.256250X0.218750X0*%
%ADD37RoundRect,0.225000X0.225000X0.250000X-0.225000X0.250000X-0.225000X-0.250000X0.225000X-0.250000X0*%
G04 APERTURE END LIST*
D10*
%TO.C,J1*%
X150700000Y-119282500D02*
X151400000Y-119282500D01*
X151400000Y-120532500D01*
X150700000Y-120532500D01*
X150700000Y-119282500D01*
G36*
X151400000Y-120532500D02*
G01*
X150700000Y-120532500D01*
X150700000Y-119282500D01*
X151400000Y-119282500D01*
X151400000Y-120532500D01*
G37*
X151500000Y-119282500D02*
X152200000Y-119282500D01*
X152200000Y-120532500D01*
X151500000Y-120532500D01*
X151500000Y-119282500D01*
G36*
X152200000Y-120532500D02*
G01*
X151500000Y-120532500D01*
X151500000Y-119282500D01*
X152200000Y-119282500D01*
X152200000Y-120532500D01*
G37*
X152300000Y-119282500D02*
X152700000Y-119282500D01*
X152700000Y-120532500D01*
X152300000Y-120532500D01*
X152300000Y-119282500D01*
G36*
X152700000Y-120532500D02*
G01*
X152300000Y-120532500D01*
X152300000Y-119282500D01*
X152700000Y-119282500D01*
X152700000Y-120532500D01*
G37*
X152800000Y-119282500D02*
X153200000Y-119282500D01*
X153200000Y-120532500D01*
X152800000Y-120532500D01*
X152800000Y-119282500D01*
G36*
X153200000Y-120532500D02*
G01*
X152800000Y-120532500D01*
X152800000Y-119282500D01*
X153200000Y-119282500D01*
X153200000Y-120532500D01*
G37*
X153300000Y-119282500D02*
X153700000Y-119282500D01*
X153700000Y-120532500D01*
X153300000Y-120532500D01*
X153300000Y-119282500D01*
G36*
X153700000Y-120532500D02*
G01*
X153300000Y-120532500D01*
X153300000Y-119282500D01*
X153700000Y-119282500D01*
X153700000Y-120532500D01*
G37*
X153800000Y-119282500D02*
X154200000Y-119282500D01*
X154200000Y-120532500D01*
X153800000Y-120532500D01*
X153800000Y-119282500D01*
G36*
X154200000Y-120532500D02*
G01*
X153800000Y-120532500D01*
X153800000Y-119282500D01*
X154200000Y-119282500D01*
X154200000Y-120532500D01*
G37*
X154300000Y-119282500D02*
X154700000Y-119282500D01*
X154700000Y-120532500D01*
X154300000Y-120532500D01*
X154300000Y-119282500D01*
G36*
X154700000Y-120532500D02*
G01*
X154300000Y-120532500D01*
X154300000Y-119282500D01*
X154700000Y-119282500D01*
X154700000Y-120532500D01*
G37*
X154800000Y-119282500D02*
X155200000Y-119282500D01*
X155200000Y-120532500D01*
X154800000Y-120532500D01*
X154800000Y-119282500D01*
G36*
X155200000Y-120532500D02*
G01*
X154800000Y-120532500D01*
X154800000Y-119282500D01*
X155200000Y-119282500D01*
X155200000Y-120532500D01*
G37*
X155300000Y-119282500D02*
X155700000Y-119282500D01*
X155700000Y-120532500D01*
X155300000Y-120532500D01*
X155300000Y-119282500D01*
G36*
X155700000Y-120532500D02*
G01*
X155300000Y-120532500D01*
X155300000Y-119282500D01*
X155700000Y-119282500D01*
X155700000Y-120532500D01*
G37*
X155800000Y-119282500D02*
X156200000Y-119282500D01*
X156200000Y-120532500D01*
X155800000Y-120532500D01*
X155800000Y-119282500D01*
G36*
X156200000Y-120532500D02*
G01*
X155800000Y-120532500D01*
X155800000Y-119282500D01*
X156200000Y-119282500D01*
X156200000Y-120532500D01*
G37*
X156300000Y-119282500D02*
X157000000Y-119282500D01*
X157000000Y-120532500D01*
X156300000Y-120532500D01*
X156300000Y-119282500D01*
G36*
X157000000Y-120532500D02*
G01*
X156300000Y-120532500D01*
X156300000Y-119282500D01*
X157000000Y-119282500D01*
X157000000Y-120532500D01*
G37*
X157100000Y-119282500D02*
X157800000Y-119282500D01*
X157800000Y-120532500D01*
X157100000Y-120532500D01*
X157100000Y-119282500D01*
G36*
X157800000Y-120532500D02*
G01*
X157100000Y-120532500D01*
X157100000Y-119282500D01*
X157800000Y-119282500D01*
X157800000Y-120532500D01*
G37*
%TD*%
D11*
%TO.C,J1*%
X151360000Y-120982500D03*
X157140000Y-120982500D03*
D12*
X149930000Y-120482500D03*
X158570000Y-120482500D03*
D13*
X149930000Y-124662500D03*
X158570000Y-124662500D03*
%TD*%
D14*
%TO.C,C3*%
X153460000Y-93000000D03*
X156540000Y-93000000D03*
%TD*%
D15*
%TO.C,U3*%
X144050000Y-69090000D03*
X144050000Y-70360000D03*
X144050000Y-71630000D03*
X144050000Y-72900000D03*
X144050000Y-74170000D03*
X144050000Y-75440000D03*
X144050000Y-76710000D03*
X144050000Y-77980000D03*
X144050000Y-79250000D03*
X144050000Y-80520000D03*
X144050000Y-81790000D03*
X144050000Y-83060000D03*
X144050000Y-84330000D03*
X144050000Y-85600000D03*
D16*
X145815000Y-86850000D03*
X147085000Y-86850000D03*
X148355000Y-86850000D03*
X149625000Y-86850000D03*
X150895000Y-86850000D03*
X152165000Y-86850000D03*
X153435000Y-86850000D03*
X154705000Y-86850000D03*
X155975000Y-86850000D03*
X157245000Y-86850000D03*
X158515000Y-86850000D03*
X159785000Y-86850000D03*
D15*
X161550000Y-85600000D03*
X161550000Y-84330000D03*
X161550000Y-83060000D03*
X161550000Y-81790000D03*
X161550000Y-80520000D03*
X161550000Y-79250000D03*
X161550000Y-77980000D03*
X161550000Y-76710000D03*
X161550000Y-75440000D03*
X161550000Y-74170000D03*
X161550000Y-72900000D03*
X161550000Y-71630000D03*
X161550000Y-70360000D03*
X161550000Y-69090000D03*
D17*
X149900000Y-76110000D03*
X149900000Y-77510000D03*
X150600000Y-75410000D03*
X150600000Y-76810000D03*
X150600000Y-78210000D03*
X151300000Y-76110000D03*
D18*
X151300000Y-76810000D03*
D17*
X151300000Y-77510000D03*
X152000000Y-75410000D03*
X152000000Y-76810000D03*
X152000000Y-78210000D03*
X152700000Y-76110000D03*
X152700000Y-77510000D03*
%TD*%
D19*
%TO.C,D1*%
X148500000Y-122340000D03*
X148500000Y-123660000D03*
%TD*%
D20*
%TO.C,LED1*%
X158240000Y-114500000D03*
X158240000Y-113500000D03*
X156500000Y-113500000D03*
X156500000Y-114500000D03*
%TD*%
D21*
%TO.C,TP5*%
X149450000Y-110800000D03*
%TD*%
%TO.C,TP4*%
X149487084Y-116770201D03*
%TD*%
D22*
%TO.C,TP1*%
X144750000Y-122750000D03*
%TD*%
%TO.C,TP2*%
X159000000Y-90750000D03*
%TD*%
%TO.C,TP3*%
X159625000Y-93875000D03*
%TD*%
D23*
%TO.C,U4*%
X159200000Y-109700000D03*
X158250000Y-109700000D03*
X157300000Y-109700000D03*
X157300000Y-112300000D03*
X159200000Y-112300000D03*
%TD*%
D24*
%TO.C,U2*%
X152714000Y-106532000D03*
D25*
X155000000Y-98378600D03*
D24*
X157286000Y-106532000D03*
%TD*%
D26*
%TO.C,SW1*%
X147483619Y-110301305D03*
X147483619Y-114451305D03*
X145333621Y-110301305D03*
X145333621Y-114451305D03*
%TD*%
D27*
%TO.C,R8*%
X155750000Y-112075000D03*
X155750000Y-110425000D03*
%TD*%
D28*
%TO.C,C8*%
X161477369Y-115634476D03*
X161477369Y-117184476D03*
%TD*%
D27*
%TO.C,R10*%
X160500000Y-111325000D03*
X160500000Y-109675000D03*
%TD*%
D29*
%TO.C,R1*%
X147006215Y-124972904D03*
X147006215Y-126622904D03*
%TD*%
D30*
%TO.C,J3*%
X164230000Y-70930000D03*
D31*
X164230000Y-73470000D03*
X164230000Y-76010000D03*
X164230000Y-78550000D03*
X164230000Y-81090000D03*
X164230000Y-83630000D03*
X164230000Y-86170000D03*
X164230000Y-88710000D03*
X164230000Y-91250000D03*
X164230000Y-93790000D03*
X164230000Y-96330000D03*
X164230000Y-98870000D03*
X164230000Y-101410000D03*
X164230000Y-103950000D03*
X164230000Y-106490000D03*
X164230000Y-109030000D03*
X164230000Y-111570000D03*
X164230000Y-114110000D03*
X164230000Y-116650000D03*
X164230000Y-119190000D03*
X164230000Y-121730000D03*
X164230000Y-124270000D03*
%TD*%
D29*
%TO.C,R3*%
X150000000Y-95925000D03*
X150000000Y-97575000D03*
%TD*%
D26*
%TO.C,SW2*%
X147500000Y-116100000D03*
X147500000Y-120250000D03*
X145350002Y-116100000D03*
X145350002Y-120250000D03*
%TD*%
D28*
%TO.C,C1*%
X159000000Y-106225000D03*
X159000000Y-107775000D03*
%TD*%
D32*
%TO.C,C2*%
X159050000Y-104500000D03*
X160950000Y-104500000D03*
%TD*%
D33*
%TO.C,R4*%
X151575000Y-91499999D03*
X149925000Y-91500001D03*
%TD*%
D29*
%TO.C,R9*%
X149492103Y-112931903D03*
X149492103Y-114581903D03*
%TD*%
D34*
%TO.C,U1*%
X154700001Y-117949998D03*
X154200002Y-118200000D03*
X155200000Y-118200000D03*
%TD*%
D35*
%TO.C,C7*%
X159975000Y-113750000D03*
X161525000Y-113750000D03*
%TD*%
D29*
%TO.C,R6*%
X144750000Y-90275000D03*
X144750000Y-91925000D03*
%TD*%
%TO.C,R7*%
X146250000Y-90275000D03*
X146250000Y-91925000D03*
%TD*%
D30*
%TO.C,J2*%
X141370000Y-70930000D03*
D31*
X141370000Y-73470000D03*
X141370000Y-76010000D03*
X141370000Y-78550000D03*
X141370000Y-81090000D03*
X141370000Y-83630000D03*
X141370000Y-86170000D03*
X141370000Y-88710000D03*
X141370000Y-91250000D03*
X141370000Y-93790000D03*
X141370000Y-96330000D03*
X141370000Y-98870000D03*
X141370000Y-101410000D03*
X141370000Y-103950000D03*
X141370000Y-106490000D03*
X141370000Y-109030000D03*
X141370000Y-111570000D03*
X141370000Y-114110000D03*
X141370000Y-116650000D03*
X141370000Y-119190000D03*
X141370000Y-121730000D03*
X141370000Y-124270000D03*
%TD*%
D36*
%TO.C,D2*%
X148441112Y-95949378D03*
X148441112Y-97524378D03*
%TD*%
D29*
%TO.C,R2*%
X160500000Y-122675000D03*
X160500000Y-124325000D03*
%TD*%
D37*
%TO.C,C4*%
X151563862Y-93015229D03*
X150013862Y-93015229D03*
%TD*%
M02*
