%TF.GenerationSoftware,KiCad,Pcbnew,10.0.4*%
%TF.CreationDate,2026-09-08T14:40:06-04:00*%
%TF.ProjectId,ESP32S3_RF_DevBoard,45535033-3253-4335-9f52-465f44657642,rev?*%
%TF.SameCoordinates,Original*%
%TF.FileFunction,Paste,Top*%
%TF.FilePolarity,Positive*%
%FSLAX46Y46*%
G04 Gerber Fmt 4.6, Leading zero omitted, Abs format (unit mm)*
G04 Created by KiCad (PCBNEW 10.0.4) date 2026-09-08 14:40:06*
%MOMM*%
%LPD*%
G01*
G04 APERTURE LIST*
G04 Aperture macros list*
%AMRoundRect*
0 Rectangle with rounded corners*
0 $1 Rounding radius*
0 $2 $3 $4 $5 $6 $7 $8 $9 X,Y pos of 4 corners*
0 Add a 4 corners polygon primitive as box body*
4,1,4,$2,$3,$4,$5,$6,$7,$8,$9,$2,$3,0*
0 Add four circle primitives for the rounded corners*
1,1,$1+$1,$2,$3*
1,1,$1+$1,$4,$5*
1,1,$1+$1,$6,$7*
1,1,$1+$1,$8,$9*
0 Add four rect primitives between the rounded corners*
20,1,$1+$1,$2,$3,$4,$5,0*
20,1,$1+$1,$4,$5,$6,$7,0*
20,1,$1+$1,$6,$7,$8,$9,0*
20,1,$1+$1,$8,$9,$2,$3,0*%
G04 Aperture macros list end*
%ADD10C,0.000000*%
%ADD11R,0.939000X2.477998*%
%ADD12R,5.562600X6.299200*%
%ADD13R,0.600000X1.100000*%
%ADD14R,0.660400X1.041400*%
%ADD15RoundRect,0.200000X0.275000X-0.200000X0.275000X0.200000X-0.275000X0.200000X-0.275000X-0.200000X0*%
%ADD16RoundRect,0.250000X-0.420000X-0.945000X0.420000X-0.945000X0.420000X0.945000X-0.420000X0.945000X0*%
%ADD17RoundRect,0.225000X-0.250000X0.225000X-0.250000X-0.225000X0.250000X-0.225000X0.250000X0.225000X0*%
%ADD18R,0.400000X0.480000*%
%ADD19RoundRect,0.200000X-0.275000X0.200000X-0.275000X-0.200000X0.275000X-0.200000X0.275000X0.200000X0*%
%ADD20RoundRect,0.250000X-0.250000X-0.475000X0.250000X-0.475000X0.250000X0.475000X-0.250000X0.475000X0*%
%ADD21RoundRect,0.200000X0.200000X0.275000X-0.200000X0.275000X-0.200000X-0.275000X0.200000X-0.275000X0*%
%ADD22R,0.600000X1.150000*%
%ADD23R,0.300000X1.150000*%
%ADD24R,0.900000X0.900000*%
%ADD25R,1.500000X0.900000*%
%ADD26R,0.900000X1.500000*%
%ADD27RoundRect,0.225000X-0.225000X-0.250000X0.225000X-0.250000X0.225000X0.250000X-0.225000X0.250000X0*%
%ADD28RoundRect,0.218750X-0.256250X0.218750X-0.256250X-0.218750X0.256250X-0.218750X0.256250X0.218750X0*%
%ADD29R,0.850000X0.600000*%
%ADD30RoundRect,0.225000X0.225000X0.250000X-0.225000X0.250000X-0.225000X-0.250000X0.225000X-0.250000X0*%
G04 APERTURE END LIST*
D10*
%TO.C,U1*%
G36*
X154264434Y-118095969D02*
G01*
X154273888Y-118098837D01*
X154282603Y-118103495D01*
X154290241Y-118109761D01*
X154296507Y-118117399D01*
X154301165Y-118126114D01*
X154304033Y-118135568D01*
X154305003Y-118145400D01*
X154305003Y-118254600D01*
X154304033Y-118264432D01*
X154301165Y-118273886D01*
X154296507Y-118282601D01*
X154290241Y-118290239D01*
X154282603Y-118296505D01*
X154273888Y-118301163D01*
X154264434Y-118304031D01*
X154254602Y-118304999D01*
X154145402Y-118304999D01*
X154135570Y-118304031D01*
X154126116Y-118301163D01*
X154117401Y-118296505D01*
X154109763Y-118290239D01*
X154103497Y-118282601D01*
X154098839Y-118273886D01*
X154095971Y-118264432D01*
X154095003Y-118254600D01*
X154095003Y-118145400D01*
X154095971Y-118135568D01*
X154098839Y-118126114D01*
X154103497Y-118117399D01*
X154109763Y-118109761D01*
X154117401Y-118103495D01*
X154126116Y-118098837D01*
X154135570Y-118095969D01*
X154145402Y-118094999D01*
X154254602Y-118094999D01*
X154264434Y-118095969D01*
G37*
G36*
X154764433Y-117845967D02*
G01*
X154773887Y-117848835D01*
X154782602Y-117853493D01*
X154790240Y-117859759D01*
X154796506Y-117867397D01*
X154801164Y-117876112D01*
X154804032Y-117885566D01*
X154805000Y-117895398D01*
X154805000Y-118004598D01*
X154804032Y-118014430D01*
X154801164Y-118023884D01*
X154796506Y-118032599D01*
X154790240Y-118040237D01*
X154782602Y-118046503D01*
X154773887Y-118051161D01*
X154764433Y-118054029D01*
X154754601Y-118054999D01*
X154645401Y-118054999D01*
X154635569Y-118054029D01*
X154626115Y-118051161D01*
X154617400Y-118046503D01*
X154609762Y-118040237D01*
X154603496Y-118032599D01*
X154598838Y-118023884D01*
X154595970Y-118014430D01*
X154595002Y-118004598D01*
X154595002Y-117895398D01*
X154595970Y-117885566D01*
X154598838Y-117876112D01*
X154603496Y-117867397D01*
X154609762Y-117859759D01*
X154617400Y-117853493D01*
X154626115Y-117848835D01*
X154635569Y-117845967D01*
X154645401Y-117844999D01*
X154754601Y-117844999D01*
X154764433Y-117845967D01*
G37*
G36*
X155264432Y-118095969D02*
G01*
X155273886Y-118098837D01*
X155282601Y-118103495D01*
X155290239Y-118109761D01*
X155296505Y-118117399D01*
X155301163Y-118126114D01*
X155304031Y-118135568D01*
X155304999Y-118145400D01*
X155304999Y-118254600D01*
X155304031Y-118264432D01*
X155301163Y-118273886D01*
X155296505Y-118282601D01*
X155290239Y-118290239D01*
X155282601Y-118296505D01*
X155273886Y-118301163D01*
X155264432Y-118304031D01*
X155254600Y-118304999D01*
X155145400Y-118304999D01*
X155135568Y-118304031D01*
X155126114Y-118301163D01*
X155117399Y-118296505D01*
X155109761Y-118290239D01*
X155103495Y-118282601D01*
X155098837Y-118273886D01*
X155095969Y-118264432D01*
X155094999Y-118254600D01*
X155094999Y-118145400D01*
X155095969Y-118135568D01*
X155098837Y-118126114D01*
X155103495Y-118117399D01*
X155109761Y-118109761D01*
X155117399Y-118103495D01*
X155126114Y-118098837D01*
X155135568Y-118095969D01*
X155145400Y-118094999D01*
X155254600Y-118094999D01*
X155264432Y-118095969D01*
G37*
%TD*%
D11*
%TO.C,U2*%
X152714000Y-106532000D03*
D12*
X155000000Y-98378600D03*
D11*
X157286000Y-106532000D03*
%TD*%
D13*
%TO.C,U4*%
X159200000Y-109700000D03*
X158250000Y-109700000D03*
X157300000Y-109700000D03*
X157300000Y-112300000D03*
X159200000Y-112300000D03*
%TD*%
D14*
%TO.C,SW1*%
X147483619Y-110301305D03*
X147483619Y-114451305D03*
X145333621Y-110301305D03*
X145333621Y-114451305D03*
%TD*%
D15*
%TO.C,R8*%
X155750000Y-112075000D03*
X155750000Y-110425000D03*
%TD*%
D16*
%TO.C,C3*%
X153460000Y-93000000D03*
X156540000Y-93000000D03*
%TD*%
D17*
%TO.C,C8*%
X161477369Y-115634476D03*
X161477369Y-117184476D03*
%TD*%
D18*
%TO.C,D1*%
X148500000Y-122340000D03*
X148500000Y-123660000D03*
%TD*%
D15*
%TO.C,R10*%
X160500000Y-111325000D03*
X160500000Y-109675000D03*
%TD*%
D19*
%TO.C,R1*%
X147006215Y-124972904D03*
X147006215Y-126622904D03*
%TD*%
%TO.C,R3*%
X150000000Y-95925000D03*
X150000000Y-97575000D03*
%TD*%
D14*
%TO.C,SW2*%
X147500000Y-116100000D03*
X147500000Y-120250000D03*
X145350002Y-116100000D03*
X145350002Y-120250000D03*
%TD*%
D17*
%TO.C,C1*%
X159000000Y-106225000D03*
X159000000Y-107775000D03*
%TD*%
D20*
%TO.C,C2*%
X159050000Y-104500000D03*
X160950000Y-104500000D03*
%TD*%
D21*
%TO.C,R4*%
X151575000Y-91499999D03*
X149925000Y-91500001D03*
%TD*%
D22*
%TO.C,J1*%
X151050000Y-119907500D03*
X151850000Y-119907500D03*
D23*
X153000000Y-119907500D03*
X154000000Y-119907500D03*
X154500000Y-119907500D03*
X155500000Y-119907500D03*
D22*
X157450000Y-119907500D03*
X156650000Y-119907500D03*
D23*
X156000000Y-119907500D03*
X155000000Y-119907500D03*
X153500000Y-119907500D03*
X152500000Y-119907500D03*
%TD*%
D19*
%TO.C,R9*%
X149492103Y-112931903D03*
X149492103Y-114581903D03*
%TD*%
D24*
%TO.C,U3*%
X149900000Y-75410000D03*
X149900000Y-76810000D03*
X149900000Y-78210000D03*
X151300000Y-75410000D03*
X151300000Y-76810000D03*
X151300000Y-78210000D03*
X152700000Y-75410000D03*
X152700000Y-76810000D03*
X152700000Y-78210000D03*
D25*
X144050000Y-69090000D03*
X144050000Y-70360000D03*
X144050000Y-71630000D03*
X144050000Y-72900000D03*
X144050000Y-74170000D03*
X144050000Y-75440000D03*
X144050000Y-76710000D03*
X144050000Y-77980000D03*
X144050000Y-79250000D03*
X144050000Y-80520000D03*
X144050000Y-81790000D03*
X144050000Y-83060000D03*
X144050000Y-84330000D03*
X144050000Y-85600000D03*
D26*
X145815000Y-86850000D03*
X147085000Y-86850000D03*
X148355000Y-86850000D03*
X149625000Y-86850000D03*
X150895000Y-86850000D03*
X152165000Y-86850000D03*
X153435000Y-86850000D03*
X154705000Y-86850000D03*
X155975000Y-86850000D03*
X157245000Y-86850000D03*
X158515000Y-86850000D03*
X159785000Y-86850000D03*
D25*
X161550000Y-85600000D03*
X161550000Y-84330000D03*
X161550000Y-83060000D03*
X161550000Y-81790000D03*
X161550000Y-80520000D03*
X161550000Y-79250000D03*
X161550000Y-77980000D03*
X161550000Y-76710000D03*
X161550000Y-75440000D03*
X161550000Y-74170000D03*
X161550000Y-72900000D03*
X161550000Y-71630000D03*
X161550000Y-70360000D03*
X161550000Y-69090000D03*
%TD*%
D27*
%TO.C,C7*%
X159975000Y-113750000D03*
X161525000Y-113750000D03*
%TD*%
D19*
%TO.C,R6*%
X144750000Y-90275000D03*
X144750000Y-91925000D03*
%TD*%
%TO.C,R7*%
X146250000Y-90275000D03*
X146250000Y-91925000D03*
%TD*%
D28*
%TO.C,D2*%
X148441112Y-95949378D03*
X148441112Y-97524378D03*
%TD*%
D29*
%TO.C,LED1*%
X158240000Y-114500000D03*
X158240000Y-113500000D03*
X156500000Y-113500000D03*
X156500000Y-114500000D03*
%TD*%
D19*
%TO.C,R2*%
X160500000Y-122675000D03*
X160500000Y-124325000D03*
%TD*%
D30*
%TO.C,C4*%
X151563862Y-93015229D03*
X150013862Y-93015229D03*
%TD*%
M02*
