%TF.GenerationSoftware,KiCad,Pcbnew,10.0.4*%
%TF.CreationDate,2026-09-03T17:10:01-04:00*%
%TF.ProjectId,ESP32S3_RF_DevBoard,45535033-3253-4335-9f52-465f44657642,rev?*%
%TF.SameCoordinates,Original*%
%TF.FileFunction,Copper,L2,Inr*%
%TF.FilePolarity,Positive*%
%FSLAX46Y46*%
G04 Gerber Fmt 4.6, Leading zero omitted, Abs format (unit mm)*
G04 Created by KiCad (PCBNEW 10.0.4) date 2026-09-03 17:10:01*
%MOMM*%
%LPD*%
G01*
G04 APERTURE LIST*
%TA.AperFunction,ComponentPad*%
%ADD10O,1.000000X2.100000*%
%TD*%
%TA.AperFunction,ComponentPad*%
%ADD11O,1.000000X1.800000*%
%TD*%
%TA.AperFunction,HeatsinkPad*%
%ADD12C,0.600000*%
%TD*%
%TA.AperFunction,ComponentPad*%
%ADD13R,1.700000X1.700000*%
%TD*%
%TA.AperFunction,ComponentPad*%
%ADD14C,1.700000*%
%TD*%
%TA.AperFunction,ViaPad*%
%ADD15C,0.600000*%
%TD*%
G04 APERTURE END LIST*
D10*
%TO.N,GND*%
%TO.C,J1*%
X149930000Y-120482500D03*
X158570000Y-120482500D03*
D11*
X149930000Y-124662500D03*
X158570000Y-124662500D03*
%TD*%
D12*
%TO.N,GND*%
%TO.C,U3*%
X149900000Y-76110000D03*
X149900000Y-77510000D03*
X150600000Y-75410000D03*
X150600000Y-76810000D03*
X150600000Y-78210000D03*
X151300000Y-76110000D03*
X151300000Y-77510000D03*
X152000000Y-75410000D03*
X152000000Y-76810000D03*
X152000000Y-78210000D03*
X152700000Y-76110000D03*
X152700000Y-77510000D03*
%TD*%
D13*
%TO.N,GND*%
%TO.C,J3*%
X164230000Y-70930000D03*
D14*
%TO.N,/GPIO1*%
X164230000Y-73470000D03*
%TO.N,/GPIO2*%
X164230000Y-76010000D03*
%TO.N,/TX*%
X164230000Y-78550000D03*
%TO.N,/RX*%
X164230000Y-81090000D03*
%TO.N,/GPIO42*%
X164230000Y-83630000D03*
%TO.N,/GPIO41*%
X164230000Y-86170000D03*
%TO.N,/GPIO40*%
X164230000Y-88710000D03*
%TO.N,/GPIO39*%
X164230000Y-91250000D03*
%TO.N,/GPIO37*%
X164230000Y-93790000D03*
%TO.N,/GPIO38*%
X164230000Y-96330000D03*
%TO.N,/GPIO36*%
X164230000Y-98870000D03*
%TO.N,/GPIO35*%
X164230000Y-101410000D03*
%TO.N,/GPIO0*%
X164230000Y-103950000D03*
%TO.N,/GPIO45*%
X164230000Y-106490000D03*
%TO.N,/GPIO48*%
X164230000Y-109030000D03*
%TO.N,/GPIO47*%
X164230000Y-111570000D03*
%TO.N,/GPIO21*%
X164230000Y-114110000D03*
%TO.N,unconnected-(J3-Pin_19-Pad19)*%
X164230000Y-116650000D03*
%TO.N,unconnected-(J3-Pin_20-Pad20)*%
X164230000Y-119190000D03*
%TO.N,GND*%
X164230000Y-121730000D03*
X164230000Y-124270000D03*
%TD*%
D13*
%TO.N,/+3V3*%
%TO.C,J2*%
X141370000Y-70930000D03*
D14*
X141370000Y-73470000D03*
%TO.N,/GPIO4*%
X141370000Y-76010000D03*
%TO.N,/CHIP_PU*%
X141370000Y-78550000D03*
%TO.N,/GPIO5*%
X141370000Y-81090000D03*
%TO.N,/GPIO6*%
X141370000Y-83630000D03*
%TO.N,/GPIO7*%
X141370000Y-86170000D03*
%TO.N,/GPIO15*%
X141370000Y-88710000D03*
%TO.N,/GPIO16*%
X141370000Y-91250000D03*
%TO.N,/GPIO17*%
X141370000Y-93790000D03*
%TO.N,/GPIO18*%
X141370000Y-96330000D03*
%TO.N,/GPIO8*%
X141370000Y-98870000D03*
%TO.N,/GPIO3*%
X141370000Y-101410000D03*
%TO.N,/GPIO46*%
X141370000Y-103950000D03*
%TO.N,/GPIO9*%
X141370000Y-106490000D03*
%TO.N,/GPIO10*%
X141370000Y-109030000D03*
%TO.N,/GPIO11*%
X141370000Y-111570000D03*
%TO.N,/GPIO12*%
X141370000Y-114110000D03*
%TO.N,/GPIO13*%
X141370000Y-116650000D03*
%TO.N,/GPIO14*%
X141370000Y-119190000D03*
%TO.N,/+5V_USB*%
X141370000Y-121730000D03*
%TO.N,GND*%
X141370000Y-124270000D03*
%TD*%
D15*
%TO.N,GND*%
X148500000Y-124750000D03*
X156750000Y-109750000D03*
X160500000Y-108750000D03*
X151750000Y-70750000D03*
X145500000Y-68500000D03*
X161477369Y-118000000D03*
X145250000Y-117000000D03*
X157314998Y-114500000D03*
X146000000Y-126550000D03*
X146291889Y-78670284D03*
X148450000Y-94800000D03*
X152714000Y-108250000D03*
X145250000Y-113500000D03*
X160250000Y-69000000D03*
X158875000Y-94625000D03*
X149668097Y-93900000D03*
X144500000Y-120500000D03*
X160116823Y-107833782D03*
X157500000Y-93000000D03*
X144500000Y-110301305D03*
X154700001Y-117349998D03*
X154059474Y-122070330D03*
X160954263Y-103120106D03*
X161842904Y-112796091D03*
X160450000Y-125450000D03*
%TO.N,/+3V3*%
X151750000Y-94250000D03*
X149225000Y-69500000D03*
%TO.N,/+5V_USB*%
X152200000Y-118650000D03*
X156450000Y-118700000D03*
%TO.N,/CHIP_PU*%
X145325000Y-72675000D03*
X148250000Y-91000000D03*
X146300000Y-115250000D03*
%TO.N,/GPIO38*%
X159500000Y-100500000D03*
X157500000Y-108649998D03*
%TO.N,/GPIO0*%
X160500000Y-85500000D03*
X151500000Y-111500000D03*
X160250000Y-101750000D03*
%TO.N,/GPIO42*%
X160250000Y-75440000D03*
%TO.N,/GPIO41*%
X160540000Y-76710000D03*
%TO.N,/GPIO39*%
X160500000Y-79250000D03*
%TO.N,/GPIO37*%
X160300000Y-81750000D03*
%TO.N,/GPIO36*%
X160560000Y-83060000D03*
%TO.N,/GPIO35*%
X160500000Y-84250000D03*
%TO.N,/GPIO45*%
X160800000Y-88250000D03*
%TO.N,/GPIO48*%
X159000000Y-88250000D03*
%TO.N,/GPIO47*%
X157750000Y-88250000D03*
%TO.N,/GPIO21*%
X156375000Y-88375000D03*
%TO.N,/ESP_3V3*%
X146250000Y-71250000D03*
X150418097Y-114581903D03*
X151500000Y-90500000D03*
%TO.N,/USB_D-*%
X153600001Y-121400000D03*
X154500000Y-121400000D03*
%TO.N,/GPIO7*%
X145000000Y-76750000D03*
%TO.N,/GPIO15*%
X145000000Y-77980000D03*
%TO.N,/GPIO16*%
X145000000Y-79250000D03*
%TO.N,/GPIO17*%
X145230000Y-80520000D03*
%TO.N,/GPIO18*%
X145250000Y-81750000D03*
%TO.N,/GPIO8*%
X145250000Y-83000000D03*
%TO.N,/GPIO3*%
X145800000Y-85500000D03*
%TO.N,/GPIO46*%
X147250000Y-85550000D03*
%TO.N,/GPIO9*%
X148250000Y-88000000D03*
%TO.N,/GPIO10*%
X148806737Y-85348791D03*
%TO.N,/GPIO11*%
X150500000Y-88250000D03*
%TO.N,/GPIO12*%
X152000000Y-88250000D03*
%TO.N,/GPIO13*%
X153250000Y-88250000D03*
%TO.N,/GPIO14*%
X154691131Y-88058869D03*
%TD*%
%TA.AperFunction,Conductor*%
%TO.N,GND*%
G36*
X165142539Y-67920185D02*
G01*
X165188294Y-67972989D01*
X165199500Y-68024500D01*
X165199500Y-69456000D01*
X165179815Y-69523039D01*
X165127011Y-69568794D01*
X165075500Y-69580000D01*
X164480000Y-69580000D01*
X164480000Y-70496988D01*
X164422993Y-70464075D01*
X164295826Y-70430000D01*
X164164174Y-70430000D01*
X164037007Y-70464075D01*
X163980000Y-70496988D01*
X163980000Y-69580000D01*
X163332155Y-69580000D01*
X163272627Y-69586401D01*
X163272620Y-69586403D01*
X163137913Y-69636645D01*
X163137906Y-69636649D01*
X163022812Y-69722809D01*
X163022809Y-69722812D01*
X162936649Y-69837906D01*
X162936645Y-69837913D01*
X162886403Y-69972620D01*
X162886401Y-69972627D01*
X162880000Y-70032155D01*
X162880000Y-70680000D01*
X163796988Y-70680000D01*
X163764075Y-70737007D01*
X163730000Y-70864174D01*
X163730000Y-70995826D01*
X163764075Y-71122993D01*
X163796988Y-71180000D01*
X162880000Y-71180000D01*
X162880000Y-71827827D01*
X162880001Y-71827843D01*
X162886401Y-71887372D01*
X162886403Y-71887379D01*
X162936645Y-72022086D01*
X162936649Y-72022093D01*
X163022809Y-72137187D01*
X163022812Y-72137190D01*
X163137906Y-72223350D01*
X163137913Y-72223354D01*
X163272620Y-72273596D01*
X163272627Y-72273598D01*
X163332155Y-72279999D01*
X163332172Y-72280000D01*
X163734435Y-72280000D01*
X163801474Y-72299685D01*
X163847229Y-72352489D01*
X163857173Y-72421647D01*
X163828148Y-72485203D01*
X163781888Y-72518561D01*
X163732403Y-72539058D01*
X163560342Y-72654024D01*
X163414024Y-72800342D01*
X163299058Y-72972403D01*
X163219870Y-73163579D01*
X163219868Y-73163587D01*
X163179500Y-73366530D01*
X163179500Y-73573469D01*
X163219868Y-73776412D01*
X163219870Y-73776420D01*
X163299058Y-73967596D01*
X163414024Y-74139657D01*
X163560342Y-74285975D01*
X163560345Y-74285977D01*
X163732402Y-74400941D01*
X163923580Y-74480130D01*
X164126530Y-74520499D01*
X164126534Y-74520500D01*
X164126535Y-74520500D01*
X164333466Y-74520500D01*
X164333467Y-74520499D01*
X164536420Y-74480130D01*
X164727598Y-74400941D01*
X164899655Y-74285977D01*
X164908983Y-74276649D01*
X164987819Y-74197814D01*
X165049142Y-74164329D01*
X165118834Y-74169313D01*
X165174767Y-74211185D01*
X165199184Y-74276649D01*
X165199500Y-74285495D01*
X165199500Y-75194505D01*
X165179815Y-75261544D01*
X165127011Y-75307299D01*
X165057853Y-75317243D01*
X164994297Y-75288218D01*
X164987819Y-75282186D01*
X164899657Y-75194024D01*
X164807853Y-75132683D01*
X164727598Y-75079059D01*
X164536420Y-74999870D01*
X164536412Y-74999868D01*
X164333469Y-74959500D01*
X164333465Y-74959500D01*
X164126535Y-74959500D01*
X164126530Y-74959500D01*
X163923587Y-74999868D01*
X163923579Y-74999870D01*
X163732403Y-75079058D01*
X163560342Y-75194024D01*
X163414024Y-75340342D01*
X163299058Y-75512403D01*
X163219870Y-75703579D01*
X163219868Y-75703587D01*
X163179500Y-75906530D01*
X163179500Y-76113469D01*
X163219868Y-76316412D01*
X163219870Y-76316420D01*
X163299058Y-76507596D01*
X163414024Y-76679657D01*
X163560342Y-76825975D01*
X163560345Y-76825977D01*
X163732402Y-76940941D01*
X163923580Y-77020130D01*
X164110513Y-77057313D01*
X164126530Y-77060499D01*
X164126534Y-77060500D01*
X164126535Y-77060500D01*
X164333466Y-77060500D01*
X164333467Y-77060499D01*
X164536420Y-77020130D01*
X164727598Y-76940941D01*
X164899655Y-76825977D01*
X164909742Y-76815890D01*
X164987819Y-76737814D01*
X165049142Y-76704329D01*
X165118834Y-76709313D01*
X165174767Y-76751185D01*
X165199184Y-76816649D01*
X165199500Y-76825495D01*
X165199500Y-77734505D01*
X165179815Y-77801544D01*
X165127011Y-77847299D01*
X165057853Y-77857243D01*
X164994297Y-77828218D01*
X164987819Y-77822186D01*
X164899657Y-77734024D01*
X164807853Y-77672683D01*
X164727598Y-77619059D01*
X164536420Y-77539870D01*
X164536412Y-77539868D01*
X164333469Y-77499500D01*
X164333465Y-77499500D01*
X164126535Y-77499500D01*
X164126530Y-77499500D01*
X163923587Y-77539868D01*
X163923579Y-77539870D01*
X163732403Y-77619058D01*
X163560342Y-77734024D01*
X163414024Y-77880342D01*
X163299058Y-78052403D01*
X163219870Y-78243579D01*
X163219868Y-78243587D01*
X163179500Y-78446530D01*
X163179500Y-78653469D01*
X163219868Y-78856412D01*
X163219870Y-78856420D01*
X163299058Y-79047596D01*
X163414024Y-79219657D01*
X163560342Y-79365975D01*
X163560345Y-79365977D01*
X163732402Y-79480941D01*
X163923580Y-79560130D01*
X164126530Y-79600499D01*
X164126534Y-79600500D01*
X164126535Y-79600500D01*
X164333466Y-79600500D01*
X164333467Y-79600499D01*
X164536420Y-79560130D01*
X164727598Y-79480941D01*
X164899655Y-79365977D01*
X164908983Y-79356649D01*
X164987819Y-79277814D01*
X165049142Y-79244329D01*
X165118834Y-79249313D01*
X165174767Y-79291185D01*
X165199184Y-79356649D01*
X165199500Y-79365495D01*
X165199500Y-80274505D01*
X165179815Y-80341544D01*
X165127011Y-80387299D01*
X165057853Y-80397243D01*
X164994297Y-80368218D01*
X164987819Y-80362186D01*
X164899657Y-80274024D01*
X164807853Y-80212683D01*
X164727598Y-80159059D01*
X164536420Y-80079870D01*
X164536412Y-80079868D01*
X164333469Y-80039500D01*
X164333465Y-80039500D01*
X164126535Y-80039500D01*
X164126530Y-80039500D01*
X163923587Y-80079868D01*
X163923579Y-80079870D01*
X163732403Y-80159058D01*
X163560342Y-80274024D01*
X163414024Y-80420342D01*
X163299058Y-80592403D01*
X163219870Y-80783579D01*
X163219868Y-80783587D01*
X163179500Y-80986530D01*
X163179500Y-81193469D01*
X163219868Y-81396412D01*
X163219870Y-81396420D01*
X163299058Y-81587596D01*
X163414024Y-81759657D01*
X163560342Y-81905975D01*
X163560345Y-81905977D01*
X163732402Y-82020941D01*
X163923580Y-82100130D01*
X164126530Y-82140499D01*
X164126534Y-82140500D01*
X164126535Y-82140500D01*
X164333466Y-82140500D01*
X164333467Y-82140499D01*
X164536420Y-82100130D01*
X164727598Y-82020941D01*
X164899655Y-81905977D01*
X164908983Y-81896649D01*
X164987819Y-81817814D01*
X165049142Y-81784329D01*
X165118834Y-81789313D01*
X165174767Y-81831185D01*
X165199184Y-81896649D01*
X165199500Y-81905495D01*
X165199500Y-82814505D01*
X165179815Y-82881544D01*
X165127011Y-82927299D01*
X165057853Y-82937243D01*
X164994297Y-82908218D01*
X164987819Y-82902186D01*
X164899657Y-82814024D01*
X164807853Y-82752683D01*
X164727598Y-82699059D01*
X164712212Y-82692686D01*
X164536420Y-82619870D01*
X164536412Y-82619868D01*
X164333469Y-82579500D01*
X164333465Y-82579500D01*
X164126535Y-82579500D01*
X164126530Y-82579500D01*
X163923587Y-82619868D01*
X163923579Y-82619870D01*
X163732403Y-82699058D01*
X163560342Y-82814024D01*
X163414024Y-82960342D01*
X163299058Y-83132403D01*
X163219870Y-83323579D01*
X163219868Y-83323587D01*
X163179500Y-83526530D01*
X163179500Y-83733469D01*
X163219868Y-83936412D01*
X163219870Y-83936420D01*
X163299058Y-84127596D01*
X163414024Y-84299657D01*
X163560342Y-84445975D01*
X163560345Y-84445977D01*
X163732402Y-84560941D01*
X163923580Y-84640130D01*
X164126530Y-84680499D01*
X164126534Y-84680500D01*
X164126535Y-84680500D01*
X164333466Y-84680500D01*
X164333467Y-84680499D01*
X164536420Y-84640130D01*
X164727598Y-84560941D01*
X164899655Y-84445977D01*
X164908983Y-84436649D01*
X164987819Y-84357814D01*
X165049142Y-84324329D01*
X165118834Y-84329313D01*
X165174767Y-84371185D01*
X165199184Y-84436649D01*
X165199500Y-84445495D01*
X165199500Y-85354505D01*
X165179815Y-85421544D01*
X165127011Y-85467299D01*
X165057853Y-85477243D01*
X164994297Y-85448218D01*
X164987819Y-85442186D01*
X164899657Y-85354024D01*
X164793210Y-85282899D01*
X164727598Y-85239059D01*
X164615644Y-85192686D01*
X164536420Y-85159870D01*
X164536412Y-85159868D01*
X164333469Y-85119500D01*
X164333465Y-85119500D01*
X164126535Y-85119500D01*
X164126530Y-85119500D01*
X163923587Y-85159868D01*
X163923579Y-85159870D01*
X163732403Y-85239058D01*
X163560342Y-85354024D01*
X163414024Y-85500342D01*
X163299058Y-85672403D01*
X163219870Y-85863579D01*
X163219868Y-85863587D01*
X163179500Y-86066530D01*
X163179500Y-86273469D01*
X163219868Y-86476412D01*
X163219870Y-86476420D01*
X163299058Y-86667596D01*
X163414024Y-86839657D01*
X163560342Y-86985975D01*
X163560345Y-86985977D01*
X163732402Y-87100941D01*
X163923580Y-87180130D01*
X164126530Y-87220499D01*
X164126534Y-87220500D01*
X164126535Y-87220500D01*
X164333466Y-87220500D01*
X164333467Y-87220499D01*
X164536420Y-87180130D01*
X164727598Y-87100941D01*
X164899655Y-86985977D01*
X164908983Y-86976649D01*
X164987819Y-86897814D01*
X165049142Y-86864329D01*
X165118834Y-86869313D01*
X165174767Y-86911185D01*
X165199184Y-86976649D01*
X165199500Y-86985495D01*
X165199500Y-87894505D01*
X165179815Y-87961544D01*
X165127011Y-88007299D01*
X165057853Y-88017243D01*
X164994297Y-87988218D01*
X164987819Y-87982186D01*
X164899657Y-87894024D01*
X164813626Y-87836541D01*
X164727598Y-87779059D01*
X164536420Y-87699870D01*
X164536412Y-87699868D01*
X164333469Y-87659500D01*
X164333465Y-87659500D01*
X164126535Y-87659500D01*
X164126530Y-87659500D01*
X163923587Y-87699868D01*
X163923579Y-87699870D01*
X163732403Y-87779058D01*
X163560342Y-87894024D01*
X163414024Y-88040342D01*
X163299058Y-88212403D01*
X163219870Y-88403579D01*
X163219868Y-88403587D01*
X163179500Y-88606530D01*
X163179500Y-88813469D01*
X163219868Y-89016412D01*
X163219870Y-89016420D01*
X163299058Y-89207596D01*
X163414024Y-89379657D01*
X163560342Y-89525975D01*
X163560345Y-89525977D01*
X163732402Y-89640941D01*
X163923580Y-89720130D01*
X164126530Y-89760499D01*
X164126534Y-89760500D01*
X164126535Y-89760500D01*
X164333466Y-89760500D01*
X164333467Y-89760499D01*
X164536420Y-89720130D01*
X164727598Y-89640941D01*
X164899655Y-89525977D01*
X164908983Y-89516649D01*
X164987819Y-89437814D01*
X165049142Y-89404329D01*
X165118834Y-89409313D01*
X165174767Y-89451185D01*
X165199184Y-89516649D01*
X165199500Y-89525495D01*
X165199500Y-90434505D01*
X165179815Y-90501544D01*
X165127011Y-90547299D01*
X165057853Y-90557243D01*
X164994297Y-90528218D01*
X164987819Y-90522186D01*
X164899657Y-90434024D01*
X164813626Y-90376541D01*
X164727598Y-90319059D01*
X164698031Y-90306812D01*
X164536420Y-90239870D01*
X164536412Y-90239868D01*
X164333469Y-90199500D01*
X164333465Y-90199500D01*
X164126535Y-90199500D01*
X164126530Y-90199500D01*
X163923587Y-90239868D01*
X163923579Y-90239870D01*
X163732403Y-90319058D01*
X163560342Y-90434024D01*
X163414024Y-90580342D01*
X163299058Y-90752403D01*
X163219870Y-90943579D01*
X163219868Y-90943587D01*
X163179500Y-91146530D01*
X163179500Y-91353469D01*
X163219868Y-91556412D01*
X163219870Y-91556420D01*
X163299058Y-91747596D01*
X163414024Y-91919657D01*
X163560342Y-92065975D01*
X163560345Y-92065977D01*
X163732402Y-92180941D01*
X163923580Y-92260130D01*
X164126530Y-92300499D01*
X164126534Y-92300500D01*
X164126535Y-92300500D01*
X164333466Y-92300500D01*
X164333467Y-92300499D01*
X164536420Y-92260130D01*
X164727598Y-92180941D01*
X164899655Y-92065977D01*
X164908983Y-92056649D01*
X164987819Y-91977814D01*
X165049142Y-91944329D01*
X165118834Y-91949313D01*
X165174767Y-91991185D01*
X165199184Y-92056649D01*
X165199500Y-92065495D01*
X165199500Y-92974505D01*
X165179815Y-93041544D01*
X165127011Y-93087299D01*
X165057853Y-93097243D01*
X164994297Y-93068218D01*
X164987819Y-93062186D01*
X164899657Y-92974024D01*
X164813626Y-92916541D01*
X164727598Y-92859059D01*
X164536420Y-92779870D01*
X164536412Y-92779868D01*
X164333469Y-92739500D01*
X164333465Y-92739500D01*
X164126535Y-92739500D01*
X164126530Y-92739500D01*
X163923587Y-92779868D01*
X163923579Y-92779870D01*
X163732403Y-92859058D01*
X163560342Y-92974024D01*
X163414024Y-93120342D01*
X163299058Y-93292403D01*
X163219870Y-93483579D01*
X163219868Y-93483587D01*
X163179500Y-93686530D01*
X163179500Y-93893469D01*
X163219868Y-94096412D01*
X163219870Y-94096420D01*
X163299059Y-94287598D01*
X163356541Y-94373626D01*
X163414024Y-94459657D01*
X163560342Y-94605975D01*
X163560345Y-94605977D01*
X163732402Y-94720941D01*
X163923580Y-94800130D01*
X164126530Y-94840499D01*
X164126534Y-94840500D01*
X164126535Y-94840500D01*
X164333466Y-94840500D01*
X164333467Y-94840499D01*
X164536420Y-94800130D01*
X164727598Y-94720941D01*
X164899655Y-94605977D01*
X164908983Y-94596649D01*
X164987819Y-94517814D01*
X165049142Y-94484329D01*
X165118834Y-94489313D01*
X165174767Y-94531185D01*
X165199184Y-94596649D01*
X165199500Y-94605495D01*
X165199500Y-95514505D01*
X165179815Y-95581544D01*
X165127011Y-95627299D01*
X165057853Y-95637243D01*
X164994297Y-95608218D01*
X164987819Y-95602186D01*
X164899657Y-95514024D01*
X164813626Y-95456541D01*
X164727598Y-95399059D01*
X164536420Y-95319870D01*
X164536412Y-95319868D01*
X164333469Y-95279500D01*
X164333465Y-95279500D01*
X164126535Y-95279500D01*
X164126530Y-95279500D01*
X163923587Y-95319868D01*
X163923579Y-95319870D01*
X163732403Y-95399058D01*
X163560342Y-95514024D01*
X163414024Y-95660342D01*
X163299058Y-95832403D01*
X163219870Y-96023579D01*
X163219868Y-96023587D01*
X163179500Y-96226530D01*
X163179500Y-96433469D01*
X163219868Y-96636412D01*
X163219870Y-96636420D01*
X163299058Y-96827596D01*
X163414024Y-96999657D01*
X163560342Y-97145975D01*
X163560345Y-97145977D01*
X163732402Y-97260941D01*
X163923580Y-97340130D01*
X164126530Y-97380499D01*
X164126534Y-97380500D01*
X164126535Y-97380500D01*
X164333466Y-97380500D01*
X164333467Y-97380499D01*
X164536420Y-97340130D01*
X164727598Y-97260941D01*
X164899655Y-97145977D01*
X164908983Y-97136649D01*
X164987819Y-97057814D01*
X165049142Y-97024329D01*
X165118834Y-97029313D01*
X165174767Y-97071185D01*
X165199184Y-97136649D01*
X165199500Y-97145495D01*
X165199500Y-98054505D01*
X165179815Y-98121544D01*
X165127011Y-98167299D01*
X165057853Y-98177243D01*
X164994297Y-98148218D01*
X164987819Y-98142186D01*
X164899657Y-98054024D01*
X164813626Y-97996541D01*
X164727598Y-97939059D01*
X164536420Y-97859870D01*
X164536412Y-97859868D01*
X164333469Y-97819500D01*
X164333465Y-97819500D01*
X164126535Y-97819500D01*
X164126530Y-97819500D01*
X163923587Y-97859868D01*
X163923579Y-97859870D01*
X163732403Y-97939058D01*
X163560342Y-98054024D01*
X163414024Y-98200342D01*
X163299058Y-98372403D01*
X163219870Y-98563579D01*
X163219868Y-98563587D01*
X163179500Y-98766530D01*
X163179500Y-98973469D01*
X163219868Y-99176412D01*
X163219870Y-99176420D01*
X163299058Y-99367596D01*
X163414024Y-99539657D01*
X163560342Y-99685975D01*
X163560345Y-99685977D01*
X163732402Y-99800941D01*
X163923580Y-99880130D01*
X164126530Y-99920499D01*
X164126534Y-99920500D01*
X164126535Y-99920500D01*
X164333466Y-99920500D01*
X164333467Y-99920499D01*
X164536420Y-99880130D01*
X164727598Y-99800941D01*
X164899655Y-99685977D01*
X164908983Y-99676649D01*
X164987819Y-99597814D01*
X165049142Y-99564329D01*
X165118834Y-99569313D01*
X165174767Y-99611185D01*
X165199184Y-99676649D01*
X165199500Y-99685495D01*
X165199500Y-100594505D01*
X165179815Y-100661544D01*
X165127011Y-100707299D01*
X165057853Y-100717243D01*
X164994297Y-100688218D01*
X164987819Y-100682186D01*
X164899657Y-100594024D01*
X164802466Y-100529084D01*
X164727598Y-100479059D01*
X164619077Y-100434108D01*
X164536420Y-100399870D01*
X164536412Y-100399868D01*
X164333469Y-100359500D01*
X164333465Y-100359500D01*
X164126535Y-100359500D01*
X164126530Y-100359500D01*
X163923587Y-100399868D01*
X163923579Y-100399870D01*
X163732403Y-100479058D01*
X163560342Y-100594024D01*
X163414024Y-100740342D01*
X163299058Y-100912403D01*
X163219870Y-101103579D01*
X163219868Y-101103587D01*
X163179500Y-101306530D01*
X163179500Y-101513469D01*
X163219868Y-101716412D01*
X163219870Y-101716420D01*
X163299058Y-101907596D01*
X163414024Y-102079657D01*
X163560342Y-102225975D01*
X163560345Y-102225977D01*
X163732402Y-102340941D01*
X163923580Y-102420130D01*
X164126530Y-102460499D01*
X164126534Y-102460500D01*
X164126535Y-102460500D01*
X164333466Y-102460500D01*
X164333467Y-102460499D01*
X164536420Y-102420130D01*
X164727598Y-102340941D01*
X164899655Y-102225977D01*
X164909241Y-102216391D01*
X164987819Y-102137814D01*
X165049142Y-102104329D01*
X165118834Y-102109313D01*
X165174767Y-102151185D01*
X165199184Y-102216649D01*
X165199500Y-102225495D01*
X165199500Y-103134505D01*
X165179815Y-103201544D01*
X165127011Y-103247299D01*
X165057853Y-103257243D01*
X164994297Y-103228218D01*
X164987819Y-103222186D01*
X164899657Y-103134024D01*
X164813626Y-103076541D01*
X164727598Y-103019059D01*
X164536420Y-102939870D01*
X164536412Y-102939868D01*
X164333469Y-102899500D01*
X164333465Y-102899500D01*
X164126535Y-102899500D01*
X164126530Y-102899500D01*
X163923587Y-102939868D01*
X163923579Y-102939870D01*
X163732403Y-103019058D01*
X163560342Y-103134024D01*
X163414024Y-103280342D01*
X163299058Y-103452403D01*
X163219870Y-103643579D01*
X163219868Y-103643587D01*
X163179500Y-103846530D01*
X163179500Y-104053469D01*
X163219868Y-104256412D01*
X163219870Y-104256420D01*
X163299058Y-104447596D01*
X163414024Y-104619657D01*
X163560342Y-104765975D01*
X163560345Y-104765977D01*
X163732402Y-104880941D01*
X163923580Y-104960130D01*
X164126530Y-105000499D01*
X164126534Y-105000500D01*
X164126535Y-105000500D01*
X164333466Y-105000500D01*
X164333467Y-105000499D01*
X164536420Y-104960130D01*
X164727598Y-104880941D01*
X164899655Y-104765977D01*
X164908983Y-104756649D01*
X164987819Y-104677814D01*
X165049142Y-104644329D01*
X165118834Y-104649313D01*
X165174767Y-104691185D01*
X165199184Y-104756649D01*
X165199500Y-104765495D01*
X165199500Y-105674505D01*
X165179815Y-105741544D01*
X165127011Y-105787299D01*
X165057853Y-105797243D01*
X164994297Y-105768218D01*
X164987819Y-105762186D01*
X164899657Y-105674024D01*
X164813626Y-105616541D01*
X164727598Y-105559059D01*
X164536420Y-105479870D01*
X164536412Y-105479868D01*
X164333469Y-105439500D01*
X164333465Y-105439500D01*
X164126535Y-105439500D01*
X164126530Y-105439500D01*
X163923587Y-105479868D01*
X163923579Y-105479870D01*
X163732403Y-105559058D01*
X163560342Y-105674024D01*
X163414024Y-105820342D01*
X163299058Y-105992403D01*
X163219870Y-106183579D01*
X163219868Y-106183587D01*
X163179500Y-106386530D01*
X163179500Y-106593469D01*
X163219868Y-106796412D01*
X163219870Y-106796420D01*
X163299058Y-106987596D01*
X163414024Y-107159657D01*
X163560342Y-107305975D01*
X163560345Y-107305977D01*
X163732402Y-107420941D01*
X163923580Y-107500130D01*
X164126530Y-107540499D01*
X164126534Y-107540500D01*
X164126535Y-107540500D01*
X164333466Y-107540500D01*
X164333467Y-107540499D01*
X164536420Y-107500130D01*
X164727598Y-107420941D01*
X164899655Y-107305977D01*
X164908983Y-107296649D01*
X164987819Y-107217814D01*
X165049142Y-107184329D01*
X165118834Y-107189313D01*
X165174767Y-107231185D01*
X165199184Y-107296649D01*
X165199500Y-107305495D01*
X165199500Y-108214505D01*
X165179815Y-108281544D01*
X165127011Y-108327299D01*
X165057853Y-108337243D01*
X164994297Y-108308218D01*
X164987819Y-108302186D01*
X164899657Y-108214024D01*
X164803086Y-108149498D01*
X164727598Y-108099059D01*
X164536420Y-108019870D01*
X164536412Y-108019868D01*
X164333469Y-107979500D01*
X164333465Y-107979500D01*
X164126535Y-107979500D01*
X164126530Y-107979500D01*
X163923587Y-108019868D01*
X163923579Y-108019870D01*
X163732403Y-108099058D01*
X163560342Y-108214024D01*
X163414024Y-108360342D01*
X163299058Y-108532403D01*
X163219870Y-108723579D01*
X163219868Y-108723587D01*
X163179500Y-108926530D01*
X163179500Y-109133469D01*
X163219868Y-109336412D01*
X163219870Y-109336420D01*
X163299058Y-109527596D01*
X163414024Y-109699657D01*
X163560342Y-109845975D01*
X163560345Y-109845977D01*
X163732402Y-109960941D01*
X163923580Y-110040130D01*
X164126530Y-110080499D01*
X164126534Y-110080500D01*
X164126535Y-110080500D01*
X164333466Y-110080500D01*
X164333467Y-110080499D01*
X164536420Y-110040130D01*
X164727598Y-109960941D01*
X164899655Y-109845977D01*
X164908983Y-109836649D01*
X164987819Y-109757814D01*
X165049142Y-109724329D01*
X165118834Y-109729313D01*
X165174767Y-109771185D01*
X165199184Y-109836649D01*
X165199500Y-109845495D01*
X165199500Y-110754505D01*
X165179815Y-110821544D01*
X165127011Y-110867299D01*
X165057853Y-110877243D01*
X164994297Y-110848218D01*
X164987819Y-110842186D01*
X164899657Y-110754024D01*
X164813626Y-110696541D01*
X164727598Y-110639059D01*
X164536420Y-110559870D01*
X164536412Y-110559868D01*
X164333469Y-110519500D01*
X164333465Y-110519500D01*
X164126535Y-110519500D01*
X164126530Y-110519500D01*
X163923587Y-110559868D01*
X163923579Y-110559870D01*
X163732403Y-110639058D01*
X163560342Y-110754024D01*
X163414024Y-110900342D01*
X163299058Y-111072403D01*
X163219870Y-111263579D01*
X163219868Y-111263587D01*
X163179500Y-111466530D01*
X163179500Y-111673469D01*
X163219868Y-111876412D01*
X163219870Y-111876420D01*
X163299058Y-112067596D01*
X163414024Y-112239657D01*
X163560342Y-112385975D01*
X163560345Y-112385977D01*
X163732402Y-112500941D01*
X163923580Y-112580130D01*
X164126530Y-112620499D01*
X164126534Y-112620500D01*
X164126535Y-112620500D01*
X164333466Y-112620500D01*
X164333467Y-112620499D01*
X164536420Y-112580130D01*
X164727598Y-112500941D01*
X164899655Y-112385977D01*
X164908983Y-112376649D01*
X164987819Y-112297814D01*
X165049142Y-112264329D01*
X165118834Y-112269313D01*
X165174767Y-112311185D01*
X165199184Y-112376649D01*
X165199500Y-112385495D01*
X165199500Y-113294505D01*
X165179815Y-113361544D01*
X165127011Y-113407299D01*
X165057853Y-113417243D01*
X164994297Y-113388218D01*
X164987819Y-113382186D01*
X164899657Y-113294024D01*
X164813626Y-113236541D01*
X164727598Y-113179059D01*
X164536420Y-113099870D01*
X164536412Y-113099868D01*
X164333469Y-113059500D01*
X164333465Y-113059500D01*
X164126535Y-113059500D01*
X164126530Y-113059500D01*
X163923587Y-113099868D01*
X163923579Y-113099870D01*
X163732403Y-113179058D01*
X163560342Y-113294024D01*
X163414024Y-113440342D01*
X163299058Y-113612403D01*
X163219870Y-113803579D01*
X163219868Y-113803587D01*
X163179500Y-114006530D01*
X163179500Y-114213469D01*
X163219868Y-114416412D01*
X163219870Y-114416420D01*
X163299058Y-114607596D01*
X163414024Y-114779657D01*
X163560342Y-114925975D01*
X163560345Y-114925977D01*
X163732402Y-115040941D01*
X163923580Y-115120130D01*
X164126530Y-115160499D01*
X164126534Y-115160500D01*
X164126535Y-115160500D01*
X164333466Y-115160500D01*
X164333467Y-115160499D01*
X164536420Y-115120130D01*
X164727598Y-115040941D01*
X164899655Y-114925977D01*
X164936416Y-114889216D01*
X164987819Y-114837814D01*
X165049142Y-114804329D01*
X165118834Y-114809313D01*
X165174767Y-114851185D01*
X165199184Y-114916649D01*
X165199500Y-114925495D01*
X165199500Y-115834505D01*
X165179815Y-115901544D01*
X165127011Y-115947299D01*
X165057853Y-115957243D01*
X164994297Y-115928218D01*
X164987819Y-115922186D01*
X164899657Y-115834024D01*
X164774653Y-115750500D01*
X164727598Y-115719059D01*
X164721159Y-115716392D01*
X164536420Y-115639870D01*
X164536412Y-115639868D01*
X164333469Y-115599500D01*
X164333465Y-115599500D01*
X164126535Y-115599500D01*
X164126530Y-115599500D01*
X163923587Y-115639868D01*
X163923579Y-115639870D01*
X163732403Y-115719058D01*
X163560342Y-115834024D01*
X163414024Y-115980342D01*
X163299058Y-116152403D01*
X163219870Y-116343579D01*
X163219868Y-116343587D01*
X163179500Y-116546530D01*
X163179500Y-116753469D01*
X163219868Y-116956412D01*
X163219870Y-116956420D01*
X163299058Y-117147596D01*
X163414024Y-117319657D01*
X163560342Y-117465975D01*
X163560345Y-117465977D01*
X163732402Y-117580941D01*
X163923580Y-117660130D01*
X164126530Y-117700499D01*
X164126534Y-117700500D01*
X164126535Y-117700500D01*
X164333466Y-117700500D01*
X164333467Y-117700499D01*
X164536420Y-117660130D01*
X164727598Y-117580941D01*
X164899655Y-117465977D01*
X164908983Y-117456649D01*
X164987819Y-117377814D01*
X165049142Y-117344329D01*
X165118834Y-117349313D01*
X165174767Y-117391185D01*
X165199184Y-117456649D01*
X165199500Y-117465495D01*
X165199500Y-118374505D01*
X165179815Y-118441544D01*
X165127011Y-118487299D01*
X165057853Y-118497243D01*
X164994297Y-118468218D01*
X164987819Y-118462186D01*
X164899657Y-118374024D01*
X164788123Y-118299500D01*
X164727598Y-118259059D01*
X164666154Y-118233608D01*
X164536420Y-118179870D01*
X164536412Y-118179868D01*
X164333469Y-118139500D01*
X164333465Y-118139500D01*
X164126535Y-118139500D01*
X164126530Y-118139500D01*
X163923587Y-118179868D01*
X163923579Y-118179870D01*
X163732403Y-118259058D01*
X163560342Y-118374024D01*
X163414024Y-118520342D01*
X163299058Y-118692403D01*
X163219870Y-118883579D01*
X163219868Y-118883587D01*
X163179500Y-119086530D01*
X163179500Y-119293469D01*
X163219868Y-119496412D01*
X163219870Y-119496420D01*
X163276236Y-119632500D01*
X163299059Y-119687598D01*
X163339615Y-119748295D01*
X163414024Y-119859657D01*
X163560342Y-120005975D01*
X163732405Y-120120943D01*
X163835043Y-120163456D01*
X163897108Y-120189164D01*
X163951511Y-120233005D01*
X163973576Y-120299299D01*
X163956297Y-120366998D01*
X163905160Y-120414609D01*
X163887974Y-120421656D01*
X163711781Y-120478905D01*
X163522439Y-120575380D01*
X163468282Y-120614727D01*
X163468282Y-120614728D01*
X164100591Y-121247037D01*
X164037007Y-121264075D01*
X163922993Y-121329901D01*
X163829901Y-121422993D01*
X163764075Y-121537007D01*
X163747037Y-121600591D01*
X163114728Y-120968282D01*
X163114727Y-120968282D01*
X163075380Y-121022439D01*
X162978904Y-121211782D01*
X162913242Y-121413869D01*
X162913242Y-121413872D01*
X162880000Y-121623753D01*
X162880000Y-121836246D01*
X162913242Y-122046127D01*
X162913242Y-122046130D01*
X162978904Y-122248217D01*
X163075375Y-122437550D01*
X163114728Y-122491716D01*
X163747037Y-121859408D01*
X163764075Y-121922993D01*
X163829901Y-122037007D01*
X163922993Y-122130099D01*
X164037007Y-122195925D01*
X164100589Y-122212962D01*
X163468282Y-122845269D01*
X163468282Y-122845270D01*
X163522452Y-122884626D01*
X163532048Y-122889516D01*
X163582844Y-122937491D01*
X163599638Y-123005312D01*
X163577100Y-123071447D01*
X163532051Y-123110483D01*
X163522440Y-123115380D01*
X163468282Y-123154727D01*
X163468282Y-123154728D01*
X164100591Y-123787037D01*
X164037007Y-123804075D01*
X163922993Y-123869901D01*
X163829901Y-123962993D01*
X163764075Y-124077007D01*
X163747037Y-124140591D01*
X163114728Y-123508282D01*
X163114727Y-123508282D01*
X163075380Y-123562439D01*
X162978904Y-123751782D01*
X162913242Y-123953869D01*
X162913242Y-123953872D01*
X162880000Y-124163753D01*
X162880000Y-124376246D01*
X162913242Y-124586127D01*
X162913242Y-124586130D01*
X162978904Y-124788217D01*
X163075375Y-124977550D01*
X163114728Y-125031716D01*
X163747037Y-124399408D01*
X163764075Y-124462993D01*
X163829901Y-124577007D01*
X163922993Y-124670099D01*
X164037007Y-124735925D01*
X164100589Y-124752962D01*
X163468282Y-125385269D01*
X163468282Y-125385270D01*
X163522449Y-125424624D01*
X163711782Y-125521095D01*
X163913870Y-125586757D01*
X164123754Y-125620000D01*
X164336246Y-125620000D01*
X164546127Y-125586757D01*
X164546130Y-125586757D01*
X164748217Y-125521095D01*
X164937557Y-125424620D01*
X165002615Y-125377354D01*
X165068421Y-125353874D01*
X165136475Y-125369699D01*
X165185170Y-125419805D01*
X165199500Y-125477672D01*
X165199500Y-127175500D01*
X165179815Y-127242539D01*
X165127011Y-127288294D01*
X165075500Y-127299500D01*
X140524500Y-127299500D01*
X140457461Y-127279815D01*
X140411706Y-127227011D01*
X140400500Y-127175500D01*
X140400500Y-125477672D01*
X140420185Y-125410633D01*
X140472989Y-125364878D01*
X140542147Y-125354934D01*
X140597385Y-125377354D01*
X140662442Y-125424620D01*
X140851782Y-125521095D01*
X141053870Y-125586757D01*
X141263754Y-125620000D01*
X141476246Y-125620000D01*
X141686127Y-125586757D01*
X141686130Y-125586757D01*
X141888217Y-125521095D01*
X142077554Y-125424622D01*
X142131716Y-125385270D01*
X142131717Y-125385270D01*
X141499409Y-124752962D01*
X141562993Y-124735925D01*
X141677007Y-124670099D01*
X141770099Y-124577007D01*
X141835925Y-124462993D01*
X141852962Y-124399409D01*
X142485270Y-125031717D01*
X142485270Y-125031716D01*
X142524622Y-124977554D01*
X142612624Y-124804843D01*
X142612625Y-124804841D01*
X142621094Y-124788219D01*
X142686757Y-124586130D01*
X142686757Y-124586127D01*
X142720000Y-124376246D01*
X142720000Y-124164004D01*
X148930000Y-124164004D01*
X148930000Y-124412500D01*
X149630000Y-124412500D01*
X149630000Y-124912500D01*
X148930000Y-124912500D01*
X148930000Y-125160995D01*
X148968427Y-125354181D01*
X148968430Y-125354193D01*
X149043807Y-125536171D01*
X149043814Y-125536184D01*
X149153248Y-125699962D01*
X149153251Y-125699966D01*
X149292533Y-125839248D01*
X149292537Y-125839251D01*
X149456315Y-125948685D01*
X149456328Y-125948692D01*
X149638308Y-126024069D01*
X149680000Y-126032362D01*
X149680000Y-125229488D01*
X149689940Y-125246705D01*
X149745795Y-125302560D01*
X149814204Y-125342056D01*
X149890504Y-125362500D01*
X149969496Y-125362500D01*
X150045796Y-125342056D01*
X150114205Y-125302560D01*
X150170060Y-125246705D01*
X150180000Y-125229488D01*
X150180000Y-126032362D01*
X150221690Y-126024069D01*
X150221692Y-126024069D01*
X150403671Y-125948692D01*
X150403684Y-125948685D01*
X150567462Y-125839251D01*
X150567466Y-125839248D01*
X150706748Y-125699966D01*
X150706751Y-125699962D01*
X150816185Y-125536184D01*
X150816192Y-125536171D01*
X150891569Y-125354193D01*
X150891572Y-125354181D01*
X150929999Y-125160995D01*
X150930000Y-125160992D01*
X150930000Y-124912500D01*
X150230000Y-124912500D01*
X150230000Y-124412500D01*
X150930000Y-124412500D01*
X150930000Y-124164008D01*
X150929999Y-124164004D01*
X157570000Y-124164004D01*
X157570000Y-124412500D01*
X158270000Y-124412500D01*
X158270000Y-124912500D01*
X157570000Y-124912500D01*
X157570000Y-125160995D01*
X157608427Y-125354181D01*
X157608430Y-125354193D01*
X157683807Y-125536171D01*
X157683814Y-125536184D01*
X157793248Y-125699962D01*
X157793251Y-125699966D01*
X157932533Y-125839248D01*
X157932537Y-125839251D01*
X158096315Y-125948685D01*
X158096328Y-125948692D01*
X158278308Y-126024069D01*
X158320000Y-126032362D01*
X158320000Y-125229488D01*
X158329940Y-125246705D01*
X158385795Y-125302560D01*
X158454204Y-125342056D01*
X158530504Y-125362500D01*
X158609496Y-125362500D01*
X158685796Y-125342056D01*
X158754205Y-125302560D01*
X158810060Y-125246705D01*
X158820000Y-125229488D01*
X158820000Y-126032362D01*
X158861690Y-126024069D01*
X158861692Y-126024069D01*
X159043671Y-125948692D01*
X159043684Y-125948685D01*
X159207462Y-125839251D01*
X159207466Y-125839248D01*
X159346748Y-125699966D01*
X159346751Y-125699962D01*
X159456185Y-125536184D01*
X159456192Y-125536171D01*
X159531569Y-125354193D01*
X159531572Y-125354181D01*
X159569999Y-125160995D01*
X159570000Y-125160992D01*
X159570000Y-124912500D01*
X158870000Y-124912500D01*
X158870000Y-124412500D01*
X159570000Y-124412500D01*
X159570000Y-124164008D01*
X159569999Y-124164004D01*
X159531572Y-123970818D01*
X159531569Y-123970806D01*
X159456192Y-123788828D01*
X159456185Y-123788815D01*
X159346751Y-123625037D01*
X159346748Y-123625033D01*
X159207466Y-123485751D01*
X159207462Y-123485748D01*
X159043684Y-123376314D01*
X159043671Y-123376307D01*
X158861691Y-123300929D01*
X158861683Y-123300927D01*
X158820000Y-123292635D01*
X158820000Y-124095511D01*
X158810060Y-124078295D01*
X158754205Y-124022440D01*
X158685796Y-123982944D01*
X158609496Y-123962500D01*
X158530504Y-123962500D01*
X158454204Y-123982944D01*
X158385795Y-124022440D01*
X158329940Y-124078295D01*
X158320000Y-124095511D01*
X158320000Y-123292636D01*
X158319999Y-123292635D01*
X158278316Y-123300927D01*
X158278308Y-123300929D01*
X158096328Y-123376307D01*
X158096315Y-123376314D01*
X157932537Y-123485748D01*
X157932533Y-123485751D01*
X157793251Y-123625033D01*
X157793248Y-123625037D01*
X157683814Y-123788815D01*
X157683807Y-123788828D01*
X157608430Y-123970806D01*
X157608427Y-123970818D01*
X157570000Y-124164004D01*
X150929999Y-124164004D01*
X150891572Y-123970818D01*
X150891569Y-123970806D01*
X150816192Y-123788828D01*
X150816185Y-123788815D01*
X150706751Y-123625037D01*
X150706748Y-123625033D01*
X150567466Y-123485751D01*
X150567462Y-123485748D01*
X150403684Y-123376314D01*
X150403671Y-123376307D01*
X150221691Y-123300929D01*
X150221683Y-123300927D01*
X150180000Y-123292635D01*
X150180000Y-124095511D01*
X150170060Y-124078295D01*
X150114205Y-124022440D01*
X150045796Y-123982944D01*
X149969496Y-123962500D01*
X149890504Y-123962500D01*
X149814204Y-123982944D01*
X149745795Y-124022440D01*
X149689940Y-124078295D01*
X149680000Y-124095511D01*
X149680000Y-123292636D01*
X149679999Y-123292635D01*
X149638316Y-123300927D01*
X149638308Y-123300929D01*
X149456328Y-123376307D01*
X149456315Y-123376314D01*
X149292537Y-123485748D01*
X149292533Y-123485751D01*
X149153251Y-123625033D01*
X149153248Y-123625037D01*
X149043814Y-123788815D01*
X149043807Y-123788828D01*
X148968430Y-123970806D01*
X148968427Y-123970818D01*
X148930000Y-124164004D01*
X142720000Y-124164004D01*
X142720000Y-124163753D01*
X142686757Y-123953872D01*
X142686757Y-123953869D01*
X142621095Y-123751782D01*
X142524624Y-123562449D01*
X142485270Y-123508282D01*
X142485269Y-123508282D01*
X141852962Y-124140590D01*
X141835925Y-124077007D01*
X141770099Y-123962993D01*
X141677007Y-123869901D01*
X141562993Y-123804075D01*
X141499407Y-123787036D01*
X142131716Y-123154728D01*
X142077550Y-123115375D01*
X141888216Y-123018904D01*
X141712026Y-122961656D01*
X141654350Y-122922218D01*
X141627152Y-122857860D01*
X141639067Y-122789013D01*
X141686311Y-122737538D01*
X141702882Y-122729168D01*
X141867598Y-122660941D01*
X142039655Y-122545977D01*
X142185977Y-122399655D01*
X142300941Y-122227598D01*
X142380130Y-122036420D01*
X142420500Y-121833465D01*
X142420500Y-121626535D01*
X142380130Y-121423580D01*
X142300941Y-121232402D01*
X142185977Y-121060345D01*
X142185975Y-121060342D01*
X142039657Y-120914024D01*
X141867597Y-120799058D01*
X141859486Y-120795699D01*
X141859484Y-120795698D01*
X141676420Y-120719870D01*
X141676412Y-120719868D01*
X141473469Y-120679500D01*
X141473465Y-120679500D01*
X141266535Y-120679500D01*
X141266530Y-120679500D01*
X141063587Y-120719868D01*
X141063579Y-120719870D01*
X140872403Y-120799058D01*
X140700342Y-120914024D01*
X140700341Y-120914025D01*
X140612181Y-121002186D01*
X140550858Y-121035671D01*
X140481166Y-121030687D01*
X140425233Y-120988815D01*
X140400816Y-120923351D01*
X140400500Y-120914505D01*
X140400500Y-120005495D01*
X140420185Y-119938456D01*
X140472989Y-119892701D01*
X140542147Y-119882757D01*
X140605703Y-119911782D01*
X140612181Y-119917814D01*
X140700342Y-120005975D01*
X140700345Y-120005977D01*
X140872402Y-120120941D01*
X141063580Y-120200130D01*
X141226316Y-120232500D01*
X141266530Y-120240499D01*
X141266534Y-120240500D01*
X141266535Y-120240500D01*
X141473466Y-120240500D01*
X141473467Y-120240499D01*
X141676420Y-120200130D01*
X141867598Y-120120941D01*
X142039655Y-120005977D01*
X142185977Y-119859655D01*
X142203116Y-119834004D01*
X148930000Y-119834004D01*
X148930000Y-120232500D01*
X149630000Y-120232500D01*
X149630000Y-120732500D01*
X148930000Y-120732500D01*
X148930000Y-121130995D01*
X148968427Y-121324181D01*
X148968430Y-121324193D01*
X149043807Y-121506171D01*
X149043814Y-121506184D01*
X149153248Y-121669962D01*
X149153251Y-121669966D01*
X149292533Y-121809248D01*
X149292537Y-121809251D01*
X149456315Y-121918685D01*
X149456328Y-121918692D01*
X149638308Y-121994069D01*
X149680000Y-122002362D01*
X149680000Y-121199488D01*
X149689940Y-121216705D01*
X149745795Y-121272560D01*
X149814204Y-121312056D01*
X149890504Y-121332500D01*
X149969496Y-121332500D01*
X150045796Y-121312056D01*
X150114205Y-121272560D01*
X150170060Y-121216705D01*
X150180000Y-121199488D01*
X150180000Y-122002362D01*
X150221690Y-121994069D01*
X150221692Y-121994069D01*
X150403671Y-121918692D01*
X150403684Y-121918685D01*
X150567462Y-121809251D01*
X150567466Y-121809248D01*
X150706748Y-121669966D01*
X150706751Y-121669962D01*
X150816185Y-121506184D01*
X150816190Y-121506174D01*
X150840160Y-121448304D01*
X150884000Y-121393899D01*
X150950293Y-121371833D01*
X151017993Y-121389111D01*
X151030375Y-121398729D01*
X151030890Y-121398059D01*
X151037333Y-121403003D01*
X151037335Y-121403005D01*
X151157164Y-121472188D01*
X151290817Y-121508000D01*
X151290819Y-121508000D01*
X151429181Y-121508000D01*
X151429183Y-121508000D01*
X151562836Y-121472188D01*
X151682665Y-121403005D01*
X151751562Y-121334108D01*
X153099501Y-121334108D01*
X153099501Y-121465892D01*
X153110784Y-121508000D01*
X153133609Y-121593187D01*
X153152863Y-121626535D01*
X153199501Y-121707314D01*
X153292687Y-121800500D01*
X153406815Y-121866392D01*
X153534109Y-121900500D01*
X153534111Y-121900500D01*
X153665891Y-121900500D01*
X153665893Y-121900500D01*
X153793187Y-121866392D01*
X153907315Y-121800500D01*
X153962322Y-121745492D01*
X154023641Y-121712010D01*
X154093333Y-121716994D01*
X154137681Y-121745495D01*
X154192686Y-121800500D01*
X154306814Y-121866392D01*
X154434108Y-121900500D01*
X154434110Y-121900500D01*
X154565890Y-121900500D01*
X154565892Y-121900500D01*
X154693186Y-121866392D01*
X154807314Y-121800500D01*
X154900500Y-121707314D01*
X154966392Y-121593186D01*
X155000500Y-121465892D01*
X155000500Y-121334108D01*
X154966392Y-121206814D01*
X154900500Y-121092686D01*
X154807314Y-120999500D01*
X154753243Y-120968282D01*
X154693187Y-120933608D01*
X154621892Y-120914505D01*
X154617458Y-120913317D01*
X156614500Y-120913317D01*
X156614500Y-121051683D01*
X156635752Y-121130995D01*
X156650312Y-121185335D01*
X156650313Y-121185338D01*
X156719492Y-121305161D01*
X156719494Y-121305164D01*
X156719495Y-121305165D01*
X156817335Y-121403005D01*
X156937164Y-121472188D01*
X157070817Y-121508000D01*
X157070819Y-121508000D01*
X157209181Y-121508000D01*
X157209183Y-121508000D01*
X157342836Y-121472188D01*
X157462665Y-121403005D01*
X157462669Y-121403000D01*
X157469110Y-121398059D01*
X157471133Y-121400696D01*
X157518830Y-121374607D01*
X157588525Y-121379540D01*
X157644489Y-121421370D01*
X157659838Y-121448302D01*
X157683807Y-121506172D01*
X157683814Y-121506184D01*
X157793248Y-121669962D01*
X157793251Y-121669966D01*
X157932533Y-121809248D01*
X157932537Y-121809251D01*
X158096315Y-121918685D01*
X158096328Y-121918692D01*
X158278308Y-121994069D01*
X158320000Y-122002362D01*
X158320000Y-121199488D01*
X158329940Y-121216705D01*
X158385795Y-121272560D01*
X158454204Y-121312056D01*
X158530504Y-121332500D01*
X158609496Y-121332500D01*
X158685796Y-121312056D01*
X158754205Y-121272560D01*
X158810060Y-121216705D01*
X158820000Y-121199488D01*
X158820000Y-122002362D01*
X158861690Y-121994069D01*
X158861692Y-121994069D01*
X159043671Y-121918692D01*
X159043684Y-121918685D01*
X159207462Y-121809251D01*
X159207466Y-121809248D01*
X159346748Y-121669966D01*
X159346751Y-121669962D01*
X159426915Y-121549990D01*
X159456185Y-121506183D01*
X159456192Y-121506171D01*
X159531569Y-121324193D01*
X159531572Y-121324181D01*
X159569999Y-121130995D01*
X159570000Y-121130992D01*
X159570000Y-120732500D01*
X158870000Y-120732500D01*
X158870000Y-120232500D01*
X159570000Y-120232500D01*
X159570000Y-119834008D01*
X159569999Y-119834004D01*
X159531572Y-119640818D01*
X159531569Y-119640806D01*
X159456192Y-119458828D01*
X159456185Y-119458815D01*
X159346751Y-119295037D01*
X159346748Y-119295033D01*
X159207466Y-119155751D01*
X159207462Y-119155748D01*
X159043684Y-119046314D01*
X159043671Y-119046307D01*
X158861691Y-118970929D01*
X158861683Y-118970927D01*
X158820000Y-118962635D01*
X158820000Y-119765511D01*
X158810060Y-119748295D01*
X158754205Y-119692440D01*
X158685796Y-119652944D01*
X158609496Y-119632500D01*
X158530504Y-119632500D01*
X158454204Y-119652944D01*
X158385795Y-119692440D01*
X158329940Y-119748295D01*
X158320000Y-119765511D01*
X158320000Y-118962636D01*
X158319999Y-118962635D01*
X158278316Y-118970927D01*
X158278308Y-118970929D01*
X158096328Y-119046307D01*
X158096315Y-119046314D01*
X157932537Y-119155748D01*
X157932533Y-119155751D01*
X157793251Y-119295033D01*
X157793248Y-119295037D01*
X157683814Y-119458815D01*
X157683807Y-119458828D01*
X157608430Y-119640806D01*
X157608427Y-119640818D01*
X157570000Y-119834004D01*
X157570000Y-120232500D01*
X158270000Y-120232500D01*
X158270000Y-120732500D01*
X157674050Y-120732500D01*
X157607011Y-120712815D01*
X157566663Y-120670501D01*
X157560505Y-120659835D01*
X157462666Y-120561996D01*
X157462661Y-120561992D01*
X157342838Y-120492813D01*
X157342837Y-120492812D01*
X157342836Y-120492812D01*
X157209183Y-120457000D01*
X157070817Y-120457000D01*
X156937164Y-120492812D01*
X156937161Y-120492813D01*
X156817338Y-120561992D01*
X156817333Y-120561996D01*
X156719496Y-120659833D01*
X156719492Y-120659838D01*
X156650313Y-120779661D01*
X156650312Y-120779664D01*
X156614500Y-120913317D01*
X154617458Y-120913317D01*
X154565892Y-120899500D01*
X154434108Y-120899500D01*
X154306812Y-120933608D01*
X154192686Y-120999500D01*
X154137681Y-121054505D01*
X154076357Y-121087989D01*
X154006665Y-121083004D01*
X153962319Y-121054504D01*
X153907317Y-120999502D01*
X153907315Y-120999500D01*
X153850251Y-120966554D01*
X153793188Y-120933608D01*
X153721893Y-120914505D01*
X153665893Y-120899500D01*
X153534109Y-120899500D01*
X153406813Y-120933608D01*
X153292687Y-120999500D01*
X153292684Y-120999502D01*
X153199503Y-121092683D01*
X153199501Y-121092686D01*
X153133609Y-121206812D01*
X153107257Y-121305161D01*
X153099501Y-121334108D01*
X151751562Y-121334108D01*
X151780505Y-121305165D01*
X151789468Y-121289640D01*
X151804283Y-121263981D01*
X151822514Y-121232403D01*
X151849688Y-121185336D01*
X151885500Y-121051683D01*
X151885500Y-120913317D01*
X151849688Y-120779664D01*
X151780505Y-120659835D01*
X151682665Y-120561995D01*
X151682664Y-120561994D01*
X151682661Y-120561992D01*
X151562838Y-120492813D01*
X151562837Y-120492812D01*
X151562836Y-120492812D01*
X151429183Y-120457000D01*
X151290817Y-120457000D01*
X151157164Y-120492812D01*
X151157161Y-120492813D01*
X151037338Y-120561992D01*
X151037333Y-120561996D01*
X150939494Y-120659835D01*
X150933337Y-120670501D01*
X150882769Y-120718716D01*
X150825950Y-120732500D01*
X150230000Y-120732500D01*
X150230000Y-120232500D01*
X150930000Y-120232500D01*
X150930000Y-119834008D01*
X150929999Y-119834004D01*
X150891572Y-119640818D01*
X150891569Y-119640806D01*
X150816192Y-119458828D01*
X150816185Y-119458815D01*
X150706751Y-119295037D01*
X150706748Y-119295033D01*
X150567466Y-119155751D01*
X150567462Y-119155748D01*
X150403684Y-119046314D01*
X150403671Y-119046307D01*
X150221691Y-118970929D01*
X150221683Y-118970927D01*
X150180000Y-118962635D01*
X150180000Y-119765511D01*
X150170060Y-119748295D01*
X150114205Y-119692440D01*
X150045796Y-119652944D01*
X149969496Y-119632500D01*
X149890504Y-119632500D01*
X149814204Y-119652944D01*
X149745795Y-119692440D01*
X149689940Y-119748295D01*
X149680000Y-119765511D01*
X149680000Y-118962636D01*
X149679999Y-118962635D01*
X149638316Y-118970927D01*
X149638308Y-118970929D01*
X149456328Y-119046307D01*
X149456315Y-119046314D01*
X149292537Y-119155748D01*
X149292533Y-119155751D01*
X149153251Y-119295033D01*
X149153248Y-119295037D01*
X149043814Y-119458815D01*
X149043807Y-119458828D01*
X148968430Y-119640806D01*
X148968427Y-119640818D01*
X148930000Y-119834004D01*
X142203116Y-119834004D01*
X142300941Y-119687598D01*
X142380130Y-119496420D01*
X142420500Y-119293465D01*
X142420500Y-119086535D01*
X142380130Y-118883580D01*
X142300941Y-118692402D01*
X142269181Y-118644870D01*
X142269181Y-118644868D01*
X142228582Y-118584108D01*
X151699500Y-118584108D01*
X151699500Y-118715891D01*
X151733608Y-118843187D01*
X151762476Y-118893186D01*
X151799500Y-118957314D01*
X151892686Y-119050500D01*
X152006814Y-119116392D01*
X152134108Y-119150500D01*
X152134110Y-119150500D01*
X152265890Y-119150500D01*
X152265892Y-119150500D01*
X152393186Y-119116392D01*
X152507314Y-119050500D01*
X152600500Y-118957314D01*
X152666392Y-118843186D01*
X152700500Y-118715892D01*
X152700500Y-118634108D01*
X155949500Y-118634108D01*
X155949500Y-118765892D01*
X155966554Y-118829539D01*
X155983608Y-118893187D01*
X156016554Y-118950250D01*
X156049500Y-119007314D01*
X156142686Y-119100500D01*
X156256814Y-119166392D01*
X156384108Y-119200500D01*
X156384110Y-119200500D01*
X156515890Y-119200500D01*
X156515892Y-119200500D01*
X156643186Y-119166392D01*
X156757314Y-119100500D01*
X156850500Y-119007314D01*
X156916392Y-118893186D01*
X156950500Y-118765892D01*
X156950500Y-118634108D01*
X156916392Y-118506814D01*
X156850500Y-118392686D01*
X156757314Y-118299500D01*
X156700250Y-118266554D01*
X156643187Y-118233608D01*
X156579539Y-118216554D01*
X156515892Y-118199500D01*
X156384108Y-118199500D01*
X156256812Y-118233608D01*
X156142686Y-118299500D01*
X156142683Y-118299502D01*
X156049502Y-118392683D01*
X156049500Y-118392686D01*
X155983608Y-118506812D01*
X155979983Y-118520341D01*
X155949500Y-118634108D01*
X152700500Y-118634108D01*
X152700500Y-118584108D01*
X152666392Y-118456814D01*
X152600500Y-118342686D01*
X152507314Y-118249500D01*
X152420712Y-118199500D01*
X152393187Y-118183608D01*
X152329539Y-118166554D01*
X152265892Y-118149500D01*
X152134108Y-118149500D01*
X152006812Y-118183608D01*
X151892686Y-118249500D01*
X151892683Y-118249502D01*
X151799502Y-118342683D01*
X151799500Y-118342686D01*
X151733608Y-118456812D01*
X151699500Y-118584108D01*
X142228582Y-118584108D01*
X142185980Y-118520349D01*
X142185974Y-118520341D01*
X142039657Y-118374024D01*
X141928123Y-118299500D01*
X141867598Y-118259059D01*
X141806154Y-118233608D01*
X141676420Y-118179870D01*
X141676412Y-118179868D01*
X141473469Y-118139500D01*
X141473465Y-118139500D01*
X141266535Y-118139500D01*
X141266530Y-118139500D01*
X141063587Y-118179868D01*
X141063579Y-118179870D01*
X140872403Y-118259058D01*
X140700342Y-118374024D01*
X140700341Y-118374025D01*
X140612181Y-118462186D01*
X140550858Y-118495671D01*
X140481166Y-118490687D01*
X140425233Y-118448815D01*
X140400816Y-118383351D01*
X140400500Y-118374505D01*
X140400500Y-117465495D01*
X140420185Y-117398456D01*
X140472989Y-117352701D01*
X140542147Y-117342757D01*
X140605703Y-117371782D01*
X140612181Y-117377814D01*
X140700342Y-117465975D01*
X140700345Y-117465977D01*
X140872402Y-117580941D01*
X141063580Y-117660130D01*
X141266530Y-117700499D01*
X141266534Y-117700500D01*
X141266535Y-117700500D01*
X141473466Y-117700500D01*
X141473467Y-117700499D01*
X141676420Y-117660130D01*
X141867598Y-117580941D01*
X142039655Y-117465977D01*
X142185977Y-117319655D01*
X142300941Y-117147598D01*
X142380130Y-116956420D01*
X142420500Y-116753465D01*
X142420500Y-116546535D01*
X142380130Y-116343580D01*
X142300941Y-116152402D01*
X142185977Y-115980345D01*
X142185975Y-115980342D01*
X142039657Y-115834024D01*
X141914653Y-115750500D01*
X141867598Y-115719059D01*
X141861159Y-115716392D01*
X141676420Y-115639870D01*
X141676412Y-115639868D01*
X141473469Y-115599500D01*
X141473465Y-115599500D01*
X141266535Y-115599500D01*
X141266530Y-115599500D01*
X141063587Y-115639868D01*
X141063579Y-115639870D01*
X140872403Y-115719058D01*
X140700342Y-115834024D01*
X140700341Y-115834025D01*
X140612181Y-115922186D01*
X140550858Y-115955671D01*
X140481166Y-115950687D01*
X140425233Y-115908815D01*
X140400816Y-115843351D01*
X140400500Y-115834505D01*
X140400500Y-115184108D01*
X145799500Y-115184108D01*
X145799500Y-115315891D01*
X145833608Y-115443187D01*
X145866554Y-115500250D01*
X145899500Y-115557314D01*
X145992686Y-115650500D01*
X146106814Y-115716392D01*
X146234108Y-115750500D01*
X146234110Y-115750500D01*
X146365890Y-115750500D01*
X146365892Y-115750500D01*
X146493186Y-115716392D01*
X146607314Y-115650500D01*
X146700500Y-115557314D01*
X146766392Y-115443186D01*
X146800500Y-115315892D01*
X146800500Y-115184108D01*
X146766392Y-115056814D01*
X146700500Y-114942686D01*
X146607314Y-114849500D01*
X146550250Y-114816554D01*
X146493187Y-114783608D01*
X146429539Y-114766554D01*
X146365892Y-114749500D01*
X146234108Y-114749500D01*
X146106812Y-114783608D01*
X145992686Y-114849500D01*
X145992683Y-114849502D01*
X145899502Y-114942683D01*
X145899500Y-114942686D01*
X145833608Y-115056812D01*
X145799500Y-115184108D01*
X140400500Y-115184108D01*
X140400500Y-114925495D01*
X140420185Y-114858456D01*
X140472989Y-114812701D01*
X140542147Y-114802757D01*
X140605703Y-114831782D01*
X140612181Y-114837814D01*
X140700342Y-114925975D01*
X140700345Y-114925977D01*
X140872402Y-115040941D01*
X141063580Y-115120130D01*
X141266530Y-115160499D01*
X141266534Y-115160500D01*
X141266535Y-115160500D01*
X141473466Y-115160500D01*
X141473467Y-115160499D01*
X141676420Y-115120130D01*
X141818158Y-115061420D01*
X141867596Y-115040942D01*
X141867596Y-115040941D01*
X141867598Y-115040941D01*
X142039655Y-114925977D01*
X142185977Y-114779655D01*
X142300941Y-114607598D01*
X142338878Y-114516011D01*
X149917597Y-114516011D01*
X149917597Y-114647794D01*
X149951705Y-114775090D01*
X149971464Y-114809313D01*
X150017597Y-114889217D01*
X150110783Y-114982403D01*
X150209618Y-115039466D01*
X150212173Y-115040941D01*
X150224911Y-115048295D01*
X150352205Y-115082403D01*
X150352207Y-115082403D01*
X150483987Y-115082403D01*
X150483989Y-115082403D01*
X150611283Y-115048295D01*
X150725411Y-114982403D01*
X150818597Y-114889217D01*
X150884489Y-114775089D01*
X150918597Y-114647795D01*
X150918597Y-114516011D01*
X150884489Y-114388717D01*
X150818597Y-114274589D01*
X150725411Y-114181403D01*
X150668347Y-114148457D01*
X150611284Y-114115511D01*
X150547636Y-114098457D01*
X150483989Y-114081403D01*
X150352205Y-114081403D01*
X150224909Y-114115511D01*
X150110783Y-114181403D01*
X150110780Y-114181405D01*
X150017599Y-114274586D01*
X150017597Y-114274589D01*
X149951705Y-114388715D01*
X149917597Y-114516011D01*
X142338878Y-114516011D01*
X142380130Y-114416420D01*
X142420500Y-114213465D01*
X142420500Y-114006535D01*
X142380130Y-113803580D01*
X142300941Y-113612402D01*
X142185977Y-113440345D01*
X142185975Y-113440342D01*
X142039657Y-113294024D01*
X141953626Y-113236541D01*
X141867598Y-113179059D01*
X141676420Y-113099870D01*
X141676412Y-113099868D01*
X141473469Y-113059500D01*
X141473465Y-113059500D01*
X141266535Y-113059500D01*
X141266530Y-113059500D01*
X141063587Y-113099868D01*
X141063579Y-113099870D01*
X140872403Y-113179058D01*
X140700342Y-113294024D01*
X140700341Y-113294025D01*
X140612181Y-113382186D01*
X140550858Y-113415671D01*
X140481166Y-113410687D01*
X140425233Y-113368815D01*
X140400816Y-113303351D01*
X140400500Y-113294505D01*
X140400500Y-112385495D01*
X140420185Y-112318456D01*
X140472989Y-112272701D01*
X140542147Y-112262757D01*
X140605703Y-112291782D01*
X140612181Y-112297814D01*
X140700342Y-112385975D01*
X140700345Y-112385977D01*
X140872402Y-112500941D01*
X141063580Y-112580130D01*
X141266530Y-112620499D01*
X141266534Y-112620500D01*
X141266535Y-112620500D01*
X141473466Y-112620500D01*
X141473467Y-112620499D01*
X141676420Y-112580130D01*
X141867598Y-112500941D01*
X142039655Y-112385977D01*
X142185977Y-112239655D01*
X142300941Y-112067598D01*
X142380130Y-111876420D01*
X142420500Y-111673465D01*
X142420500Y-111466535D01*
X142417245Y-111450170D01*
X142417245Y-111450168D01*
X142414050Y-111434108D01*
X150999500Y-111434108D01*
X150999500Y-111565891D01*
X151033608Y-111693187D01*
X151066554Y-111750250D01*
X151099500Y-111807314D01*
X151192686Y-111900500D01*
X151306814Y-111966392D01*
X151434108Y-112000500D01*
X151434110Y-112000500D01*
X151565890Y-112000500D01*
X151565892Y-112000500D01*
X151693186Y-111966392D01*
X151807314Y-111900500D01*
X151900500Y-111807314D01*
X151966392Y-111693186D01*
X152000500Y-111565892D01*
X152000500Y-111434108D01*
X151966392Y-111306814D01*
X151900500Y-111192686D01*
X151807314Y-111099500D01*
X151750250Y-111066554D01*
X151693187Y-111033608D01*
X151629539Y-111016554D01*
X151565892Y-110999500D01*
X151434108Y-110999500D01*
X151306812Y-111033608D01*
X151192686Y-111099500D01*
X151192683Y-111099502D01*
X151099502Y-111192683D01*
X151099500Y-111192686D01*
X151033608Y-111306812D01*
X150999500Y-111434108D01*
X142414050Y-111434108D01*
X142380131Y-111263587D01*
X142380130Y-111263580D01*
X142300941Y-111072402D01*
X142185977Y-110900345D01*
X142185975Y-110900342D01*
X142039657Y-110754024D01*
X141953626Y-110696541D01*
X141867598Y-110639059D01*
X141676420Y-110559870D01*
X141676412Y-110559868D01*
X141473469Y-110519500D01*
X141473465Y-110519500D01*
X141266535Y-110519500D01*
X141266530Y-110519500D01*
X141063587Y-110559868D01*
X141063579Y-110559870D01*
X140872403Y-110639058D01*
X140700342Y-110754024D01*
X140700341Y-110754025D01*
X140612181Y-110842186D01*
X140550858Y-110875671D01*
X140481166Y-110870687D01*
X140425233Y-110828815D01*
X140400816Y-110763351D01*
X140400500Y-110754505D01*
X140400500Y-109845495D01*
X140420185Y-109778456D01*
X140472989Y-109732701D01*
X140542147Y-109722757D01*
X140605703Y-109751782D01*
X140612181Y-109757814D01*
X140700342Y-109845975D01*
X140700345Y-109845977D01*
X140872402Y-109960941D01*
X141063580Y-110040130D01*
X141266530Y-110080499D01*
X141266534Y-110080500D01*
X141266535Y-110080500D01*
X141473466Y-110080500D01*
X141473467Y-110080499D01*
X141676420Y-110040130D01*
X141867598Y-109960941D01*
X142039655Y-109845977D01*
X142185977Y-109699655D01*
X142300941Y-109527598D01*
X142380130Y-109336420D01*
X142420500Y-109133465D01*
X142420500Y-108926535D01*
X142380130Y-108723580D01*
X142322358Y-108584106D01*
X156999500Y-108584106D01*
X156999500Y-108715890D01*
X157016554Y-108779537D01*
X157033608Y-108843185D01*
X157066554Y-108900248D01*
X157099500Y-108957312D01*
X157192686Y-109050498D01*
X157306814Y-109116390D01*
X157434108Y-109150498D01*
X157434110Y-109150498D01*
X157565890Y-109150498D01*
X157565892Y-109150498D01*
X157693186Y-109116390D01*
X157807314Y-109050498D01*
X157900500Y-108957312D01*
X157966392Y-108843184D01*
X158000500Y-108715890D01*
X158000500Y-108584106D01*
X157966392Y-108456812D01*
X157900500Y-108342684D01*
X157807314Y-108249498D01*
X157745870Y-108214023D01*
X157693187Y-108183606D01*
X157629539Y-108166552D01*
X157565892Y-108149498D01*
X157434108Y-108149498D01*
X157306812Y-108183606D01*
X157192686Y-108249498D01*
X157192683Y-108249500D01*
X157099502Y-108342681D01*
X157099500Y-108342684D01*
X157033608Y-108456810D01*
X156999500Y-108584106D01*
X142322358Y-108584106D01*
X142300941Y-108532402D01*
X142185977Y-108360345D01*
X142185975Y-108360342D01*
X142039657Y-108214024D01*
X141943086Y-108149498D01*
X141867598Y-108099059D01*
X141676420Y-108019870D01*
X141676412Y-108019868D01*
X141473469Y-107979500D01*
X141473465Y-107979500D01*
X141266535Y-107979500D01*
X141266530Y-107979500D01*
X141063587Y-108019868D01*
X141063579Y-108019870D01*
X140872403Y-108099058D01*
X140700342Y-108214024D01*
X140700341Y-108214025D01*
X140612181Y-108302186D01*
X140550858Y-108335671D01*
X140481166Y-108330687D01*
X140425233Y-108288815D01*
X140400816Y-108223351D01*
X140400500Y-108214505D01*
X140400500Y-107305495D01*
X140420185Y-107238456D01*
X140472989Y-107192701D01*
X140542147Y-107182757D01*
X140605703Y-107211782D01*
X140612181Y-107217814D01*
X140700342Y-107305975D01*
X140700345Y-107305977D01*
X140872402Y-107420941D01*
X141063580Y-107500130D01*
X141266530Y-107540499D01*
X141266534Y-107540500D01*
X141266535Y-107540500D01*
X141473466Y-107540500D01*
X141473467Y-107540499D01*
X141676420Y-107500130D01*
X141867598Y-107420941D01*
X142039655Y-107305977D01*
X142185977Y-107159655D01*
X142300941Y-106987598D01*
X142380130Y-106796420D01*
X142420500Y-106593465D01*
X142420500Y-106386535D01*
X142380130Y-106183580D01*
X142300941Y-105992402D01*
X142185977Y-105820345D01*
X142185975Y-105820342D01*
X142039657Y-105674024D01*
X141953626Y-105616541D01*
X141867598Y-105559059D01*
X141676420Y-105479870D01*
X141676412Y-105479868D01*
X141473469Y-105439500D01*
X141473465Y-105439500D01*
X141266535Y-105439500D01*
X141266530Y-105439500D01*
X141063587Y-105479868D01*
X141063579Y-105479870D01*
X140872403Y-105559058D01*
X140700342Y-105674024D01*
X140700341Y-105674025D01*
X140612181Y-105762186D01*
X140550858Y-105795671D01*
X140481166Y-105790687D01*
X140425233Y-105748815D01*
X140400816Y-105683351D01*
X140400500Y-105674505D01*
X140400500Y-104765495D01*
X140420185Y-104698456D01*
X140472989Y-104652701D01*
X140542147Y-104642757D01*
X140605703Y-104671782D01*
X140612181Y-104677814D01*
X140700342Y-104765975D01*
X140700345Y-104765977D01*
X140872402Y-104880941D01*
X141063580Y-104960130D01*
X141266530Y-105000499D01*
X141266534Y-105000500D01*
X141266535Y-105000500D01*
X141473466Y-105000500D01*
X141473467Y-105000499D01*
X141676420Y-104960130D01*
X141867598Y-104880941D01*
X142039655Y-104765977D01*
X142185977Y-104619655D01*
X142300941Y-104447598D01*
X142380130Y-104256420D01*
X142420500Y-104053465D01*
X142420500Y-103846535D01*
X142380130Y-103643580D01*
X142300941Y-103452402D01*
X142185977Y-103280345D01*
X142185975Y-103280342D01*
X142039657Y-103134024D01*
X141953626Y-103076541D01*
X141867598Y-103019059D01*
X141676420Y-102939870D01*
X141676412Y-102939868D01*
X141473469Y-102899500D01*
X141473465Y-102899500D01*
X141266535Y-102899500D01*
X141266530Y-102899500D01*
X141063587Y-102939868D01*
X141063579Y-102939870D01*
X140872403Y-103019058D01*
X140700342Y-103134024D01*
X140700341Y-103134025D01*
X140612181Y-103222186D01*
X140550858Y-103255671D01*
X140481166Y-103250687D01*
X140425233Y-103208815D01*
X140400816Y-103143351D01*
X140400500Y-103134505D01*
X140400500Y-102225495D01*
X140420185Y-102158456D01*
X140472989Y-102112701D01*
X140542147Y-102102757D01*
X140605703Y-102131782D01*
X140612181Y-102137814D01*
X140700342Y-102225975D01*
X140700345Y-102225977D01*
X140872402Y-102340941D01*
X141063580Y-102420130D01*
X141266530Y-102460499D01*
X141266534Y-102460500D01*
X141266535Y-102460500D01*
X141473466Y-102460500D01*
X141473467Y-102460499D01*
X141676420Y-102420130D01*
X141867598Y-102340941D01*
X142039655Y-102225977D01*
X142185977Y-102079655D01*
X142300941Y-101907598D01*
X142380130Y-101716420D01*
X142386557Y-101684108D01*
X159749500Y-101684108D01*
X159749500Y-101815891D01*
X159783608Y-101943187D01*
X159816554Y-102000250D01*
X159849500Y-102057314D01*
X159942686Y-102150500D01*
X160056814Y-102216392D01*
X160184108Y-102250500D01*
X160184110Y-102250500D01*
X160315890Y-102250500D01*
X160315892Y-102250500D01*
X160443186Y-102216392D01*
X160557314Y-102150500D01*
X160650500Y-102057314D01*
X160716392Y-101943186D01*
X160750500Y-101815892D01*
X160750500Y-101684108D01*
X160716392Y-101556814D01*
X160650500Y-101442686D01*
X160557314Y-101349500D01*
X160482888Y-101306530D01*
X160443187Y-101283608D01*
X160379539Y-101266554D01*
X160315892Y-101249500D01*
X160184108Y-101249500D01*
X160056812Y-101283608D01*
X159942686Y-101349500D01*
X159942683Y-101349502D01*
X159849502Y-101442683D01*
X159849500Y-101442686D01*
X159783608Y-101556812D01*
X159749500Y-101684108D01*
X142386557Y-101684108D01*
X142420500Y-101513465D01*
X142420500Y-101306535D01*
X142380130Y-101103580D01*
X142300941Y-100912402D01*
X142185977Y-100740345D01*
X142185975Y-100740342D01*
X142039657Y-100594024D01*
X141942466Y-100529084D01*
X141867598Y-100479059D01*
X141759077Y-100434108D01*
X158999500Y-100434108D01*
X158999500Y-100565891D01*
X159033608Y-100693187D01*
X159060835Y-100740345D01*
X159099500Y-100807314D01*
X159192686Y-100900500D01*
X159306814Y-100966392D01*
X159434108Y-101000500D01*
X159434110Y-101000500D01*
X159565890Y-101000500D01*
X159565892Y-101000500D01*
X159693186Y-100966392D01*
X159807314Y-100900500D01*
X159900500Y-100807314D01*
X159966392Y-100693186D01*
X160000500Y-100565892D01*
X160000500Y-100434108D01*
X159966392Y-100306814D01*
X159900500Y-100192686D01*
X159807314Y-100099500D01*
X159750250Y-100066554D01*
X159693187Y-100033608D01*
X159629539Y-100016554D01*
X159565892Y-99999500D01*
X159434108Y-99999500D01*
X159306812Y-100033608D01*
X159192686Y-100099500D01*
X159192683Y-100099502D01*
X159099502Y-100192683D01*
X159099500Y-100192686D01*
X159033608Y-100306812D01*
X158999500Y-100434108D01*
X141759077Y-100434108D01*
X141676420Y-100399870D01*
X141676412Y-100399868D01*
X141473469Y-100359500D01*
X141473465Y-100359500D01*
X141266535Y-100359500D01*
X141266530Y-100359500D01*
X141063587Y-100399868D01*
X141063579Y-100399870D01*
X140872403Y-100479058D01*
X140700342Y-100594024D01*
X140700341Y-100594025D01*
X140612181Y-100682186D01*
X140550858Y-100715671D01*
X140481166Y-100710687D01*
X140425233Y-100668815D01*
X140400816Y-100603351D01*
X140400500Y-100594505D01*
X140400500Y-99685495D01*
X140420185Y-99618456D01*
X140472989Y-99572701D01*
X140542147Y-99562757D01*
X140605703Y-99591782D01*
X140612181Y-99597814D01*
X140700342Y-99685975D01*
X140700345Y-99685977D01*
X140872402Y-99800941D01*
X141063580Y-99880130D01*
X141266530Y-99920499D01*
X141266534Y-99920500D01*
X141266535Y-99920500D01*
X141473466Y-99920500D01*
X141473467Y-99920499D01*
X141676420Y-99880130D01*
X141867598Y-99800941D01*
X142039655Y-99685977D01*
X142185977Y-99539655D01*
X142300941Y-99367598D01*
X142380130Y-99176420D01*
X142420500Y-98973465D01*
X142420500Y-98766535D01*
X142380130Y-98563580D01*
X142300941Y-98372402D01*
X142185977Y-98200345D01*
X142185975Y-98200342D01*
X142039657Y-98054024D01*
X141953626Y-97996541D01*
X141867598Y-97939059D01*
X141676420Y-97859870D01*
X141676412Y-97859868D01*
X141473469Y-97819500D01*
X141473465Y-97819500D01*
X141266535Y-97819500D01*
X141266530Y-97819500D01*
X141063587Y-97859868D01*
X141063579Y-97859870D01*
X140872403Y-97939058D01*
X140700342Y-98054024D01*
X140700341Y-98054025D01*
X140612181Y-98142186D01*
X140550858Y-98175671D01*
X140481166Y-98170687D01*
X140425233Y-98128815D01*
X140400816Y-98063351D01*
X140400500Y-98054505D01*
X140400500Y-97145495D01*
X140420185Y-97078456D01*
X140472989Y-97032701D01*
X140542147Y-97022757D01*
X140605703Y-97051782D01*
X140612181Y-97057814D01*
X140700342Y-97145975D01*
X140700345Y-97145977D01*
X140872402Y-97260941D01*
X141063580Y-97340130D01*
X141266530Y-97380499D01*
X141266534Y-97380500D01*
X141266535Y-97380500D01*
X141473466Y-97380500D01*
X141473467Y-97380499D01*
X141676420Y-97340130D01*
X141867598Y-97260941D01*
X142039655Y-97145977D01*
X142185977Y-96999655D01*
X142300941Y-96827598D01*
X142380130Y-96636420D01*
X142420500Y-96433465D01*
X142420500Y-96226535D01*
X142380130Y-96023580D01*
X142300941Y-95832402D01*
X142185977Y-95660345D01*
X142185975Y-95660342D01*
X142039657Y-95514024D01*
X141953626Y-95456541D01*
X141867598Y-95399059D01*
X141676420Y-95319870D01*
X141676412Y-95319868D01*
X141473469Y-95279500D01*
X141473465Y-95279500D01*
X141266535Y-95279500D01*
X141266530Y-95279500D01*
X141063587Y-95319868D01*
X141063579Y-95319870D01*
X140872403Y-95399058D01*
X140700342Y-95514024D01*
X140700341Y-95514025D01*
X140612181Y-95602186D01*
X140550858Y-95635671D01*
X140481166Y-95630687D01*
X140425233Y-95588815D01*
X140400816Y-95523351D01*
X140400500Y-95514505D01*
X140400500Y-94605495D01*
X140420185Y-94538456D01*
X140472989Y-94492701D01*
X140542147Y-94482757D01*
X140605703Y-94511782D01*
X140612181Y-94517814D01*
X140700342Y-94605975D01*
X140700345Y-94605977D01*
X140872402Y-94720941D01*
X141063580Y-94800130D01*
X141266530Y-94840499D01*
X141266534Y-94840500D01*
X141266535Y-94840500D01*
X141473466Y-94840500D01*
X141473467Y-94840499D01*
X141676420Y-94800130D01*
X141867598Y-94720941D01*
X142039655Y-94605977D01*
X142185977Y-94459655D01*
X142300941Y-94287598D01*
X142343808Y-94184108D01*
X151249500Y-94184108D01*
X151249500Y-94315891D01*
X151283608Y-94443187D01*
X151316554Y-94500250D01*
X151349500Y-94557314D01*
X151442686Y-94650500D01*
X151556814Y-94716392D01*
X151684108Y-94750500D01*
X151684110Y-94750500D01*
X151815890Y-94750500D01*
X151815892Y-94750500D01*
X151943186Y-94716392D01*
X152057314Y-94650500D01*
X152150500Y-94557314D01*
X152216392Y-94443186D01*
X152250500Y-94315892D01*
X152250500Y-94184108D01*
X152216392Y-94056814D01*
X152150500Y-93942686D01*
X152057314Y-93849500D01*
X152000250Y-93816554D01*
X151943187Y-93783608D01*
X151879539Y-93766554D01*
X151815892Y-93749500D01*
X151684108Y-93749500D01*
X151556812Y-93783608D01*
X151442686Y-93849500D01*
X151442683Y-93849502D01*
X151349502Y-93942683D01*
X151349500Y-93942686D01*
X151283608Y-94056812D01*
X151249500Y-94184108D01*
X142343808Y-94184108D01*
X142380130Y-94096420D01*
X142420500Y-93893465D01*
X142420500Y-93686535D01*
X142380130Y-93483580D01*
X142300941Y-93292402D01*
X142185977Y-93120345D01*
X142185975Y-93120342D01*
X142039657Y-92974024D01*
X141953626Y-92916541D01*
X141867598Y-92859059D01*
X141676420Y-92779870D01*
X141676412Y-92779868D01*
X141473469Y-92739500D01*
X141473465Y-92739500D01*
X141266535Y-92739500D01*
X141266530Y-92739500D01*
X141063587Y-92779868D01*
X141063579Y-92779870D01*
X140872403Y-92859058D01*
X140700342Y-92974024D01*
X140700341Y-92974025D01*
X140612181Y-93062186D01*
X140550858Y-93095671D01*
X140481166Y-93090687D01*
X140425233Y-93048815D01*
X140400816Y-92983351D01*
X140400500Y-92974505D01*
X140400500Y-92065495D01*
X140420185Y-91998456D01*
X140472989Y-91952701D01*
X140542147Y-91942757D01*
X140605703Y-91971782D01*
X140612181Y-91977814D01*
X140700342Y-92065975D01*
X140700345Y-92065977D01*
X140872402Y-92180941D01*
X141063580Y-92260130D01*
X141266530Y-92300499D01*
X141266534Y-92300500D01*
X141266535Y-92300500D01*
X141473466Y-92300500D01*
X141473467Y-92300499D01*
X141676420Y-92260130D01*
X141867598Y-92180941D01*
X142039655Y-92065977D01*
X142185977Y-91919655D01*
X142300941Y-91747598D01*
X142380130Y-91556420D01*
X142420500Y-91353465D01*
X142420500Y-91146535D01*
X142384668Y-90966392D01*
X142381443Y-90950179D01*
X142381442Y-90950175D01*
X142380130Y-90943582D01*
X142380130Y-90943580D01*
X142376207Y-90934108D01*
X147749500Y-90934108D01*
X147749500Y-91065891D01*
X147783608Y-91193187D01*
X147816554Y-91250250D01*
X147849500Y-91307314D01*
X147942686Y-91400500D01*
X148056814Y-91466392D01*
X148184108Y-91500500D01*
X148184110Y-91500500D01*
X148315890Y-91500500D01*
X148315892Y-91500500D01*
X148443186Y-91466392D01*
X148557314Y-91400500D01*
X148650500Y-91307314D01*
X148716392Y-91193186D01*
X148750500Y-91065892D01*
X148750500Y-90934108D01*
X148716392Y-90806814D01*
X148650500Y-90692686D01*
X148557314Y-90599500D01*
X148472768Y-90550687D01*
X148443188Y-90533609D01*
X148443187Y-90533608D01*
X148443186Y-90533608D01*
X148315892Y-90499500D01*
X148184108Y-90499500D01*
X148056812Y-90533608D01*
X147942686Y-90599500D01*
X147942683Y-90599502D01*
X147849502Y-90692683D01*
X147849500Y-90692686D01*
X147783608Y-90806812D01*
X147749500Y-90934108D01*
X142376207Y-90934108D01*
X142300941Y-90752402D01*
X142185977Y-90580345D01*
X142185975Y-90580342D01*
X142039741Y-90434108D01*
X150999500Y-90434108D01*
X150999500Y-90565891D01*
X151033608Y-90693187D01*
X151066554Y-90750250D01*
X151099500Y-90807314D01*
X151192686Y-90900500D01*
X151306814Y-90966392D01*
X151434108Y-91000500D01*
X151434110Y-91000500D01*
X151565890Y-91000500D01*
X151565892Y-91000500D01*
X151693186Y-90966392D01*
X151807314Y-90900500D01*
X151900500Y-90807314D01*
X151966392Y-90693186D01*
X152000500Y-90565892D01*
X152000500Y-90434108D01*
X151966392Y-90306814D01*
X151900500Y-90192686D01*
X151807314Y-90099500D01*
X151750250Y-90066554D01*
X151693187Y-90033608D01*
X151629539Y-90016554D01*
X151565892Y-89999500D01*
X151434108Y-89999500D01*
X151306812Y-90033608D01*
X151192686Y-90099500D01*
X151192683Y-90099502D01*
X151099502Y-90192683D01*
X151099500Y-90192686D01*
X151033608Y-90306812D01*
X150999500Y-90434108D01*
X142039741Y-90434108D01*
X142039657Y-90434024D01*
X141953626Y-90376541D01*
X141867598Y-90319059D01*
X141838031Y-90306812D01*
X141676420Y-90239870D01*
X141676412Y-90239868D01*
X141473469Y-90199500D01*
X141473465Y-90199500D01*
X141266535Y-90199500D01*
X141266530Y-90199500D01*
X141063587Y-90239868D01*
X141063579Y-90239870D01*
X140872403Y-90319058D01*
X140700342Y-90434024D01*
X140700341Y-90434025D01*
X140612181Y-90522186D01*
X140550858Y-90555671D01*
X140481166Y-90550687D01*
X140425233Y-90508815D01*
X140400816Y-90443351D01*
X140400500Y-90434505D01*
X140400500Y-89525495D01*
X140420185Y-89458456D01*
X140472989Y-89412701D01*
X140542147Y-89402757D01*
X140605703Y-89431782D01*
X140612181Y-89437814D01*
X140700342Y-89525975D01*
X140700345Y-89525977D01*
X140872402Y-89640941D01*
X141063580Y-89720130D01*
X141266530Y-89760499D01*
X141266534Y-89760500D01*
X141266535Y-89760500D01*
X141473466Y-89760500D01*
X141473467Y-89760499D01*
X141676420Y-89720130D01*
X141867598Y-89640941D01*
X142039655Y-89525977D01*
X142185977Y-89379655D01*
X142300941Y-89207598D01*
X142380130Y-89016420D01*
X142420500Y-88813465D01*
X142420500Y-88606535D01*
X142380130Y-88403580D01*
X142300941Y-88212402D01*
X142185977Y-88040345D01*
X142185975Y-88040342D01*
X142079741Y-87934108D01*
X147749500Y-87934108D01*
X147749500Y-88065892D01*
X147765274Y-88124761D01*
X147783608Y-88193187D01*
X147794702Y-88212402D01*
X147849500Y-88307314D01*
X147942686Y-88400500D01*
X148056814Y-88466392D01*
X148184108Y-88500500D01*
X148184110Y-88500500D01*
X148315890Y-88500500D01*
X148315892Y-88500500D01*
X148443186Y-88466392D01*
X148557314Y-88400500D01*
X148650500Y-88307314D01*
X148716392Y-88193186D01*
X148718824Y-88184108D01*
X149999500Y-88184108D01*
X149999500Y-88315891D01*
X150033608Y-88443187D01*
X150042951Y-88459369D01*
X150099500Y-88557314D01*
X150192686Y-88650500D01*
X150306814Y-88716392D01*
X150434108Y-88750500D01*
X150434110Y-88750500D01*
X150565890Y-88750500D01*
X150565892Y-88750500D01*
X150693186Y-88716392D01*
X150807314Y-88650500D01*
X150900500Y-88557314D01*
X150966392Y-88443186D01*
X151000500Y-88315892D01*
X151000500Y-88184108D01*
X151499500Y-88184108D01*
X151499500Y-88315891D01*
X151533608Y-88443187D01*
X151542951Y-88459369D01*
X151599500Y-88557314D01*
X151692686Y-88650500D01*
X151806814Y-88716392D01*
X151934108Y-88750500D01*
X151934110Y-88750500D01*
X152065890Y-88750500D01*
X152065892Y-88750500D01*
X152193186Y-88716392D01*
X152307314Y-88650500D01*
X152400500Y-88557314D01*
X152466392Y-88443186D01*
X152500500Y-88315892D01*
X152500500Y-88184108D01*
X152749500Y-88184108D01*
X152749500Y-88315891D01*
X152783608Y-88443187D01*
X152792951Y-88459369D01*
X152849500Y-88557314D01*
X152942686Y-88650500D01*
X153056814Y-88716392D01*
X153184108Y-88750500D01*
X153184110Y-88750500D01*
X153315890Y-88750500D01*
X153315892Y-88750500D01*
X153443186Y-88716392D01*
X153557314Y-88650500D01*
X153650500Y-88557314D01*
X153716392Y-88443186D01*
X153750500Y-88315892D01*
X153750500Y-88184108D01*
X153716392Y-88056814D01*
X153716389Y-88056810D01*
X153716389Y-88056806D01*
X153710642Y-88046854D01*
X153710640Y-88046851D01*
X153702549Y-88032837D01*
X153679536Y-87992977D01*
X154190631Y-87992977D01*
X154190631Y-88124761D01*
X154195756Y-88143887D01*
X154224739Y-88252056D01*
X154255590Y-88305491D01*
X154290631Y-88366183D01*
X154383817Y-88459369D01*
X154497945Y-88525261D01*
X154625239Y-88559369D01*
X154625241Y-88559369D01*
X154757021Y-88559369D01*
X154757023Y-88559369D01*
X154884317Y-88525261D01*
X154998445Y-88459369D01*
X155091631Y-88366183D01*
X155124583Y-88309108D01*
X155874500Y-88309108D01*
X155874500Y-88440892D01*
X155890472Y-88500500D01*
X155908608Y-88568187D01*
X155930746Y-88606530D01*
X155974500Y-88682314D01*
X156067686Y-88775500D01*
X156181814Y-88841392D01*
X156309108Y-88875500D01*
X156309110Y-88875500D01*
X156440890Y-88875500D01*
X156440892Y-88875500D01*
X156568186Y-88841392D01*
X156682314Y-88775500D01*
X156775500Y-88682314D01*
X156841392Y-88568186D01*
X156875500Y-88440892D01*
X156875500Y-88309108D01*
X156842007Y-88184108D01*
X157249500Y-88184108D01*
X157249500Y-88315891D01*
X157283608Y-88443187D01*
X157292951Y-88459369D01*
X157349500Y-88557314D01*
X157442686Y-88650500D01*
X157556814Y-88716392D01*
X157684108Y-88750500D01*
X157684110Y-88750500D01*
X157815890Y-88750500D01*
X157815892Y-88750500D01*
X157943186Y-88716392D01*
X158057314Y-88650500D01*
X158150500Y-88557314D01*
X158216392Y-88443186D01*
X158250500Y-88315892D01*
X158250500Y-88184108D01*
X158499500Y-88184108D01*
X158499500Y-88315891D01*
X158533608Y-88443187D01*
X158542951Y-88459369D01*
X158599500Y-88557314D01*
X158692686Y-88650500D01*
X158806814Y-88716392D01*
X158934108Y-88750500D01*
X158934110Y-88750500D01*
X159065890Y-88750500D01*
X159065892Y-88750500D01*
X159193186Y-88716392D01*
X159307314Y-88650500D01*
X159400500Y-88557314D01*
X159466392Y-88443186D01*
X159500500Y-88315892D01*
X159500500Y-88184108D01*
X160299500Y-88184108D01*
X160299500Y-88315891D01*
X160333608Y-88443187D01*
X160342951Y-88459369D01*
X160399500Y-88557314D01*
X160492686Y-88650500D01*
X160606814Y-88716392D01*
X160734108Y-88750500D01*
X160734110Y-88750500D01*
X160865890Y-88750500D01*
X160865892Y-88750500D01*
X160993186Y-88716392D01*
X161107314Y-88650500D01*
X161200500Y-88557314D01*
X161266392Y-88443186D01*
X161300500Y-88315892D01*
X161300500Y-88184108D01*
X161266392Y-88056814D01*
X161266387Y-88056806D01*
X161256882Y-88040342D01*
X161200500Y-87942686D01*
X161107314Y-87849500D01*
X161033380Y-87806814D01*
X160993187Y-87783608D01*
X160873561Y-87751555D01*
X160865892Y-87749500D01*
X160734108Y-87749500D01*
X160606812Y-87783608D01*
X160492686Y-87849500D01*
X160492683Y-87849502D01*
X160399502Y-87942683D01*
X160399500Y-87942686D01*
X160333608Y-88056812D01*
X160299500Y-88184108D01*
X159500500Y-88184108D01*
X159466392Y-88056814D01*
X159466387Y-88056806D01*
X159456882Y-88040342D01*
X159400500Y-87942686D01*
X159307314Y-87849500D01*
X159233380Y-87806814D01*
X159193187Y-87783608D01*
X159073561Y-87751555D01*
X159065892Y-87749500D01*
X158934108Y-87749500D01*
X158806812Y-87783608D01*
X158692686Y-87849500D01*
X158692683Y-87849502D01*
X158599502Y-87942683D01*
X158599500Y-87942686D01*
X158533608Y-88056812D01*
X158499500Y-88184108D01*
X158250500Y-88184108D01*
X158216392Y-88056814D01*
X158216387Y-88056806D01*
X158206882Y-88040342D01*
X158150500Y-87942686D01*
X158057314Y-87849500D01*
X157983380Y-87806814D01*
X157943187Y-87783608D01*
X157823561Y-87751555D01*
X157815892Y-87749500D01*
X157684108Y-87749500D01*
X157556812Y-87783608D01*
X157442686Y-87849500D01*
X157442683Y-87849502D01*
X157349502Y-87942683D01*
X157349500Y-87942686D01*
X157283608Y-88056812D01*
X157249500Y-88184108D01*
X156842007Y-88184108D01*
X156841392Y-88181814D01*
X156775500Y-88067686D01*
X156682314Y-87974500D01*
X156612353Y-87934108D01*
X156568187Y-87908608D01*
X156504539Y-87891554D01*
X156440892Y-87874500D01*
X156309108Y-87874500D01*
X156181812Y-87908608D01*
X156067686Y-87974500D01*
X156067683Y-87974502D01*
X155974502Y-88067683D01*
X155974500Y-88067686D01*
X155908608Y-88181812D01*
X155889787Y-88252055D01*
X155874500Y-88309108D01*
X155124583Y-88309108D01*
X155157523Y-88252055D01*
X155191631Y-88124761D01*
X155191631Y-87992977D01*
X155157523Y-87865683D01*
X155091631Y-87751555D01*
X154998445Y-87658369D01*
X154896485Y-87599502D01*
X154884318Y-87592477D01*
X154820670Y-87575423D01*
X154757023Y-87558369D01*
X154625239Y-87558369D01*
X154497943Y-87592477D01*
X154383817Y-87658369D01*
X154383814Y-87658371D01*
X154290633Y-87751552D01*
X154290631Y-87751555D01*
X154224739Y-87865681D01*
X154217016Y-87894505D01*
X154190631Y-87992977D01*
X153679536Y-87992977D01*
X153650500Y-87942686D01*
X153557314Y-87849500D01*
X153483380Y-87806814D01*
X153443187Y-87783608D01*
X153323561Y-87751555D01*
X153315892Y-87749500D01*
X153184108Y-87749500D01*
X153056812Y-87783608D01*
X152942686Y-87849500D01*
X152942683Y-87849502D01*
X152849502Y-87942683D01*
X152849500Y-87942686D01*
X152783608Y-88056812D01*
X152749500Y-88184108D01*
X152500500Y-88184108D01*
X152466392Y-88056814D01*
X152466387Y-88056806D01*
X152456882Y-88040342D01*
X152400500Y-87942686D01*
X152307314Y-87849500D01*
X152233380Y-87806814D01*
X152193187Y-87783608D01*
X152073561Y-87751555D01*
X152065892Y-87749500D01*
X151934108Y-87749500D01*
X151806812Y-87783608D01*
X151692686Y-87849500D01*
X151692683Y-87849502D01*
X151599502Y-87942683D01*
X151599500Y-87942686D01*
X151533608Y-88056812D01*
X151499500Y-88184108D01*
X151000500Y-88184108D01*
X150966392Y-88056814D01*
X150966387Y-88056806D01*
X150956882Y-88040342D01*
X150900500Y-87942686D01*
X150807314Y-87849500D01*
X150733380Y-87806814D01*
X150693187Y-87783608D01*
X150573561Y-87751555D01*
X150565892Y-87749500D01*
X150434108Y-87749500D01*
X150306812Y-87783608D01*
X150192686Y-87849500D01*
X150192683Y-87849502D01*
X150099502Y-87942683D01*
X150099500Y-87942686D01*
X150033608Y-88056812D01*
X149999500Y-88184108D01*
X148718824Y-88184108D01*
X148750500Y-88065892D01*
X148750500Y-87934108D01*
X148716392Y-87806814D01*
X148650500Y-87692686D01*
X148557314Y-87599500D01*
X148486073Y-87558369D01*
X148443187Y-87533608D01*
X148379539Y-87516554D01*
X148315892Y-87499500D01*
X148184108Y-87499500D01*
X148056812Y-87533608D01*
X147942686Y-87599500D01*
X147942683Y-87599502D01*
X147849502Y-87692683D01*
X147849500Y-87692686D01*
X147783608Y-87806812D01*
X147760240Y-87894024D01*
X147749500Y-87934108D01*
X142079741Y-87934108D01*
X142039657Y-87894024D01*
X141953626Y-87836541D01*
X141867598Y-87779059D01*
X141676420Y-87699870D01*
X141676412Y-87699868D01*
X141473469Y-87659500D01*
X141473465Y-87659500D01*
X141266535Y-87659500D01*
X141266530Y-87659500D01*
X141063587Y-87699868D01*
X141063579Y-87699870D01*
X140872403Y-87779058D01*
X140700342Y-87894024D01*
X140700341Y-87894025D01*
X140612181Y-87982186D01*
X140550858Y-88015671D01*
X140481166Y-88010687D01*
X140425233Y-87968815D01*
X140400816Y-87903351D01*
X140400500Y-87894505D01*
X140400500Y-86985495D01*
X140420185Y-86918456D01*
X140472989Y-86872701D01*
X140542147Y-86862757D01*
X140605703Y-86891782D01*
X140612181Y-86897814D01*
X140700342Y-86985975D01*
X140700345Y-86985977D01*
X140872402Y-87100941D01*
X141063580Y-87180130D01*
X141266530Y-87220499D01*
X141266534Y-87220500D01*
X141266535Y-87220500D01*
X141473466Y-87220500D01*
X141473467Y-87220499D01*
X141676420Y-87180130D01*
X141867598Y-87100941D01*
X142039655Y-86985977D01*
X142185977Y-86839655D01*
X142300941Y-86667598D01*
X142380130Y-86476420D01*
X142420500Y-86273465D01*
X142420500Y-86066535D01*
X142380130Y-85863580D01*
X142300941Y-85672402D01*
X142185977Y-85500345D01*
X142185974Y-85500342D01*
X142185972Y-85500339D01*
X142119741Y-85434108D01*
X145299500Y-85434108D01*
X145299500Y-85565891D01*
X145333608Y-85693187D01*
X145362476Y-85743186D01*
X145399500Y-85807314D01*
X145492686Y-85900500D01*
X145606814Y-85966392D01*
X145734108Y-86000500D01*
X145734110Y-86000500D01*
X145865890Y-86000500D01*
X145865892Y-86000500D01*
X145993186Y-85966392D01*
X146107314Y-85900500D01*
X146200500Y-85807314D01*
X146266392Y-85693186D01*
X146300500Y-85565892D01*
X146300500Y-85484108D01*
X146749500Y-85484108D01*
X146749500Y-85615892D01*
X146764642Y-85672402D01*
X146783608Y-85743187D01*
X146816554Y-85800250D01*
X146849500Y-85857314D01*
X146942686Y-85950500D01*
X147056814Y-86016392D01*
X147184108Y-86050500D01*
X147184110Y-86050500D01*
X147315890Y-86050500D01*
X147315892Y-86050500D01*
X147443186Y-86016392D01*
X147557314Y-85950500D01*
X147650500Y-85857314D01*
X147716392Y-85743186D01*
X147750500Y-85615892D01*
X147750500Y-85484108D01*
X147716392Y-85356814D01*
X147673717Y-85282899D01*
X148306237Y-85282899D01*
X148306237Y-85414683D01*
X148313606Y-85442186D01*
X148340345Y-85541978D01*
X148354152Y-85565892D01*
X148406237Y-85656105D01*
X148499423Y-85749291D01*
X148598258Y-85806354D01*
X148599921Y-85807314D01*
X148613551Y-85815183D01*
X148740845Y-85849291D01*
X148740847Y-85849291D01*
X148872627Y-85849291D01*
X148872629Y-85849291D01*
X148999923Y-85815183D01*
X149114051Y-85749291D01*
X149207237Y-85656105D01*
X149273129Y-85541977D01*
X149302032Y-85434108D01*
X159999500Y-85434108D01*
X159999500Y-85565891D01*
X160033608Y-85693187D01*
X160062476Y-85743186D01*
X160099500Y-85807314D01*
X160192686Y-85900500D01*
X160306814Y-85966392D01*
X160434108Y-86000500D01*
X160434110Y-86000500D01*
X160565890Y-86000500D01*
X160565892Y-86000500D01*
X160693186Y-85966392D01*
X160807314Y-85900500D01*
X160900500Y-85807314D01*
X160966392Y-85693186D01*
X161000500Y-85565892D01*
X161000500Y-85434108D01*
X160966392Y-85306814D01*
X160900500Y-85192686D01*
X160807314Y-85099500D01*
X160720712Y-85049500D01*
X160693187Y-85033608D01*
X160629539Y-85016554D01*
X160565892Y-84999500D01*
X160434108Y-84999500D01*
X160306812Y-85033608D01*
X160192686Y-85099500D01*
X160192683Y-85099502D01*
X160099502Y-85192683D01*
X160099500Y-85192686D01*
X160033608Y-85306812D01*
X159999500Y-85434108D01*
X149302032Y-85434108D01*
X149307237Y-85414683D01*
X149307237Y-85282899D01*
X149273129Y-85155605D01*
X149269605Y-85149502D01*
X149252284Y-85119500D01*
X149207237Y-85041477D01*
X149114051Y-84948291D01*
X149056987Y-84915345D01*
X148999924Y-84882399D01*
X148936276Y-84865345D01*
X148872629Y-84848291D01*
X148740845Y-84848291D01*
X148613549Y-84882399D01*
X148499423Y-84948291D01*
X148499420Y-84948293D01*
X148406239Y-85041474D01*
X148406237Y-85041477D01*
X148340345Y-85155603D01*
X148339202Y-85159870D01*
X148306237Y-85282899D01*
X147673717Y-85282899D01*
X147650500Y-85242686D01*
X147557314Y-85149500D01*
X147500250Y-85116554D01*
X147443187Y-85083608D01*
X147379539Y-85066554D01*
X147315892Y-85049500D01*
X147184108Y-85049500D01*
X147056812Y-85083608D01*
X146942686Y-85149500D01*
X146942683Y-85149502D01*
X146849502Y-85242683D01*
X146849500Y-85242686D01*
X146783608Y-85356812D01*
X146754004Y-85467299D01*
X146749500Y-85484108D01*
X146300500Y-85484108D01*
X146300500Y-85434108D01*
X146266392Y-85306814D01*
X146200500Y-85192686D01*
X146107314Y-85099500D01*
X146020712Y-85049500D01*
X145993187Y-85033608D01*
X145929539Y-85016554D01*
X145865892Y-84999500D01*
X145734108Y-84999500D01*
X145606812Y-85033608D01*
X145492686Y-85099500D01*
X145492683Y-85099502D01*
X145399502Y-85192683D01*
X145399500Y-85192686D01*
X145333608Y-85306812D01*
X145299500Y-85434108D01*
X142119741Y-85434108D01*
X142039657Y-85354024D01*
X141933210Y-85282899D01*
X141867598Y-85239059D01*
X141755644Y-85192686D01*
X141676420Y-85159870D01*
X141676412Y-85159868D01*
X141473469Y-85119500D01*
X141473465Y-85119500D01*
X141266535Y-85119500D01*
X141266530Y-85119500D01*
X141063587Y-85159868D01*
X141063579Y-85159870D01*
X140872403Y-85239058D01*
X140700342Y-85354024D01*
X140700341Y-85354025D01*
X140612181Y-85442186D01*
X140550858Y-85475671D01*
X140481166Y-85470687D01*
X140425233Y-85428815D01*
X140400816Y-85363351D01*
X140400500Y-85354505D01*
X140400500Y-84445495D01*
X140420185Y-84378456D01*
X140472989Y-84332701D01*
X140542147Y-84322757D01*
X140605703Y-84351782D01*
X140612181Y-84357814D01*
X140700342Y-84445975D01*
X140700345Y-84445977D01*
X140872402Y-84560941D01*
X141063580Y-84640130D01*
X141266530Y-84680499D01*
X141266534Y-84680500D01*
X141266535Y-84680500D01*
X141473466Y-84680500D01*
X141473467Y-84680499D01*
X141676420Y-84640130D01*
X141867598Y-84560941D01*
X142039655Y-84445977D01*
X142185977Y-84299655D01*
X142263182Y-84184108D01*
X159999500Y-84184108D01*
X159999500Y-84315892D01*
X160001761Y-84324329D01*
X160033608Y-84443187D01*
X160035218Y-84445975D01*
X160099500Y-84557314D01*
X160192686Y-84650500D01*
X160306814Y-84716392D01*
X160434108Y-84750500D01*
X160434110Y-84750500D01*
X160565890Y-84750500D01*
X160565892Y-84750500D01*
X160693186Y-84716392D01*
X160807314Y-84650500D01*
X160900500Y-84557314D01*
X160966392Y-84443186D01*
X161000500Y-84315892D01*
X161000500Y-84184108D01*
X160966392Y-84056814D01*
X160900500Y-83942686D01*
X160807314Y-83849500D01*
X160693186Y-83783608D01*
X160690214Y-83782811D01*
X160687991Y-83781456D01*
X160685682Y-83780500D01*
X160685831Y-83780139D01*
X160630556Y-83746445D01*
X160600028Y-83683597D01*
X160608325Y-83614222D01*
X160652812Y-83560346D01*
X160690214Y-83543264D01*
X160753186Y-83526392D01*
X160867314Y-83460500D01*
X160960500Y-83367314D01*
X161026392Y-83253186D01*
X161060500Y-83125892D01*
X161060500Y-82994108D01*
X161026392Y-82866814D01*
X160960500Y-82752686D01*
X160867314Y-82659500D01*
X160798670Y-82619868D01*
X160753187Y-82593608D01*
X160689539Y-82576554D01*
X160625892Y-82559500D01*
X160494108Y-82559500D01*
X160366812Y-82593608D01*
X160252686Y-82659500D01*
X160252683Y-82659502D01*
X160159502Y-82752683D01*
X160159500Y-82752686D01*
X160093608Y-82866812D01*
X160084130Y-82902186D01*
X160059500Y-82994108D01*
X160059500Y-83125892D01*
X160061245Y-83132403D01*
X160093608Y-83253187D01*
X160124858Y-83307313D01*
X160159500Y-83367314D01*
X160252686Y-83460500D01*
X160366814Y-83526392D01*
X160369777Y-83527186D01*
X160371997Y-83528538D01*
X160374318Y-83529500D01*
X160374168Y-83529861D01*
X160429438Y-83563548D01*
X160459969Y-83626394D01*
X160451677Y-83695770D01*
X160407194Y-83749649D01*
X160369782Y-83766735D01*
X160306814Y-83783608D01*
X160306813Y-83783608D01*
X160306811Y-83783609D01*
X160192686Y-83849500D01*
X160192683Y-83849502D01*
X160099502Y-83942683D01*
X160099500Y-83942686D01*
X160033608Y-84056812D01*
X159999500Y-84184108D01*
X142263182Y-84184108D01*
X142300941Y-84127598D01*
X142380130Y-83936420D01*
X142420500Y-83733465D01*
X142420500Y-83526535D01*
X142380130Y-83323580D01*
X142300941Y-83132402D01*
X142296591Y-83125892D01*
X142209048Y-82994873D01*
X142209046Y-82994871D01*
X142208536Y-82994108D01*
X142185977Y-82960345D01*
X142185975Y-82960342D01*
X142159741Y-82934108D01*
X144749500Y-82934108D01*
X144749500Y-83065891D01*
X144783608Y-83193187D01*
X144802259Y-83225491D01*
X144849500Y-83307314D01*
X144942686Y-83400500D01*
X145041521Y-83457563D01*
X145046603Y-83460497D01*
X145056814Y-83466392D01*
X145184108Y-83500500D01*
X145184110Y-83500500D01*
X145315890Y-83500500D01*
X145315892Y-83500500D01*
X145443186Y-83466392D01*
X145557314Y-83400500D01*
X145650500Y-83307314D01*
X145716392Y-83193186D01*
X145750500Y-83065892D01*
X145750500Y-82934108D01*
X145716392Y-82806814D01*
X145650500Y-82692686D01*
X145557314Y-82599500D01*
X145488032Y-82559500D01*
X145443187Y-82533608D01*
X145379539Y-82516554D01*
X145315892Y-82499500D01*
X145184108Y-82499500D01*
X145056812Y-82533608D01*
X144942686Y-82599500D01*
X144942683Y-82599502D01*
X144849502Y-82692683D01*
X144849500Y-82692686D01*
X144783608Y-82806812D01*
X144749500Y-82934108D01*
X142159741Y-82934108D01*
X142039657Y-82814024D01*
X141947853Y-82752683D01*
X141867598Y-82699059D01*
X141852212Y-82692686D01*
X141676420Y-82619870D01*
X141676412Y-82619868D01*
X141473469Y-82579500D01*
X141473465Y-82579500D01*
X141266535Y-82579500D01*
X141266530Y-82579500D01*
X141063587Y-82619868D01*
X141063579Y-82619870D01*
X140872403Y-82699058D01*
X140700342Y-82814024D01*
X140700341Y-82814025D01*
X140612181Y-82902186D01*
X140550858Y-82935671D01*
X140481166Y-82930687D01*
X140425233Y-82888815D01*
X140400816Y-82823351D01*
X140400500Y-82814505D01*
X140400500Y-81905495D01*
X140420185Y-81838456D01*
X140472989Y-81792701D01*
X140542147Y-81782757D01*
X140605703Y-81811782D01*
X140612181Y-81817814D01*
X140700342Y-81905975D01*
X140700345Y-81905977D01*
X140872402Y-82020941D01*
X141063580Y-82100130D01*
X141266530Y-82140499D01*
X141266534Y-82140500D01*
X141266535Y-82140500D01*
X141473466Y-82140500D01*
X141473467Y-82140499D01*
X141676420Y-82100130D01*
X141867598Y-82020941D01*
X142039655Y-81905977D01*
X142185977Y-81759655D01*
X142236456Y-81684108D01*
X144749500Y-81684108D01*
X144749500Y-81815891D01*
X144783608Y-81943187D01*
X144816554Y-82000250D01*
X144849500Y-82057314D01*
X144942686Y-82150500D01*
X145056814Y-82216392D01*
X145184108Y-82250500D01*
X145184110Y-82250500D01*
X145315890Y-82250500D01*
X145315892Y-82250500D01*
X145443186Y-82216392D01*
X145557314Y-82150500D01*
X145650500Y-82057314D01*
X145716392Y-81943186D01*
X145750500Y-81815892D01*
X145750500Y-81684108D01*
X159799500Y-81684108D01*
X159799500Y-81815891D01*
X159833608Y-81943187D01*
X159866554Y-82000250D01*
X159899500Y-82057314D01*
X159992686Y-82150500D01*
X160106814Y-82216392D01*
X160234108Y-82250500D01*
X160234110Y-82250500D01*
X160365890Y-82250500D01*
X160365892Y-82250500D01*
X160493186Y-82216392D01*
X160607314Y-82150500D01*
X160700500Y-82057314D01*
X160766392Y-81943186D01*
X160800500Y-81815892D01*
X160800500Y-81684108D01*
X160766392Y-81556814D01*
X160700500Y-81442686D01*
X160607314Y-81349500D01*
X160550250Y-81316554D01*
X160493187Y-81283608D01*
X160429539Y-81266554D01*
X160365892Y-81249500D01*
X160234108Y-81249500D01*
X160106812Y-81283608D01*
X159992686Y-81349500D01*
X159992683Y-81349502D01*
X159899502Y-81442683D01*
X159899500Y-81442686D01*
X159833608Y-81556812D01*
X159799500Y-81684108D01*
X145750500Y-81684108D01*
X145716392Y-81556814D01*
X145650500Y-81442686D01*
X145557314Y-81349500D01*
X145443186Y-81283608D01*
X145315892Y-81249500D01*
X145184108Y-81249500D01*
X145140043Y-81261306D01*
X145140039Y-81261307D01*
X145080882Y-81277158D01*
X145056814Y-81283608D01*
X145056812Y-81283608D01*
X145056812Y-81283609D01*
X144942686Y-81349500D01*
X144942683Y-81349502D01*
X144849502Y-81442683D01*
X144849500Y-81442686D01*
X144783608Y-81556812D01*
X144749500Y-81684108D01*
X142236456Y-81684108D01*
X142300941Y-81587598D01*
X142380130Y-81396420D01*
X142420500Y-81193465D01*
X142420500Y-80986535D01*
X142380130Y-80783580D01*
X142300941Y-80592402D01*
X142208537Y-80454108D01*
X144729500Y-80454108D01*
X144729500Y-80585892D01*
X144731245Y-80592403D01*
X144763608Y-80713187D01*
X144796554Y-80770250D01*
X144829500Y-80827314D01*
X144922686Y-80920500D01*
X145036814Y-80986392D01*
X145164108Y-81020500D01*
X145295892Y-81020500D01*
X145423186Y-80986392D01*
X145537314Y-80920500D01*
X145630500Y-80827314D01*
X145696392Y-80713186D01*
X145730500Y-80585892D01*
X145730500Y-80454108D01*
X145696392Y-80326814D01*
X145630500Y-80212686D01*
X145537314Y-80119500D01*
X145468670Y-80079868D01*
X145423187Y-80053608D01*
X145359539Y-80036554D01*
X145295892Y-80019500D01*
X145164108Y-80019500D01*
X145036812Y-80053608D01*
X144922686Y-80119500D01*
X144922683Y-80119502D01*
X144829502Y-80212683D01*
X144829500Y-80212686D01*
X144763608Y-80326812D01*
X144754130Y-80362186D01*
X144729500Y-80454108D01*
X142208537Y-80454108D01*
X142185977Y-80420344D01*
X142039657Y-80274024D01*
X141947853Y-80212683D01*
X141867598Y-80159059D01*
X141676420Y-80079870D01*
X141676412Y-80079868D01*
X141473469Y-80039500D01*
X141473465Y-80039500D01*
X141266535Y-80039500D01*
X141266530Y-80039500D01*
X141063587Y-80079868D01*
X141063579Y-80079870D01*
X140872403Y-80159058D01*
X140700342Y-80274024D01*
X140700341Y-80274025D01*
X140612181Y-80362186D01*
X140550858Y-80395671D01*
X140481166Y-80390687D01*
X140425233Y-80348815D01*
X140400816Y-80283351D01*
X140400500Y-80274505D01*
X140400500Y-79365495D01*
X140420185Y-79298456D01*
X140472989Y-79252701D01*
X140542147Y-79242757D01*
X140605703Y-79271782D01*
X140612181Y-79277814D01*
X140700342Y-79365975D01*
X140700345Y-79365977D01*
X140872402Y-79480941D01*
X141063580Y-79560130D01*
X141266530Y-79600499D01*
X141266534Y-79600500D01*
X141266535Y-79600500D01*
X141473466Y-79600500D01*
X141473467Y-79600499D01*
X141676420Y-79560130D01*
X141867598Y-79480941D01*
X142039655Y-79365977D01*
X142185977Y-79219655D01*
X142209729Y-79184108D01*
X144499500Y-79184108D01*
X144499500Y-79315891D01*
X144533608Y-79443187D01*
X144555406Y-79480941D01*
X144599500Y-79557314D01*
X144692686Y-79650500D01*
X144806814Y-79716392D01*
X144934108Y-79750500D01*
X144934110Y-79750500D01*
X145065890Y-79750500D01*
X145065892Y-79750500D01*
X145193186Y-79716392D01*
X145307314Y-79650500D01*
X145400500Y-79557314D01*
X145466392Y-79443186D01*
X145500500Y-79315892D01*
X145500500Y-79184108D01*
X159999500Y-79184108D01*
X159999500Y-79315891D01*
X160033608Y-79443187D01*
X160055406Y-79480941D01*
X160099500Y-79557314D01*
X160192686Y-79650500D01*
X160306814Y-79716392D01*
X160434108Y-79750500D01*
X160434110Y-79750500D01*
X160565890Y-79750500D01*
X160565892Y-79750500D01*
X160693186Y-79716392D01*
X160807314Y-79650500D01*
X160900500Y-79557314D01*
X160966392Y-79443186D01*
X161000500Y-79315892D01*
X161000500Y-79184108D01*
X160966392Y-79056814D01*
X160900500Y-78942686D01*
X160807314Y-78849500D01*
X160750250Y-78816554D01*
X160693187Y-78783608D01*
X160629539Y-78766554D01*
X160565892Y-78749500D01*
X160434108Y-78749500D01*
X160306812Y-78783608D01*
X160192686Y-78849500D01*
X160192683Y-78849502D01*
X160099502Y-78942683D01*
X160099500Y-78942686D01*
X160033608Y-79056812D01*
X159999500Y-79184108D01*
X145500500Y-79184108D01*
X145466392Y-79056814D01*
X145400500Y-78942686D01*
X145307314Y-78849500D01*
X145250250Y-78816554D01*
X145193187Y-78783608D01*
X145129539Y-78766554D01*
X145065892Y-78749500D01*
X144934108Y-78749500D01*
X144806812Y-78783608D01*
X144692686Y-78849500D01*
X144692683Y-78849502D01*
X144599502Y-78942683D01*
X144599500Y-78942686D01*
X144533608Y-79056812D01*
X144499500Y-79184108D01*
X142209729Y-79184108D01*
X142300941Y-79047598D01*
X142380130Y-78856420D01*
X142420500Y-78653465D01*
X142420500Y-78446535D01*
X142380130Y-78243580D01*
X142300941Y-78052402D01*
X142208537Y-77914108D01*
X144499500Y-77914108D01*
X144499500Y-78045892D01*
X144501245Y-78052403D01*
X144533608Y-78173187D01*
X144566554Y-78230250D01*
X144599500Y-78287314D01*
X144692686Y-78380500D01*
X144806814Y-78446392D01*
X144934108Y-78480500D01*
X144934110Y-78480500D01*
X145065890Y-78480500D01*
X145065892Y-78480500D01*
X145193186Y-78446392D01*
X145307314Y-78380500D01*
X145400500Y-78287314D01*
X145466392Y-78173186D01*
X145500500Y-78045892D01*
X145500500Y-77914108D01*
X145466392Y-77786814D01*
X145400500Y-77672686D01*
X145307314Y-77579500D01*
X145238670Y-77539868D01*
X145193187Y-77513608D01*
X145160618Y-77504881D01*
X145065892Y-77479500D01*
X144934108Y-77479500D01*
X144871948Y-77496155D01*
X144806812Y-77513608D01*
X144692686Y-77579500D01*
X144692683Y-77579502D01*
X144599502Y-77672683D01*
X144599500Y-77672686D01*
X144533608Y-77786812D01*
X144524130Y-77822186D01*
X144499500Y-77914108D01*
X142208537Y-77914108D01*
X142185977Y-77880345D01*
X142185975Y-77880342D01*
X142039657Y-77734024D01*
X141947853Y-77672683D01*
X141867598Y-77619059D01*
X141676420Y-77539870D01*
X141676412Y-77539868D01*
X141473469Y-77499500D01*
X141473465Y-77499500D01*
X141266535Y-77499500D01*
X141266530Y-77499500D01*
X141063587Y-77539868D01*
X141063579Y-77539870D01*
X140872403Y-77619058D01*
X140700342Y-77734024D01*
X140700341Y-77734025D01*
X140612181Y-77822186D01*
X140550858Y-77855671D01*
X140481166Y-77850687D01*
X140425233Y-77808815D01*
X140400816Y-77743351D01*
X140400500Y-77734505D01*
X140400500Y-76825495D01*
X140420185Y-76758456D01*
X140472989Y-76712701D01*
X140542147Y-76702757D01*
X140605703Y-76731782D01*
X140612181Y-76737814D01*
X140700342Y-76825975D01*
X140700345Y-76825977D01*
X140872402Y-76940941D01*
X141063580Y-77020130D01*
X141250513Y-77057313D01*
X141266530Y-77060499D01*
X141266534Y-77060500D01*
X141266535Y-77060500D01*
X141473466Y-77060500D01*
X141473467Y-77060499D01*
X141676420Y-77020130D01*
X141867598Y-76940941D01*
X142039655Y-76825977D01*
X142181524Y-76684108D01*
X144499500Y-76684108D01*
X144499500Y-76815892D01*
X144502202Y-76825975D01*
X144533608Y-76943187D01*
X144566554Y-77000250D01*
X144599500Y-77057314D01*
X144692686Y-77150500D01*
X144806814Y-77216392D01*
X144934108Y-77250500D01*
X145065892Y-77250500D01*
X145193186Y-77216392D01*
X145307314Y-77150500D01*
X145400500Y-77057314D01*
X145466392Y-76943186D01*
X145500500Y-76815892D01*
X145500500Y-76684108D01*
X145489782Y-76644108D01*
X160039500Y-76644108D01*
X160039500Y-76775891D01*
X160073608Y-76903187D01*
X160106554Y-76960250D01*
X160139500Y-77017314D01*
X160232686Y-77110500D01*
X160346814Y-77176392D01*
X160474108Y-77210500D01*
X160474110Y-77210500D01*
X160605890Y-77210500D01*
X160605892Y-77210500D01*
X160733186Y-77176392D01*
X160847314Y-77110500D01*
X160940500Y-77017314D01*
X161006392Y-76903186D01*
X161040500Y-76775892D01*
X161040500Y-76644108D01*
X161006392Y-76516814D01*
X160940500Y-76402686D01*
X160847314Y-76309500D01*
X160790250Y-76276554D01*
X160733187Y-76243608D01*
X160669539Y-76226554D01*
X160605892Y-76209500D01*
X160474108Y-76209500D01*
X160346812Y-76243608D01*
X160232686Y-76309500D01*
X160232683Y-76309502D01*
X160139502Y-76402683D01*
X160139500Y-76402686D01*
X160073608Y-76516812D01*
X160039500Y-76644108D01*
X145489782Y-76644108D01*
X145466392Y-76556814D01*
X145400500Y-76442686D01*
X145307314Y-76349500D01*
X145238032Y-76309500D01*
X145193187Y-76283608D01*
X145129539Y-76266554D01*
X145065892Y-76249500D01*
X144934108Y-76249500D01*
X144806812Y-76283608D01*
X144692686Y-76349500D01*
X144692683Y-76349502D01*
X144599502Y-76442683D01*
X144599500Y-76442686D01*
X144533608Y-76556812D01*
X144520137Y-76607089D01*
X144499500Y-76684108D01*
X142181524Y-76684108D01*
X142185977Y-76679655D01*
X142300941Y-76507598D01*
X142380130Y-76316420D01*
X142420500Y-76113465D01*
X142420500Y-75906535D01*
X142380130Y-75703580D01*
X142300941Y-75512402D01*
X142208537Y-75374108D01*
X159749500Y-75374108D01*
X159749500Y-75505892D01*
X159751245Y-75512403D01*
X159783608Y-75633187D01*
X159816554Y-75690250D01*
X159849500Y-75747314D01*
X159942686Y-75840500D01*
X160056814Y-75906392D01*
X160184108Y-75940500D01*
X160184110Y-75940500D01*
X160315890Y-75940500D01*
X160315892Y-75940500D01*
X160443186Y-75906392D01*
X160557314Y-75840500D01*
X160650500Y-75747314D01*
X160716392Y-75633186D01*
X160750500Y-75505892D01*
X160750500Y-75374108D01*
X160716392Y-75246814D01*
X160650500Y-75132686D01*
X160557314Y-75039500D01*
X160488670Y-74999868D01*
X160443187Y-74973608D01*
X160379539Y-74956554D01*
X160315892Y-74939500D01*
X160184108Y-74939500D01*
X160056812Y-74973608D01*
X159942686Y-75039500D01*
X159942683Y-75039502D01*
X159849502Y-75132683D01*
X159849500Y-75132686D01*
X159783608Y-75246812D01*
X159774130Y-75282186D01*
X159749500Y-75374108D01*
X142208537Y-75374108D01*
X142185977Y-75340344D01*
X142039657Y-75194024D01*
X141947853Y-75132683D01*
X141867598Y-75079059D01*
X141676420Y-74999870D01*
X141676412Y-74999868D01*
X141473469Y-74959500D01*
X141473465Y-74959500D01*
X141266535Y-74959500D01*
X141266530Y-74959500D01*
X141063587Y-74999868D01*
X141063579Y-74999870D01*
X140872403Y-75079058D01*
X140700342Y-75194024D01*
X140700341Y-75194025D01*
X140612181Y-75282186D01*
X140550858Y-75315671D01*
X140481166Y-75310687D01*
X140425233Y-75268815D01*
X140400816Y-75203351D01*
X140400500Y-75194505D01*
X140400500Y-74285495D01*
X140420185Y-74218456D01*
X140472989Y-74172701D01*
X140542147Y-74162757D01*
X140605703Y-74191782D01*
X140612181Y-74197814D01*
X140700342Y-74285975D01*
X140700345Y-74285977D01*
X140872402Y-74400941D01*
X141063580Y-74480130D01*
X141266530Y-74520499D01*
X141266534Y-74520500D01*
X141266535Y-74520500D01*
X141473466Y-74520500D01*
X141473467Y-74520499D01*
X141676420Y-74480130D01*
X141867598Y-74400941D01*
X142039655Y-74285977D01*
X142185977Y-74139655D01*
X142300941Y-73967598D01*
X142380130Y-73776420D01*
X142420500Y-73573465D01*
X142420500Y-73366535D01*
X142380130Y-73163580D01*
X142300941Y-72972402D01*
X142185977Y-72800345D01*
X142185975Y-72800342D01*
X142039657Y-72654024D01*
X141972434Y-72609108D01*
X144824500Y-72609108D01*
X144824500Y-72740892D01*
X144833819Y-72775671D01*
X144858608Y-72868187D01*
X144891554Y-72925250D01*
X144924500Y-72982314D01*
X145017686Y-73075500D01*
X145131814Y-73141392D01*
X145259108Y-73175500D01*
X145259110Y-73175500D01*
X145390890Y-73175500D01*
X145390892Y-73175500D01*
X145518186Y-73141392D01*
X145632314Y-73075500D01*
X145725500Y-72982314D01*
X145791392Y-72868186D01*
X145825500Y-72740892D01*
X145825500Y-72609108D01*
X145791392Y-72481814D01*
X145725500Y-72367686D01*
X145632314Y-72274500D01*
X145543720Y-72223350D01*
X145518187Y-72208608D01*
X145454539Y-72191554D01*
X145390892Y-72174500D01*
X145259108Y-72174500D01*
X145131812Y-72208608D01*
X145017686Y-72274500D01*
X145017683Y-72274502D01*
X144924502Y-72367683D01*
X144924500Y-72367686D01*
X144858608Y-72481812D01*
X144843269Y-72539059D01*
X144824500Y-72609108D01*
X141972434Y-72609108D01*
X141953626Y-72596541D01*
X141867598Y-72539059D01*
X141676420Y-72459870D01*
X141676412Y-72459868D01*
X141473469Y-72419500D01*
X141473465Y-72419500D01*
X141266535Y-72419500D01*
X141266530Y-72419500D01*
X141063587Y-72459868D01*
X141063579Y-72459870D01*
X140872403Y-72539058D01*
X140700342Y-72654024D01*
X140700341Y-72654025D01*
X140612181Y-72742186D01*
X140550858Y-72775671D01*
X140481166Y-72770687D01*
X140425233Y-72728815D01*
X140400816Y-72663351D01*
X140400500Y-72654505D01*
X140400500Y-72104500D01*
X140420185Y-72037461D01*
X140472989Y-71991706D01*
X140524500Y-71980500D01*
X142239750Y-71980500D01*
X142239751Y-71980499D01*
X142254568Y-71977552D01*
X142298229Y-71968868D01*
X142298229Y-71968867D01*
X142298231Y-71968867D01*
X142364552Y-71924552D01*
X142408867Y-71858231D01*
X142408867Y-71858229D01*
X142408868Y-71858229D01*
X142420499Y-71799752D01*
X142420500Y-71799750D01*
X142420500Y-71184108D01*
X145749500Y-71184108D01*
X145749500Y-71315891D01*
X145783608Y-71443187D01*
X145816554Y-71500250D01*
X145849500Y-71557314D01*
X145942686Y-71650500D01*
X146056814Y-71716392D01*
X146184108Y-71750500D01*
X146184110Y-71750500D01*
X146315890Y-71750500D01*
X146315892Y-71750500D01*
X146443186Y-71716392D01*
X146557314Y-71650500D01*
X146650500Y-71557314D01*
X146716392Y-71443186D01*
X146750500Y-71315892D01*
X146750500Y-71184108D01*
X146716392Y-71056814D01*
X146650500Y-70942686D01*
X146557314Y-70849500D01*
X146481970Y-70806000D01*
X146443187Y-70783608D01*
X146379539Y-70766554D01*
X146315892Y-70749500D01*
X146184108Y-70749500D01*
X146056812Y-70783608D01*
X145942686Y-70849500D01*
X145942683Y-70849502D01*
X145849502Y-70942683D01*
X145849500Y-70942686D01*
X145783608Y-71056812D01*
X145749500Y-71184108D01*
X142420500Y-71184108D01*
X142420500Y-70060249D01*
X142420499Y-70060247D01*
X142408868Y-70001770D01*
X142408867Y-70001769D01*
X142364552Y-69935447D01*
X142298230Y-69891132D01*
X142298229Y-69891131D01*
X142239752Y-69879500D01*
X142239748Y-69879500D01*
X140524500Y-69879500D01*
X140457461Y-69859815D01*
X140411706Y-69807011D01*
X140400500Y-69755500D01*
X140400500Y-69434108D01*
X148724500Y-69434108D01*
X148724500Y-69565891D01*
X148758608Y-69693187D01*
X148791554Y-69750250D01*
X148824500Y-69807314D01*
X148917686Y-69900500D01*
X148978216Y-69935447D01*
X149031810Y-69966390D01*
X149031814Y-69966392D01*
X149159108Y-70000500D01*
X149159110Y-70000500D01*
X149290890Y-70000500D01*
X149290892Y-70000500D01*
X149418186Y-69966392D01*
X149532314Y-69900500D01*
X149625500Y-69807314D01*
X149691392Y-69693186D01*
X149725500Y-69565892D01*
X149725500Y-69434108D01*
X149691392Y-69306814D01*
X149625500Y-69192686D01*
X149532314Y-69099500D01*
X149475250Y-69066554D01*
X149418187Y-69033608D01*
X149354539Y-69016554D01*
X149290892Y-68999500D01*
X149159108Y-68999500D01*
X149031812Y-69033608D01*
X148917686Y-69099500D01*
X148917683Y-69099502D01*
X148824502Y-69192683D01*
X148824500Y-69192686D01*
X148758608Y-69306812D01*
X148724500Y-69434108D01*
X140400500Y-69434108D01*
X140400500Y-68024500D01*
X140420185Y-67957461D01*
X140472989Y-67911706D01*
X140524500Y-67900500D01*
X165075500Y-67900500D01*
X165142539Y-67920185D01*
G37*
%TD.AperFunction*%
%TD*%
M02*
