%TF.GenerationSoftware,KiCad,Pcbnew,10.0.4*%
%TF.CreationDate,2026-09-10T16:24:45-04:00*%
%TF.ProjectId,ESP32S3_RF_DevBoard,45535033-3253-4335-9f52-465f44657642,rev?*%
%TF.SameCoordinates,Original*%
%TF.FileFunction,Legend,Top*%
%TF.FilePolarity,Positive*%
%FSLAX46Y46*%
G04 Gerber Fmt 4.6, Leading zero omitted, Abs format (unit mm)*
G04 Created by KiCad (PCBNEW 10.0.4) date 2026-09-10 16:24:45*
%MOMM*%
%LPD*%
G01*
G04 APERTURE LIST*
G04 Aperture macros list*
%AMRoundRect*
0 Rectangle with rounded corners*
0 $1 Rounding radius*
0 $2 $3 $4 $5 $6 $7 $8 $9 X,Y pos of 4 corners*
0 Add a 4 corners polygon primitive as box body*
4,1,4,$2,$3,$4,$5,$6,$7,$8,$9,$2,$3,0*
0 Add four circle primitives for the rounded corners*
1,1,$1+$1,$2,$3*
1,1,$1+$1,$4,$5*
1,1,$1+$1,$6,$7*
1,1,$1+$1,$8,$9*
0 Add four rect primitives between the rounded corners*
20,1,$1+$1,$2,$3,$4,$5,0*
20,1,$1+$1,$4,$5,$6,$7,0*
20,1,$1+$1,$6,$7,$8,$9,0*
20,1,$1+$1,$8,$9,$2,$3,0*%
G04 Aperture macros list end*
%ADD10C,0.150000*%
%ADD11C,0.152400*%
%ADD12C,0.000000*%
%ADD13C,0.120000*%
%ADD14C,0.200000*%
%ADD15C,0.010000*%
%ADD16R,0.939000X2.477998*%
%ADD17R,5.562600X6.299200*%
%ADD18C,1.000000*%
%ADD19R,0.600000X1.100000*%
%ADD20R,0.660400X1.041400*%
%ADD21RoundRect,0.200000X0.275000X-0.200000X0.275000X0.200000X-0.275000X0.200000X-0.275000X-0.200000X0*%
%ADD22RoundRect,0.250000X-0.420000X-0.945000X0.420000X-0.945000X0.420000X0.945000X-0.420000X0.945000X0*%
%ADD23RoundRect,0.225000X-0.250000X0.225000X-0.250000X-0.225000X0.250000X-0.225000X0.250000X0.225000X0*%
%ADD24RoundRect,0.102000X-0.200000X0.240000X-0.200000X-0.240000X0.200000X-0.240000X0.200000X0.240000X0*%
%ADD25RoundRect,0.200000X-0.275000X0.200000X-0.275000X-0.200000X0.275000X-0.200000X0.275000X0.200000X0*%
%ADD26R,1.700000X1.700000*%
%ADD27C,1.700000*%
%ADD28C,1.500000*%
%ADD29RoundRect,0.250000X-0.250000X-0.475000X0.250000X-0.475000X0.250000X0.475000X-0.250000X0.475000X0*%
%ADD30RoundRect,0.200000X0.200000X0.275000X-0.200000X0.275000X-0.200000X-0.275000X0.200000X-0.275000X0*%
%ADD31C,0.650000*%
%ADD32O,1.204000X2.304000*%
%ADD33O,1.204000X2.004000*%
%ADD34R,0.299999X0.299999*%
%ADD35R,1.500000X0.900000*%
%ADD36R,0.900000X1.500000*%
%ADD37C,0.600000*%
%ADD38R,3.900000X3.900000*%
%ADD39RoundRect,0.225000X-0.225000X-0.250000X0.225000X-0.250000X0.225000X0.250000X-0.225000X0.250000X0*%
%ADD40RoundRect,0.218750X-0.256250X0.218750X-0.256250X-0.218750X0.256250X-0.218750X0.256250X0.218750X0*%
%ADD41R,0.850000X0.600000*%
%ADD42RoundRect,0.225000X0.225000X0.250000X-0.225000X0.250000X-0.225000X-0.250000X0.225000X-0.250000X0*%
G04 APERTURE END LIST*
D10*
X144298684Y-124344295D02*
X143965350Y-124344295D01*
X143965350Y-124344295D02*
X143932017Y-124725247D01*
X143932017Y-124725247D02*
X143965350Y-124687152D01*
X143965350Y-124687152D02*
X144032017Y-124649057D01*
X144032017Y-124649057D02*
X144198684Y-124649057D01*
X144198684Y-124649057D02*
X144265350Y-124687152D01*
X144265350Y-124687152D02*
X144298684Y-124725247D01*
X144298684Y-124725247D02*
X144332017Y-124801438D01*
X144332017Y-124801438D02*
X144332017Y-124991914D01*
X144332017Y-124991914D02*
X144298684Y-125068104D01*
X144298684Y-125068104D02*
X144265350Y-125106200D01*
X144265350Y-125106200D02*
X144198684Y-125144295D01*
X144198684Y-125144295D02*
X144032017Y-125144295D01*
X144032017Y-125144295D02*
X143965350Y-125106200D01*
X143965350Y-125106200D02*
X143932017Y-125068104D01*
X144532017Y-124344295D02*
X144765351Y-125144295D01*
X144765351Y-125144295D02*
X144998684Y-124344295D01*
X148765350Y-109644295D02*
X148765350Y-108844295D01*
X149232017Y-108844295D02*
X149365350Y-108844295D01*
X149365350Y-108844295D02*
X149432017Y-108882390D01*
X149432017Y-108882390D02*
X149498683Y-108958580D01*
X149498683Y-108958580D02*
X149532017Y-109110961D01*
X149532017Y-109110961D02*
X149532017Y-109377628D01*
X149532017Y-109377628D02*
X149498683Y-109530009D01*
X149498683Y-109530009D02*
X149432017Y-109606200D01*
X149432017Y-109606200D02*
X149365350Y-109644295D01*
X149365350Y-109644295D02*
X149232017Y-109644295D01*
X149232017Y-109644295D02*
X149165350Y-109606200D01*
X149165350Y-109606200D02*
X149098683Y-109530009D01*
X149098683Y-109530009D02*
X149065350Y-109377628D01*
X149065350Y-109377628D02*
X149065350Y-109110961D01*
X149065350Y-109110961D02*
X149098683Y-108958580D01*
X149098683Y-108958580D02*
X149165350Y-108882390D01*
X149165350Y-108882390D02*
X149232017Y-108844295D01*
X149965350Y-108844295D02*
X150032016Y-108844295D01*
X150032016Y-108844295D02*
X150098683Y-108882390D01*
X150098683Y-108882390D02*
X150132016Y-108920485D01*
X150132016Y-108920485D02*
X150165350Y-108996676D01*
X150165350Y-108996676D02*
X150198683Y-109149057D01*
X150198683Y-109149057D02*
X150198683Y-109339533D01*
X150198683Y-109339533D02*
X150165350Y-109491914D01*
X150165350Y-109491914D02*
X150132016Y-109568104D01*
X150132016Y-109568104D02*
X150098683Y-109606200D01*
X150098683Y-109606200D02*
X150032016Y-109644295D01*
X150032016Y-109644295D02*
X149965350Y-109644295D01*
X149965350Y-109644295D02*
X149898683Y-109606200D01*
X149898683Y-109606200D02*
X149865350Y-109568104D01*
X149865350Y-109568104D02*
X149832016Y-109491914D01*
X149832016Y-109491914D02*
X149798683Y-109339533D01*
X149798683Y-109339533D02*
X149798683Y-109149057D01*
X149798683Y-109149057D02*
X149832016Y-108996676D01*
X149832016Y-108996676D02*
X149865350Y-108920485D01*
X149865350Y-108920485D02*
X149898683Y-108882390D01*
X149898683Y-108882390D02*
X149965350Y-108844295D01*
X150665350Y-116625247D02*
X150898684Y-116625247D01*
X150998684Y-117044295D02*
X150665350Y-117044295D01*
X150665350Y-117044295D02*
X150665350Y-116244295D01*
X150665350Y-116244295D02*
X150998684Y-116244295D01*
X151298683Y-117044295D02*
X151298683Y-116244295D01*
X151298683Y-116244295D02*
X151698683Y-117044295D01*
X151698683Y-117044295D02*
X151698683Y-116244295D01*
X161255704Y-89848684D02*
X161255704Y-90282017D01*
X161255704Y-90282017D02*
X160950942Y-90048684D01*
X160950942Y-90048684D02*
X160950942Y-90148684D01*
X160950942Y-90148684D02*
X160912847Y-90215350D01*
X160912847Y-90215350D02*
X160874752Y-90248684D01*
X160874752Y-90248684D02*
X160798561Y-90282017D01*
X160798561Y-90282017D02*
X160608085Y-90282017D01*
X160608085Y-90282017D02*
X160531895Y-90248684D01*
X160531895Y-90248684D02*
X160493800Y-90215350D01*
X160493800Y-90215350D02*
X160455704Y-90148684D01*
X160455704Y-90148684D02*
X160455704Y-89948684D01*
X160455704Y-89948684D02*
X160493800Y-89882017D01*
X160493800Y-89882017D02*
X160531895Y-89848684D01*
X161255704Y-90482017D02*
X160455704Y-90715351D01*
X160455704Y-90715351D02*
X161255704Y-90948684D01*
X161255704Y-91115351D02*
X161255704Y-91548684D01*
X161255704Y-91548684D02*
X160950942Y-91315351D01*
X160950942Y-91315351D02*
X160950942Y-91415351D01*
X160950942Y-91415351D02*
X160912847Y-91482017D01*
X160912847Y-91482017D02*
X160874752Y-91515351D01*
X160874752Y-91515351D02*
X160798561Y-91548684D01*
X160798561Y-91548684D02*
X160608085Y-91548684D01*
X160608085Y-91548684D02*
X160531895Y-91515351D01*
X160531895Y-91515351D02*
X160493800Y-91482017D01*
X160493800Y-91482017D02*
X160455704Y-91415351D01*
X160455704Y-91415351D02*
X160455704Y-91215351D01*
X160455704Y-91215351D02*
X160493800Y-91148684D01*
X160493800Y-91148684D02*
X160531895Y-91115351D01*
X161817609Y-93332017D02*
X161855704Y-93265350D01*
X161855704Y-93265350D02*
X161855704Y-93165350D01*
X161855704Y-93165350D02*
X161817609Y-93065350D01*
X161817609Y-93065350D02*
X161741419Y-92998684D01*
X161741419Y-92998684D02*
X161665228Y-92965350D01*
X161665228Y-92965350D02*
X161512847Y-92932017D01*
X161512847Y-92932017D02*
X161398561Y-92932017D01*
X161398561Y-92932017D02*
X161246180Y-92965350D01*
X161246180Y-92965350D02*
X161169990Y-92998684D01*
X161169990Y-92998684D02*
X161093800Y-93065350D01*
X161093800Y-93065350D02*
X161055704Y-93165350D01*
X161055704Y-93165350D02*
X161055704Y-93232017D01*
X161055704Y-93232017D02*
X161093800Y-93332017D01*
X161093800Y-93332017D02*
X161131895Y-93365350D01*
X161131895Y-93365350D02*
X161398561Y-93365350D01*
X161398561Y-93365350D02*
X161398561Y-93232017D01*
X161055704Y-93665350D02*
X161855704Y-93665350D01*
X161855704Y-93665350D02*
X161055704Y-94065350D01*
X161055704Y-94065350D02*
X161855704Y-94065350D01*
X161055704Y-94398683D02*
X161855704Y-94398683D01*
X161855704Y-94398683D02*
X161855704Y-94565350D01*
X161855704Y-94565350D02*
X161817609Y-94665350D01*
X161817609Y-94665350D02*
X161741419Y-94732017D01*
X161741419Y-94732017D02*
X161665228Y-94765350D01*
X161665228Y-94765350D02*
X161512847Y-94798683D01*
X161512847Y-94798683D02*
X161398561Y-94798683D01*
X161398561Y-94798683D02*
X161246180Y-94765350D01*
X161246180Y-94765350D02*
X161169990Y-94732017D01*
X161169990Y-94732017D02*
X161093800Y-94665350D01*
X161093800Y-94665350D02*
X161055704Y-94565350D01*
X161055704Y-94565350D02*
X161055704Y-94398683D01*
X150362295Y-102583333D02*
X151009914Y-102583333D01*
X151009914Y-102583333D02*
X151086104Y-102550000D01*
X151086104Y-102550000D02*
X151124200Y-102516666D01*
X151124200Y-102516666D02*
X151162295Y-102450000D01*
X151162295Y-102450000D02*
X151162295Y-102316666D01*
X151162295Y-102316666D02*
X151124200Y-102250000D01*
X151124200Y-102250000D02*
X151086104Y-102216666D01*
X151086104Y-102216666D02*
X151009914Y-102183333D01*
X151009914Y-102183333D02*
X150362295Y-102183333D01*
X150438485Y-101883333D02*
X150400390Y-101850000D01*
X150400390Y-101850000D02*
X150362295Y-101783333D01*
X150362295Y-101783333D02*
X150362295Y-101616667D01*
X150362295Y-101616667D02*
X150400390Y-101550000D01*
X150400390Y-101550000D02*
X150438485Y-101516667D01*
X150438485Y-101516667D02*
X150514676Y-101483333D01*
X150514676Y-101483333D02*
X150590866Y-101483333D01*
X150590866Y-101483333D02*
X150705152Y-101516667D01*
X150705152Y-101516667D02*
X151162295Y-101916667D01*
X151162295Y-101916667D02*
X151162295Y-101483333D01*
X157666666Y-110612295D02*
X157666666Y-111259914D01*
X157666666Y-111259914D02*
X157700000Y-111336104D01*
X157700000Y-111336104D02*
X157733333Y-111374200D01*
X157733333Y-111374200D02*
X157800000Y-111412295D01*
X157800000Y-111412295D02*
X157933333Y-111412295D01*
X157933333Y-111412295D02*
X158000000Y-111374200D01*
X158000000Y-111374200D02*
X158033333Y-111336104D01*
X158033333Y-111336104D02*
X158066666Y-111259914D01*
X158066666Y-111259914D02*
X158066666Y-110612295D01*
X158699999Y-110878961D02*
X158699999Y-111412295D01*
X158533333Y-110574200D02*
X158366666Y-111145628D01*
X158366666Y-111145628D02*
X158799999Y-111145628D01*
X146009421Y-111442971D02*
X145971325Y-111542971D01*
X145971325Y-111542971D02*
X145971325Y-111709638D01*
X145971325Y-111709638D02*
X146009421Y-111776304D01*
X146009421Y-111776304D02*
X146047516Y-111809638D01*
X146047516Y-111809638D02*
X146123706Y-111842971D01*
X146123706Y-111842971D02*
X146199897Y-111842971D01*
X146199897Y-111842971D02*
X146276087Y-111809638D01*
X146276087Y-111809638D02*
X146314182Y-111776304D01*
X146314182Y-111776304D02*
X146352278Y-111709638D01*
X146352278Y-111709638D02*
X146390373Y-111576304D01*
X146390373Y-111576304D02*
X146428468Y-111509638D01*
X146428468Y-111509638D02*
X146466563Y-111476304D01*
X146466563Y-111476304D02*
X146542754Y-111442971D01*
X146542754Y-111442971D02*
X146618944Y-111442971D01*
X146618944Y-111442971D02*
X146695135Y-111476304D01*
X146695135Y-111476304D02*
X146733230Y-111509638D01*
X146733230Y-111509638D02*
X146771325Y-111576304D01*
X146771325Y-111576304D02*
X146771325Y-111742971D01*
X146771325Y-111742971D02*
X146733230Y-111842971D01*
X146771325Y-112076305D02*
X145971325Y-112242971D01*
X145971325Y-112242971D02*
X146542754Y-112376305D01*
X146542754Y-112376305D02*
X145971325Y-112509638D01*
X145971325Y-112509638D02*
X146771325Y-112676305D01*
X145971325Y-113309638D02*
X145971325Y-112909638D01*
X145971325Y-113109638D02*
X146771325Y-113109638D01*
X146771325Y-113109638D02*
X146657040Y-113042971D01*
X146657040Y-113042971D02*
X146580849Y-112976305D01*
X146580849Y-112976305D02*
X146542754Y-112909638D01*
X143965372Y-111426306D02*
X143927277Y-111526306D01*
X143927277Y-111526306D02*
X143889181Y-111559639D01*
X143889181Y-111559639D02*
X143812991Y-111592972D01*
X143812991Y-111592972D02*
X143698705Y-111592972D01*
X143698705Y-111592972D02*
X143622515Y-111559639D01*
X143622515Y-111559639D02*
X143584420Y-111526306D01*
X143584420Y-111526306D02*
X143546324Y-111459639D01*
X143546324Y-111459639D02*
X143546324Y-111192972D01*
X143546324Y-111192972D02*
X144346324Y-111192972D01*
X144346324Y-111192972D02*
X144346324Y-111426306D01*
X144346324Y-111426306D02*
X144308229Y-111492972D01*
X144308229Y-111492972D02*
X144270134Y-111526306D01*
X144270134Y-111526306D02*
X144193943Y-111559639D01*
X144193943Y-111559639D02*
X144117753Y-111559639D01*
X144117753Y-111559639D02*
X144041562Y-111526306D01*
X144041562Y-111526306D02*
X144003467Y-111492972D01*
X144003467Y-111492972D02*
X143965372Y-111426306D01*
X143965372Y-111426306D02*
X143965372Y-111192972D01*
X144346324Y-112026306D02*
X144346324Y-112159639D01*
X144346324Y-112159639D02*
X144308229Y-112226306D01*
X144308229Y-112226306D02*
X144232039Y-112292972D01*
X144232039Y-112292972D02*
X144079658Y-112326306D01*
X144079658Y-112326306D02*
X143812991Y-112326306D01*
X143812991Y-112326306D02*
X143660610Y-112292972D01*
X143660610Y-112292972D02*
X143584420Y-112226306D01*
X143584420Y-112226306D02*
X143546324Y-112159639D01*
X143546324Y-112159639D02*
X143546324Y-112026306D01*
X143546324Y-112026306D02*
X143584420Y-111959639D01*
X143584420Y-111959639D02*
X143660610Y-111892972D01*
X143660610Y-111892972D02*
X143812991Y-111859639D01*
X143812991Y-111859639D02*
X144079658Y-111859639D01*
X144079658Y-111859639D02*
X144232039Y-111892972D01*
X144232039Y-111892972D02*
X144308229Y-111959639D01*
X144308229Y-111959639D02*
X144346324Y-112026306D01*
X144346324Y-112759639D02*
X144346324Y-112892972D01*
X144346324Y-112892972D02*
X144308229Y-112959639D01*
X144308229Y-112959639D02*
X144232039Y-113026305D01*
X144232039Y-113026305D02*
X144079658Y-113059639D01*
X144079658Y-113059639D02*
X143812991Y-113059639D01*
X143812991Y-113059639D02*
X143660610Y-113026305D01*
X143660610Y-113026305D02*
X143584420Y-112959639D01*
X143584420Y-112959639D02*
X143546324Y-112892972D01*
X143546324Y-112892972D02*
X143546324Y-112759639D01*
X143546324Y-112759639D02*
X143584420Y-112692972D01*
X143584420Y-112692972D02*
X143660610Y-112626305D01*
X143660610Y-112626305D02*
X143812991Y-112592972D01*
X143812991Y-112592972D02*
X144079658Y-112592972D01*
X144079658Y-112592972D02*
X144232039Y-112626305D01*
X144232039Y-112626305D02*
X144308229Y-112692972D01*
X144308229Y-112692972D02*
X144346324Y-112759639D01*
X144346324Y-113259638D02*
X144346324Y-113659638D01*
X143546324Y-113459638D02*
X144346324Y-113459638D01*
X154862295Y-111166666D02*
X154481342Y-111399999D01*
X154862295Y-111566666D02*
X154062295Y-111566666D01*
X154062295Y-111566666D02*
X154062295Y-111299999D01*
X154062295Y-111299999D02*
X154100390Y-111233333D01*
X154100390Y-111233333D02*
X154138485Y-111199999D01*
X154138485Y-111199999D02*
X154214676Y-111166666D01*
X154214676Y-111166666D02*
X154328961Y-111166666D01*
X154328961Y-111166666D02*
X154405152Y-111199999D01*
X154405152Y-111199999D02*
X154443247Y-111233333D01*
X154443247Y-111233333D02*
X154481342Y-111299999D01*
X154481342Y-111299999D02*
X154481342Y-111566666D01*
X154405152Y-110766666D02*
X154367057Y-110833333D01*
X154367057Y-110833333D02*
X154328961Y-110866666D01*
X154328961Y-110866666D02*
X154252771Y-110899999D01*
X154252771Y-110899999D02*
X154214676Y-110899999D01*
X154214676Y-110899999D02*
X154138485Y-110866666D01*
X154138485Y-110866666D02*
X154100390Y-110833333D01*
X154100390Y-110833333D02*
X154062295Y-110766666D01*
X154062295Y-110766666D02*
X154062295Y-110633333D01*
X154062295Y-110633333D02*
X154100390Y-110566666D01*
X154100390Y-110566666D02*
X154138485Y-110533333D01*
X154138485Y-110533333D02*
X154214676Y-110499999D01*
X154214676Y-110499999D02*
X154252771Y-110499999D01*
X154252771Y-110499999D02*
X154328961Y-110533333D01*
X154328961Y-110533333D02*
X154367057Y-110566666D01*
X154367057Y-110566666D02*
X154405152Y-110633333D01*
X154405152Y-110633333D02*
X154405152Y-110766666D01*
X154405152Y-110766666D02*
X154443247Y-110833333D01*
X154443247Y-110833333D02*
X154481342Y-110866666D01*
X154481342Y-110866666D02*
X154557533Y-110899999D01*
X154557533Y-110899999D02*
X154709914Y-110899999D01*
X154709914Y-110899999D02*
X154786104Y-110866666D01*
X154786104Y-110866666D02*
X154824200Y-110833333D01*
X154824200Y-110833333D02*
X154862295Y-110766666D01*
X154862295Y-110766666D02*
X154862295Y-110633333D01*
X154862295Y-110633333D02*
X154824200Y-110566666D01*
X154824200Y-110566666D02*
X154786104Y-110533333D01*
X154786104Y-110533333D02*
X154709914Y-110499999D01*
X154709914Y-110499999D02*
X154557533Y-110499999D01*
X154557533Y-110499999D02*
X154481342Y-110533333D01*
X154481342Y-110533333D02*
X154443247Y-110566666D01*
X154443247Y-110566666D02*
X154405152Y-110633333D01*
X154883333Y-90936104D02*
X154850000Y-90974200D01*
X154850000Y-90974200D02*
X154750000Y-91012295D01*
X154750000Y-91012295D02*
X154683333Y-91012295D01*
X154683333Y-91012295D02*
X154583333Y-90974200D01*
X154583333Y-90974200D02*
X154516667Y-90898009D01*
X154516667Y-90898009D02*
X154483333Y-90821819D01*
X154483333Y-90821819D02*
X154450000Y-90669438D01*
X154450000Y-90669438D02*
X154450000Y-90555152D01*
X154450000Y-90555152D02*
X154483333Y-90402771D01*
X154483333Y-90402771D02*
X154516667Y-90326580D01*
X154516667Y-90326580D02*
X154583333Y-90250390D01*
X154583333Y-90250390D02*
X154683333Y-90212295D01*
X154683333Y-90212295D02*
X154750000Y-90212295D01*
X154750000Y-90212295D02*
X154850000Y-90250390D01*
X154850000Y-90250390D02*
X154883333Y-90288485D01*
X155116667Y-90212295D02*
X155550000Y-90212295D01*
X155550000Y-90212295D02*
X155316667Y-90517057D01*
X155316667Y-90517057D02*
X155416667Y-90517057D01*
X155416667Y-90517057D02*
X155483333Y-90555152D01*
X155483333Y-90555152D02*
X155516667Y-90593247D01*
X155516667Y-90593247D02*
X155550000Y-90669438D01*
X155550000Y-90669438D02*
X155550000Y-90859914D01*
X155550000Y-90859914D02*
X155516667Y-90936104D01*
X155516667Y-90936104D02*
X155483333Y-90974200D01*
X155483333Y-90974200D02*
X155416667Y-91012295D01*
X155416667Y-91012295D02*
X155216667Y-91012295D01*
X155216667Y-91012295D02*
X155150000Y-90974200D01*
X155150000Y-90974200D02*
X155116667Y-90936104D01*
X161333333Y-119286104D02*
X161300000Y-119324200D01*
X161300000Y-119324200D02*
X161200000Y-119362295D01*
X161200000Y-119362295D02*
X161133333Y-119362295D01*
X161133333Y-119362295D02*
X161033333Y-119324200D01*
X161033333Y-119324200D02*
X160966667Y-119248009D01*
X160966667Y-119248009D02*
X160933333Y-119171819D01*
X160933333Y-119171819D02*
X160900000Y-119019438D01*
X160900000Y-119019438D02*
X160900000Y-118905152D01*
X160900000Y-118905152D02*
X160933333Y-118752771D01*
X160933333Y-118752771D02*
X160966667Y-118676580D01*
X160966667Y-118676580D02*
X161033333Y-118600390D01*
X161033333Y-118600390D02*
X161133333Y-118562295D01*
X161133333Y-118562295D02*
X161200000Y-118562295D01*
X161200000Y-118562295D02*
X161300000Y-118600390D01*
X161300000Y-118600390D02*
X161333333Y-118638485D01*
X161733333Y-118905152D02*
X161666667Y-118867057D01*
X161666667Y-118867057D02*
X161633333Y-118828961D01*
X161633333Y-118828961D02*
X161600000Y-118752771D01*
X161600000Y-118752771D02*
X161600000Y-118714676D01*
X161600000Y-118714676D02*
X161633333Y-118638485D01*
X161633333Y-118638485D02*
X161666667Y-118600390D01*
X161666667Y-118600390D02*
X161733333Y-118562295D01*
X161733333Y-118562295D02*
X161866667Y-118562295D01*
X161866667Y-118562295D02*
X161933333Y-118600390D01*
X161933333Y-118600390D02*
X161966667Y-118638485D01*
X161966667Y-118638485D02*
X162000000Y-118714676D01*
X162000000Y-118714676D02*
X162000000Y-118752771D01*
X162000000Y-118752771D02*
X161966667Y-118828961D01*
X161966667Y-118828961D02*
X161933333Y-118867057D01*
X161933333Y-118867057D02*
X161866667Y-118905152D01*
X161866667Y-118905152D02*
X161733333Y-118905152D01*
X161733333Y-118905152D02*
X161666667Y-118943247D01*
X161666667Y-118943247D02*
X161633333Y-118981342D01*
X161633333Y-118981342D02*
X161600000Y-119057533D01*
X161600000Y-119057533D02*
X161600000Y-119209914D01*
X161600000Y-119209914D02*
X161633333Y-119286104D01*
X161633333Y-119286104D02*
X161666667Y-119324200D01*
X161666667Y-119324200D02*
X161733333Y-119362295D01*
X161733333Y-119362295D02*
X161866667Y-119362295D01*
X161866667Y-119362295D02*
X161933333Y-119324200D01*
X161933333Y-119324200D02*
X161966667Y-119286104D01*
X161966667Y-119286104D02*
X162000000Y-119209914D01*
X162000000Y-119209914D02*
X162000000Y-119057533D01*
X162000000Y-119057533D02*
X161966667Y-118981342D01*
X161966667Y-118981342D02*
X161933333Y-118943247D01*
X161933333Y-118943247D02*
X161866667Y-118905152D01*
X147681980Y-123532625D02*
X146881980Y-123532625D01*
X146881980Y-123532625D02*
X146881980Y-123365958D01*
X146881980Y-123365958D02*
X146920075Y-123265958D01*
X146920075Y-123265958D02*
X146996265Y-123199292D01*
X146996265Y-123199292D02*
X147072456Y-123165958D01*
X147072456Y-123165958D02*
X147224837Y-123132625D01*
X147224837Y-123132625D02*
X147339123Y-123132625D01*
X147339123Y-123132625D02*
X147491504Y-123165958D01*
X147491504Y-123165958D02*
X147567694Y-123199292D01*
X147567694Y-123199292D02*
X147643885Y-123265958D01*
X147643885Y-123265958D02*
X147681980Y-123365958D01*
X147681980Y-123365958D02*
X147681980Y-123532625D01*
X147681980Y-122465958D02*
X147681980Y-122865958D01*
X147681980Y-122665958D02*
X146881980Y-122665958D01*
X146881980Y-122665958D02*
X146996265Y-122732625D01*
X146996265Y-122732625D02*
X147072456Y-122799292D01*
X147072456Y-122799292D02*
X147110551Y-122865958D01*
X162112295Y-111050000D02*
X161731342Y-111283333D01*
X162112295Y-111450000D02*
X161312295Y-111450000D01*
X161312295Y-111450000D02*
X161312295Y-111183333D01*
X161312295Y-111183333D02*
X161350390Y-111116667D01*
X161350390Y-111116667D02*
X161388485Y-111083333D01*
X161388485Y-111083333D02*
X161464676Y-111050000D01*
X161464676Y-111050000D02*
X161578961Y-111050000D01*
X161578961Y-111050000D02*
X161655152Y-111083333D01*
X161655152Y-111083333D02*
X161693247Y-111116667D01*
X161693247Y-111116667D02*
X161731342Y-111183333D01*
X161731342Y-111183333D02*
X161731342Y-111450000D01*
X162112295Y-110383333D02*
X162112295Y-110783333D01*
X162112295Y-110583333D02*
X161312295Y-110583333D01*
X161312295Y-110583333D02*
X161426580Y-110650000D01*
X161426580Y-110650000D02*
X161502771Y-110716667D01*
X161502771Y-110716667D02*
X161540866Y-110783333D01*
X161312295Y-109950000D02*
X161312295Y-109883333D01*
X161312295Y-109883333D02*
X161350390Y-109816666D01*
X161350390Y-109816666D02*
X161388485Y-109783333D01*
X161388485Y-109783333D02*
X161464676Y-109750000D01*
X161464676Y-109750000D02*
X161617057Y-109716666D01*
X161617057Y-109716666D02*
X161807533Y-109716666D01*
X161807533Y-109716666D02*
X161959914Y-109750000D01*
X161959914Y-109750000D02*
X162036104Y-109783333D01*
X162036104Y-109783333D02*
X162074200Y-109816666D01*
X162074200Y-109816666D02*
X162112295Y-109883333D01*
X162112295Y-109883333D02*
X162112295Y-109950000D01*
X162112295Y-109950000D02*
X162074200Y-110016666D01*
X162074200Y-110016666D02*
X162036104Y-110050000D01*
X162036104Y-110050000D02*
X161959914Y-110083333D01*
X161959914Y-110083333D02*
X161807533Y-110116666D01*
X161807533Y-110116666D02*
X161617057Y-110116666D01*
X161617057Y-110116666D02*
X161464676Y-110083333D01*
X161464676Y-110083333D02*
X161388485Y-110050000D01*
X161388485Y-110050000D02*
X161350390Y-110016666D01*
X161350390Y-110016666D02*
X161312295Y-109950000D01*
X147885723Y-126239674D02*
X148262545Y-125999728D01*
X147878742Y-125839735D02*
X148678621Y-125825773D01*
X148678621Y-125825773D02*
X148683275Y-126092399D01*
X148683275Y-126092399D02*
X148646349Y-126159720D01*
X148646349Y-126159720D02*
X148608841Y-126193713D01*
X148608841Y-126193713D02*
X148533244Y-126228371D01*
X148533244Y-126228371D02*
X148418975Y-126230366D01*
X148418975Y-126230366D02*
X148342215Y-126198367D01*
X148342215Y-126198367D02*
X148303544Y-126165704D01*
X148303544Y-126165704D02*
X148264291Y-126099712D01*
X148264291Y-126099712D02*
X148259637Y-125833086D01*
X147897358Y-126906239D02*
X147890377Y-126506300D01*
X147893868Y-126706269D02*
X148693746Y-126692308D01*
X148693746Y-126692308D02*
X148578314Y-126627646D01*
X148578314Y-126627646D02*
X148500972Y-126562319D01*
X148500972Y-126562319D02*
X148461719Y-126496327D01*
X163996666Y-68112295D02*
X163996666Y-68683723D01*
X163996666Y-68683723D02*
X163963333Y-68798009D01*
X163963333Y-68798009D02*
X163896666Y-68874200D01*
X163896666Y-68874200D02*
X163796666Y-68912295D01*
X163796666Y-68912295D02*
X163730000Y-68912295D01*
X164263333Y-68112295D02*
X164696666Y-68112295D01*
X164696666Y-68112295D02*
X164463333Y-68417057D01*
X164463333Y-68417057D02*
X164563333Y-68417057D01*
X164563333Y-68417057D02*
X164629999Y-68455152D01*
X164629999Y-68455152D02*
X164663333Y-68493247D01*
X164663333Y-68493247D02*
X164696666Y-68569438D01*
X164696666Y-68569438D02*
X164696666Y-68759914D01*
X164696666Y-68759914D02*
X164663333Y-68836104D01*
X164663333Y-68836104D02*
X164629999Y-68874200D01*
X164629999Y-68874200D02*
X164563333Y-68912295D01*
X164563333Y-68912295D02*
X164363333Y-68912295D01*
X164363333Y-68912295D02*
X164296666Y-68874200D01*
X164296666Y-68874200D02*
X164263333Y-68836104D01*
X149883333Y-99162295D02*
X149650000Y-98781342D01*
X149483333Y-99162295D02*
X149483333Y-98362295D01*
X149483333Y-98362295D02*
X149750000Y-98362295D01*
X149750000Y-98362295D02*
X149816667Y-98400390D01*
X149816667Y-98400390D02*
X149850000Y-98438485D01*
X149850000Y-98438485D02*
X149883333Y-98514676D01*
X149883333Y-98514676D02*
X149883333Y-98628961D01*
X149883333Y-98628961D02*
X149850000Y-98705152D01*
X149850000Y-98705152D02*
X149816667Y-98743247D01*
X149816667Y-98743247D02*
X149750000Y-98781342D01*
X149750000Y-98781342D02*
X149483333Y-98781342D01*
X150116667Y-98362295D02*
X150550000Y-98362295D01*
X150550000Y-98362295D02*
X150316667Y-98667057D01*
X150316667Y-98667057D02*
X150416667Y-98667057D01*
X150416667Y-98667057D02*
X150483333Y-98705152D01*
X150483333Y-98705152D02*
X150516667Y-98743247D01*
X150516667Y-98743247D02*
X150550000Y-98819438D01*
X150550000Y-98819438D02*
X150550000Y-99009914D01*
X150550000Y-99009914D02*
X150516667Y-99086104D01*
X150516667Y-99086104D02*
X150483333Y-99124200D01*
X150483333Y-99124200D02*
X150416667Y-99162295D01*
X150416667Y-99162295D02*
X150216667Y-99162295D01*
X150216667Y-99162295D02*
X150150000Y-99124200D01*
X150150000Y-99124200D02*
X150116667Y-99086104D01*
X146100801Y-117241666D02*
X146062705Y-117341666D01*
X146062705Y-117341666D02*
X146062705Y-117508333D01*
X146062705Y-117508333D02*
X146100801Y-117574999D01*
X146100801Y-117574999D02*
X146138896Y-117608333D01*
X146138896Y-117608333D02*
X146215086Y-117641666D01*
X146215086Y-117641666D02*
X146291277Y-117641666D01*
X146291277Y-117641666D02*
X146367467Y-117608333D01*
X146367467Y-117608333D02*
X146405562Y-117574999D01*
X146405562Y-117574999D02*
X146443658Y-117508333D01*
X146443658Y-117508333D02*
X146481753Y-117374999D01*
X146481753Y-117374999D02*
X146519848Y-117308333D01*
X146519848Y-117308333D02*
X146557943Y-117274999D01*
X146557943Y-117274999D02*
X146634134Y-117241666D01*
X146634134Y-117241666D02*
X146710324Y-117241666D01*
X146710324Y-117241666D02*
X146786515Y-117274999D01*
X146786515Y-117274999D02*
X146824610Y-117308333D01*
X146824610Y-117308333D02*
X146862705Y-117374999D01*
X146862705Y-117374999D02*
X146862705Y-117541666D01*
X146862705Y-117541666D02*
X146824610Y-117641666D01*
X146862705Y-117875000D02*
X146062705Y-118041666D01*
X146062705Y-118041666D02*
X146634134Y-118175000D01*
X146634134Y-118175000D02*
X146062705Y-118308333D01*
X146062705Y-118308333D02*
X146862705Y-118475000D01*
X146786515Y-118708333D02*
X146824610Y-118741666D01*
X146824610Y-118741666D02*
X146862705Y-118808333D01*
X146862705Y-118808333D02*
X146862705Y-118975000D01*
X146862705Y-118975000D02*
X146824610Y-119041666D01*
X146824610Y-119041666D02*
X146786515Y-119075000D01*
X146786515Y-119075000D02*
X146710324Y-119108333D01*
X146710324Y-119108333D02*
X146634134Y-119108333D01*
X146634134Y-119108333D02*
X146519848Y-119075000D01*
X146519848Y-119075000D02*
X146062705Y-118675000D01*
X146062705Y-118675000D02*
X146062705Y-119108333D01*
X143487706Y-117158333D02*
X143868659Y-116925000D01*
X143487706Y-116758333D02*
X144287706Y-116758333D01*
X144287706Y-116758333D02*
X144287706Y-117025000D01*
X144287706Y-117025000D02*
X144249611Y-117091667D01*
X144249611Y-117091667D02*
X144211516Y-117125000D01*
X144211516Y-117125000D02*
X144135325Y-117158333D01*
X144135325Y-117158333D02*
X144021040Y-117158333D01*
X144021040Y-117158333D02*
X143944849Y-117125000D01*
X143944849Y-117125000D02*
X143906754Y-117091667D01*
X143906754Y-117091667D02*
X143868659Y-117025000D01*
X143868659Y-117025000D02*
X143868659Y-116758333D01*
X143906754Y-117458333D02*
X143906754Y-117691667D01*
X143487706Y-117791667D02*
X143487706Y-117458333D01*
X143487706Y-117458333D02*
X144287706Y-117458333D01*
X144287706Y-117458333D02*
X144287706Y-117791667D01*
X143525802Y-118058333D02*
X143487706Y-118158333D01*
X143487706Y-118158333D02*
X143487706Y-118325000D01*
X143487706Y-118325000D02*
X143525802Y-118391666D01*
X143525802Y-118391666D02*
X143563897Y-118425000D01*
X143563897Y-118425000D02*
X143640087Y-118458333D01*
X143640087Y-118458333D02*
X143716278Y-118458333D01*
X143716278Y-118458333D02*
X143792468Y-118425000D01*
X143792468Y-118425000D02*
X143830563Y-118391666D01*
X143830563Y-118391666D02*
X143868659Y-118325000D01*
X143868659Y-118325000D02*
X143906754Y-118191666D01*
X143906754Y-118191666D02*
X143944849Y-118125000D01*
X143944849Y-118125000D02*
X143982944Y-118091666D01*
X143982944Y-118091666D02*
X144059135Y-118058333D01*
X144059135Y-118058333D02*
X144135325Y-118058333D01*
X144135325Y-118058333D02*
X144211516Y-118091666D01*
X144211516Y-118091666D02*
X144249611Y-118125000D01*
X144249611Y-118125000D02*
X144287706Y-118191666D01*
X144287706Y-118191666D02*
X144287706Y-118358333D01*
X144287706Y-118358333D02*
X144249611Y-118458333D01*
X143906754Y-118758333D02*
X143906754Y-118991667D01*
X143487706Y-119091667D02*
X143487706Y-118758333D01*
X143487706Y-118758333D02*
X144287706Y-118758333D01*
X144287706Y-118758333D02*
X144287706Y-119091667D01*
X144287706Y-119291666D02*
X144287706Y-119691666D01*
X143487706Y-119491666D02*
X144287706Y-119491666D01*
X160383333Y-107286104D02*
X160350000Y-107324200D01*
X160350000Y-107324200D02*
X160250000Y-107362295D01*
X160250000Y-107362295D02*
X160183333Y-107362295D01*
X160183333Y-107362295D02*
X160083333Y-107324200D01*
X160083333Y-107324200D02*
X160016667Y-107248009D01*
X160016667Y-107248009D02*
X159983333Y-107171819D01*
X159983333Y-107171819D02*
X159950000Y-107019438D01*
X159950000Y-107019438D02*
X159950000Y-106905152D01*
X159950000Y-106905152D02*
X159983333Y-106752771D01*
X159983333Y-106752771D02*
X160016667Y-106676580D01*
X160016667Y-106676580D02*
X160083333Y-106600390D01*
X160083333Y-106600390D02*
X160183333Y-106562295D01*
X160183333Y-106562295D02*
X160250000Y-106562295D01*
X160250000Y-106562295D02*
X160350000Y-106600390D01*
X160350000Y-106600390D02*
X160383333Y-106638485D01*
X161050000Y-107362295D02*
X160650000Y-107362295D01*
X160850000Y-107362295D02*
X160850000Y-106562295D01*
X160850000Y-106562295D02*
X160783333Y-106676580D01*
X160783333Y-106676580D02*
X160716667Y-106752771D01*
X160716667Y-106752771D02*
X160650000Y-106790866D01*
X159883333Y-103286104D02*
X159850000Y-103324200D01*
X159850000Y-103324200D02*
X159750000Y-103362295D01*
X159750000Y-103362295D02*
X159683333Y-103362295D01*
X159683333Y-103362295D02*
X159583333Y-103324200D01*
X159583333Y-103324200D02*
X159516667Y-103248009D01*
X159516667Y-103248009D02*
X159483333Y-103171819D01*
X159483333Y-103171819D02*
X159450000Y-103019438D01*
X159450000Y-103019438D02*
X159450000Y-102905152D01*
X159450000Y-102905152D02*
X159483333Y-102752771D01*
X159483333Y-102752771D02*
X159516667Y-102676580D01*
X159516667Y-102676580D02*
X159583333Y-102600390D01*
X159583333Y-102600390D02*
X159683333Y-102562295D01*
X159683333Y-102562295D02*
X159750000Y-102562295D01*
X159750000Y-102562295D02*
X159850000Y-102600390D01*
X159850000Y-102600390D02*
X159883333Y-102638485D01*
X160150000Y-102638485D02*
X160183333Y-102600390D01*
X160183333Y-102600390D02*
X160250000Y-102562295D01*
X160250000Y-102562295D02*
X160416667Y-102562295D01*
X160416667Y-102562295D02*
X160483333Y-102600390D01*
X160483333Y-102600390D02*
X160516667Y-102638485D01*
X160516667Y-102638485D02*
X160550000Y-102714676D01*
X160550000Y-102714676D02*
X160550000Y-102790866D01*
X160550000Y-102790866D02*
X160516667Y-102905152D01*
X160516667Y-102905152D02*
X160116667Y-103362295D01*
X160116667Y-103362295D02*
X160550000Y-103362295D01*
X149733333Y-90712295D02*
X149500000Y-90331342D01*
X149333333Y-90712295D02*
X149333333Y-89912295D01*
X149333333Y-89912295D02*
X149600000Y-89912295D01*
X149600000Y-89912295D02*
X149666667Y-89950390D01*
X149666667Y-89950390D02*
X149700000Y-89988485D01*
X149700000Y-89988485D02*
X149733333Y-90064676D01*
X149733333Y-90064676D02*
X149733333Y-90178961D01*
X149733333Y-90178961D02*
X149700000Y-90255152D01*
X149700000Y-90255152D02*
X149666667Y-90293247D01*
X149666667Y-90293247D02*
X149600000Y-90331342D01*
X149600000Y-90331342D02*
X149333333Y-90331342D01*
X150333333Y-90178961D02*
X150333333Y-90712295D01*
X150166667Y-89874200D02*
X150000000Y-90445628D01*
X150000000Y-90445628D02*
X150433333Y-90445628D01*
X160737704Y-120066666D02*
X160166276Y-120066666D01*
X160166276Y-120066666D02*
X160051990Y-120033333D01*
X160051990Y-120033333D02*
X159975800Y-119966666D01*
X159975800Y-119966666D02*
X159937704Y-119866666D01*
X159937704Y-119866666D02*
X159937704Y-119800000D01*
X159937704Y-120766666D02*
X159937704Y-120366666D01*
X159937704Y-120566666D02*
X160737704Y-120566666D01*
X160737704Y-120566666D02*
X160623419Y-120499999D01*
X160623419Y-120499999D02*
X160547228Y-120433333D01*
X160547228Y-120433333D02*
X160509133Y-120366666D01*
X150783333Y-113762295D02*
X150550000Y-113381342D01*
X150383333Y-113762295D02*
X150383333Y-112962295D01*
X150383333Y-112962295D02*
X150650000Y-112962295D01*
X150650000Y-112962295D02*
X150716667Y-113000390D01*
X150716667Y-113000390D02*
X150750000Y-113038485D01*
X150750000Y-113038485D02*
X150783333Y-113114676D01*
X150783333Y-113114676D02*
X150783333Y-113228961D01*
X150783333Y-113228961D02*
X150750000Y-113305152D01*
X150750000Y-113305152D02*
X150716667Y-113343247D01*
X150716667Y-113343247D02*
X150650000Y-113381342D01*
X150650000Y-113381342D02*
X150383333Y-113381342D01*
X151116667Y-113762295D02*
X151250000Y-113762295D01*
X151250000Y-113762295D02*
X151316667Y-113724200D01*
X151316667Y-113724200D02*
X151350000Y-113686104D01*
X151350000Y-113686104D02*
X151416667Y-113571819D01*
X151416667Y-113571819D02*
X151450000Y-113419438D01*
X151450000Y-113419438D02*
X151450000Y-113114676D01*
X151450000Y-113114676D02*
X151416667Y-113038485D01*
X151416667Y-113038485D02*
X151383333Y-113000390D01*
X151383333Y-113000390D02*
X151316667Y-112962295D01*
X151316667Y-112962295D02*
X151183333Y-112962295D01*
X151183333Y-112962295D02*
X151116667Y-113000390D01*
X151116667Y-113000390D02*
X151083333Y-113038485D01*
X151083333Y-113038485D02*
X151050000Y-113114676D01*
X151050000Y-113114676D02*
X151050000Y-113305152D01*
X151050000Y-113305152D02*
X151083333Y-113381342D01*
X151083333Y-113381342D02*
X151116667Y-113419438D01*
X151116667Y-113419438D02*
X151183333Y-113457533D01*
X151183333Y-113457533D02*
X151316667Y-113457533D01*
X151316667Y-113457533D02*
X151383333Y-113419438D01*
X151383333Y-113419438D02*
X151416667Y-113381342D01*
X151416667Y-113381342D02*
X151450000Y-113305152D01*
X152962295Y-118409523D02*
X153609914Y-118409523D01*
X153609914Y-118409523D02*
X153686104Y-118371428D01*
X153686104Y-118371428D02*
X153724200Y-118333333D01*
X153724200Y-118333333D02*
X153762295Y-118257142D01*
X153762295Y-118257142D02*
X153762295Y-118104761D01*
X153762295Y-118104761D02*
X153724200Y-118028571D01*
X153724200Y-118028571D02*
X153686104Y-117990476D01*
X153686104Y-117990476D02*
X153609914Y-117952380D01*
X153609914Y-117952380D02*
X152962295Y-117952380D01*
X153762295Y-117152381D02*
X153762295Y-117609524D01*
X153762295Y-117380952D02*
X152962295Y-117380952D01*
X152962295Y-117380952D02*
X153076580Y-117457143D01*
X153076580Y-117457143D02*
X153152771Y-117533333D01*
X153152771Y-117533333D02*
X153190866Y-117609524D01*
X152266666Y-81912295D02*
X152266666Y-82559914D01*
X152266666Y-82559914D02*
X152300000Y-82636104D01*
X152300000Y-82636104D02*
X152333333Y-82674200D01*
X152333333Y-82674200D02*
X152400000Y-82712295D01*
X152400000Y-82712295D02*
X152533333Y-82712295D01*
X152533333Y-82712295D02*
X152600000Y-82674200D01*
X152600000Y-82674200D02*
X152633333Y-82636104D01*
X152633333Y-82636104D02*
X152666666Y-82559914D01*
X152666666Y-82559914D02*
X152666666Y-81912295D01*
X152933333Y-81912295D02*
X153366666Y-81912295D01*
X153366666Y-81912295D02*
X153133333Y-82217057D01*
X153133333Y-82217057D02*
X153233333Y-82217057D01*
X153233333Y-82217057D02*
X153299999Y-82255152D01*
X153299999Y-82255152D02*
X153333333Y-82293247D01*
X153333333Y-82293247D02*
X153366666Y-82369438D01*
X153366666Y-82369438D02*
X153366666Y-82559914D01*
X153366666Y-82559914D02*
X153333333Y-82636104D01*
X153333333Y-82636104D02*
X153299999Y-82674200D01*
X153299999Y-82674200D02*
X153233333Y-82712295D01*
X153233333Y-82712295D02*
X153033333Y-82712295D01*
X153033333Y-82712295D02*
X152966666Y-82674200D01*
X152966666Y-82674200D02*
X152933333Y-82636104D01*
X160583333Y-112886104D02*
X160550000Y-112924200D01*
X160550000Y-112924200D02*
X160450000Y-112962295D01*
X160450000Y-112962295D02*
X160383333Y-112962295D01*
X160383333Y-112962295D02*
X160283333Y-112924200D01*
X160283333Y-112924200D02*
X160216667Y-112848009D01*
X160216667Y-112848009D02*
X160183333Y-112771819D01*
X160183333Y-112771819D02*
X160150000Y-112619438D01*
X160150000Y-112619438D02*
X160150000Y-112505152D01*
X160150000Y-112505152D02*
X160183333Y-112352771D01*
X160183333Y-112352771D02*
X160216667Y-112276580D01*
X160216667Y-112276580D02*
X160283333Y-112200390D01*
X160283333Y-112200390D02*
X160383333Y-112162295D01*
X160383333Y-112162295D02*
X160450000Y-112162295D01*
X160450000Y-112162295D02*
X160550000Y-112200390D01*
X160550000Y-112200390D02*
X160583333Y-112238485D01*
X160816667Y-112162295D02*
X161283333Y-112162295D01*
X161283333Y-112162295D02*
X160983333Y-112962295D01*
X144583333Y-93512295D02*
X144350000Y-93131342D01*
X144183333Y-93512295D02*
X144183333Y-92712295D01*
X144183333Y-92712295D02*
X144450000Y-92712295D01*
X144450000Y-92712295D02*
X144516667Y-92750390D01*
X144516667Y-92750390D02*
X144550000Y-92788485D01*
X144550000Y-92788485D02*
X144583333Y-92864676D01*
X144583333Y-92864676D02*
X144583333Y-92978961D01*
X144583333Y-92978961D02*
X144550000Y-93055152D01*
X144550000Y-93055152D02*
X144516667Y-93093247D01*
X144516667Y-93093247D02*
X144450000Y-93131342D01*
X144450000Y-93131342D02*
X144183333Y-93131342D01*
X145183333Y-92712295D02*
X145050000Y-92712295D01*
X145050000Y-92712295D02*
X144983333Y-92750390D01*
X144983333Y-92750390D02*
X144950000Y-92788485D01*
X144950000Y-92788485D02*
X144883333Y-92902771D01*
X144883333Y-92902771D02*
X144850000Y-93055152D01*
X144850000Y-93055152D02*
X144850000Y-93359914D01*
X144850000Y-93359914D02*
X144883333Y-93436104D01*
X144883333Y-93436104D02*
X144916667Y-93474200D01*
X144916667Y-93474200D02*
X144983333Y-93512295D01*
X144983333Y-93512295D02*
X145116667Y-93512295D01*
X145116667Y-93512295D02*
X145183333Y-93474200D01*
X145183333Y-93474200D02*
X145216667Y-93436104D01*
X145216667Y-93436104D02*
X145250000Y-93359914D01*
X145250000Y-93359914D02*
X145250000Y-93169438D01*
X145250000Y-93169438D02*
X145216667Y-93093247D01*
X145216667Y-93093247D02*
X145183333Y-93055152D01*
X145183333Y-93055152D02*
X145116667Y-93017057D01*
X145116667Y-93017057D02*
X144983333Y-93017057D01*
X144983333Y-93017057D02*
X144916667Y-93055152D01*
X144916667Y-93055152D02*
X144883333Y-93093247D01*
X144883333Y-93093247D02*
X144850000Y-93169438D01*
X146083333Y-93512295D02*
X145850000Y-93131342D01*
X145683333Y-93512295D02*
X145683333Y-92712295D01*
X145683333Y-92712295D02*
X145950000Y-92712295D01*
X145950000Y-92712295D02*
X146016667Y-92750390D01*
X146016667Y-92750390D02*
X146050000Y-92788485D01*
X146050000Y-92788485D02*
X146083333Y-92864676D01*
X146083333Y-92864676D02*
X146083333Y-92978961D01*
X146083333Y-92978961D02*
X146050000Y-93055152D01*
X146050000Y-93055152D02*
X146016667Y-93093247D01*
X146016667Y-93093247D02*
X145950000Y-93131342D01*
X145950000Y-93131342D02*
X145683333Y-93131342D01*
X146316667Y-92712295D02*
X146783333Y-92712295D01*
X146783333Y-92712295D02*
X146483333Y-93512295D01*
X141136666Y-68112295D02*
X141136666Y-68683723D01*
X141136666Y-68683723D02*
X141103333Y-68798009D01*
X141103333Y-68798009D02*
X141036666Y-68874200D01*
X141036666Y-68874200D02*
X140936666Y-68912295D01*
X140936666Y-68912295D02*
X140870000Y-68912295D01*
X141436666Y-68188485D02*
X141469999Y-68150390D01*
X141469999Y-68150390D02*
X141536666Y-68112295D01*
X141536666Y-68112295D02*
X141703333Y-68112295D01*
X141703333Y-68112295D02*
X141769999Y-68150390D01*
X141769999Y-68150390D02*
X141803333Y-68188485D01*
X141803333Y-68188485D02*
X141836666Y-68264676D01*
X141836666Y-68264676D02*
X141836666Y-68340866D01*
X141836666Y-68340866D02*
X141803333Y-68455152D01*
X141803333Y-68455152D02*
X141403333Y-68912295D01*
X141403333Y-68912295D02*
X141836666Y-68912295D01*
X147933333Y-99162295D02*
X147933333Y-98362295D01*
X147933333Y-98362295D02*
X148100000Y-98362295D01*
X148100000Y-98362295D02*
X148200000Y-98400390D01*
X148200000Y-98400390D02*
X148266667Y-98476580D01*
X148266667Y-98476580D02*
X148300000Y-98552771D01*
X148300000Y-98552771D02*
X148333333Y-98705152D01*
X148333333Y-98705152D02*
X148333333Y-98819438D01*
X148333333Y-98819438D02*
X148300000Y-98971819D01*
X148300000Y-98971819D02*
X148266667Y-99048009D01*
X148266667Y-99048009D02*
X148200000Y-99124200D01*
X148200000Y-99124200D02*
X148100000Y-99162295D01*
X148100000Y-99162295D02*
X147933333Y-99162295D01*
X148600000Y-98438485D02*
X148633333Y-98400390D01*
X148633333Y-98400390D02*
X148700000Y-98362295D01*
X148700000Y-98362295D02*
X148866667Y-98362295D01*
X148866667Y-98362295D02*
X148933333Y-98400390D01*
X148933333Y-98400390D02*
X148966667Y-98438485D01*
X148966667Y-98438485D02*
X149000000Y-98514676D01*
X149000000Y-98514676D02*
X149000000Y-98590866D01*
X149000000Y-98590866D02*
X148966667Y-98705152D01*
X148966667Y-98705152D02*
X148566667Y-99162295D01*
X148566667Y-99162295D02*
X149000000Y-99162295D01*
X156666667Y-116112295D02*
X156333333Y-116112295D01*
X156333333Y-116112295D02*
X156333333Y-115312295D01*
X156900000Y-115693247D02*
X157133334Y-115693247D01*
X157233334Y-116112295D02*
X156900000Y-116112295D01*
X156900000Y-116112295D02*
X156900000Y-115312295D01*
X156900000Y-115312295D02*
X157233334Y-115312295D01*
X157533333Y-116112295D02*
X157533333Y-115312295D01*
X157533333Y-115312295D02*
X157700000Y-115312295D01*
X157700000Y-115312295D02*
X157800000Y-115350390D01*
X157800000Y-115350390D02*
X157866667Y-115426580D01*
X157866667Y-115426580D02*
X157900000Y-115502771D01*
X157900000Y-115502771D02*
X157933333Y-115655152D01*
X157933333Y-115655152D02*
X157933333Y-115769438D01*
X157933333Y-115769438D02*
X157900000Y-115921819D01*
X157900000Y-115921819D02*
X157866667Y-115998009D01*
X157866667Y-115998009D02*
X157800000Y-116074200D01*
X157800000Y-116074200D02*
X157700000Y-116112295D01*
X157700000Y-116112295D02*
X157533333Y-116112295D01*
X158600000Y-116112295D02*
X158200000Y-116112295D01*
X158400000Y-116112295D02*
X158400000Y-115312295D01*
X158400000Y-115312295D02*
X158333333Y-115426580D01*
X158333333Y-115426580D02*
X158266667Y-115502771D01*
X158266667Y-115502771D02*
X158200000Y-115540866D01*
X160333333Y-126762295D02*
X160100000Y-126381342D01*
X159933333Y-126762295D02*
X159933333Y-125962295D01*
X159933333Y-125962295D02*
X160200000Y-125962295D01*
X160200000Y-125962295D02*
X160266667Y-126000390D01*
X160266667Y-126000390D02*
X160300000Y-126038485D01*
X160300000Y-126038485D02*
X160333333Y-126114676D01*
X160333333Y-126114676D02*
X160333333Y-126228961D01*
X160333333Y-126228961D02*
X160300000Y-126305152D01*
X160300000Y-126305152D02*
X160266667Y-126343247D01*
X160266667Y-126343247D02*
X160200000Y-126381342D01*
X160200000Y-126381342D02*
X159933333Y-126381342D01*
X160600000Y-126038485D02*
X160633333Y-126000390D01*
X160633333Y-126000390D02*
X160700000Y-125962295D01*
X160700000Y-125962295D02*
X160866667Y-125962295D01*
X160866667Y-125962295D02*
X160933333Y-126000390D01*
X160933333Y-126000390D02*
X160966667Y-126038485D01*
X160966667Y-126038485D02*
X161000000Y-126114676D01*
X161000000Y-126114676D02*
X161000000Y-126190866D01*
X161000000Y-126190866D02*
X160966667Y-126305152D01*
X160966667Y-126305152D02*
X160566667Y-126762295D01*
X160566667Y-126762295D02*
X161000000Y-126762295D01*
X148483333Y-93336104D02*
X148450000Y-93374200D01*
X148450000Y-93374200D02*
X148350000Y-93412295D01*
X148350000Y-93412295D02*
X148283333Y-93412295D01*
X148283333Y-93412295D02*
X148183333Y-93374200D01*
X148183333Y-93374200D02*
X148116667Y-93298009D01*
X148116667Y-93298009D02*
X148083333Y-93221819D01*
X148083333Y-93221819D02*
X148050000Y-93069438D01*
X148050000Y-93069438D02*
X148050000Y-92955152D01*
X148050000Y-92955152D02*
X148083333Y-92802771D01*
X148083333Y-92802771D02*
X148116667Y-92726580D01*
X148116667Y-92726580D02*
X148183333Y-92650390D01*
X148183333Y-92650390D02*
X148283333Y-92612295D01*
X148283333Y-92612295D02*
X148350000Y-92612295D01*
X148350000Y-92612295D02*
X148450000Y-92650390D01*
X148450000Y-92650390D02*
X148483333Y-92688485D01*
X149083333Y-92878961D02*
X149083333Y-93412295D01*
X148916667Y-92574200D02*
X148750000Y-93145628D01*
X148750000Y-93145628D02*
X149183333Y-93145628D01*
%TO.C,U2*%
D11*
X151507500Y-96905400D02*
X151507500Y-103382400D01*
X151507500Y-103382400D02*
X154428500Y-103382400D01*
X151885960Y-96905400D02*
X151507500Y-96905400D01*
X152269500Y-103865000D02*
X152269500Y-104937401D01*
X153158500Y-103865000D02*
X153158500Y-104937401D01*
X154428500Y-103382400D02*
X154428500Y-104398400D01*
X154428500Y-104398400D02*
X155571500Y-104398400D01*
X155571500Y-103382400D02*
X158492500Y-103382400D01*
X155571500Y-104398400D02*
X155571500Y-103382400D01*
X156841500Y-103865000D02*
X156841500Y-104937401D01*
X157730500Y-103865000D02*
X157730500Y-104937401D01*
X158492500Y-96905400D02*
X158114040Y-96905400D01*
X158492500Y-103382400D02*
X158492500Y-96905400D01*
D12*
%TO.C,SW1*%
D11*
X144681420Y-110905858D02*
X144681420Y-113846752D01*
X145996561Y-114802005D02*
X146820679Y-114802005D01*
X146820679Y-109950605D02*
X145996561Y-109950605D01*
X148135820Y-113846752D02*
X148135820Y-110905858D01*
%TO.C,R8*%
D13*
X155227500Y-111487258D02*
X155227500Y-111012742D01*
X156272500Y-111487258D02*
X156272500Y-111012742D01*
%TO.C,C8*%
X160967369Y-116268896D02*
X160967369Y-116550056D01*
X161987369Y-116268896D02*
X161987369Y-116550056D01*
%TO.C,R10*%
X159977500Y-110737258D02*
X159977500Y-110262742D01*
X161022500Y-110737258D02*
X161022500Y-110262742D01*
%TO.C,R1*%
X146483715Y-125560646D02*
X146483715Y-126035162D01*
X147528715Y-125560646D02*
X147528715Y-126035162D01*
%TO.C,R3*%
X149477500Y-96512742D02*
X149477500Y-96987258D01*
X150522500Y-96512742D02*
X150522500Y-96987258D01*
%TO.C,SW2*%
D11*
X144697801Y-116704553D02*
X144697801Y-119645447D01*
X146012942Y-120600700D02*
X146837060Y-120600700D01*
X146837060Y-115749300D02*
X146012942Y-115749300D01*
X148152201Y-119645447D02*
X148152201Y-116704553D01*
%TO.C,C1*%
D13*
X158490000Y-106859420D02*
X158490000Y-107140580D01*
X159510000Y-106859420D02*
X159510000Y-107140580D01*
%TO.C,C2*%
X159738748Y-103765000D02*
X160261252Y-103765000D01*
X159738748Y-105235000D02*
X160261252Y-105235000D01*
%TO.C,R4*%
X150987258Y-90977500D02*
X150512742Y-90977500D01*
X150987258Y-92022500D02*
X150512742Y-92022500D01*
%TO.C,J1*%
D14*
X149780000Y-122012500D02*
X149780000Y-123262500D01*
X158720000Y-122012500D02*
X158720000Y-123262500D01*
X151100000Y-118662500D02*
G75*
G02*
X150900000Y-118662500I-100000J0D01*
G01*
X150900000Y-118662500D02*
G75*
G02*
X151100000Y-118662500I100000J0D01*
G01*
%TO.C,R9*%
D13*
X148969603Y-113519645D02*
X148969603Y-113994161D01*
X150014603Y-113519645D02*
X150014603Y-113994161D01*
%TO.C,U3*%
X143600000Y-68325000D02*
X143100000Y-68325000D01*
X143600000Y-67825000D01*
X143600000Y-68325000D01*
G36*
X143600000Y-68325000D02*
G01*
X143100000Y-68325000D01*
X143600000Y-67825000D01*
X143600000Y-68325000D01*
G37*
%TO.C,C7*%
X160609420Y-113240000D02*
X160890580Y-113240000D01*
X160609420Y-114260000D02*
X160890580Y-114260000D01*
%TO.C,R6*%
X144227500Y-90862742D02*
X144227500Y-91337258D01*
X145272500Y-90862742D02*
X145272500Y-91337258D01*
%TO.C,R7*%
X145727500Y-90862742D02*
X145727500Y-91337258D01*
X146772500Y-90862742D02*
X146772500Y-91337258D01*
%TO.C,D2*%
X147706112Y-95251878D02*
X147706112Y-97536878D01*
X149176112Y-95251878D02*
X147706112Y-95251878D01*
X149176112Y-97536878D02*
X149176112Y-95251878D01*
%TO.C,R2*%
X159977500Y-123262742D02*
X159977500Y-123737258D01*
X161022500Y-123262742D02*
X161022500Y-123737258D01*
%TO.C,C4*%
X150929442Y-92505229D02*
X150648282Y-92505229D01*
X150929442Y-93525229D02*
X150648282Y-93525229D01*
%TD*%
%LPC*%
D15*
%TO.C,J1*%
X150700000Y-119282500D02*
X151400000Y-119282500D01*
X151400000Y-120532500D01*
X150700000Y-120532500D01*
X150700000Y-119282500D01*
G36*
X151400000Y-120532500D02*
G01*
X150700000Y-120532500D01*
X150700000Y-119282500D01*
X151400000Y-119282500D01*
X151400000Y-120532500D01*
G37*
X151500000Y-119282500D02*
X152200000Y-119282500D01*
X152200000Y-120532500D01*
X151500000Y-120532500D01*
X151500000Y-119282500D01*
G36*
X152200000Y-120532500D02*
G01*
X151500000Y-120532500D01*
X151500000Y-119282500D01*
X152200000Y-119282500D01*
X152200000Y-120532500D01*
G37*
X152300000Y-119282500D02*
X152700000Y-119282500D01*
X152700000Y-120532500D01*
X152300000Y-120532500D01*
X152300000Y-119282500D01*
G36*
X152700000Y-120532500D02*
G01*
X152300000Y-120532500D01*
X152300000Y-119282500D01*
X152700000Y-119282500D01*
X152700000Y-120532500D01*
G37*
X152800000Y-119282500D02*
X153200000Y-119282500D01*
X153200000Y-120532500D01*
X152800000Y-120532500D01*
X152800000Y-119282500D01*
G36*
X153200000Y-120532500D02*
G01*
X152800000Y-120532500D01*
X152800000Y-119282500D01*
X153200000Y-119282500D01*
X153200000Y-120532500D01*
G37*
X153300000Y-119282500D02*
X153700000Y-119282500D01*
X153700000Y-120532500D01*
X153300000Y-120532500D01*
X153300000Y-119282500D01*
G36*
X153700000Y-120532500D02*
G01*
X153300000Y-120532500D01*
X153300000Y-119282500D01*
X153700000Y-119282500D01*
X153700000Y-120532500D01*
G37*
X153800000Y-119282500D02*
X154200000Y-119282500D01*
X154200000Y-120532500D01*
X153800000Y-120532500D01*
X153800000Y-119282500D01*
G36*
X154200000Y-120532500D02*
G01*
X153800000Y-120532500D01*
X153800000Y-119282500D01*
X154200000Y-119282500D01*
X154200000Y-120532500D01*
G37*
X154300000Y-119282500D02*
X154700000Y-119282500D01*
X154700000Y-120532500D01*
X154300000Y-120532500D01*
X154300000Y-119282500D01*
G36*
X154700000Y-120532500D02*
G01*
X154300000Y-120532500D01*
X154300000Y-119282500D01*
X154700000Y-119282500D01*
X154700000Y-120532500D01*
G37*
X154800000Y-119282500D02*
X155200000Y-119282500D01*
X155200000Y-120532500D01*
X154800000Y-120532500D01*
X154800000Y-119282500D01*
G36*
X155200000Y-120532500D02*
G01*
X154800000Y-120532500D01*
X154800000Y-119282500D01*
X155200000Y-119282500D01*
X155200000Y-120532500D01*
G37*
X155300000Y-119282500D02*
X155700000Y-119282500D01*
X155700000Y-120532500D01*
X155300000Y-120532500D01*
X155300000Y-119282500D01*
G36*
X155700000Y-120532500D02*
G01*
X155300000Y-120532500D01*
X155300000Y-119282500D01*
X155700000Y-119282500D01*
X155700000Y-120532500D01*
G37*
X155800000Y-119282500D02*
X156200000Y-119282500D01*
X156200000Y-120532500D01*
X155800000Y-120532500D01*
X155800000Y-119282500D01*
G36*
X156200000Y-120532500D02*
G01*
X155800000Y-120532500D01*
X155800000Y-119282500D01*
X156200000Y-119282500D01*
X156200000Y-120532500D01*
G37*
X156300000Y-119282500D02*
X157000000Y-119282500D01*
X157000000Y-120532500D01*
X156300000Y-120532500D01*
X156300000Y-119282500D01*
G36*
X157000000Y-120532500D02*
G01*
X156300000Y-120532500D01*
X156300000Y-119282500D01*
X157000000Y-119282500D01*
X157000000Y-120532500D01*
G37*
X157100000Y-119282500D02*
X157800000Y-119282500D01*
X157800000Y-120532500D01*
X157100000Y-120532500D01*
X157100000Y-119282500D01*
G36*
X157800000Y-120532500D02*
G01*
X157100000Y-120532500D01*
X157100000Y-119282500D01*
X157800000Y-119282500D01*
X157800000Y-120532500D01*
G37*
%TD*%
D16*
%TO.C,U2*%
X152714000Y-106532000D03*
D17*
X155000000Y-98378600D03*
D16*
X157286000Y-106532000D03*
%TD*%
D18*
%TO.C,TP4*%
X149487084Y-116770201D03*
%TD*%
D19*
%TO.C,U4*%
X159200000Y-109700000D03*
X158250000Y-109700000D03*
X157300000Y-109700000D03*
X157300000Y-112300000D03*
X159200000Y-112300000D03*
%TD*%
D20*
%TO.C,SW1*%
X147483619Y-110301305D03*
X147483619Y-114451305D03*
X145333621Y-110301305D03*
X145333621Y-114451305D03*
%TD*%
D21*
%TO.C,R8*%
X155750000Y-112075000D03*
X155750000Y-110425000D03*
%TD*%
D22*
%TO.C,C3*%
X153460000Y-93000000D03*
X156540000Y-93000000D03*
%TD*%
D23*
%TO.C,C8*%
X161477369Y-115634476D03*
X161477369Y-117184476D03*
%TD*%
D24*
%TO.C,D1*%
X148500000Y-122340000D03*
X148500000Y-123660000D03*
%TD*%
D21*
%TO.C,R10*%
X160500000Y-111325000D03*
X160500000Y-109675000D03*
%TD*%
D25*
%TO.C,R1*%
X147006215Y-124972904D03*
X147006215Y-126622904D03*
%TD*%
D26*
%TO.C,J3*%
X164230000Y-70930000D03*
D27*
X164230000Y-73470000D03*
X164230000Y-76010000D03*
X164230000Y-78550000D03*
X164230000Y-81090000D03*
X164230000Y-83630000D03*
X164230000Y-86170000D03*
X164230000Y-88710000D03*
X164230000Y-91250000D03*
X164230000Y-93790000D03*
X164230000Y-96330000D03*
X164230000Y-98870000D03*
X164230000Y-101410000D03*
X164230000Y-103950000D03*
X164230000Y-106490000D03*
X164230000Y-109030000D03*
X164230000Y-111570000D03*
X164230000Y-114110000D03*
X164230000Y-116650000D03*
X164230000Y-119190000D03*
X164230000Y-121730000D03*
X164230000Y-124270000D03*
%TD*%
D25*
%TO.C,R3*%
X150000000Y-95925000D03*
X150000000Y-97575000D03*
%TD*%
D28*
%TO.C,TP1*%
X144750000Y-122750000D03*
%TD*%
D20*
%TO.C,SW2*%
X147500000Y-116100000D03*
X147500000Y-120250000D03*
X145350002Y-116100000D03*
X145350002Y-120250000D03*
%TD*%
D23*
%TO.C,C1*%
X159000000Y-106225000D03*
X159000000Y-107775000D03*
%TD*%
D29*
%TO.C,C2*%
X159050000Y-104500000D03*
X160950000Y-104500000D03*
%TD*%
D28*
%TO.C,TP3*%
X159625000Y-93875000D03*
%TD*%
D30*
%TO.C,R4*%
X151575000Y-91499999D03*
X149925000Y-91500001D03*
%TD*%
D31*
%TO.C,J1*%
X151360000Y-120982500D03*
X157140000Y-120982500D03*
D32*
X149930000Y-120482500D03*
X158570000Y-120482500D03*
D33*
X149930000Y-124662500D03*
X158570000Y-124662500D03*
%TD*%
D25*
%TO.C,R9*%
X149492103Y-112931903D03*
X149492103Y-114581903D03*
%TD*%
D34*
%TO.C,U1*%
X154700001Y-117949998D03*
X154200002Y-118200000D03*
X155200000Y-118200000D03*
%TD*%
D35*
%TO.C,U3*%
X144050000Y-69090000D03*
X144050000Y-70360000D03*
X144050000Y-71630000D03*
X144050000Y-72900000D03*
X144050000Y-74170000D03*
X144050000Y-75440000D03*
X144050000Y-76710000D03*
X144050000Y-77980000D03*
X144050000Y-79250000D03*
X144050000Y-80520000D03*
X144050000Y-81790000D03*
X144050000Y-83060000D03*
X144050000Y-84330000D03*
X144050000Y-85600000D03*
D36*
X145815000Y-86850000D03*
X147085000Y-86850000D03*
X148355000Y-86850000D03*
X149625000Y-86850000D03*
X150895000Y-86850000D03*
X152165000Y-86850000D03*
X153435000Y-86850000D03*
X154705000Y-86850000D03*
X155975000Y-86850000D03*
X157245000Y-86850000D03*
X158515000Y-86850000D03*
X159785000Y-86850000D03*
D35*
X161550000Y-85600000D03*
X161550000Y-84330000D03*
X161550000Y-83060000D03*
X161550000Y-81790000D03*
X161550000Y-80520000D03*
X161550000Y-79250000D03*
X161550000Y-77980000D03*
X161550000Y-76710000D03*
X161550000Y-75440000D03*
X161550000Y-74170000D03*
X161550000Y-72900000D03*
X161550000Y-71630000D03*
X161550000Y-70360000D03*
X161550000Y-69090000D03*
D37*
X149900000Y-76110000D03*
X149900000Y-77510000D03*
X150600000Y-75410000D03*
X150600000Y-76810000D03*
X150600000Y-78210000D03*
X151300000Y-76110000D03*
D38*
X151300000Y-76810000D03*
D37*
X151300000Y-77510000D03*
X152000000Y-75410000D03*
X152000000Y-76810000D03*
X152000000Y-78210000D03*
X152700000Y-76110000D03*
X152700000Y-77510000D03*
%TD*%
D39*
%TO.C,C7*%
X159975000Y-113750000D03*
X161525000Y-113750000D03*
%TD*%
D25*
%TO.C,R6*%
X144750000Y-90275000D03*
X144750000Y-91925000D03*
%TD*%
%TO.C,R7*%
X146250000Y-90275000D03*
X146250000Y-91925000D03*
%TD*%
D26*
%TO.C,J2*%
X141370000Y-70930000D03*
D27*
X141370000Y-73470000D03*
X141370000Y-76010000D03*
X141370000Y-78550000D03*
X141370000Y-81090000D03*
X141370000Y-83630000D03*
X141370000Y-86170000D03*
X141370000Y-88710000D03*
X141370000Y-91250000D03*
X141370000Y-93790000D03*
X141370000Y-96330000D03*
X141370000Y-98870000D03*
X141370000Y-101410000D03*
X141370000Y-103950000D03*
X141370000Y-106490000D03*
X141370000Y-109030000D03*
X141370000Y-111570000D03*
X141370000Y-114110000D03*
X141370000Y-116650000D03*
X141370000Y-119190000D03*
X141370000Y-121730000D03*
X141370000Y-124270000D03*
%TD*%
D18*
%TO.C,TP5*%
X149450000Y-110800000D03*
%TD*%
D28*
%TO.C,TP2*%
X159000000Y-90750000D03*
%TD*%
D40*
%TO.C,D2*%
X148441112Y-95949378D03*
X148441112Y-97524378D03*
%TD*%
D41*
%TO.C,LED1*%
X158240000Y-114500000D03*
X158240000Y-113500000D03*
X156500000Y-113500000D03*
X156500000Y-114500000D03*
%TD*%
D25*
%TO.C,R2*%
X160500000Y-122675000D03*
X160500000Y-124325000D03*
%TD*%
D42*
%TO.C,C4*%
X151563862Y-93015229D03*
X150013862Y-93015229D03*
%TD*%
%LPD*%
M02*
