%TF.GenerationSoftware,KiCad,Pcbnew,10.0.4*%
%TF.CreationDate,2026-09-08T14:40:06-04:00*%
%TF.ProjectId,ESP32S3_RF_DevBoard,45535033-3253-4335-9f52-465f44657642,rev?*%
%TF.SameCoordinates,Original*%
%TF.FileFunction,Soldermask,Bot*%
%TF.FilePolarity,Negative*%
%FSLAX46Y46*%
G04 Gerber Fmt 4.6, Leading zero omitted, Abs format (unit mm)*
G04 Created by KiCad (PCBNEW 10.0.4) date 2026-09-08 14:40:06*
%MOMM*%
%LPD*%
G01*
G04 APERTURE LIST*
G04 Aperture macros list*
%AMRoundRect*
0 Rectangle with rounded corners*
0 $1 Rounding radius*
0 $2 $3 $4 $5 $6 $7 $8 $9 X,Y pos of 4 corners*
0 Add a 4 corners polygon primitive as box body*
4,1,4,$2,$3,$4,$5,$6,$7,$8,$9,$2,$3,0*
0 Add four circle primitives for the rounded corners*
1,1,$1+$1,$2,$3*
1,1,$1+$1,$4,$5*
1,1,$1+$1,$6,$7*
1,1,$1+$1,$8,$9*
0 Add four rect primitives between the rounded corners*
20,1,$1+$1,$2,$3,$4,$5,0*
20,1,$1+$1,$4,$5,$6,$7,0*
20,1,$1+$1,$6,$7,$8,$9,0*
20,1,$1+$1,$8,$9,$2,$3,0*%
G04 Aperture macros list end*
%ADD10R,1.700000X1.700000*%
%ADD11C,1.700000*%
%ADD12C,0.650000*%
%ADD13O,1.204000X2.304000*%
%ADD14O,1.204000X2.004000*%
%ADD15RoundRect,0.250000X-0.475000X0.250000X-0.475000X-0.250000X0.475000X-0.250000X0.475000X0.250000X0*%
%ADD16RoundRect,0.200000X-0.275000X0.200000X-0.275000X-0.200000X0.275000X-0.200000X0.275000X0.200000X0*%
%ADD17RoundRect,0.225000X-0.225000X-0.250000X0.225000X-0.250000X0.225000X0.250000X-0.225000X0.250000X0*%
G04 APERTURE END LIST*
D10*
%TO.C,J3*%
X164230000Y-70930000D03*
D11*
X164230000Y-73470000D03*
X164230000Y-76010000D03*
X164230000Y-78550000D03*
X164230000Y-81090000D03*
X164230000Y-83630000D03*
X164230000Y-86170000D03*
X164230000Y-88710000D03*
X164230000Y-91250000D03*
X164230000Y-93790000D03*
X164230000Y-96330000D03*
X164230000Y-98870000D03*
X164230000Y-101410000D03*
X164230000Y-103950000D03*
X164230000Y-106490000D03*
X164230000Y-109030000D03*
X164230000Y-111570000D03*
X164230000Y-114110000D03*
X164230000Y-116650000D03*
X164230000Y-119190000D03*
X164230000Y-121730000D03*
X164230000Y-124270000D03*
%TD*%
D12*
%TO.C,J1*%
X151360000Y-120982500D03*
X157140000Y-120982500D03*
D13*
X149930000Y-120482500D03*
X158570000Y-120482500D03*
D14*
X149930000Y-124662500D03*
X158570000Y-124662500D03*
%TD*%
D10*
%TO.C,J2*%
X141370000Y-70930000D03*
D11*
X141370000Y-73470000D03*
X141370000Y-76010000D03*
X141370000Y-78550000D03*
X141370000Y-81090000D03*
X141370000Y-83630000D03*
X141370000Y-86170000D03*
X141370000Y-88710000D03*
X141370000Y-91250000D03*
X141370000Y-93790000D03*
X141370000Y-96330000D03*
X141370000Y-98870000D03*
X141370000Y-101410000D03*
X141370000Y-103950000D03*
X141370000Y-106490000D03*
X141370000Y-109030000D03*
X141370000Y-111570000D03*
X141370000Y-114110000D03*
X141370000Y-116650000D03*
X141370000Y-119190000D03*
X141370000Y-121730000D03*
X141370000Y-124270000D03*
%TD*%
D15*
%TO.C,C6*%
X146250000Y-75816228D03*
X146250000Y-77716228D03*
%TD*%
D16*
%TO.C,R5*%
X146500000Y-72399695D03*
X146500000Y-74049695D03*
%TD*%
D17*
%TO.C,C5*%
X149225000Y-70750000D03*
X150775000Y-70750000D03*
%TD*%
M02*
